<svg width="512" height="323" viewBox="0 0 512 323" fill="none" xmlns="http://www.w3.org/2000/svg">
<path d="M410.682 322.696C465.901 322.696 510.665 322.306 510.665 321.824C510.665 321.343 465.901 320.953 410.682 320.953C355.463 320.953 310.698 321.343 310.698 321.824C310.698 322.306 355.463 322.696 410.682 322.696Z" fill="black" stroke="black" stroke-width="0.222005" stroke-miterlimit="10"/>
<path d="M256 232C396.833 232 511 231.552 511 231C511 230.448 396.833 230 256 230C115.167 230 1 230.448 1 231C1 231.552 115.167 232 256 232Z" fill="black" stroke="black" stroke-width="0.222005" stroke-miterlimit="10"/>
<path d="M212 319.503C212 319.779 165.885 320 109.007 320C52.1284 320 6 319.779 6 319.503C6 319.227 52.1153 319 109.007 319C165.898 319 212 319.227 212 319.503Z" fill="black" stroke="black" stroke-width="0.222005" stroke-miterlimit="10"/>
<path d="M270.804 186.039C271.657 179.763 272.997 173.564 274.811 167.497C277.19 159.545 280.363 151.852 284.28 144.535C288.078 137.487 292.51 130.801 297.523 124.558C302.496 118.332 306.471 113.444 313.199 108.513C317.322 105.496 321.116 102.712 326.876 100.959C337.929 97.6009 347.632 100.629 351.48 101.894C361.874 105.294 368.24 111.574 372.895 116.175C376.464 119.698 379.652 123.587 382.407 127.778C387.513 127.297 392.664 127.758 397.604 129.138C402.17 130.323 406.467 132.371 410.262 135.173C415.14 138.829 417.701 142.739 420.496 147.01C427.2 157.181 430.74 169.109 430.667 181.289C430.667 183.956 430.465 190.299 426.714 203.231C422.601 217.406 419.636 227.606 411.516 238.678C406.319 245.644 400.048 251.741 392.939 256.742C375.499 269.057 357.973 271.14 344.635 272.68C330.654 274.324 316.5 273.747 302.698 270.97C288.053 268.271 281.198 264.679 276.66 261.608C271.276 258.238 266.709 253.712 263.291 248.358C258.799 240.996 256.684 232.43 257.233 223.824C257.562 218.404 259.082 214.26 262.121 205.845C264.594 199.066 267.494 192.45 270.804 186.039Z" fill="#2898A4"/>
<path d="M316.982 105.433C317.184 105.677 312.986 108.982 306.981 115.091L304.643 117.514C303.846 118.364 303.07 119.299 302.22 120.234C300.52 122.083 298.872 124.208 297.087 126.408C293.371 131.292 289.966 136.406 286.895 141.719C283.882 147.061 281.216 152.591 278.913 158.274C277.914 160.92 276.915 163.417 276.171 165.829C275.789 167.019 275.374 168.167 275.055 169.293C274.737 170.419 274.439 171.493 274.141 172.481C271.899 180.758 271.176 186.039 270.868 185.997C270.804 184.741 270.889 183.481 271.123 182.246C271.198 181.651 271.272 180.981 271.368 180.248C271.463 179.515 271.623 178.739 271.782 177.9C272.101 176.21 272.399 174.276 272.962 172.183C273.217 171.121 273.483 170.058 273.769 168.879C274.056 167.699 274.45 166.573 274.832 165.351C275.523 162.896 276.49 160.346 277.457 157.647C281.892 146.009 288.124 135.137 295.928 125.43C297.756 123.231 299.467 121.116 301.242 119.278C302.114 118.353 302.932 117.429 303.772 116.6L306.205 114.231C307.725 112.701 309.245 111.457 310.542 110.331C311.19 109.768 311.796 109.268 312.359 108.78L313.964 107.558C314.881 106.731 315.895 106.018 316.982 105.433Z" fill="black" stroke="black" stroke-width="0.222005" stroke-miterlimit="10"/>
<path d="M382.396 127.746C382.162 127.916 379.665 124.346 374.957 119.246C372.201 116.254 369.204 113.493 365.997 110.99C362.102 107.926 357.812 105.4 353.244 103.477C348.665 101.613 343.803 100.535 338.865 100.29C334.832 100.091 330.793 100.532 326.898 101.597C324.265 102.313 321.728 103.344 319.342 104.667C318.494 105.236 317.59 105.713 316.642 106.091C317.303 105.291 318.098 104.612 318.991 104.083C321.318 102.501 323.864 101.266 326.547 100.417C330.546 99.1431 334.734 98.561 338.929 98.6958C344.07 98.8626 349.14 99.942 353.903 101.884C358.62 103.867 363.029 106.515 366.996 109.747C370.219 112.361 373.19 115.271 375.871 118.438C377.683 120.558 379.368 122.783 380.919 125.101C381.544 125.902 382.042 126.794 382.396 127.746Z" fill="black" stroke="black" stroke-width="0.222005" stroke-miterlimit="10"/>
<path d="M370.142 137.469C370.206 137.989 362.82 138.839 354.636 142.58C346.453 146.32 340.873 151.218 340.523 150.814C340.374 150.655 341.585 149.199 343.881 147.244C350.02 142.196 357.394 138.873 365.243 137.617C368.24 137.16 370.121 137.235 370.142 137.469Z" fill="black" stroke="black" stroke-width="0.222005" stroke-miterlimit="10"/>
<path d="M418.913 224.355C419.323 222.678 419.867 221.036 420.539 219.446C421.665 216.322 423.377 211.816 425.151 206.174C427.323 199.617 428.805 192.85 429.573 185.985C430.492 177.599 429.44 169.114 426.501 161.206C424.963 157.118 423.093 153.163 420.911 149.38C418.95 145.833 416.582 142.527 413.854 139.53C412.587 138.15 411.204 136.88 409.72 135.736C409.018 135.152 408.243 134.674 407.531 134.174C406.819 133.675 406.032 133.261 405.288 132.846C402.477 131.345 399.479 130.227 396.371 129.52C393.8 128.942 391.175 128.635 388.539 128.607C386.542 128.613 384.548 128.776 382.577 129.095C379.388 129.637 377.592 130.285 377.539 130.158C377.907 129.896 378.317 129.698 378.751 129.573C379.253 129.365 379.768 129.188 380.292 129.042C380.919 128.862 381.62 128.617 382.417 128.458C384.416 128.016 386.451 127.753 388.496 127.671C391.213 127.599 393.929 127.827 396.595 128.352C399.841 129.002 402.981 130.1 405.926 131.614C409.308 133.373 412.369 135.69 414.981 138.467C417.832 141.527 420.308 144.916 422.356 148.562C424.601 152.423 426.52 156.464 428.095 160.643C431.124 168.78 432.163 177.524 431.124 186.145C430.287 193.099 428.676 199.938 426.32 206.535C424.376 212.178 422.484 216.619 421.166 219.669C420.564 221.298 419.809 222.867 418.913 224.355Z" fill="black" stroke="black" stroke-width="0.222005" stroke-miterlimit="10"/>
<path d="M409.263 241.133C408.939 241.777 408.539 242.38 408.073 242.929C407.223 244.066 405.947 245.692 404.109 247.679C395.293 257.152 384.122 264.118 371.736 267.868C366.306 269.536 360.407 270.79 354.19 272.033C347.666 273.359 341.057 274.226 334.412 274.626C320.082 275.381 305.736 273.49 292.092 269.047C288.787 267.985 285.609 266.763 282.527 265.477C279.487 264.22 276.564 262.698 273.791 260.929C271.127 259.211 268.737 257.101 266.702 254.671C264.798 252.389 263.168 249.893 261.845 247.233C259.419 242.538 257.826 237.458 257.137 232.219C256.529 227.895 256.564 223.505 257.243 219.191C257.775 215.948 258.696 212.78 259.985 209.756C260.453 208.662 260.985 207.598 261.58 206.568C261.988 205.796 262.446 205.05 262.951 204.337C263.327 203.718 263.773 203.144 264.279 202.626C264.449 202.732 262.589 205.091 260.602 210.064C259.455 213.071 258.65 216.196 258.2 219.383C257.627 223.584 257.662 227.847 258.306 232.038C259.07 237.131 260.702 242.054 263.131 246.595C265.751 251.872 269.736 256.352 274.673 259.569C277.376 261.268 280.22 262.729 283.175 263.936C286.204 265.179 289.339 266.391 292.602 267.411C306.062 271.742 320.194 273.603 334.316 272.904C340.876 272.529 347.402 271.705 353.85 270.439C360.035 269.249 365.923 268.048 371.279 266.476C376.245 265.026 381.046 263.064 385.606 260.621C392.225 257.061 398.281 252.543 403.577 247.211C405.458 245.32 406.829 243.769 407.764 242.717C408.211 242.141 408.713 241.611 409.263 241.133Z" fill="black" stroke="black" stroke-width="0.222005" stroke-miterlimit="10"/>
<path d="M381.259 189.705C381.259 190.023 377.114 189.705 370.535 190.363L367.964 190.661C367.071 190.767 366.146 190.958 365.19 191.118C363.277 191.383 361.268 191.904 359.142 192.393C349.963 194.742 341.295 198.762 333.572 204.251C331.829 205.558 330.139 206.759 328.694 208.045C327.95 208.671 327.206 209.256 326.568 209.862L324.687 211.647C319.947 216.248 317.513 219.595 317.248 219.403C317.619 218.498 318.128 217.656 318.757 216.906L319.65 215.621C319.99 215.174 320.394 214.696 320.819 214.186C321.68 213.124 322.615 211.955 323.805 210.786L325.644 208.884C326.292 208.236 327.025 207.63 327.769 206.961C329.215 205.59 330.904 204.326 332.658 202.955C336.57 200.118 340.736 197.649 345.103 195.581C349.504 193.576 354.083 191.989 358.781 190.842C360.96 190.395 363.032 189.917 364.988 189.694C365.976 189.566 366.911 189.407 367.825 189.333L370.461 189.152C371.968 189.044 373.479 189.012 374.988 189.056C375.658 189.056 376.274 189.056 376.848 189.056L378.4 189.195C379.373 189.219 380.337 189.391 381.259 189.705Z" fill="black" stroke="black" stroke-width="0.222005" stroke-miterlimit="10"/>
<path d="M125.65 168.953C123.377 165.625 121.467 162.063 119.954 158.327C118.115 153.801 115.256 146.724 117.881 144.333C118.421 143.945 119.04 143.679 119.693 143.554C120.347 143.429 121.02 143.448 121.665 143.611C121.119 141.257 120.883 138.842 120.963 136.428C121.097 134.075 121.489 131.745 122.132 129.478C122.898 126.291 123.408 125.43 124.258 125.026C124.773 124.832 125.324 124.749 125.874 124.784C126.424 124.819 126.96 124.97 127.446 125.228C127.302 123.077 127.302 120.919 127.446 118.768C127.755 113.593 128.095 107.898 131.899 103.307C133.207 101.745 135.513 98.9614 137.989 99.2376C141.443 99.6308 144.366 105.879 144.982 115.176C145.628 113.765 146.759 112.634 148.17 111.988C149.279 111.505 150.503 111.346 151.699 111.532C151.382 108.383 151.447 105.208 151.89 102.075C152.278 98.9705 153.164 95.9493 154.515 93.1279C155.886 90.3546 156.885 88.3251 158.862 87.9425C160.839 87.56 163.113 89.2495 164.176 90.8115C165.876 93.2235 165.526 96.0393 165.334 98.1644C164.899 103.169 165.791 108.206 165.568 113.221C165.283 119.879 165.432 126.548 166.015 133.187C166.355 131.062 167.63 129.489 169.022 129.319C171.148 129.085 172.582 132.029 172.912 132.666C174.294 135.418 173.773 138.106 173.454 140.433C172.875 144.799 172.793 149.215 173.21 153.599C173.985 153.195 175.877 152.324 177.014 153.121C178.151 153.917 177.928 155.979 177.811 157.233C177.471 161.386 177.506 165.561 177.918 169.707L183.869 171.556C183.317 179.384 182.732 187.261 182.116 195.188C181.287 205.87 180.419 216.467 179.512 226.98C177.399 227.996 175.214 228.855 172.976 229.551C168.045 231.048 162.909 231.765 157.757 231.676C149.528 231.645 141.37 230.152 133.664 227.267C131.846 217.703 130.178 207.652 128.754 197.1C127.478 187.41 126.415 177.963 125.65 168.953Z" fill="white"/>
<path d="M133.653 227.257C133.43 227.257 132.59 224.069 131.527 218.884C130.465 213.698 129.168 206.398 128.063 198.344C126.958 190.29 126.235 182.948 125.863 177.624C125.491 172.301 125.438 169.007 125.672 168.985C125.905 168.964 126.394 172.226 127.085 177.486C127.776 182.746 128.722 190.046 129.785 198.079C130.847 206.112 131.974 213.38 132.739 218.65C133.504 223.92 133.855 227.204 133.653 227.257Z" fill="black" stroke="black" stroke-width="0.222005" stroke-miterlimit="10"/>
<path d="M179.671 168.91C179.767 169.08 177.365 170.664 172.965 172.098C170.38 172.87 167.735 173.425 165.058 173.756C161.789 174.147 158.497 174.3 155.206 174.213C151.72 174.138 148.415 173.873 145.418 173.564C142.421 173.256 139.753 172.938 137.468 172.566C135.64 172.307 133.873 171.724 132.25 170.844C131.113 170.175 130.656 169.601 130.72 169.527C130.783 169.452 131.389 169.792 132.548 170.239C134.19 170.838 135.906 171.214 137.649 171.354C139.86 171.567 142.58 171.737 145.556 171.971C148.532 172.204 151.816 172.406 155.249 172.481C158.465 172.567 161.684 172.464 164.888 172.173C167.495 171.92 170.082 171.501 172.636 170.919C176.982 169.824 179.554 168.655 179.671 168.91Z" fill="black" stroke="black" stroke-width="0.222005" stroke-miterlimit="10"/>
<path d="M180.213 220.881C179.735 220.881 180.213 209.778 181.18 196.166C182.148 182.555 183.391 171.546 183.869 171.578C184.348 171.61 183.869 182.682 182.902 196.294C181.935 209.905 180.692 220.913 180.213 220.881Z" fill="black" stroke="black" stroke-width="0.222005" stroke-miterlimit="10"/>
<path d="M177.61 227.362C177.61 227.362 177.896 227.458 177.79 227.862C177.694 228.089 177.549 228.293 177.366 228.459C177.182 228.624 176.964 228.747 176.727 228.818C175.255 229.421 173.751 229.943 172.221 230.38C167.151 231.814 161.91 232.551 156.641 232.569C153.741 232.585 150.843 232.4 147.969 232.016C145.628 231.688 143.31 231.213 141.029 230.593C137.139 229.53 134.875 228.467 134.95 228.244C135.098 227.702 144.515 231.007 156.63 230.837C161.77 230.792 166.892 230.24 171.924 229.19C173.869 228.797 175.42 228.404 176.515 228.127C176.882 228.093 177.226 227.936 177.493 227.681C177.62 227.564 177.556 227.405 177.61 227.362Z" fill="black" stroke="black" stroke-width="0.222005" stroke-miterlimit="10"/>
<path d="M127.372 125.197C127.287 125.282 126.894 124.634 125.82 124.729C125.514 124.756 125.216 124.845 124.945 124.991C124.675 125.137 124.437 125.338 124.247 125.579C123.718 126.298 123.355 127.126 123.185 128.002C122.561 130.406 122.096 132.848 121.792 135.313C121.63 136.766 121.602 138.232 121.707 139.69C121.707 140.062 121.782 140.445 121.846 140.827L121.941 141.401C121.967 141.556 122.002 141.708 122.047 141.858L122.186 142.4C122.366 143.122 122.568 143.834 122.791 144.525L122.866 144.791L122.919 144.971C122.919 144.971 122.866 144.886 122.919 144.971V145.078L122.983 145.386V145.556L123.046 145.821L123.259 146.682L121.994 145.322L121.484 144.78L121.229 144.504L121.102 144.366L121.038 144.313L120.56 143.909C120.379 143.728 120.283 143.728 120.177 143.739C120.003 143.747 119.832 143.779 119.667 143.834C119.336 143.944 119.039 144.138 118.806 144.398C118.342 145.048 118.131 145.845 118.211 146.64C118.259 147.605 118.409 148.563 118.657 149.498C118.88 150.465 119.093 151.421 119.306 152.367C119.752 154.226 120.071 156.075 120.591 157.754C121.34 160.73 122.677 163.527 124.524 165.978C125.816 167.582 127.484 168.841 129.381 169.644C130.123 169.865 130.854 170.124 131.57 170.42C131.57 170.516 130.688 170.664 129.168 170.282C127.019 169.671 125.09 168.458 123.61 166.786C121.488 164.298 119.939 161.374 119.072 158.222C118.487 156.5 118.126 154.651 117.658 152.739C117.424 151.793 117.201 150.815 116.967 149.838C116.696 148.795 116.533 147.727 116.479 146.65C116.385 145.41 116.764 144.179 117.541 143.207C117.979 142.724 118.531 142.359 119.146 142.145C119.446 142.049 119.757 141.992 120.071 141.975C120.13 141.964 120.192 141.964 120.251 141.975C120.306 141.989 120.356 142.014 120.4 142.049V142.113C120.4 142.113 120.4 142.113 120.4 142.06L120.336 141.752L120.209 140.902C120.145 140.477 120.113 140.062 120.081 139.648C119.999 138.086 120.07 136.52 120.294 134.973C120.694 132.448 121.298 129.961 122.101 127.535C122.366 126.533 122.865 125.608 123.557 124.836C123.842 124.543 124.188 124.315 124.569 124.166C124.95 124.018 125.359 123.953 125.767 123.975C126.278 123.99 126.762 124.203 127.117 124.57C127.393 124.995 127.414 125.176 127.372 125.197Z" fill="black" stroke="black" stroke-width="0.222005" stroke-miterlimit="10"/>
<path d="M149.393 151.282C149.031 150.043 148.806 148.767 148.723 147.478C148.404 145.013 147.947 141.464 147.373 137.065C146.799 132.666 146.055 127.502 145.131 121.69C144.674 118.8 144.164 115.771 143.611 112.637C143.324 111.064 143.037 109.449 142.74 107.855C142.493 106.277 142.043 104.738 141.401 103.275C141.145 102.607 140.758 101.997 140.261 101.482C139.764 100.967 139.169 100.558 138.51 100.279C137.87 100.079 137.19 100.048 136.535 100.187C135.88 100.327 135.271 100.633 134.769 101.076C133.665 102.025 132.762 103.184 132.112 104.487C131.772 105.124 131.495 105.794 131.208 106.484C130.922 107.175 130.666 107.844 130.422 108.525C128.722 113.355 127.818 118.429 127.744 123.549C127.699 127.015 128.016 130.477 128.69 133.877C129.027 135.117 129.265 136.382 129.402 137.66C128.764 136.525 128.302 135.3 128.031 134.026C127.088 130.611 126.577 127.091 126.511 123.549C126.413 118.264 127.23 113.001 128.923 107.993C129.157 107.292 129.412 106.58 129.699 105.868C129.975 105.143 130.291 104.433 130.645 103.743C131.385 102.224 132.427 100.872 133.706 99.7689C134.43 99.1781 135.276 98.7536 136.182 98.5257C137.137 98.3055 138.133 98.3533 139.062 98.6639C139.989 98.9865 140.816 99.5428 141.464 100.279C142.08 100.973 142.585 101.758 142.963 102.606C143.671 104.202 144.164 105.885 144.429 107.611C144.716 109.236 145.003 110.798 145.28 112.403C145.811 115.591 146.289 118.608 146.714 121.509C147.554 127.321 148.16 132.57 148.595 136.991C149.031 141.411 149.276 144.992 149.403 147.478C149.55 148.742 149.547 150.019 149.393 151.282Z" fill="black" stroke="black" stroke-width="0.222005" stroke-miterlimit="10"/>
<path d="M151.348 113.178C151.221 113.178 151.114 113.008 150.934 112.828C150.693 112.59 150.385 112.431 150.052 112.371C149.598 112.265 149.122 112.33 148.713 112.552C148.236 112.914 147.895 113.427 147.745 114.007C147.481 115.373 147.339 116.76 147.32 118.151C147.172 119.373 146.725 120.053 146.502 119.979C146.279 119.905 146.258 119.225 146.098 118.162C146.013 117.62 145.907 116.961 145.843 116.186C145.741 115.279 145.825 114.361 146.087 113.487C146.228 112.985 146.469 112.517 146.796 112.111C147.123 111.706 147.529 111.371 147.99 111.128C148.394 110.952 148.833 110.87 149.273 110.891C149.714 110.911 150.144 111.032 150.53 111.245C150.798 111.369 151.033 111.554 151.217 111.784C151.401 112.015 151.53 112.284 151.593 112.573C151.603 113.03 151.454 113.178 151.348 113.178Z" fill="black" stroke="black" stroke-width="0.222005" stroke-miterlimit="10"/>
<path d="M165.42 145.8C165.179 144.647 165.086 143.469 165.143 142.293C165.069 140.03 165.026 136.768 164.973 132.73C164.877 124.665 164.771 113.53 164.527 101.236C164.527 99.7056 164.474 98.1862 164.442 96.6879C164.454 95.2845 164.29 93.8852 163.953 92.5227C163.653 91.3055 162.953 90.2242 161.965 89.4518C161.542 89.0918 161.037 88.8406 160.494 88.7202C159.951 88.5999 159.388 88.6139 158.852 88.7612C157.81 89.1953 156.948 89.9711 156.407 90.9607C155.801 91.9844 155.269 93.0496 154.813 94.1484C153.949 96.1278 153.273 98.1841 152.794 100.29C152.089 103.356 151.761 106.496 151.816 109.641C151.915 110.804 151.915 111.973 151.816 113.137C151.386 112.034 151.145 110.866 151.104 109.683C150.785 106.462 150.936 103.213 151.55 100.035C151.971 97.8325 152.604 95.676 153.442 93.5959C153.91 92.4109 154.467 91.2635 155.111 90.1638C155.802 88.8521 156.93 87.8226 158.299 87.2523C159.08 87.0128 159.907 86.968 160.709 87.1217C161.511 87.2754 162.264 87.6231 162.901 88.1343C164.187 89.113 165.111 90.4927 165.526 92.0551C165.918 93.5571 166.115 95.1036 166.11 96.6561C166.11 98.1507 166.142 99.6702 166.206 101.214C166.45 113.53 166.355 124.687 166.142 132.752C166.036 136.779 165.898 140.051 165.76 142.315C165.801 143.486 165.686 144.658 165.42 145.8Z" fill="black" stroke="black" stroke-width="0.222005" stroke-miterlimit="10"/>
<path d="M173.178 154.757C172.689 154.757 173.071 147.266 172.529 138.128C172.455 136.98 172.38 135.865 172.306 134.792C172.232 133.718 172.157 132.666 172.03 131.763C172.011 131.405 171.912 131.055 171.739 130.74C171.566 130.426 171.324 130.154 171.031 129.946C170.745 129.817 170.435 129.751 170.122 129.751C169.809 129.751 169.499 129.817 169.213 129.946C168.242 130.428 167.441 131.196 166.918 132.146C166.461 132.847 166.185 133.208 166.068 133.208C165.951 133.208 166.068 132.688 166.312 131.859C166.487 131.346 166.726 130.857 167.024 130.403C167.438 129.745 168.017 129.207 168.703 128.841C169.153 128.596 169.651 128.454 170.162 128.427C170.674 128.399 171.185 128.486 171.658 128.682C172.212 128.939 172.675 129.358 172.986 129.882C173.28 130.378 173.485 130.921 173.592 131.487C173.805 132.55 173.879 133.612 173.996 134.675C174.113 135.737 174.187 136.895 174.262 138.054C174.75 147.319 173.581 154.81 173.178 154.757Z" fill="black" stroke="black" stroke-width="0.222005" stroke-miterlimit="10"/>
<path d="M177.811 171.184C177.323 171.184 177.482 165.808 177.089 159.294C176.993 157.69 176.887 156.106 176.749 154.746C176.713 154.224 176.536 153.721 176.238 153.291C176.146 153.168 176.016 153.079 175.869 153.035C175.722 152.991 175.565 152.995 175.42 153.046C175.097 153.221 174.837 153.492 174.676 153.822C174.515 154.119 174.376 154.428 174.262 154.746C174.06 155.288 173.954 155.628 173.837 155.618C173.72 155.607 173.592 155.278 173.603 154.63C173.606 154.226 173.667 153.826 173.783 153.439C173.951 152.839 174.328 152.319 174.846 151.973C175.227 151.751 175.67 151.661 176.108 151.714C176.545 151.768 176.953 151.963 177.269 152.271C177.841 152.882 178.212 153.653 178.332 154.481C178.581 156.04 178.748 157.611 178.832 159.188C179.225 165.872 178.268 171.237 177.811 171.184Z" fill="black" stroke="black" stroke-width="0.222005" stroke-miterlimit="10"/>
<path d="M142.006 173.203C141.773 173.203 141.135 169.272 140.338 162.854C139.541 156.436 138.595 147.553 137.734 137.724C136.873 127.895 136.257 118.98 135.927 112.52C135.598 106.059 135.545 102.054 135.778 102.032C136.012 102.011 136.512 105.996 137.149 112.424C137.787 118.853 138.595 127.746 139.456 137.565C140.317 147.383 141.071 156.287 141.581 162.737C142.091 169.187 142.251 173.182 142.006 173.203Z" fill="black" stroke="black" stroke-width="0.222005" stroke-miterlimit="10"/>
<path d="M135.885 167.221C135.46 167.391 132.335 160.601 129.742 151.771C127.149 142.941 126.086 135.535 126.554 135.45C127.021 135.365 128.839 142.537 131.421 151.282C134.004 160.027 136.342 167.061 135.885 167.221Z" fill="black" stroke="black" stroke-width="0.222005" stroke-miterlimit="10"/>
<path d="M133.642 160.464C133.26 160.75 130.943 158.275 128.477 154.949C126.012 151.623 124.332 148.68 124.715 148.393C125.098 148.106 127.415 150.582 129.88 153.918C132.346 157.255 134.025 160.177 133.642 160.464Z" fill="black" stroke="black" stroke-width="0.222005" stroke-miterlimit="10"/>
<path d="M138.776 145.811C138.297 145.949 137.118 143.112 135.29 139.86C133.462 136.609 131.708 134.091 132.102 133.761C132.495 133.432 134.918 135.546 136.831 139.074C138.744 142.602 139.222 145.704 138.776 145.811Z" fill="black" stroke="black" stroke-width="0.222005" stroke-miterlimit="10"/>
<path d="M138.829 129.872C138.361 129.872 138.265 126.174 139.031 121.754C139.796 117.334 141.071 113.902 141.528 114.019C141.985 114.135 141.464 117.695 140.731 122.041C139.998 126.387 139.318 129.915 138.829 129.872Z" fill="black" stroke="black" stroke-width="0.222005" stroke-miterlimit="10"/>
<path d="M137.043 122.477C136.607 122.657 135.003 119.735 133.919 115.793C132.835 111.851 132.696 108.536 133.164 108.461C133.632 108.387 134.514 111.511 135.587 115.336C136.661 119.161 137.521 122.296 137.043 122.477Z" fill="black" stroke="black" stroke-width="0.222005" stroke-miterlimit="10"/>
<path d="M142.835 163.364C142.378 163.428 141.613 159.985 142.336 155.767C143.059 151.548 144.865 148.541 145.28 148.743C145.694 148.945 144.685 152.09 144.047 156.053C143.409 160.017 143.335 163.321 142.835 163.364Z" fill="black" stroke="black" stroke-width="0.222005" stroke-miterlimit="10"/>
<path d="M155.897 167.221C155.663 167.221 155.419 163.332 155.344 157.031C155.27 150.73 155.344 142.017 155.854 132.411C156.365 122.806 157.098 114.125 157.82 107.866C158.543 101.608 159.17 97.7611 159.393 97.7823C159.617 97.8036 159.393 101.703 159.032 107.972C158.671 114.242 158.076 122.923 157.587 132.496C157.098 142.07 156.8 150.762 156.524 157.042C156.248 163.322 156.173 167.221 155.897 167.221Z" fill="black" stroke="black" stroke-width="0.222005" stroke-miterlimit="10"/>
<path d="M156.694 147.946C156.205 148.01 155.089 142.453 153.304 135.727C151.518 129.001 149.797 123.656 150.233 123.412C150.668 123.167 153.187 128.427 154.983 135.28C156.779 142.134 157.151 147.893 156.694 147.946Z" fill="black" stroke="black" stroke-width="0.222005" stroke-miterlimit="10"/>
<path d="M163.049 143.664C163.506 143.823 162.21 148.828 160.148 154.852C158.086 160.877 156.056 165.637 155.61 165.478C155.164 165.319 156.45 160.314 158.511 154.289C160.573 148.264 162.603 143.515 163.049 143.664Z" fill="black" stroke="black" stroke-width="0.222005" stroke-miterlimit="10"/>
<path d="M226.317 257.178L241.886 260.366C244.231 263.589 246.612 266.812 249.028 270.035C254.696 277.679 260.389 285.117 266.107 292.349C267.004 292.311 267.852 291.931 268.477 291.287C269.54 289.948 268.923 287.833 268.604 286.803C264.587 273.871 263.652 272.256 263.652 272.256C260.06 266.061 256.117 258.708 251.377 249.708C246.934 248.717 242.354 247.771 237.635 246.871C233.327 246.057 229.112 245.32 224.988 244.661C225.406 248.833 225.849 253.006 226.317 257.178Z" fill="black"/>
<path d="M258.019 200.234C250.931 198.778 245.585 198.343 234.883 197.482C221.679 196.397 208.415 196.23 195.188 196.983C189.63 197.312 183.327 198.205 170.744 199.99C162.731 201.127 156.535 202.115 151.093 206.811C146.746 210.53 145.779 214.037 145.609 214.961C145.006 218.117 145.415 221.382 146.778 224.291C149.807 232.09 156.545 236.861 162.72 240.931C173.114 247.742 182.148 253.681 196.814 258.505C205.167 261.265 213.776 263.176 222.512 264.211C224.204 263.285 225.5 261.774 226.157 259.961C226.699 258.187 226.008 257.432 226.157 254.383C226.285 251.875 226.816 251.397 227.284 248.422C227.618 246.225 227.725 243.999 227.603 241.781C231.312 242.269 236.572 242.843 242.907 243.066C251.93 243.396 262.175 243.768 272.112 241.207C282.676 238.497 301.285 230.337 300.977 221.528C300.552 208.947 261.718 200.989 258.019 200.234Z" fill="#EBEBEB"/>
<path d="M222.437 264.19C221.728 264.236 221.015 264.204 220.312 264.095C219.61 264.02 218.75 263.957 217.74 263.829L214.254 263.319C212.947 263.128 211.501 262.82 209.918 262.533C208.334 262.246 206.623 261.8 204.785 261.385C201.139 260.429 197.005 259.26 192.542 257.624C182.07 253.795 172.158 248.581 163.071 242.121C160.499 240.307 157.945 238.342 155.408 236.224C152.764 234.069 150.4 231.592 148.372 228.849C147.333 227.401 146.466 225.835 145.79 224.185C145.124 222.483 144.708 220.693 144.557 218.872C144.402 217.001 144.59 215.118 145.11 213.315C145.647 211.457 146.611 209.75 147.926 208.331C150.626 205.484 154.207 204.134 157.491 202.955C160.775 201.775 164.165 200.776 167.481 199.916C173.882 198.28 180.409 197.185 186.994 196.643C193.264 196.133 199.237 196.112 204.806 196.186C210.375 196.26 215.54 196.452 220.269 196.579L233.023 196.962C236.774 197.1 240.016 197.153 242.673 197.419C244.713 197.579 246.73 197.96 248.688 198.556C249.384 198.734 250.05 199.013 250.665 199.384C249.964 199.266 249.272 199.103 248.592 198.896C246.63 198.449 244.631 198.178 242.62 198.088C239.994 197.929 236.764 197.971 233.001 197.929L220.248 197.801L204.785 197.631C199.248 197.631 193.317 197.631 187.132 198.237C180.675 198.811 174.277 199.916 168.002 201.541C164.729 202.391 161.448 203.397 158.161 204.559C154.898 205.717 151.582 207.035 149.265 209.5C148.166 210.751 147.34 212.217 146.838 213.805C146.337 215.393 146.172 217.068 146.353 218.723C146.471 220.374 146.829 221.999 147.416 223.547C148.036 225.075 148.832 226.527 149.786 227.872C151.729 230.505 153.988 232.889 156.513 234.97C159 237.052 161.505 239.004 164.027 240.825C172.965 247.257 182.69 252.517 192.967 256.476C197.356 258.176 201.469 259.409 205.029 260.45C206.846 260.896 208.526 261.375 210.088 261.725C211.65 262.076 213.085 262.416 214.339 262.66L217.782 263.319L220.322 263.744C221.041 263.818 221.75 263.967 222.437 264.19Z" fill="black" stroke="black" stroke-width="0.222005" stroke-miterlimit="10"/>
<path d="M226.114 236.924C225.891 237.36 217.123 233.227 206.262 228.243C195.4 223.26 186.569 219.286 186.749 218.84C186.93 218.393 196.091 221.655 206.942 226.671C217.793 231.686 226.316 236.51 226.114 236.924Z" fill="black" stroke="black" stroke-width="0.222005" stroke-miterlimit="10"/>
<path d="M223.946 263.458C223.723 263.319 224.255 262.087 224.818 260.036C225.534 257.354 226.001 254.612 226.21 251.844C226.497 248.582 226.646 245.575 226.901 243.407C227.156 241.239 227.4 239.89 227.634 239.9C227.868 239.911 228.049 241.271 228.123 243.449C228.22 246.284 228.16 249.122 227.942 251.95C227.744 254.87 227.08 257.74 225.976 260.451C225.073 262.512 224.127 263.564 223.946 263.458Z" fill="black" stroke="black" stroke-width="0.222005" stroke-miterlimit="10"/>
<path d="M242.173 260.461C242.088 260.928 238.634 260.673 234.457 259.898C230.281 259.122 227.018 258.102 227.018 257.624C227.018 257.146 230.557 257.411 234.723 258.187C238.889 258.963 242.258 259.993 242.173 260.461Z" fill="black" stroke="black" stroke-width="0.222005" stroke-miterlimit="10"/>
<path d="M265.31 291.137C264.938 291.435 259.167 284.9 252.652 276.357C246.137 267.814 241.365 260.525 241.748 260.248C242.131 259.972 247.53 266.783 254.034 275.305C260.538 283.827 265.639 290.829 265.31 291.137Z" fill="black" stroke="black" stroke-width="0.222005" stroke-miterlimit="10"/>
<path d="M251.334 249.697C251.27 249.804 250.941 249.697 250.388 249.634C249.836 249.57 249.017 249.453 247.965 249.357C245.84 249.134 242.97 248.709 239.803 248.135C233.426 246.998 228.399 245.691 228.484 245.213C228.569 244.735 233.798 245.288 240.111 246.435C243.3 247.009 246.127 247.625 248.178 248.146C249.023 248.327 249.841 248.616 250.611 249.007C251.164 249.315 251.387 249.602 251.334 249.697Z" fill="black" stroke="black" stroke-width="0.222005" stroke-miterlimit="10"/>
<path d="M267.01 292.306C266.957 292.179 267.691 292.02 268.211 291.021C268.502 290.424 268.61 289.755 268.519 289.098C268.382 288.162 268.147 287.243 267.818 286.356C266.137 280.941 264.165 275.62 261.909 270.418C256.595 258.23 250.442 249.326 250.877 249.028C251.058 248.901 252.833 250.962 255.288 254.617C261.624 264.22 266.262 274.841 268.998 286.016C269.282 287.002 269.446 288.019 269.487 289.044C269.514 289.878 269.264 290.696 268.775 291.371C268.475 291.805 268.042 292.13 267.542 292.296C267.202 292.402 267.021 292.36 267.01 292.306Z" fill="black" stroke="black" stroke-width="0.222005" stroke-miterlimit="10"/>
<path d="M275.364 240.378C275.427 240.58 272.93 241.632 268.658 242.503C263.104 243.507 257.467 243.984 251.823 243.927C245.255 243.927 239.272 243.927 234.936 243.236C230.6 242.545 228.113 241.408 228.198 241.217C228.283 241.026 230.833 241.695 235.074 242.014C239.314 242.333 245.255 242.205 251.813 242.195C257.384 242.224 262.953 241.916 268.488 241.27C272.696 240.739 275.289 240.123 275.364 240.378Z" fill="black" stroke="black" stroke-width="0.222005" stroke-miterlimit="10"/>
<path d="M238.751 98.7489C236.424 100.428 235.563 102.85 234.149 106.952C232.221 112.745 231.448 118.861 231.875 124.952C232.194 132.656 233.267 137.522 234.883 146.012C235.946 151.58 237.423 159.825 239.028 170.069C236.699 174.281 234.866 178.749 233.565 183.383C232.502 187.282 232.3 189.482 230.897 193.668C229.719 197.196 228.188 200.596 226.327 203.816L227.837 204.198C226.438 206.056 224.826 207.743 223.033 209.224C220.418 211.349 219.143 211.647 215.264 214.24C212.669 215.771 210.289 217.64 208.186 219.797C204.838 223.473 202.819 228.106 203.51 228.648C203.967 228.988 205.433 227.511 209.195 224.493C212.564 221.794 215.445 219.733 217.421 218.373C214.666 220.55 212.536 223.416 211.247 226.682C210.131 229.594 209.482 233.536 210.481 233.993C211.48 234.45 213.532 230.199 218.867 226.555C220.841 225.23 222.986 224.179 225.243 223.431C223.391 225.378 221.945 227.676 220.992 230.189C219.664 233.738 219.249 238.02 220.089 238.317C220.928 238.615 222.087 235.735 225.849 230.051C227.911 226.937 229.718 224.483 230.919 222.889C228.931 231.007 229.962 231.878 230.313 232.027C231.641 232.622 235.042 228.032 236.86 224.855C238.628 221.757 239.85 218.378 240.473 214.866C241.805 213.441 243.001 211.893 244.044 210.244C245.244 208.207 246.275 206.075 247.126 203.869C248.773 200.224 248.996 200.766 252.971 193.53C255.819 188.323 256.33 186.9 256.67 185.348C257.095 183.187 257.216 180.977 257.031 178.782C256.903 174.68 257.254 176.89 257.584 164.628C258.062 147.213 257.318 144.025 257.966 135.153C259.465 114.316 265.129 110.033 260.931 103.849C256.372 97.1976 244.543 94.5412 238.751 98.7489Z" fill="white"/>
<path d="M236.045 177.395L230.939 194.046L250.475 197.376L263.351 194.046L252.029 121.894L243.371 97.6953L236.045 101.691L232.049 111.682V126.556L239.153 168.737L236.045 177.395Z" fill="#FF7372"/>
<path d="M239.07 170.026C238.836 170.026 237.922 166.063 236.636 159.549C235.35 153.036 233.65 144.046 232.024 134.047C231.242 129.301 230.914 124.49 231.046 119.682C231.184 115.724 231.9 111.807 233.172 108.057C234.037 105.535 235.258 103.148 236.796 100.97C237.912 99.4502 238.688 98.7489 238.773 98.8445C239.028 99.0252 236.233 102.192 234.341 108.471C233.271 112.143 232.699 115.942 232.64 119.767C232.591 124.474 232.947 129.177 233.703 133.824C235.308 143.781 236.892 152.855 237.805 159.411C238.719 165.967 239.261 169.984 239.07 170.026Z" fill="black" stroke="black" stroke-width="0.222005" stroke-miterlimit="10"/>
<path d="M226.317 203.795C226.094 203.646 227.284 201.755 228.527 198.418C230.039 194.01 231.281 189.514 232.247 184.956C233.533 179.579 235.276 174.744 237.285 171.62C239.293 168.496 241.111 167.062 241.238 167.211C241.366 167.359 239.952 169.07 238.347 172.226C236.374 176.423 234.89 180.833 233.926 185.37C232.651 190.683 231.291 195.603 229.675 198.907C228.06 202.212 226.508 203.922 226.317 203.795Z" fill="black" stroke="black" stroke-width="0.222005" stroke-miterlimit="10"/>
<path d="M257.679 184.615C257.435 184.615 257.19 181.916 256.999 177.549C256.808 173.182 256.638 167.146 256.574 160.473C256.51 153.8 256.574 147.723 256.659 143.398C256.744 139.073 256.957 136.321 257.201 136.311C257.445 136.3 257.679 139.009 257.881 143.377C258.083 147.744 258.243 153.79 258.306 160.463C258.37 167.136 258.306 173.214 258.221 177.538C258.136 181.863 257.913 184.615 257.679 184.615Z" fill="black" stroke="black" stroke-width="0.222005" stroke-miterlimit="10"/>
<path d="M242.662 214.133C242.46 214.08 242.79 211.934 244.054 208.693C245.806 204.551 247.863 200.544 250.208 196.707C251.505 194.444 252.705 192.287 253.736 190.332C254.767 188.376 255.575 186.496 256.159 184.912C257.36 181.725 257.775 179.674 258.051 179.716C258.328 179.759 258.264 181.927 257.318 185.295C256.764 187.258 256.053 189.173 255.192 191.022C254.225 193.147 253.067 195.272 251.728 197.6C249.092 202.137 246.68 206.164 245.192 209.213C243.704 212.263 242.917 214.207 242.662 214.133Z" fill="black" stroke="black" stroke-width="0.222005" stroke-miterlimit="10"/>
<path d="M240.505 212.199C240.25 212.199 239.91 211.222 239.028 209.83C237.935 208.019 236.333 206.57 234.423 205.663C232.512 204.757 230.377 204.432 228.283 204.73C226.646 204.921 225.637 205.303 225.52 205.07C225.403 204.836 226.253 204.071 228.028 203.529C230.397 202.834 232.939 203.034 235.169 204.093C237.4 205.151 239.163 206.993 240.122 209.267C240.813 210.999 240.717 212.168 240.505 212.199Z" fill="black" stroke="black" stroke-width="0.222005" stroke-miterlimit="10"/>
<path d="M236.838 224.897C236.626 224.78 236.838 223.973 237.263 222.772C237.688 221.572 238.326 219.925 238.943 218.108C239.442 216.587 239.746 215.009 239.846 213.411C239.92 212.178 239.846 211.371 240.112 211.286C240.377 211.201 240.813 211.945 241.068 213.315C241.205 214.115 241.24 214.929 241.174 215.738C241.078 216.714 240.886 217.679 240.601 218.618C240.067 220.277 239.313 221.856 238.358 223.314C237.625 224.409 237.051 225.004 236.838 224.897Z" fill="black" stroke="black" stroke-width="0.222005" stroke-miterlimit="10"/>
<path d="M203.425 229.668C203.244 229.668 202.872 227.543 204.115 224.526C204.872 222.765 205.909 221.14 207.187 219.712C208.726 217.98 210.467 216.439 212.373 215.122C216.401 212.38 220.227 210.415 222.778 208.661C225.328 206.908 226.784 205.665 227.029 205.846C227.273 206.026 226.04 207.641 223.554 209.65C221.067 211.658 217.294 213.9 213.415 216.546C210.087 218.71 207.31 221.62 205.306 225.046C203.807 227.713 203.712 229.69 203.425 229.668Z" fill="black" stroke="black" stroke-width="0.222005" stroke-miterlimit="10"/>
<path d="M217.421 218.383C217.666 218.808 214.53 221.019 210.991 224.057C207.452 227.096 204.764 229.838 204.381 229.53C203.998 229.222 206.156 225.896 209.865 222.74C213.574 219.584 217.198 217.969 217.421 218.383Z" fill="black" stroke="black" stroke-width="0.222005" stroke-miterlimit="10"/>
<path d="M210.067 233.004C209.854 233.004 209.419 231.941 209.525 230.156C209.748 227.81 210.6 225.567 211.99 223.664C213.336 221.81 214.964 220.179 216.815 218.829C218.218 217.767 219.175 217.31 219.324 217.48C219.472 217.65 218.792 218.543 217.634 219.743C216.105 221.284 214.685 222.927 213.383 224.663C212.152 226.378 211.248 228.305 210.715 230.348C210.375 231.92 210.375 232.972 210.067 233.004Z" fill="black" stroke="black" stroke-width="0.222005" stroke-miterlimit="10"/>
<path d="M221.088 220.795C221.375 221.21 218.484 223.664 215.614 227.256C212.745 230.847 210.938 234.184 210.481 233.982C210.024 233.78 211.193 229.976 214.265 226.172C217.336 222.368 220.843 220.413 221.088 220.795Z" fill="black" stroke="black" stroke-width="0.222005" stroke-miterlimit="10"/>
<path d="M225.53 222.294C225.615 222.528 224.712 223.038 223.405 223.962C221.688 225.168 220.093 226.538 218.643 228.053C216.932 229.838 215.455 231.592 214.392 232.824C213.329 234.057 212.511 234.779 212.267 234.641C212.022 234.503 212.49 233.579 213.329 232.091C214.476 230.205 215.823 228.449 217.347 226.852C218.887 225.205 220.721 223.861 222.756 222.889C224.372 222.188 225.456 222.082 225.53 222.294Z" fill="black" stroke="black" stroke-width="0.222005" stroke-miterlimit="10"/>
<path d="M219.812 239.178C219.6 239.242 219.047 238.275 218.888 236.511C218.751 234.227 219.197 231.946 220.184 229.881C221.124 227.859 222.356 225.987 223.84 224.324C224.903 223.059 225.753 222.379 225.966 222.528C226.178 222.677 225.7 223.591 224.903 225.046C223.775 226.836 222.75 228.688 221.832 230.593C220.966 232.464 220.409 234.462 220.184 236.511C219.94 238.095 220.057 239.125 219.812 239.178Z" fill="black" stroke="black" stroke-width="0.222005" stroke-miterlimit="10"/>
<path d="M230.887 222.942C231.28 223.219 229.176 226.895 226.189 231.145C223.203 235.396 220.471 238.583 220.078 238.35C219.685 238.116 221.789 234.407 224.776 230.147C227.762 225.886 230.504 222.666 230.887 222.942Z" fill="black" stroke="black" stroke-width="0.222005" stroke-miterlimit="10"/>
<path d="M237.157 222.857C237.37 222.932 237.083 224.43 235.956 226.598C235.286 227.867 234.481 229.06 233.554 230.157C233.405 230.327 233.352 230.412 233.076 230.71C232.837 230.95 232.56 231.151 232.258 231.305C231.988 231.465 231.684 231.557 231.371 231.574C231.059 231.591 230.746 231.531 230.462 231.4C230.19 231.232 229.979 230.982 229.858 230.686C229.738 230.39 229.715 230.063 229.792 229.753L229.898 228.691L230.005 228.011C230.542 224.891 231.576 221.878 233.065 219.085C234.224 216.96 235.191 215.834 235.414 215.951C235.86 216.206 232.895 221.264 231.716 228.308L231.567 229.201C231.567 229.371 231.514 229.456 231.567 229.541C231.613 229.564 231.664 229.576 231.716 229.576C231.767 229.576 231.818 229.564 231.864 229.541C231.971 229.541 231.981 229.477 232.321 229.116C233.241 228.129 234.093 227.082 234.872 225.981C236.243 224.069 236.945 222.762 237.157 222.857Z" fill="black" stroke="black" stroke-width="0.222005" stroke-miterlimit="10"/>
<path d="M238.042 98.8062C243.989 94.5626 248.365 93.6551 255.426 91.779C263.578 89.7426 272.047 89.2952 280.369 90.4614C287.716 91.4648 294.847 93.6727 301.476 96.9962C303.635 100.331 305.417 103.895 306.79 107.622C307.968 110.951 308.861 114.374 309.457 117.854C311.413 127.736 312.104 135.227 312.104 135.227C313.528 150.837 313.9 165.925 313.942 167.445C314.165 176.508 314.58 189.886 315.419 206.76C308.974 208.17 302.429 209.08 295.843 209.48C289.095 209.884 282.144 210.298 273.589 208.715C265.24 207.14 257.244 204.074 249.984 199.662C249.665 194.731 249.538 189.302 249.74 183.436C249.942 177.953 250.399 172.811 251.015 168.231C248.31 164.366 246.084 160.188 244.383 155.788C242.732 151.531 241.608 147.089 241.036 142.559C240.162 134.311 241.311 125.974 244.383 118.269C239.693 113.628 240.274 110.004 239.375 103.468L238.042 98.8062Z" fill="#FF7372"/>
<path d="M301.444 96.9746C301.316 97.2509 297.979 95.572 292.283 93.7869L290.083 93.1706C289.296 92.9474 288.467 92.7881 287.617 92.5756C285.927 92.1293 284.078 91.8636 282.144 91.513C273.704 90.2321 265.101 90.4949 256.754 92.2887C254.841 92.7456 253.013 93.1281 251.345 93.67C250.516 93.9356 249.697 94.1375 248.932 94.4138L246.732 95.2001C241.153 97.3252 237.922 99.1741 237.773 98.8978C237.709 98.8022 238.464 98.2497 239.899 97.3465L241.1 96.6027C241.546 96.3477 242.045 96.1033 242.577 95.827C243.64 95.2851 244.862 94.6157 246.275 94.0632L248.475 93.1493C249.251 92.8412 250.069 92.5968 250.92 92.2993C252.599 91.683 254.459 91.2367 256.404 90.7267C264.927 88.714 273.769 88.4429 282.399 89.9298C284.365 90.3229 286.257 90.6629 287.968 91.173C288.829 91.4174 289.668 91.6086 290.455 91.8743L292.708 92.6499C294.153 93.1175 295.397 93.7125 296.502 94.18C297.055 94.4244 297.565 94.6476 298.033 94.8707L299.276 95.5401C300.711 96.3689 301.508 96.8683 301.444 96.9746Z" fill="black" stroke="black" stroke-width="0.222005" stroke-miterlimit="10"/>
<path d="M243.618 116.887C243.182 117.11 242.056 115.825 240.759 114.114C239.463 112.403 238.464 111.022 238.793 110.661C239.123 110.299 240.738 111.256 242.13 113.051C243.522 114.847 244.033 116.664 243.618 116.887Z" fill="black" stroke="black" stroke-width="0.222005" stroke-miterlimit="10"/>
<path d="M253.268 170.855C253.087 170.972 250.951 168.252 247.837 163.566C245.994 160.799 244.411 157.868 243.108 154.81C241.57 151.001 240.638 146.975 240.345 142.878C240.086 138.807 240.267 134.721 240.887 130.69C241.37 127.424 242.026 124.185 242.853 120.989C244.266 115.548 245.414 112.276 245.627 112.329C245.839 112.382 245.149 115.793 244.054 121.265C242.959 126.737 241.503 134.356 242.077 142.74C242.357 146.665 243.202 150.53 244.585 154.215C245.776 157.221 247.197 160.131 248.836 162.918C251.695 167.731 253.502 170.717 253.268 170.855Z" fill="black" stroke="black" stroke-width="0.222005" stroke-miterlimit="10"/>
<path d="M250.537 199.173C250.08 199.173 249.24 191.947 249.474 182.947C249.708 173.947 250.973 166.733 251.43 166.796C251.887 166.86 251.43 174.086 251.206 182.99C250.983 191.894 251.036 199.152 250.537 199.173Z" fill="black" stroke="black" stroke-width="0.222005" stroke-miterlimit="10"/>
<path d="M316.1 202.286C316.163 202.392 315.356 202.923 313.836 203.816L312.561 204.539C312.093 204.783 311.551 205.017 310.988 205.282C309.715 205.904 308.409 206.457 307.077 206.94L304.749 207.779C303.942 208.066 303.07 208.268 302.177 208.534C300.402 209.086 298.447 209.426 296.396 209.841C287.432 211.389 278.239 210.968 269.454 208.608C267.446 208.003 265.533 207.482 263.822 206.77C262.95 206.43 262.1 206.143 261.324 205.792L259.082 204.73C257.795 204.13 256.543 203.46 255.33 202.722C254.799 202.403 254.267 202.127 253.842 201.84L252.641 201C251.207 199.938 250.452 199.364 250.516 199.268C250.696 199.003 253.906 201.17 259.581 203.614L261.824 204.539C262.599 204.857 263.45 205.102 264.3 205.41C266 206.047 267.881 206.472 269.848 207.046C278.447 209.174 287.382 209.586 296.141 208.258C298.149 207.896 300.062 207.609 301.816 207.131C302.698 206.908 303.559 206.738 304.367 206.494L306.673 205.771C312.55 203.848 315.951 201.978 316.1 202.286Z" fill="black" stroke="black" stroke-width="0.222005" stroke-miterlimit="10"/>
<path d="M315.664 201.893C315.345 200.7 315.17 199.472 315.143 198.238C314.92 195.889 314.644 192.479 314.357 188.26C313.761 179.823 313.06 168.167 312.401 155.32C312.061 148.881 311.817 142.74 311.413 137.193C311.009 131.646 310.467 126.652 309.765 122.508C308.394 114.21 306.577 109.29 306.843 109.194C307.491 110.25 307.988 111.391 308.32 112.584C309.431 115.751 310.316 118.993 310.966 122.285C311.931 127.168 312.613 132.103 313.007 137.066C313.496 142.655 313.793 148.754 314.133 155.235C314.792 168.114 315.303 179.781 315.579 188.239C315.717 192.489 315.802 195.879 315.813 198.248C315.917 199.465 315.867 200.689 315.664 201.893Z" fill="black" stroke="black" stroke-width="0.222005" stroke-miterlimit="10"/>
<path d="M240.133 263.415C237.55 264.201 234.883 265.094 232.13 266.125C226.588 268.203 221.185 270.634 215.955 273.403C214.339 276.208 212.288 279.991 210.13 284.581C207.609 289.695 205.478 294.99 203.754 300.424C202.259 305.422 201.06 310.502 200.162 315.64C199.609 318.573 199.205 321.038 198.939 322.834C200.822 321.829 202.62 320.674 204.317 319.381C205.454 318.509 208.76 315.874 214.137 308.457C217.998 303.369 221.275 297.862 223.904 292.041C225.378 288.707 226.625 285.278 227.634 281.776C229.356 281.195 231.103 280.558 232.874 279.864C238.615 277.625 244.194 274.991 249.57 271.979L240.133 263.415Z" fill="black"/>
<path d="M232.257 258.602C234.245 256.689 236.934 254.139 240.175 251.164C250.431 241.856 259.943 234.269 267.935 228.319C270.592 226.342 280.975 218.649 295.514 209.639C307.024 202.509 313.868 199.013 321.074 196.165C330.851 192.255 337.292 191.022 344.051 191.915C352.553 192.977 356.092 196.654 356.804 197.451C358.906 199.699 360.313 202.507 360.853 205.537C361.757 210.85 359.525 215.1 358.133 217.65C355.103 222.943 350.696 227.316 345.379 230.306C328.12 240.687 319.479 245.883 312.965 249.294C295.96 258.209 298.436 258.134 280.104 267.814C266.999 274.732 256.01 279.896 248.656 283.221C247.896 279.771 246.789 276.407 245.351 273.18C243.533 269.121 241.907 265.604 238.347 262.459C236.538 260.854 234.482 259.552 232.257 258.602Z" fill="#EBEBEB"/>
<path d="M360.545 204.496C360.46 204.496 360.365 203.975 360.014 203.019C359.519 201.627 358.801 200.324 357.888 199.162C356.451 197.331 354.639 195.827 352.574 194.752C349.815 193.37 346.794 192.588 343.711 192.457C339.946 192.317 336.18 192.675 332.509 193.519C328.266 194.436 324.118 195.745 320.117 197.43C311.615 200.936 302.858 206.164 293.782 211.764C278.324 221.399 263.541 232.078 249.538 243.726C244.161 248.21 239.909 251.961 236.965 254.543C235.515 255.964 233.963 257.278 232.321 258.474C232.321 258.474 232.629 258.017 233.384 257.274C234.139 256.53 235.148 255.425 236.572 254.086C239.378 251.334 243.512 247.434 248.805 242.823C262.632 230.831 277.383 219.949 292.921 210.276C302.029 204.655 310.86 199.417 319.565 195.931C323.681 194.242 327.952 192.957 332.318 192.096C336.119 191.287 340.013 191.001 343.892 191.245C347.131 191.452 350.286 192.362 353.138 193.913C355.275 195.111 357.117 196.774 358.526 198.779C359.422 200.029 360.078 201.434 360.46 202.923C360.586 203.437 360.615 203.971 360.545 204.496Z" fill="black" stroke="black" stroke-width="0.222005" stroke-miterlimit="10"/>
<path d="M247.817 281.383C247.583 281.447 246.977 279.895 246.095 277.398C245.034 274.156 243.722 271.002 242.173 267.963C241.296 266.335 240.257 264.801 239.07 263.383C238.139 262.226 237.044 261.213 235.818 260.376C235.018 259.83 234.093 259.494 233.129 259.398C232.449 259.398 232.066 259.462 231.992 259.345C231.917 259.228 232.268 258.92 233.055 258.729C234.2 258.551 235.372 258.753 236.392 259.303C237.847 260.067 239.15 261.09 240.239 262.32C241.58 263.772 242.73 265.39 243.661 267.134C245.293 270.267 246.497 273.605 247.243 277.058C247.859 279.672 248.04 281.319 247.817 281.383Z" fill="black" stroke="black" stroke-width="0.222005" stroke-miterlimit="10"/>
<path d="M362.501 206.77C362.546 207.254 362.51 207.743 362.394 208.215C362.157 209.579 361.802 210.919 361.332 212.221C359.499 217.004 356.64 221.327 352.957 224.887C350.445 227.346 347.72 229.579 344.816 231.56C341.702 233.685 338.248 235.81 334.592 237.882L310.807 251.504C302.305 256.307 294.302 260.897 286.905 264.967C279.508 269.037 272.77 272.554 267.031 275.338C261.292 278.121 256.563 280.225 253.215 281.575C251.568 282.255 250.261 282.744 249.379 283.062C248.942 283.268 248.476 283.405 247.997 283.466C249.578 282.506 251.23 281.668 252.939 280.959C256.127 279.418 260.793 277.176 266.436 274.243C272.08 271.31 278.754 267.708 286.087 263.564L309.904 249.995L333.763 236.49C337.43 234.429 340.884 232.431 343.976 230.37C346.852 228.478 349.561 226.345 352.075 223.994C355.731 220.611 358.654 216.514 360.662 211.955C362.065 208.714 362.352 206.738 362.501 206.77Z" fill="black" stroke="black" stroke-width="0.222005" stroke-miterlimit="10"/>
<path d="M216.008 273.393C215.784 273 220.78 269.801 227.518 267.017C234.256 264.233 240.037 262.958 240.154 263.405C240.271 263.851 234.84 265.87 228.176 268.611C221.513 271.353 216.241 273.828 216.008 273.393Z" fill="black" stroke="black" stroke-width="0.222005" stroke-miterlimit="10"/>
<path d="M199.46 321.017C199.248 321.017 199.269 318.148 199.917 313.579C201.702 301.678 205.792 290.24 211.958 279.906C214.339 275.964 216.135 273.743 216.305 273.87C216.773 274.157 210.545 283.657 205.922 296.737C201.299 309.817 200.002 321.091 199.46 321.017Z" fill="black" stroke="black" stroke-width="0.222005" stroke-miterlimit="10"/>
<path d="M228.888 280.809C229.101 280.894 228.251 283.593 226.508 287.833C224.232 293.36 221.505 298.691 218.356 303.771C216.589 306.566 214.654 309.252 212.564 311.815C210.84 313.894 208.979 315.857 206.995 317.691C203.573 320.794 201.107 322.26 200.991 322.101C200.874 321.941 203.01 320.082 206.134 316.788C207.707 315.173 209.461 313.122 211.321 310.795C213.181 308.468 215.04 305.748 216.89 302.826C220.546 296.971 223.362 291.35 225.392 287.28C227.422 283.211 228.655 280.714 228.888 280.809Z" fill="black" stroke="black" stroke-width="0.222005" stroke-miterlimit="10"/>
<path d="M246.095 273.637C246.297 274.073 242.683 276.209 238.018 278.419C233.352 280.629 229.409 282.053 229.207 281.607C229.005 281.16 232.608 279.035 237.274 276.825C241.939 274.615 245.893 273.212 246.095 273.637Z" fill="black" stroke="black" stroke-width="0.222005" stroke-miterlimit="10"/>
<path d="M216.815 196.782C216.475 199.141 216.21 201.638 216.05 204.22C215.584 212.14 216.123 220.088 217.655 227.872C218.943 228.659 220.294 229.338 221.694 229.902C227.188 232.123 232.151 231.974 238.592 231.719C241.248 231.705 243.897 231.456 246.509 230.975C250.179 230.234 253.723 228.967 257.031 227.214C256.974 222.786 256.854 218.256 256.67 213.623C256.425 207.652 256.064 201.85 255.607 196.25C252.167 195.202 248.654 194.414 245.096 193.891C239.846 193.116 232.545 192.117 223.894 194.306C221.468 194.928 219.1 195.756 216.815 196.782Z" fill="black"/>
<path d="M256.967 227.245C256.283 227.914 255.479 228.448 254.597 228.818C252.282 230.005 249.825 230.89 247.285 231.453C243.523 232.287 239.67 232.644 235.818 232.516C231.123 232.365 226.451 231.807 221.853 230.848C220.523 230.671 219.243 230.226 218.091 229.541C217.464 229.118 216.967 228.529 216.656 227.84C216.388 227.223 216.219 226.566 216.157 225.896C215.87 223.548 215.678 221.306 215.54 219.149C215.264 214.898 215.253 210.967 215.359 207.715C215.604 201.202 216.284 197.228 216.497 197.249C216.709 197.27 216.497 201.276 216.582 207.726C216.635 210.914 216.762 214.792 217.124 219.032C217.304 221.157 217.538 223.388 217.836 225.662C217.887 226.167 218.013 226.661 218.208 227.129C218.397 227.531 218.695 227.874 219.069 228.117C220.031 228.672 221.092 229.033 222.193 229.179C226.704 230.122 231.28 230.722 235.882 230.975C239.618 231.168 243.365 230.944 247.051 230.306C253.343 229.105 256.829 226.948 256.967 227.245Z" fill="black" stroke="black" stroke-width="0.222005" stroke-miterlimit="10"/>
<path d="M251.175 194.497C251.175 194.741 249.134 194.741 245.914 194.603C242.694 194.465 238.241 194.199 233.374 194.295C229.218 194.337 225.076 194.771 221.003 195.591L218.877 196.058C218.383 196.161 217.906 196.336 217.464 196.579C216.752 196.972 216.667 197.482 216.539 197.472C216.412 197.461 216.422 197.334 216.454 197.057C216.523 196.645 216.733 196.269 217.049 195.995C217.498 195.601 218.018 195.294 218.58 195.092C219.196 194.868 219.887 194.613 220.705 194.358C222.548 193.81 224.427 193.387 226.327 193.094C228.65 192.746 230.993 192.555 233.342 192.52C237.586 192.467 241.829 192.741 246.031 193.338C249.23 193.785 251.196 194.263 251.175 194.497Z" fill="black" stroke="black" stroke-width="0.222005" stroke-miterlimit="10"/>
<path d="M256.967 226.055C256.489 226.055 255.904 219.265 255.702 210.86C255.585 206.663 255.585 202.849 255.702 200.097C255.764 199.053 255.711 198.005 255.543 196.973C255.405 196.25 255.235 195.857 255.341 195.783C255.447 195.708 255.809 196.006 256.181 196.749C256.632 197.795 256.884 198.916 256.925 200.054C257.158 202.817 257.35 206.61 257.467 210.818C257.658 219.223 257.445 226.045 256.967 226.055Z" fill="black" stroke="black" stroke-width="0.222005" stroke-miterlimit="10"/>
<path d="M249.921 199.64C249.921 199.884 247.912 199.82 244.756 200.139C241.599 200.458 237.21 201.255 232.204 201.202C229.864 201.2 227.526 201.026 225.211 200.681C224.68 200.607 224.149 200.511 223.66 200.426C223.125 200.337 222.596 200.217 222.076 200.065C221.42 199.884 220.845 199.482 220.45 198.928C220.292 198.697 220.214 198.421 220.227 198.141C220.242 198.016 220.284 197.895 220.35 197.786C220.416 197.678 220.504 197.585 220.609 197.515C221.061 197.189 221.564 196.941 222.097 196.781C222.976 196.492 223.886 196.31 224.807 196.239C225.732 196.186 226.242 196.239 226.242 196.41C226.242 196.58 225.764 196.654 224.924 196.909C224.413 197.054 223.909 197.224 223.415 197.419C223.128 197.525 222.809 197.663 222.522 197.801L222.065 198.067C222.002 198.067 221.927 198.173 221.938 198.269C221.947 198.317 221.966 198.362 221.994 198.402C222.021 198.442 222.056 198.477 222.097 198.503C222.242 198.619 222.414 198.696 222.597 198.726C222.863 198.79 223.426 198.864 223.893 198.917L225.413 199.098C227.669 199.342 229.936 199.466 232.204 199.47C237.019 199.47 241.429 198.853 244.703 198.896C247.976 198.938 249.963 199.417 249.921 199.64Z" fill="white" stroke="white" stroke-width="0.222005" stroke-miterlimit="10"/>
<path d="M230.961 197.44C230.961 197.376 231.237 197.27 231.535 196.835C231.734 196.51 231.861 196.146 231.905 195.768C231.949 195.39 231.91 195.007 231.79 194.646C231.303 193.504 230.44 192.563 229.346 191.979C228.621 191.508 227.948 190.963 227.337 190.353C226.571 189.593 226.106 188.581 226.03 187.505C226.034 186.885 226.21 186.278 226.54 185.752C226.866 185.26 227.272 184.825 227.741 184.466C228.597 183.87 229.363 183.154 230.015 182.341C231.078 180.8 230.292 178.24 228.581 176.763C226.869 175.286 224.244 174.319 221.768 172.65C220.427 171.801 219.329 170.618 218.58 169.218C217.874 167.681 217.756 165.938 218.25 164.32C219.164 161.132 221.301 158.911 222.501 156.606C223.13 155.5 223.555 154.291 223.756 153.035C223.925 151.92 223.667 150.781 223.033 149.848C222.224 148.934 221.369 148.062 220.472 147.234C219.612 146.311 218.896 145.265 218.346 144.131C217.362 142.111 216.915 139.871 217.049 137.628C217.166 135.791 217.696 134.004 218.601 132.4C219.261 131.201 220.12 130.123 221.141 129.213C222.831 127.725 224.053 127.353 224.074 127.438C224.096 127.523 223.065 128.139 221.609 129.691C220.748 130.644 220.032 131.718 219.483 132.878C218.74 134.385 218.334 136.034 218.293 137.713C218.249 139.73 218.713 141.725 219.643 143.515C220.153 144.507 220.804 145.42 221.577 146.224C222.54 147.073 223.452 147.977 224.308 148.934C225.191 150.188 225.571 151.728 225.371 153.248C225.163 154.719 224.684 156.139 223.957 157.434C223.288 158.752 222.395 159.921 221.662 161.1C220.889 162.25 220.281 163.502 219.855 164.819C219.468 166.032 219.544 167.346 220.068 168.506C220.678 169.636 221.562 170.593 222.64 171.29C224.765 172.789 227.486 173.681 229.548 175.626C230.587 176.576 231.326 177.81 231.673 179.175C231.863 179.844 231.909 180.546 231.808 181.235C231.707 181.923 231.462 182.583 231.089 183.17C230.336 184.075 229.447 184.856 228.453 185.486C228.092 185.698 227.786 185.991 227.557 186.341C227.329 186.691 227.184 187.09 227.135 187.505C227.17 188.299 227.491 189.054 228.039 189.63C228.57 190.218 229.161 190.749 229.803 191.214C231.01 191.974 231.904 193.143 232.322 194.507C232.428 194.957 232.425 195.425 232.312 195.873C232.2 196.32 231.98 196.734 231.673 197.079C231.333 197.515 230.961 197.483 230.961 197.44Z" fill="black" stroke="black" stroke-width="0.222005" stroke-miterlimit="10"/>
<path d="M239.835 196.718C239.835 196.771 239.644 196.846 239.272 196.771C239 196.702 238.745 196.581 238.521 196.413C238.296 196.245 238.107 196.035 237.965 195.794C237.48 195.034 237.312 194.115 237.497 193.233C237.772 192.173 238.217 191.164 238.815 190.247C239.11 189.763 239.356 189.25 239.548 188.717C239.743 188.202 239.816 187.649 239.761 187.102C239.731 186.847 239.65 186.6 239.522 186.377C239.394 186.154 239.222 185.96 239.017 185.806C238.448 185.404 237.847 185.048 237.221 184.743C236.337 184.35 235.603 183.683 235.127 182.841C234.65 182 234.457 181.028 234.574 180.068C234.662 179.106 234.947 178.172 235.414 177.326C235.887 176.525 236.455 175.783 237.104 175.116C237.597 174.599 237.962 173.973 238.167 173.288C238.212 172.99 238.189 172.685 238.101 172.396C238.013 172.108 237.861 171.842 237.656 171.62C236.806 170.558 235.265 169.654 234.234 168.326C233.265 167.213 232.585 165.879 232.253 164.441C231.922 163.003 231.949 161.506 232.332 160.081C232.62 159.144 233.098 158.277 233.736 157.533C234.375 156.788 235.159 156.184 236.041 155.756C237.306 155.193 238.092 155.299 238.092 155.395C238.092 155.49 237.401 155.671 236.37 156.34C234.947 157.301 233.928 158.755 233.512 160.421C233.273 161.639 233.325 162.896 233.663 164.09C234.001 165.285 234.615 166.383 235.457 167.296C235.94 167.844 236.478 168.342 237.061 168.783C237.764 169.304 238.409 169.899 238.985 170.558C239.345 170.969 239.609 171.455 239.76 171.98C239.91 172.505 239.943 173.057 239.856 173.597C239.613 174.596 239.102 175.511 238.379 176.242C237.814 176.819 237.315 177.457 236.891 178.144C236.536 178.78 236.316 179.481 236.243 180.206C236.164 180.856 236.282 181.515 236.583 182.097C236.926 182.65 237.42 183.093 238.007 183.372C238.714 183.73 239.383 184.157 240.005 184.647C240.693 185.232 241.121 186.065 241.195 186.964C241.195 188.381 240.728 189.759 239.867 190.885C239.273 191.67 238.794 192.536 238.443 193.456C238.234 194.117 238.276 194.832 238.56 195.464C239.07 196.548 239.878 196.591 239.835 196.718Z" fill="black" stroke="black" stroke-width="0.222005" stroke-miterlimit="10"/>
<path d="M245.702 179.302C245.702 179.302 245.51 179.207 245.309 178.888C245.07 178.385 244.967 177.828 245.011 177.273C245.102 176.435 245.317 175.615 245.649 174.84C246.054 173.893 246.374 172.911 246.605 171.907C246.697 171.351 246.676 170.782 246.542 170.234C246.409 169.686 246.167 169.171 245.829 168.719C245.128 167.657 244.054 166.594 243.13 165.17C242.623 164.394 242.279 163.522 242.12 162.609C241.961 161.696 241.99 160.759 242.205 159.857C242.655 158.1 243.278 156.392 244.065 154.757C244.396 153.977 244.673 153.174 244.894 152.356C245.068 151.615 245.118 150.85 245.043 150.092C244.703 148.648 243.923 147.345 242.811 146.363C241.643 145.261 240.751 143.899 240.207 142.389C239.851 140.979 239.944 139.493 240.473 138.138C241.216 136.322 242.408 134.725 243.938 133.495C245 132.613 245.585 132.209 245.659 132.294C245.734 132.379 245.277 132.964 244.416 133.963C243.185 135.278 242.241 136.833 241.642 138.532C241.279 139.637 241.26 140.826 241.589 141.942C242.126 143.207 242.944 144.333 243.98 145.236C244.577 145.835 245.127 146.478 245.627 147.16C246.17 147.954 246.533 148.857 246.69 149.805C246.813 150.778 246.759 151.764 246.531 152.717C246.302 153.629 246 154.521 245.627 155.384C244.896 156.925 244.295 158.524 243.831 160.165C243.651 160.861 243.613 161.586 243.721 162.296C243.829 163.007 244.08 163.688 244.458 164.299C245.202 165.531 246.254 166.637 247.02 167.933C247.42 168.585 247.697 169.306 247.838 170.058C247.969 170.763 247.947 171.487 247.774 172.183C247.458 173.245 247.031 174.271 246.499 175.243C246.131 175.915 245.846 176.629 245.649 177.368C245.447 178.569 245.84 179.239 245.702 179.302Z" fill="black" stroke="black" stroke-width="0.222005" stroke-miterlimit="10"/>
<path d="M301.848 96.815C299.499 97.6332 298.989 101.809 298.66 104.699C297.597 114.188 296.641 123.188 295.748 132.007C298.794 139.155 301.368 146.496 303.453 153.981C306.126 163.581 307.996 173.387 309.043 183.298C301.438 188.936 293.428 194.008 285.078 198.471C279.764 201.308 274.62 203.784 269.763 205.792C270.114 206.568 270.475 207.343 270.826 208.119C269.2 209.383 267.287 210.226 265.257 210.574C261.633 211.147 260.07 209.511 255.458 208.927C249.963 208.204 244.671 209.5 244.596 210.574C244.596 210.85 244.926 211.041 248.082 212.848L251.271 214.696C247.966 215.733 244.592 216.535 241.174 217.098C231.439 218.702 224.404 217.852 224.17 219.074C224.106 219.52 224.946 220.328 229.484 221.858L240.909 223.165L242.428 224.993C238.235 224.746 234.029 224.806 229.845 225.173C225.116 225.577 223.245 226.14 223.139 226.937C223.033 227.734 224.637 228.138 227.135 230.433C228.878 232.038 229.144 232.781 230.143 233.759C232.789 236.362 236.519 236.638 239.24 236.83C243.786 237.058 248.322 236.228 252.493 234.407C260.417 231.215 267.852 226.923 274.577 221.656L274.928 224.844C275.889 224.981 276.859 225.041 277.829 225.025C280.802 224.869 283.704 224.064 286.332 222.666C290.795 220.626 295.546 219.255 300.148 217.48C308.182 214.346 307.268 214.781 308.15 214.388C314.718 211.402 319.055 208.013 324.762 203.582C329.193 200.118 331.436 198.343 332.658 196.144C335.166 191.734 335.198 186.974 335.187 183.68C335.165 180.573 334.769 177.48 334.008 174.468C331.532 164.054 332.945 165.074 330.033 151.357C327.191 138.837 323.375 126.559 318.619 114.634C316.437 109.591 313.317 105.008 309.426 101.129C304.356 96.1031 302.305 96.6556 301.848 96.815Z" fill="white"/>
<path d="M273.786 214.914L269.789 205.59L304.2 183.167L293.1 139.21L294.21 117.676L313.968 105.021L319.075 114.568L327.067 139.21L332.839 168.293L335.059 181.169V191.16L331.063 198.264L321.073 205.59L304.2 214.914L282.444 223.35L274.896 224.904L273.786 214.914Z" fill="#FF7372"/>
<path d="M334.305 176.507C334.04 176.507 333.37 171.609 331.904 163.757C329.99 153.52 327.488 143.401 324.411 133.452C322.789 127.971 320.823 122.598 318.523 117.365C316.648 113.12 314.233 109.134 311.339 105.506C309.377 103.068 307.133 100.871 304.654 98.9611C303.677 98.3282 302.753 97.6175 301.891 96.8359C303.039 97.1638 304.12 97.6966 305.079 98.4085C307.776 100.158 310.213 102.279 312.317 104.71C315.425 108.325 318.015 112.355 320.011 116.685C322.43 121.946 324.465 127.376 326.101 132.931C329.227 142.941 331.582 153.175 333.147 163.544C333.742 167.529 334.082 170.759 334.21 173.001C334.399 174.16 334.431 175.34 334.305 176.507Z" fill="black" stroke="black" stroke-width="0.222005" stroke-miterlimit="10"/>
<path d="M309.033 182.819C308.777 182.819 308.278 179.876 307.396 175.105C306.514 170.334 305.164 163.778 303.283 156.627C301.402 149.476 299.308 143.121 297.714 138.563C296.12 134.005 295.1 131.125 295.333 131.04C295.567 130.955 296.97 133.622 298.862 138.127C303.718 149.914 306.994 162.29 308.607 174.935C309.213 179.769 309.213 182.787 309.033 182.819Z" fill="black" stroke="black" stroke-width="0.222005" stroke-miterlimit="10"/>
<path d="M269.327 205.632C269.136 205.154 278.754 201.212 289.849 194.9C300.945 188.589 309.309 182.436 309.617 182.851C309.755 183.032 307.853 184.817 304.494 187.377C295.692 193.997 286.063 199.441 275.852 203.571C271.931 205.133 269.412 205.845 269.327 205.632Z" fill="black" stroke="black" stroke-width="0.222005" stroke-miterlimit="10"/>
<path d="M274.981 224.812C274.482 224.812 273.918 220.477 272.441 215.249C270.964 210.021 269.316 205.994 269.763 205.76C270.209 205.526 272.643 209.383 274.12 214.792C275.597 220.2 275.438 224.801 274.981 224.812Z" fill="black" stroke="black" stroke-width="0.222005" stroke-miterlimit="10"/>
<path d="M334.89 179.674C335.27 180.715 335.489 181.808 335.538 182.915C335.702 184.205 335.79 185.503 335.804 186.804C335.842 188.552 335.657 190.298 335.251 192C334.733 194.096 333.776 196.058 332.445 197.759C330.931 199.662 329.173 201.359 327.217 202.806C322.844 206.083 318.265 209.075 313.507 211.763C304.878 216.663 295.713 220.553 286.193 223.356C284.365 223.877 282.707 224.334 281.241 224.674C279.986 225.028 278.702 225.274 277.404 225.407C276.559 225.494 275.704 225.404 274.896 225.141C274.354 224.939 274.12 224.737 274.141 224.684C275.197 224.863 276.275 224.863 277.33 224.684C278.574 224.437 279.799 224.103 280.996 223.685C282.431 223.26 284.047 222.729 285.843 222.134C295.141 219.02 304.119 215.024 312.657 210.201C317.348 207.55 321.89 204.642 326.26 201.488C328.137 200.15 329.84 198.583 331.33 196.824C332.594 195.299 333.531 193.53 334.082 191.628C334.786 188.78 335.052 185.842 334.869 182.915C334.75 181.837 334.757 180.75 334.89 179.674Z" fill="black" stroke="black" stroke-width="0.222005" stroke-miterlimit="10"/>
<path d="M252.238 214.941C252.089 215.047 251.568 214.378 250.24 213.878C249.57 213.613 248.73 213.368 247.721 212.996C247.161 212.797 246.623 212.54 246.116 212.231C245.83 212.045 245.56 211.835 245.308 211.604C244.953 211.286 244.711 210.861 244.617 210.393C244.582 210.099 244.617 209.801 244.721 209.524C244.824 209.246 244.993 208.998 245.213 208.799C245.562 208.472 245.974 208.219 246.424 208.055C247.229 207.785 248.059 207.593 248.9 207.482C249.781 207.364 250.671 207.332 251.557 207.386C252.461 207.46 253.332 207.673 254.236 207.811C256.754 208.3 259.05 208.874 261.165 209.362C262.929 209.861 264.774 210.009 266.596 209.798C267.794 209.61 268.918 209.1 269.848 208.321C270.507 207.758 270.772 207.312 270.911 207.365C271.049 207.418 270.911 207.97 270.358 208.778C269.478 209.883 268.255 210.664 266.883 210.999C264.893 211.417 262.835 211.392 260.857 210.924L253.949 209.511C253.109 209.373 252.269 209.16 251.472 209.086C250.694 209.022 249.912 209.022 249.134 209.086C248.416 209.165 247.705 209.304 247.009 209.5C246.751 209.58 246.509 209.706 246.297 209.872C246.246 209.909 246.205 209.956 246.178 210.012C246.15 210.068 246.136 210.129 246.137 210.191C246.137 210.308 246.137 210.372 246.35 210.574C246.528 210.758 246.72 210.928 246.924 211.084C247.339 211.38 247.78 211.64 248.242 211.859C249.134 212.306 249.995 212.667 250.665 213.081C252.004 213.974 252.355 214.888 252.238 214.941Z" fill="black" stroke="black" stroke-width="0.222005" stroke-miterlimit="10"/>
<path d="M244.224 223.675C244.224 223.898 241.546 224.089 237.221 223.739C234.689 223.514 232.17 223.159 229.675 222.676L227.549 222.23C227.149 222.143 226.755 222.03 226.37 221.89L226.061 221.773L225.902 221.709L225.679 221.592C225.386 221.446 225.114 221.26 224.871 221.04C224.643 220.862 224.454 220.639 224.315 220.385C224.176 220.131 224.09 219.851 224.063 219.563C224.042 219.278 224.117 218.993 224.276 218.755C224.422 218.535 224.628 218.361 224.871 218.256C225.163 218.124 225.476 218.045 225.796 218.022L226.71 217.916L227.921 217.767C234.436 216.992 240.366 216.418 244.628 216.035C246.285 215.901 247.926 215.609 249.528 215.164C250.665 214.835 251.27 214.569 251.334 214.675C251.398 214.781 250.888 215.249 249.772 215.791C248.187 216.508 246.509 216.998 244.788 217.247C240.536 217.948 234.649 218.713 228.123 219.489L226.476 219.68C226.38 219.68 226.274 219.754 226.306 219.86C226.315 219.907 226.335 219.95 226.362 219.989C226.389 220.027 226.425 220.06 226.465 220.084C226.922 220.339 227.417 220.518 227.932 220.615L230.057 221.114C232.799 221.72 235.308 222.177 237.412 222.496C241.589 223.176 244.235 223.42 244.224 223.675Z" fill="black" stroke="black" stroke-width="0.222005" stroke-miterlimit="10"/>
<path d="M222.214 226.3C222.076 225.864 226.848 224.175 233.012 224.175C234.433 224.181 235.852 224.266 237.263 224.43C238.367 224.569 239.477 224.64 240.59 224.642C242.46 224.642 243.512 224.037 243.661 224.249C243.81 224.462 243.534 224.632 243.045 224.972C242.344 225.427 241.554 225.728 240.728 225.854C239.544 226.04 238.342 226.094 237.146 226.013C235.839 226.013 234.447 225.907 232.97 225.907C227.103 225.917 222.331 226.789 222.214 226.3Z" fill="black" stroke="black" stroke-width="0.222005" stroke-miterlimit="10"/>
<path d="M242.864 228.011C243.002 228.436 238.613 229.976 232.916 229.647C227.22 229.317 223.022 227.352 223.203 226.937C223.383 226.523 227.634 227.649 233.001 227.915C238.368 228.181 242.747 227.522 242.864 228.011Z" fill="black" stroke="black" stroke-width="0.222005" stroke-miterlimit="10"/>
<path d="M240.972 231.878C240.972 232.112 239.856 232.367 238.018 232.548C235.599 232.797 233.157 232.719 230.759 232.314C228.254 231.982 225.897 230.938 223.968 229.307C223.385 228.777 222.94 228.113 222.671 227.373C222.501 226.842 222.533 226.523 222.671 226.481C222.926 226.396 223.394 227.426 224.797 228.361C226.726 229.531 228.874 230.294 231.11 230.603C233.409 230.965 235.725 231.206 238.05 231.326C239.824 231.464 240.962 231.634 240.972 231.878Z" fill="black" stroke="black" stroke-width="0.222005" stroke-miterlimit="10"/>
<path d="M245.33 235.704C245.383 235.916 244.267 236.469 242.205 236.766C239.551 237.143 236.848 236.966 234.266 236.245C231.68 235.549 229.264 234.33 227.167 232.665C225.594 231.358 224.871 230.306 225.041 230.146C225.381 229.753 229.048 233.079 234.734 234.577C240.42 236.075 245.234 235.225 245.33 235.704Z" fill="black" stroke="black" stroke-width="0.222005" stroke-miterlimit="10"/>
<path d="M274.141 221.996C274.29 222.156 273.079 223.611 270.698 225.588C264.485 230.703 257.151 234.278 249.294 236.022C246.286 236.649 244.384 236.734 244.352 236.511C244.246 235.99 251.642 234.556 259.858 230.507C268.073 226.459 273.759 221.592 274.141 221.996Z" fill="black" stroke="black" stroke-width="0.222005" stroke-miterlimit="10"/>
<path d="M223.585 54.1528C219.884 53.5793 216.428 51.9441 213.638 49.4457C206.804 43.1446 207.484 33.7196 207.675 31.1057C208.118 25.8681 210.018 20.8587 213.159 16.6442C219.781 7.33605 229.59 4.44586 234.043 3.12827C242.863 0.603875 252.224 0.673968 261.006 3.33016C263.9 2.55461 266.899 2.24259 269.89 2.40572C275.128 2.56648 280.192 4.31972 284.408 7.43168C289.392 11.2888 291.305 16.1766 292.74 20.0231C296.779 30.7657 295.142 40.7857 293.803 46.0029C296.666 46.4705 299.331 47.7587 301.476 49.7113C305.982 53.9616 307.385 61.0064 305.249 67.9025C309.103 65.9719 313.495 65.399 317.715 66.2768C327.355 68.4019 331.138 78.1988 331.903 80.1645C335.315 88.952 332.477 96.9956 331.149 100.045C325.761 112.35 313.018 116.047 309.234 117.153C304.803 118.438 295.578 121.116 286.14 116.26C280.272 113.135 275.739 107.984 273.387 101.767C271.146 95.4873 271.297 88.6026 273.812 82.4278C269.787 78.6296 265.5 75.1181 260.984 71.919C249.636 63.8849 236.983 57.8742 223.585 54.1528Z" fill="black"/>
<path d="M253.013 16.3359C250.349 18.4611 247.536 20.3928 244.596 22.1163C237.952 25.9879 230.729 28.7649 223.202 30.3406C224.116 42.8683 224.531 52.0064 224.743 58.6262C224.653 63.4515 225.618 68.2383 227.57 72.6521C228.739 75.1491 230.897 79.5907 235.637 82.4702C238.523 84.1024 241.7 85.1563 244.989 85.5729C248.847 86.0299 250.526 85.2329 252.864 86.7418C254.545 87.9369 255.833 89.605 256.563 91.534C257.182 93.0323 257.49 94.6412 257.466 96.2624C258.042 97.008 258.743 97.648 259.539 98.1538C264.661 101.341 271.75 97.2081 272.292 96.8574C271.564 91.2423 272.232 85.5344 274.237 80.2388C272.686 78.4482 271.611 76.2958 271.112 73.9803C269.656 67.0311 274.301 61.5483 274.938 60.7938C276.288 60.3838 277.559 59.7518 278.7 58.9237C281.124 57.2106 282.89 54.7215 283.706 51.8682C284.014 50.8057 285.109 46.7892 282.952 43.2083C282.378 42.2626 281.177 40.265 278.934 39.8293C276.692 39.3937 273.982 40.7963 272.356 43.4208C269.862 42.9637 267.484 42.0136 265.363 40.6263C261.26 37.9167 259.4 34.2509 257.381 30.2556C255.203 25.8739 253.729 21.1764 253.013 16.3359Z" fill="white"/>
<path d="M257.137 95.0297C256.772 93.9897 256.484 92.9243 256.276 91.842C255.975 90.6615 255.437 89.5549 254.692 88.5905C254.22 88.0404 253.632 87.6013 252.971 87.3048C252.193 86.9973 251.372 86.8144 250.537 86.7629C246.032 86.6484 241.579 85.768 237.369 84.1596C234.842 83.1164 232.574 81.5313 230.727 79.5162C228.824 77.3076 227.379 74.7432 226.476 71.9719C224.552 66.3403 224.201 60.7618 223.712 55.8103C223.224 50.8587 223.043 46.3215 222.947 42.5388C222.852 38.756 222.873 35.6958 222.947 33.5813C222.895 32.4813 222.999 31.3795 223.255 30.3086C223.51 30.3086 223.67 34.9733 224.169 42.4856C224.424 46.2365 224.786 50.7099 225.307 55.6509C225.827 60.5918 226.284 66.0853 228.112 71.3981C228.954 73.9599 230.29 76.3317 232.045 78.3792C233.696 80.2458 235.729 81.7353 238.007 82.7464C240.12 83.664 242.33 84.3377 244.596 84.7546C246.722 85.169 248.741 85.3709 250.664 85.5834C251.621 85.6872 252.554 85.9456 253.428 86.3485C254.216 86.7488 254.903 87.3228 255.436 88.0273C256.228 89.1433 256.752 90.4269 256.967 91.7782C257.235 92.8405 257.293 93.9452 257.137 95.0297Z" fill="black" stroke="black" stroke-width="0.222005" stroke-miterlimit="10"/>
<path d="M243.385 64.4706C243.321 64.5663 242.843 64.4069 242.045 63.9818C240.899 63.3864 239.828 62.6551 238.857 61.8036C238.164 61.1777 237.557 60.4631 237.05 59.6784C236.45 58.7557 236.052 57.7164 235.881 56.6289C235.754 55.4742 235.754 54.309 235.881 53.1543C235.977 52.0067 236.083 50.8272 236.221 49.6053C237.284 39.8828 239.346 32.2217 239.803 32.3173C240.26 32.4129 238.963 40.1803 237.943 49.7966C237.816 50.9973 237.688 52.1767 237.571 53.303C237.444 54.3393 237.416 55.3853 237.486 56.427C237.703 58.1439 238.484 59.74 239.707 60.9642C240.565 61.8451 241.469 62.6786 242.417 63.4612C243.098 64.0137 243.448 64.3644 243.385 64.4706Z" fill="black" stroke="black" stroke-width="0.222005" stroke-miterlimit="10"/>
<path d="M233.139 49.2757C232.927 49.3714 232.523 49.0526 232.151 48.3619C231.725 47.4727 231.476 46.5091 231.418 45.5249C231.269 43.2828 231.641 41.5508 232.108 41.519C232.576 41.4871 233.012 43.2828 233.171 45.3867L233.362 48.0219C233.362 48.6488 233.352 49.127 233.139 49.2757Z" fill="black" stroke="black" stroke-width="0.222005" stroke-miterlimit="10"/>
<path d="M249.463 47.5542C249.028 47.7242 247.986 45.9922 247.71 43.5801C247.434 41.1681 248.039 39.2449 248.507 39.3299C248.975 39.4149 249.166 41.2106 249.432 43.3995C249.697 45.5884 249.931 47.3948 249.463 47.5542Z" fill="black" stroke="black" stroke-width="0.222005" stroke-miterlimit="10"/>
<path d="M235.169 35.4624C234.914 35.8768 233.171 35.2286 231.056 35.6643C228.941 36.0999 227.549 37.2581 227.156 36.9712C226.975 36.8331 227.156 36.2593 227.708 35.5899C228.531 34.7523 229.591 34.1886 230.746 33.9756C231.9 33.7626 233.092 33.9108 234.16 34.3998C234.957 34.8142 235.286 35.2924 235.169 35.4624Z" fill="black" stroke="black" stroke-width="0.222005" stroke-miterlimit="10"/>
<path d="M256.648 32.0943C256.499 32.5618 253.842 32.0943 250.611 32.0943C249.307 32.0195 248.003 32.2261 246.785 32.6999C245.956 33.0824 245.638 33.6669 245.383 33.6031C245.287 33.6031 245.191 33.3693 245.266 33.0081C245.395 32.4946 245.681 32.0341 246.084 31.6905C247.383 30.7309 248.978 30.2605 250.59 30.3623C254.161 30.341 256.818 31.6586 256.648 32.0943Z" fill="black" stroke="black" stroke-width="0.222005" stroke-miterlimit="10"/>
<path d="M254.363 64.491C254.49 64.6823 253.895 65.3729 252.769 66.3186C251.284 67.5668 249.608 68.5678 247.806 69.2832C245.949 70.0418 243.921 70.2806 241.939 69.9739C240.409 69.6763 239.633 69.0707 239.718 68.9113C239.803 68.7519 240.685 68.8263 242.035 68.7944C243.8 68.7326 245.543 68.3733 247.189 67.7318C248.867 67.0312 250.506 66.2402 252.099 65.3623C253.374 64.6291 254.225 64.2891 254.363 64.491Z" fill="black" stroke="black" stroke-width="0.222005" stroke-miterlimit="10"/>
<path d="M272.207 59.0296C272.281 58.9127 272.76 59.1677 273.663 59.3165C274.906 59.5097 276.178 59.3438 277.33 58.8383C279.03 58.0348 280.432 56.7145 281.336 55.0662C282.532 53.0591 283.239 50.7985 283.398 48.4677C283.463 47.3026 283.297 46.1362 282.909 45.0356C282.537 44.027 281.958 43.1076 281.209 42.3366C280.541 41.6453 279.718 41.1242 278.807 40.8172C278.018 40.5607 277.178 40.5059 276.362 40.6578C275.13 40.8789 274.007 41.5076 273.174 42.4429C272.6 43.1336 272.409 43.6436 272.281 43.6117C272.154 43.5798 272.133 42.9954 272.621 42.0604C273.391 40.7679 274.64 39.832 276.097 39.4571C277.12 39.1849 278.198 39.1849 279.221 39.4571C280.39 39.7716 281.46 40.3745 282.335 41.2103C283.266 42.1063 283.992 43.194 284.461 44.398C284.951 45.711 285.168 47.1103 285.098 48.5102C284.931 51.1341 284.089 53.6704 282.654 55.8738C281.528 57.7597 279.786 59.2005 277.723 59.954C276.321 60.4348 274.795 60.4123 273.408 59.8903C272.505 59.5715 272.143 59.104 272.207 59.0296Z" fill="black" stroke="black" stroke-width="0.222005" stroke-miterlimit="10"/>
<path d="M259.262 2.84129C257.962 2.85808 256.663 2.75135 255.383 2.52252C251.905 2.17431 248.407 2.07134 244.915 2.21438C239.761 2.4208 234.673 3.45034 229.845 5.26395C223.965 7.49707 218.76 11.2079 214.732 16.0384C212.688 18.5276 211.072 21.3392 209.95 24.3583C208.958 27.1874 208.434 30.159 208.398 33.1564C208.308 38.2684 209.845 43.2768 212.787 47.4586C214.715 50.31 217.533 52.4434 220.801 53.5258C222.036 53.8118 223.296 53.979 224.563 54.0253C224.563 54.0253 224.244 54.2059 223.574 54.3015C222.598 54.4411 221.604 54.4015 220.641 54.1846C217.085 53.2987 213.956 51.1833 211.809 48.213C208.545 43.8772 206.788 38.5938 206.804 33.167C206.784 29.9706 207.309 26.7942 208.355 23.7739C209.52 20.559 211.223 17.5658 213.393 14.9227C217.626 9.86185 223.128 6.01538 229.335 3.77635C234.338 1.98062 239.609 1.04299 244.926 1.00305C248.487 0.966745 252.044 1.25483 255.553 1.86373C256.827 2.02486 258.074 2.35356 259.262 2.84129Z" fill="black" stroke="black" stroke-width="0.222005" stroke-miterlimit="10"/>
<path d="M252.992 16.3363C253.066 16.5488 251.472 17.3989 249.24 19.524C246.207 22.1874 242.838 24.4416 239.218 26.2288C235.607 28.032 231.772 29.3469 227.815 30.1391C224.775 30.7129 222.862 30.7341 222.83 30.511C222.735 29.9903 230.27 28.8109 238.453 24.6775C241.961 22.8888 245.314 20.8096 248.475 18.4614C249.469 17.7217 250.538 17.0879 251.663 16.5701C252.46 16.2513 252.96 16.1982 252.992 16.3363Z" fill="black" stroke="black" stroke-width="0.222005" stroke-miterlimit="10"/>
<path d="M273.004 42.5177C273.004 42.709 270.932 42.8471 267.86 41.6995C263.878 40.1082 260.459 37.3672 258.04 33.8259C255.665 30.3166 254.097 26.3249 253.449 22.1376C252.95 18.9499 253.077 16.9736 253.29 16.9629C253.502 16.9523 253.853 18.8756 254.65 21.8826C255.605 25.7866 257.234 29.4939 259.464 32.8377C261.731 36.1197 264.786 38.7797 268.349 40.5732C271.102 41.9333 273.079 42.2415 273.004 42.5177Z" fill="black" stroke="black" stroke-width="0.222005" stroke-miterlimit="10"/>
<path d="M293.792 45.9709C293.516 45.9709 293.983 42.4644 294.143 36.8859C294.236 33.631 294.044 30.3742 293.569 27.1528C293.002 23.2453 291.796 19.4579 289.998 15.9427C288.23 12.4489 285.685 9.40645 282.558 7.04896C279.976 5.15681 277.007 3.85791 273.865 3.24496C271.735 2.83669 269.553 2.77212 267.403 3.0537C265.873 3.26621 265.022 3.5106 264.98 3.37247C265.651 2.86664 266.435 2.53119 267.265 2.3949C269.486 1.82869 271.798 1.70592 274.067 2.03363C277.443 2.50885 280.66 3.76797 283.462 5.71012C286.869 8.1525 289.639 11.3776 291.539 15.1139C293.432 18.8193 294.656 22.8302 295.152 26.9615C295.565 30.2819 295.636 33.6359 295.365 36.9709C294.887 42.6131 293.994 46.0027 293.792 45.9709Z" fill="black" stroke="black" stroke-width="0.222005" stroke-miterlimit="10"/>
<path d="M304.622 67.9872C304.377 67.8809 304.94 66.3827 305.249 63.9069C305.682 60.7406 305.233 57.5161 303.952 54.5882C302.595 51.7124 300.363 49.3394 297.575 47.809C295.397 46.6296 293.802 46.4064 293.845 46.1195C293.887 45.8326 295.556 45.7158 298.096 46.6933C301.387 48.0623 304.043 50.6188 305.536 53.855C306.993 57.0893 307.319 60.72 306.46 64.162C305.791 66.7334 304.802 68.0828 304.622 67.9872Z" fill="black" stroke="black" stroke-width="0.222005" stroke-miterlimit="10"/>
<path d="M274.386 80.4087C274.237 80.5469 273.1 79.7181 272.079 77.7204C270.794 75.0843 270.363 72.1126 270.847 69.2199C271.296 66.3978 272.347 63.7053 273.929 61.325C274.194 60.8926 274.496 60.4838 274.832 60.103C275.122 59.7892 275.488 59.555 275.895 59.423C276.03 59.3751 276.176 59.3607 276.318 59.381C276.461 59.4014 276.596 59.4559 276.713 59.5399C276.873 59.6568 276.894 59.7949 276.873 59.848C276.851 59.9012 276.522 59.7418 276.16 60.0393C275.927 60.2259 275.729 60.4526 275.576 60.7087C275.406 60.985 275.204 61.4631 274.991 61.92C273.821 64.309 272.997 66.853 272.547 69.4749C272.141 72.0646 272.363 74.7139 273.195 77.1998C273.844 79.1655 274.598 80.2387 274.386 80.4087Z" fill="black" stroke="black" stroke-width="0.222005" stroke-miterlimit="10"/>
<path d="M312.019 115.367C311.253 115.862 310.408 116.221 309.521 116.43C307.191 117.197 304.812 117.807 302.401 118.258C298.773 118.967 295.053 119.074 291.39 118.576C289.206 118.242 287.08 117.598 285.077 116.664C282.925 115.632 280.954 114.257 279.243 112.594C275.954 109.377 273.581 105.343 272.367 100.906C271.411 97.3269 271.122 93.6024 271.516 89.9189C271.768 87.4607 272.303 85.0397 273.11 82.7041C273.695 81.0571 274.173 80.2071 274.258 80.2496C274.556 80.3346 273.121 83.9473 272.739 90.0146C272.532 93.5402 272.924 97.0752 273.897 100.47C275.128 104.581 277.38 108.314 280.444 111.319C282.03 112.869 283.848 114.163 285.832 115.155C287.685 116.044 289.652 116.674 291.677 117.025C295.175 117.557 298.733 117.557 302.231 117.025C305.249 116.621 307.683 116.101 309.372 115.761C310.227 115.487 311.121 115.355 312.019 115.367Z" fill="black" stroke="black" stroke-width="0.222005" stroke-miterlimit="10"/>
<path d="M327.216 103.148C326.951 102.978 329.055 100.343 330.745 95.3805C331.698 92.5069 332.158 89.4926 332.105 86.4655C332.009 82.7667 330.99 79.1505 329.14 75.9461C327.323 72.7419 324.627 70.1242 321.371 68.4019C319.115 67.2503 316.644 66.5819 314.115 66.4392C311.586 66.2964 309.055 66.6826 306.683 67.5731C305.312 68.0831 304.558 68.4975 304.558 68.37C304.558 68.2425 305.111 67.6899 306.45 66.9568C308.368 65.9635 310.469 65.3706 312.624 65.2142C315.878 64.9737 319.138 65.5853 322.083 66.9886C325.681 68.7759 328.661 71.5998 330.638 75.0961C332.612 78.5376 333.652 82.4347 333.657 86.4018C333.649 89.6184 333.036 92.8048 331.85 95.7949C331.066 97.7955 330.031 99.688 328.768 101.427C327.907 102.638 327.28 103.212 327.216 103.148Z" fill="black" stroke="black" stroke-width="0.222005" stroke-miterlimit="10"/>
<path d="M271.335 96.0286C271.505 96.1561 271.155 97.0911 269.922 98.0262C268.288 99.1442 266.354 99.7407 264.374 99.7369C262.39 99.9065 260.404 99.4334 258.71 98.3875C258.191 98.0219 257.777 97.5275 257.509 96.953C257.339 96.5386 257.371 96.2836 257.509 96.2305C257.647 96.1773 258.231 96.8467 259.369 97.293C260.968 97.8662 262.67 98.0944 264.364 97.9624C266.075 97.9345 267.764 97.5736 269.337 96.8999C270.475 96.4323 271.133 95.8692 271.335 96.0286Z" fill="black" stroke="black" stroke-width="0.222005" stroke-miterlimit="10"/>
<path d="M28.4692 276.632L31.1333 279.296L47.7837 277.742L91.7407 281.96L117.049 239.557H111.499L66.2101 237.337C64.6561 226.31 61.548 203.991 61.548 202.926C61.548 201.86 59.624 191.382 58.6619 186.275L19.145 214.248L16.9249 216.69L28.4692 276.632Z" fill="white"/>
<path d="M67.001 236.585C67.4104 237.011 59.1338 246.216 48.6072 257.171C38.0807 268.126 29.1481 276.733 28.7378 276.391C28.3284 275.966 36.605 266.761 47.1316 255.806C57.7417 244.767 66.5916 236.159 67.001 236.585Z" fill="black" stroke="black" stroke-width="0.223767" stroke-miterlimit="10"/>
<path d="M28.1567 276.639C27.9078 276.721 26.8643 273.419 25.5103 268.005C24.1564 262.59 22.4092 255.062 20.8356 246.691C19.262 238.32 18.0945 230.713 17.4038 225.136C16.713 219.559 16.4974 216.181 16.7463 216.099C16.9953 216.017 17.7898 219.401 18.8121 224.897C19.8345 230.392 21.2508 237.918 22.8244 246.288C24.3981 254.659 25.8971 262.185 26.9203 267.596C27.9418 273.177 28.4883 276.558 28.1567 276.639Z" fill="black" stroke="black" stroke-width="0.223767" stroke-miterlimit="10"/>
<path d="M65.9195 237.251C65.3398 237.329 63.6162 227.354 61.9153 215.015C60.2971 202.677 59.4021 192.54 59.8991 192.461C60.4788 192.382 62.2025 202.358 63.9033 214.696C65.6042 227.035 66.4992 237.172 65.9195 237.251Z" fill="black" stroke="black" stroke-width="0.223767" stroke-miterlimit="10"/>
<path d="M58.8831 186.289C59.209 186.799 50.047 193.463 38.5556 201.539C27.1478 209.532 17.7402 215.94 17.4142 215.43C17.0875 215.005 26.0062 207.833 37.4141 199.84C48.9055 191.764 58.5563 185.864 58.8831 186.289Z" fill="black" stroke="black" stroke-width="0.223767" stroke-miterlimit="10"/>
<path d="M92.7794 282.325C92.7769 282.578 89.2209 282.544 83.6005 282.153C77.8974 281.76 70.1293 281.095 61.5357 280.252C57.2394 279.789 53.1076 279.412 49.3885 279.123C45.6695 278.834 42.2796 278.717 39.4669 278.774C33.8425 278.804 30.3642 279.277 30.2848 278.939C30.2045 278.685 33.6877 277.706 39.3989 277.254C42.2958 277.029 45.6873 276.977 49.4072 277.182C53.2098 277.387 57.3424 277.68 61.6388 278.143C70.2323 278.986 78.0806 279.905 83.6978 280.634C89.3149 281.364 92.7826 281.988 92.7794 282.325Z" fill="black" stroke="black" stroke-width="0.223767" stroke-miterlimit="10"/>
<path d="M117.112 239.635C117.115 239.888 114.174 239.929 109.517 239.655C104.791 239.383 98.3521 238.881 91.2265 238.219C87.6631 237.846 84.2376 237.556 81.1555 237.345C78.0733 237.134 75.2671 237.089 72.9421 237.205C68.2911 237.354 65.4246 237.899 65.3515 237.563C65.2796 237.311 68.1391 236.258 72.8528 235.687C75.2439 235.401 78.0477 235.278 81.1287 235.404C84.2781 235.53 87.7024 235.736 91.2658 236.109C98.3915 236.77 104.903 237.524 109.564 238.135C114.226 238.746 117.107 239.297 117.112 239.635Z" fill="black" stroke="black" stroke-width="0.223767" stroke-miterlimit="10"/>
<path d="M116.258 238.495C116.488 238.603 115.253 241.232 112.994 245.246C110.706 249.321 107.472 254.817 103.797 260.853C101.922 263.853 100.18 266.766 98.6585 269.41C97.1369 272.054 95.8829 274.524 94.9827 276.639C93.106 280.833 92.358 283.616 92.0238 283.533C91.7659 283.487 92.0556 280.488 93.5791 276.054C94.3552 273.807 95.4564 271.264 96.9016 268.585C98.3756 265.844 100.041 262.894 101.916 259.894C105.591 253.859 109.083 248.409 111.648 244.539C114.212 240.668 115.953 238.351 116.258 238.495Z" fill="black" stroke="black" stroke-width="0.223767" stroke-miterlimit="10"/>
<path d="M33.667 262.682C33.5016 262.68 33.0313 259.975 32.412 255.58C31.7926 251.185 30.8586 245.099 29.765 238.421C28.6713 231.743 27.4884 225.739 26.6209 221.342C25.7534 216.945 25.2832 214.24 25.4486 214.241C25.6148 214.159 26.4158 216.867 27.5322 221.182C28.6486 225.497 29.9142 231.502 31.0071 238.264C32.1008 244.943 32.8685 251.111 33.3225 255.504C33.7765 259.897 33.8332 262.599 33.667 262.682Z" fill="black" stroke="black" stroke-width="0.149178" stroke-miterlimit="10"/>
<path d="M57.233 194.46C57.314 194.629 55.6503 195.626 52.9868 197.373C50.3234 199.12 46.8248 201.703 43.0741 204.705C39.2406 207.706 35.7412 210.374 33.0786 212.036C30.4151 213.783 28.5876 214.609 28.5065 214.439C28.4255 214.27 30.0074 213.188 32.507 211.271C35.0067 209.354 38.4242 206.601 42.2576 203.6C46.091 200.598 49.7542 198.102 52.4988 196.524C55.326 194.948 57.2346 194.291 57.233 194.46Z" fill="black" stroke="black" stroke-width="0.149178" stroke-miterlimit="10"/>
<path d="M64.186 236.896C64.0206 236.895 63.629 234.612 63.1685 230.894C62.6253 227.175 61.9305 222.02 61.0752 216.357C60.2199 210.694 59.277 205.537 58.6512 201.817C58.0253 198.097 57.6337 195.815 57.7999 195.732C57.9661 195.649 58.6885 197.935 59.5633 201.573C60.4381 205.21 61.4636 210.369 62.4017 216.032C63.257 221.695 63.8683 226.934 64.0798 230.734C64.3741 234.535 64.3522 236.813 64.186 236.896Z" fill="black" stroke="black" stroke-width="0.149178" stroke-miterlimit="10"/>
<path d="M61.9774 234.343C62.2231 234.598 56.2873 241.209 48.7687 248.986C41.1667 256.846 34.8222 262.946 34.5766 262.691C34.3309 262.435 40.2667 255.825 47.7853 248.048C55.3046 240.187 61.6491 234.086 61.9774 234.343Z" fill="black" stroke="black" stroke-width="0.149178" stroke-miterlimit="10"/>
<path d="M83.3787 273.394C83.7078 273.566 83.703 274.072 83.4508 274.491C83.1987 274.911 82.7017 274.991 82.4552 274.819C82.126 274.647 82.1309 274.141 82.383 273.722C82.6352 273.302 83.0495 273.222 83.3787 273.394Z" fill="black" stroke="black" stroke-width="0.149178" stroke-miterlimit="10"/>
<path d="M75.6603 240.347C75.8136 240.422 74.6489 242.514 72.6053 245.63C70.6351 248.741 67.7193 252.97 64.3772 257.406C61.0418 261.928 57.8793 265.827 55.589 268.615C53.2253 271.409 51.727 273.004 51.567 272.843C51.407 272.681 52.7384 270.838 54.9421 267.883C57.1457 264.927 60.1482 260.866 63.4903 256.431C66.7523 251.914 69.7548 247.853 71.9584 244.898C74.0955 242.035 75.507 240.272 75.6603 240.347Z" fill="black" stroke="black" stroke-width="0.149178" stroke-miterlimit="10"/>
<path d="M82.0608 242.709C82.4838 243.005 78.3791 250.666 72.4704 259.564C66.5531 268.352 61.063 274.915 60.7393 274.612C60.4157 274.308 65.2671 267.247 71.1843 258.458C77.0022 249.678 81.6378 242.414 82.0608 242.709Z" fill="black" stroke="black" stroke-width="0.149178" stroke-miterlimit="10"/>
<path d="M79.7451 271.559C79.7738 271.928 73.4032 272.145 65.6345 271.451C57.8658 270.757 51.6279 269.48 51.6817 269.105C51.7283 268.637 57.9985 269.262 65.7672 269.957C73.4463 270.565 79.7093 271.098 79.7451 271.559Z" fill="black" stroke="black" stroke-width="0.149178" stroke-miterlimit="10"/>
<path d="M94.7367 249.966C94.759 250.334 88.9031 250.784 81.5016 250.519C74.2251 250.251 68.2909 249.411 68.3936 249.041C68.4907 248.579 74.3857 248.773 81.5371 249.043C88.8136 249.31 94.7087 249.505 94.7367 249.966Z" fill="black" stroke="black" stroke-width="0.149178" stroke-miterlimit="10"/>
<path d="M90.518 256.336C90.5404 256.704 84.6845 257.155 77.283 256.889C70.0065 256.621 64.0723 255.781 64.1749 255.411C64.272 254.949 70.1671 255.143 77.3185 255.413C84.5949 255.68 90.49 255.875 90.518 256.336Z" fill="black" stroke="black" stroke-width="0.149178" stroke-miterlimit="10"/>
<path d="M85.7981 263.589C85.8205 263.957 79.9645 264.407 72.563 264.142C65.2865 263.874 59.3523 263.034 59.455 262.664C59.5521 262.202 65.4471 262.396 72.5985 262.666C79.875 262.933 85.7701 263.128 85.7981 263.589Z" fill="black" stroke="black" stroke-width="0.149178" stroke-miterlimit="10"/>
<path d="M77.1934 274.285C77.0403 274.221 78.1248 272.205 80.044 269.185C81.8913 266.175 84.6362 262.072 87.7946 257.755C90.9437 253.358 93.9412 249.553 96.1131 246.831C98.357 244.1 99.7845 242.534 99.9469 242.679C100.109 242.823 98.8531 244.614 96.7716 247.489C94.69 250.364 91.8548 254.314 88.6965 258.63C85.6193 263.019 82.7841 266.969 80.7025 269.844C78.6837 272.629 77.3465 274.348 77.1934 274.285Z" fill="black" stroke="black" stroke-width="0.149178" stroke-miterlimit="10"/>
<path d="M70.6887 272.937C70.2691 272.606 74.6925 264.698 80.9887 255.566C87.2898 246.55 93.083 239.865 93.4014 240.201C93.7198 240.536 88.5585 247.777 82.2573 256.793C76.0574 265.805 71.1083 273.269 70.6887 272.937Z" fill="black" stroke="black" stroke-width="0.149178" stroke-miterlimit="10"/>
<path d="M72.0082 243.252C71.9665 242.885 78.3211 242.398 86.1043 242.762C93.8875 243.127 100.163 244.139 100.122 244.516C100.092 244.985 93.808 244.626 86.0248 244.261C78.3341 243.979 72.0604 243.712 72.0082 243.252Z" fill="black" stroke="black" stroke-width="0.149178" stroke-miterlimit="10"/>
<path d="M40.026 246.454C39.6944 246.535 38.0047 241.624 36.4108 235.363C34.7333 229.185 33.7078 224.027 34.0394 223.946C34.371 223.865 36.0606 228.776 37.6545 235.037C39.2485 241.298 40.4411 246.289 40.026 246.454Z" fill="black" stroke="black" stroke-width="0.149178" stroke-miterlimit="10"/>
<path d="M41.5677 235.339L44.4537 242.443L49.1158 238.669L44.4537 230.232L40.4576 233.563L41.5677 235.339Z" fill="#FF7372"/>
<path d="M44.4539 220.908L51.78 235.56L56.2201 232.674L49.116 218.688L44.4539 220.908Z" fill="#FF7372"/>
<path d="M58.0428 230.676C58.2885 230.931 54.4477 234.692 49.4435 239.033C44.4393 243.374 40.2726 246.625 40.0278 246.285C39.7829 245.945 43.6228 242.269 48.6271 237.928C53.5478 233.671 57.7971 230.42 58.0428 230.676Z" fill="black" stroke="black" stroke-width="0.149178" stroke-miterlimit="10"/>
<path d="M43.6316 241.34C43.3 241.421 42.4908 239.557 41.5203 237.269C40.6325 234.981 39.9069 233.033 40.2393 232.867C40.5718 232.702 41.7968 234.317 42.7657 236.774C43.7354 239.147 43.9632 241.259 43.6316 241.34Z" fill="black" stroke="black" stroke-width="0.149178" stroke-miterlimit="10"/>
<path d="M48.4648 237.589C48.2985 237.671 47.7237 237.244 46.9056 236.308C46.0875 235.371 45.1917 233.928 44.5471 232.149C44.5479 232.065 44.466 231.98 44.4668 231.895C44.4676 231.811 44.4685 231.727 44.3858 231.726C44.3022 231.809 44.3022 231.809 44.2187 231.893L44.1352 231.977C44.0517 232.06 43.8855 232.143 43.802 232.226C43.3017 232.644 42.8858 232.893 42.4707 233.058C41.6396 233.472 41.1434 233.467 41.0623 233.297C40.9812 233.128 41.3972 232.879 42.0645 232.294C42.3977 232.044 42.7318 231.71 43.0666 231.291C43.1501 231.207 43.2344 231.039 43.4006 230.957C43.5685 230.705 43.7355 230.538 43.9034 230.286C44.239 229.783 44.5763 229.111 44.9947 228.609C45.2347 229.455 45.5541 230.64 45.8752 231.656C47.0013 234.958 48.7153 237.338 48.4648 237.589Z" fill="black" stroke="black" stroke-width="0.149178" stroke-miterlimit="10"/>
<path d="M51.3754 235.929C51.043 236.094 49.0039 233.121 47.1415 228.967C45.2784 224.898 44.2374 221.343 44.5698 221.178C44.9022 221.012 46.4419 224.318 48.305 228.388C50.1682 232.457 51.7078 235.763 51.3754 235.929Z" fill="black" stroke="black" stroke-width="0.149178" stroke-miterlimit="10"/>
<path d="M56.113 233.527C55.7806 233.692 53.5032 229.704 51.07 224.701C50.4206 223.429 49.8531 222.241 49.3674 221.14C49.1242 220.631 48.8826 219.953 48.7188 219.783C48.5558 219.528 48.3077 219.526 47.8934 219.606C47.1467 219.852 46.3983 220.267 45.9013 220.347C45.3216 220.426 44.9924 220.254 45.076 220.17C45.0768 220.086 45.4076 220.089 45.7408 219.839C46.1559 219.674 46.657 219.172 47.5716 218.675C47.8205 218.593 48.0702 218.426 48.4829 218.515C48.8137 218.518 49.2255 218.691 49.5539 218.947C49.7996 219.203 49.9617 219.542 50.1247 219.797C50.2877 220.051 50.3679 220.305 50.5309 220.56C51.0993 221.663 51.6668 222.85 52.3162 224.122C54.7493 229.125 56.4455 233.361 56.113 233.527Z" fill="black" stroke="black" stroke-width="0.149178" stroke-miterlimit="10"/>
<path d="M48.4254 207.289C48.5081 207.29 48.5868 207.712 48.4976 208.387C48.4911 209.062 48.3986 210.074 48.1392 211.253C47.8797 212.432 47.3689 213.946 46.1163 215.2C45.5317 215.785 44.7817 216.369 43.8687 216.698C43.4536 216.863 42.9558 217.027 42.4596 217.022L42.0461 217.018C41.9634 217.017 41.8806 217.016 41.8806 217.016L41.7152 217.015C41.6325 217.014 41.6326 217.014 41.5499 217.013L41.4671 217.012C41.4663 217.097 41.4655 217.181 41.4631 217.434C41.459 217.856 41.455 218.278 41.4501 218.785C41.442 219.628 41.3512 220.472 41.2612 221.23C41.0803 222.832 40.8193 224.18 40.4771 225.358C40.306 225.948 40.1349 226.537 39.8828 226.956C39.6306 227.376 39.2966 227.71 38.9642 227.876C38.6317 228.041 38.3009 228.038 38.1363 227.952C37.9718 227.866 37.8898 227.781 37.8898 227.781C37.8906 227.697 38.3033 227.785 38.7201 227.451C38.8871 227.284 39.1385 226.949 39.3071 226.613C39.4766 226.193 39.5633 225.772 39.6517 225.182C39.8285 224.002 40.0069 222.653 40.1042 221.135C40.1942 220.376 40.2015 219.617 40.2096 218.773C40.2137 218.351 40.2177 217.929 40.2218 217.507C40.225 217.169 40.2283 216.832 40.1496 216.409C40.1537 215.987 40.075 215.564 40.0783 215.227L40.491 215.315C40.9037 215.403 41.3155 215.576 41.7282 215.664L41.8936 215.666C41.9763 215.667 41.9763 215.667 42.059 215.668L42.3071 215.67C42.6379 215.673 43.0522 215.593 43.3847 215.427C44.0487 215.18 44.7144 214.765 45.2154 214.263C46.2168 213.344 46.8087 212 47.1492 210.99C47.4906 209.896 47.7476 208.97 47.9195 208.297C48.1733 207.708 48.3427 207.288 48.4254 207.289Z" fill="black" stroke="black" stroke-width="0.149178" stroke-miterlimit="10"/>
</svg>
