<svg width="490" height="523" viewBox="0 0 490 523" fill="none" xmlns="http://www.w3.org/2000/svg">
<circle cx="65.7715" cy="229.712" r="3.79043" fill="#2898A4"/>
<path d="M69.6245 230.345C69.6193 230.345 69.614 230.418 69.5983 230.555C69.5825 230.691 69.5615 230.896 69.4985 231.153C69.467 231.279 69.4302 231.421 69.3777 231.574C69.3514 231.652 69.3199 231.726 69.2884 231.81C69.2726 231.852 69.2516 231.889 69.2359 231.931C69.2201 231.973 69.1991 232.015 69.1781 232.057C69.1571 232.099 69.1361 232.141 69.1098 232.183C69.0836 232.225 69.0573 232.267 69.0363 232.309C69.0258 232.33 69.01 232.351 68.9995 232.372C68.9838 232.393 68.9733 232.414 68.9575 232.435C68.926 232.477 68.8998 232.519 68.8682 232.561C68.7422 232.729 68.5951 232.902 68.4323 233.065C68.1014 233.391 67.676 233.701 67.1561 233.879C66.8987 233.969 66.6204 234.021 66.3263 234.032C66.0374 234.037 65.738 234 65.4387 233.921C65.2916 233.884 65.1393 233.832 64.9922 233.774C64.9555 233.758 64.9187 233.743 64.882 233.727C64.8452 233.711 64.8084 233.695 64.7717 233.674C64.6981 233.638 64.6246 233.611 64.5563 233.569C64.2675 233.422 63.9944 233.233 63.737 233.018C63.2223 232.587 62.7759 232.025 62.4923 231.374C62.3505 231.048 62.2507 230.707 62.1982 230.366C62.1456 230.024 62.1404 229.683 62.1824 229.347C62.2192 229.011 62.3032 228.69 62.4187 228.391C62.5343 228.091 62.6813 227.808 62.8547 227.551C63.0332 227.298 63.2328 227.073 63.4481 226.878C63.6687 226.684 63.9051 226.526 64.1467 226.4C64.2727 226.348 64.3935 226.285 64.5196 226.243C64.5511 226.232 64.5826 226.222 64.6141 226.211C64.6456 226.201 64.6771 226.19 64.7086 226.18C64.7717 226.164 64.8347 226.148 64.8977 226.132C64.9607 226.117 65.0238 226.106 65.0815 226.096C65.1446 226.085 65.2023 226.075 65.2653 226.069C65.3861 226.064 65.5069 226.043 65.6225 226.048C66.0899 226.043 66.5153 226.132 66.862 226.253C67.2139 226.379 67.4922 226.547 67.7075 226.694C68.1277 227.01 68.2958 227.267 68.3115 227.251C68.3168 227.246 68.2748 227.188 68.1907 227.073C68.1487 227.015 68.0857 226.952 68.0174 226.878C67.9491 226.799 67.8546 226.726 67.7496 226.637C67.5342 226.474 67.2559 226.295 66.8987 226.159C66.5416 226.022 66.1109 225.922 65.6225 225.922C65.5017 225.917 65.3756 225.933 65.2496 225.938C65.1866 225.943 65.1235 225.954 65.0605 225.964C64.9975 225.975 64.9292 225.98 64.8662 225.996C64.8032 226.012 64.7349 226.027 64.6719 226.043C64.6404 226.048 64.6088 226.059 64.5721 226.075C64.5406 226.085 64.5091 226.096 64.4723 226.106C64.341 226.143 64.2149 226.211 64.0836 226.264C63.8315 226.395 63.5794 226.558 63.3484 226.757C63.1225 226.957 62.9072 227.193 62.7234 227.456C62.5395 227.719 62.3872 228.013 62.2612 228.323C62.1404 228.638 62.0511 228.969 62.0091 229.315C61.9671 229.662 61.9723 230.024 62.0248 230.381C62.0774 230.739 62.1824 231.096 62.3295 231.432C62.6288 232.109 63.091 232.692 63.6215 233.139C63.8893 233.365 64.1729 233.554 64.4723 233.706C64.5458 233.748 64.6246 233.779 64.6981 233.816C64.7349 233.832 64.7717 233.853 64.8137 233.869C64.8504 233.884 64.8872 233.9 64.9292 233.916C65.0815 233.974 65.2391 234.026 65.3914 234.068C65.7013 234.147 66.0164 234.189 66.321 234.179C66.6256 234.163 66.9197 234.105 67.1928 234.011C67.7338 233.816 68.1697 233.491 68.5058 233.149C68.6739 232.976 68.821 232.797 68.947 232.619C68.9785 232.577 69.0048 232.529 69.0363 232.482C69.0521 232.461 69.0626 232.44 69.0783 232.414C69.0941 232.393 69.1046 232.367 69.1151 232.346C69.1413 232.304 69.1676 232.256 69.1886 232.214C69.2096 232.172 69.2306 232.125 69.2516 232.083C69.2726 232.041 69.2937 231.999 69.3094 231.957C69.3252 231.915 69.3462 231.873 69.3619 231.831C69.3934 231.747 69.425 231.668 69.446 231.589C69.4985 231.432 69.53 231.29 69.5563 231.159C69.6088 230.896 69.6193 230.686 69.6245 230.544C69.6403 230.418 69.6298 230.345 69.6245 230.345Z" fill="black" stroke="black" stroke-width="0.947608" stroke-miterlimit="10"/>
<circle cx="390.79" cy="207.79" r="3.79043" fill="#2898A4"/>
<path d="M394.643 208.423C394.638 208.423 394.633 208.497 394.617 208.633C394.601 208.77 394.58 208.975 394.517 209.232C394.486 209.358 394.449 209.5 394.396 209.652C394.37 209.731 394.339 209.804 394.307 209.889C394.291 209.931 394.27 209.967 394.255 210.009C394.239 210.051 394.218 210.093 394.197 210.135C394.176 210.177 394.155 210.219 394.129 210.261C394.102 210.303 394.076 210.345 394.055 210.387C394.045 210.408 394.029 210.429 394.018 210.45C394.003 210.472 393.992 210.493 393.976 210.514C393.945 210.556 393.919 210.598 393.887 210.64C393.761 210.808 393.614 210.981 393.451 211.144C393.12 211.469 392.695 211.779 392.175 211.958C391.918 212.047 391.639 212.1 391.345 212.11C391.056 212.115 390.757 212.079 390.457 212C390.31 211.963 390.158 211.911 390.011 211.853C389.974 211.837 389.938 211.821 389.901 211.806C389.864 211.79 389.827 211.774 389.79 211.753C389.717 211.716 389.643 211.69 389.575 211.648C389.286 211.501 389.013 211.312 388.756 211.096C388.241 210.666 387.795 210.104 387.511 209.453C387.369 209.127 387.269 208.786 387.217 208.444C387.164 208.103 387.159 207.761 387.201 207.425C387.238 207.089 387.322 206.769 387.438 206.469C387.553 206.17 387.7 205.886 387.873 205.629C388.052 205.377 388.252 205.151 388.467 204.957C388.688 204.763 388.924 204.605 389.165 204.479C389.292 204.426 389.412 204.363 389.538 204.321C389.57 204.311 389.601 204.3 389.633 204.29C389.664 204.279 389.696 204.269 389.727 204.258C389.79 204.243 389.853 204.227 389.917 204.211C389.98 204.195 390.043 204.185 390.1 204.174C390.163 204.164 390.221 204.153 390.284 204.148C390.405 204.143 390.526 204.122 390.641 204.127C391.109 204.122 391.534 204.211 391.881 204.332C392.233 204.458 392.511 204.626 392.726 204.773C393.147 205.088 393.315 205.346 393.33 205.33C393.336 205.325 393.294 205.267 393.21 205.151C393.168 205.093 393.104 205.03 393.036 204.957C392.968 204.878 392.873 204.805 392.768 204.715C392.553 204.552 392.275 204.374 391.918 204.237C391.56 204.101 391.13 204.001 390.641 204.001C390.52 203.996 390.394 204.012 390.268 204.017C390.205 204.022 390.142 204.033 390.079 204.043C390.016 204.054 389.948 204.059 389.885 204.075C389.822 204.09 389.754 204.106 389.691 204.122C389.659 204.127 389.628 204.138 389.591 204.153C389.559 204.164 389.528 204.174 389.491 204.185C389.36 204.222 389.234 204.29 389.102 204.342C388.85 204.474 388.598 204.637 388.367 204.836C388.141 205.036 387.926 205.272 387.742 205.535C387.558 205.797 387.406 206.091 387.28 206.401C387.159 206.716 387.07 207.047 387.028 207.394C386.986 207.74 386.991 208.103 387.044 208.46C387.096 208.817 387.201 209.174 387.348 209.51C387.648 210.188 388.11 210.771 388.64 211.217C388.908 211.443 389.192 211.632 389.491 211.785C389.565 211.827 389.643 211.858 389.717 211.895C389.754 211.911 389.79 211.932 389.832 211.947C389.869 211.963 389.906 211.979 389.948 211.995C390.1 212.052 390.258 212.105 390.41 212.147C390.72 212.226 391.035 212.268 391.34 212.257C391.644 212.241 391.939 212.184 392.212 212.089C392.753 211.895 393.189 211.569 393.525 211.228C393.693 211.054 393.84 210.876 393.966 210.697C393.997 210.655 394.024 210.608 394.055 210.561C394.071 210.54 394.081 210.519 394.097 210.493C394.113 210.472 394.123 210.445 394.134 210.424C394.16 210.382 394.186 210.335 394.207 210.293C394.228 210.251 394.249 210.204 394.27 210.162C394.291 210.12 394.312 210.078 394.328 210.036C394.344 209.994 394.365 209.952 394.381 209.91C394.412 209.826 394.444 209.747 394.465 209.668C394.517 209.51 394.549 209.369 394.575 209.237C394.628 208.975 394.638 208.765 394.643 208.623C394.659 208.497 394.649 208.423 394.643 208.423Z" fill="black" stroke="black" stroke-width="0.947608" stroke-miterlimit="10"/>
<circle cx="115.047" cy="149.165" r="3.79043" fill="#2898A4"/>
<path d="M118.9 149.798C118.895 149.798 118.89 149.872 118.874 150.008C118.858 150.145 118.837 150.35 118.774 150.607C118.743 150.733 118.706 150.875 118.653 151.027C118.627 151.106 118.596 151.179 118.564 151.264C118.548 151.306 118.527 151.342 118.512 151.384C118.496 151.426 118.475 151.468 118.454 151.51C118.433 151.552 118.412 151.594 118.385 151.636C118.359 151.678 118.333 151.72 118.312 151.762C118.301 151.783 118.286 151.804 118.275 151.825C118.259 151.847 118.249 151.868 118.233 151.889C118.202 151.931 118.175 151.973 118.144 152.015C118.018 152.183 117.871 152.356 117.708 152.519C117.377 152.844 116.952 153.154 116.432 153.333C116.174 153.422 115.896 153.475 115.602 153.485C115.313 153.49 115.014 153.454 114.714 153.375C114.567 153.338 114.415 153.286 114.268 153.228C114.231 153.212 114.194 153.196 114.158 153.181C114.121 153.165 114.084 153.149 114.047 153.128C113.974 153.091 113.9 153.065 113.832 153.023C113.543 152.876 113.27 152.687 113.013 152.471C112.498 152.041 112.052 151.479 111.768 150.828C111.626 150.502 111.526 150.161 111.474 149.819C111.421 149.478 111.416 149.136 111.458 148.8C111.495 148.464 111.579 148.144 111.694 147.844C111.81 147.545 111.957 147.261 112.13 147.004C112.309 146.752 112.508 146.526 112.724 146.332C112.944 146.138 113.181 145.98 113.422 145.854C113.548 145.801 113.669 145.738 113.795 145.696C113.827 145.686 113.858 145.675 113.89 145.665C113.921 145.654 113.953 145.644 113.984 145.633C114.047 145.618 114.11 145.602 114.173 145.586C114.236 145.57 114.299 145.56 114.357 145.549C114.42 145.539 114.478 145.528 114.541 145.523C114.662 145.518 114.783 145.497 114.898 145.502C115.366 145.497 115.791 145.586 116.138 145.707C116.489 145.833 116.768 146.001 116.983 146.148C117.403 146.463 117.571 146.721 117.587 146.705C117.592 146.7 117.55 146.642 117.466 146.526C117.424 146.468 117.361 146.405 117.293 146.332C117.225 146.253 117.13 146.18 117.025 146.09C116.81 145.927 116.532 145.749 116.174 145.612C115.817 145.476 115.387 145.376 114.898 145.376C114.777 145.371 114.651 145.387 114.525 145.392C114.462 145.397 114.399 145.408 114.336 145.418C114.273 145.429 114.205 145.434 114.142 145.45C114.079 145.465 114.011 145.481 113.948 145.497C113.916 145.502 113.884 145.513 113.848 145.528C113.816 145.539 113.785 145.549 113.748 145.56C113.617 145.597 113.491 145.665 113.359 145.717C113.107 145.849 112.855 146.012 112.624 146.211C112.398 146.411 112.183 146.647 111.999 146.91C111.815 147.172 111.663 147.466 111.537 147.776C111.416 148.091 111.327 148.422 111.285 148.769C111.243 149.115 111.248 149.478 111.3 149.835C111.353 150.192 111.458 150.549 111.605 150.885C111.904 151.563 112.367 152.146 112.897 152.592C113.165 152.818 113.449 153.007 113.748 153.16C113.821 153.202 113.9 153.233 113.974 153.27C114.011 153.286 114.047 153.307 114.089 153.322C114.126 153.338 114.163 153.354 114.205 153.37C114.357 153.427 114.515 153.48 114.667 153.522C114.977 153.601 115.292 153.643 115.597 153.632C115.901 153.616 116.195 153.559 116.468 153.464C117.009 153.27 117.445 152.944 117.781 152.603C117.95 152.429 118.097 152.251 118.223 152.072C118.254 152.03 118.28 151.983 118.312 151.936C118.328 151.915 118.338 151.894 118.354 151.868C118.37 151.847 118.38 151.82 118.391 151.799C118.417 151.757 118.443 151.71 118.464 151.668C118.485 151.626 118.506 151.579 118.527 151.537C118.548 151.495 118.569 151.453 118.585 151.411C118.601 151.369 118.622 151.327 118.638 151.285C118.669 151.201 118.701 151.122 118.722 151.043C118.774 150.885 118.806 150.744 118.832 150.612C118.884 150.35 118.895 150.14 118.9 149.998C118.916 149.872 118.905 149.798 118.9 149.798Z" fill="black" stroke="black" stroke-width="0.947608" stroke-miterlimit="10"/>
<circle cx="360.478" cy="122.632" r="3.79043" fill="#FF7372"/>
<path d="M363.968 124.213C363.962 124.213 363.957 124.286 363.941 124.423C363.926 124.559 363.905 124.764 363.842 125.022C363.81 125.148 363.773 125.289 363.721 125.442C363.694 125.521 363.663 125.594 363.631 125.678C363.616 125.72 363.595 125.757 363.579 125.799C363.563 125.841 363.542 125.883 363.521 125.925C363.5 125.967 363.479 126.009 363.453 126.051C363.427 126.093 363.4 126.135 363.379 126.177C363.369 126.198 363.353 126.219 363.343 126.24C363.327 126.261 363.316 126.282 363.301 126.303C363.269 126.345 363.243 126.387 363.211 126.429C363.085 126.597 362.938 126.771 362.775 126.933C362.444 127.259 362.019 127.569 361.499 127.747C361.242 127.837 360.963 127.889 360.669 127.9C360.38 127.905 360.081 127.868 359.782 127.789C359.635 127.753 359.482 127.7 359.335 127.642C359.298 127.627 359.262 127.611 359.225 127.595C359.188 127.579 359.151 127.564 359.115 127.543C359.041 127.506 358.968 127.48 358.899 127.438C358.61 127.29 358.337 127.101 358.08 126.886C357.565 126.455 357.119 125.893 356.835 125.242C356.693 124.917 356.594 124.575 356.541 124.234C356.489 123.892 356.483 123.551 356.525 123.215C356.562 122.879 356.646 122.558 356.762 122.259C356.877 121.96 357.024 121.676 357.198 121.419C357.376 121.167 357.576 120.941 357.791 120.746C358.012 120.552 358.248 120.395 358.49 120.268C358.616 120.216 358.737 120.153 358.863 120.111C358.894 120.1 358.926 120.09 358.957 120.079C358.989 120.069 359.02 120.058 359.052 120.048C359.115 120.032 359.178 120.016 359.241 120.001C359.304 119.985 359.367 119.974 359.425 119.964C359.488 119.953 359.545 119.943 359.608 119.938C359.729 119.932 359.85 119.911 359.966 119.917C360.433 119.911 360.858 120.001 361.205 120.121C361.557 120.247 361.835 120.416 362.051 120.563C362.471 120.878 362.639 121.135 362.655 121.119C362.66 121.114 362.618 121.056 362.534 120.941C362.492 120.883 362.429 120.82 362.36 120.746C362.292 120.668 362.198 120.594 362.093 120.505C361.877 120.342 361.599 120.163 361.242 120.027C360.885 119.89 360.454 119.791 359.966 119.791C359.845 119.785 359.719 119.801 359.593 119.806C359.53 119.812 359.467 119.822 359.404 119.833C359.341 119.843 359.272 119.848 359.209 119.864C359.146 119.88 359.078 119.896 359.015 119.911C358.983 119.917 358.952 119.927 358.915 119.943C358.884 119.953 358.852 119.964 358.815 119.974C358.684 120.011 358.558 120.079 358.427 120.132C358.175 120.263 357.922 120.426 357.691 120.626C357.466 120.825 357.25 121.062 357.066 121.324C356.883 121.587 356.73 121.881 356.604 122.191C356.483 122.506 356.394 122.837 356.352 123.183C356.31 123.53 356.315 123.892 356.368 124.25C356.42 124.607 356.525 124.964 356.672 125.3C356.972 125.977 357.434 126.56 357.964 127.007C358.232 127.233 358.516 127.422 358.815 127.574C358.889 127.616 358.968 127.648 359.041 127.684C359.078 127.7 359.115 127.721 359.157 127.737C359.193 127.753 359.23 127.768 359.272 127.784C359.425 127.842 359.582 127.894 359.734 127.936C360.044 128.015 360.359 128.057 360.664 128.047C360.969 128.031 361.263 127.973 361.536 127.879C362.077 127.684 362.513 127.359 362.849 127.017C363.017 126.844 363.164 126.665 363.29 126.487C363.322 126.445 363.348 126.398 363.379 126.35C363.395 126.329 363.406 126.308 363.421 126.282C363.437 126.261 363.448 126.235 363.458 126.214C363.484 126.172 363.511 126.125 363.532 126.082C363.553 126.04 363.574 125.993 363.595 125.951C363.616 125.909 363.637 125.867 363.652 125.825C363.668 125.783 363.689 125.741 363.705 125.699C363.736 125.615 363.768 125.536 363.789 125.457C363.842 125.3 363.873 125.158 363.899 125.027C363.952 124.764 363.962 124.554 363.968 124.412C363.983 124.286 363.973 124.213 363.968 124.213Z" fill="black" stroke="black" stroke-width="0.947608" stroke-miterlimit="10"/>
<circle cx="143.153" cy="196.79" r="3.79043" fill="#FF7372"/>
<path d="M146.643 198.371C146.638 198.371 146.633 198.444 146.617 198.581C146.601 198.718 146.58 198.922 146.517 199.18C146.486 199.306 146.449 199.448 146.396 199.6C146.37 199.679 146.339 199.752 146.307 199.836C146.291 199.878 146.27 199.915 146.255 199.957C146.239 199.999 146.218 200.041 146.197 200.083C146.176 200.125 146.155 200.167 146.129 200.209C146.102 200.251 146.076 200.293 146.055 200.335C146.045 200.356 146.029 200.377 146.018 200.398C146.003 200.419 145.992 200.44 145.976 200.461C145.945 200.503 145.919 200.545 145.887 200.587C145.761 200.755 145.614 200.929 145.451 201.092C145.12 201.417 144.695 201.727 144.175 201.906C143.918 201.995 143.639 202.047 143.345 202.058C143.056 202.063 142.757 202.026 142.457 201.948C142.31 201.911 142.158 201.858 142.011 201.801C141.974 201.785 141.938 201.769 141.901 201.753C141.864 201.738 141.827 201.722 141.79 201.701C141.717 201.664 141.643 201.638 141.575 201.596C141.286 201.449 141.013 201.26 140.756 201.044C140.241 200.614 139.795 200.052 139.511 199.4C139.369 199.075 139.269 198.733 139.217 198.392C139.164 198.051 139.159 197.709 139.201 197.373C139.238 197.037 139.322 196.717 139.438 196.417C139.553 196.118 139.7 195.834 139.873 195.577C140.052 195.325 140.252 195.099 140.467 194.905C140.688 194.71 140.924 194.553 141.165 194.427C141.292 194.374 141.412 194.311 141.538 194.269C141.57 194.259 141.601 194.248 141.633 194.238C141.664 194.227 141.696 194.217 141.727 194.206C141.79 194.19 141.853 194.175 141.917 194.159C141.98 194.143 142.043 194.133 142.1 194.122C142.163 194.112 142.221 194.101 142.284 194.096C142.405 194.091 142.526 194.07 142.641 194.075C143.109 194.07 143.534 194.159 143.881 194.28C144.233 194.406 144.511 194.574 144.726 194.721C145.147 195.036 145.315 195.293 145.33 195.278C145.336 195.272 145.294 195.214 145.21 195.099C145.168 195.041 145.104 194.978 145.036 194.905C144.968 194.826 144.873 194.752 144.768 194.663C144.553 194.5 144.275 194.322 143.918 194.185C143.56 194.049 143.13 193.949 142.641 193.949C142.52 193.944 142.394 193.959 142.268 193.965C142.205 193.97 142.142 193.98 142.079 193.991C142.016 194.001 141.948 194.007 141.885 194.022C141.822 194.038 141.754 194.054 141.691 194.07C141.659 194.075 141.628 194.085 141.591 194.101C141.559 194.112 141.528 194.122 141.491 194.133C141.36 194.169 141.234 194.238 141.102 194.29C140.85 194.421 140.598 194.584 140.367 194.784C140.141 194.983 139.926 195.22 139.742 195.482C139.558 195.745 139.406 196.039 139.28 196.349C139.159 196.664 139.07 196.995 139.028 197.342C138.986 197.688 138.991 198.051 139.044 198.408C139.096 198.765 139.201 199.122 139.348 199.458C139.648 200.136 140.11 200.719 140.64 201.165C140.908 201.391 141.192 201.58 141.491 201.732C141.565 201.774 141.643 201.806 141.717 201.843C141.754 201.858 141.79 201.879 141.832 201.895C141.869 201.911 141.906 201.927 141.948 201.942C142.1 202 142.258 202.053 142.41 202.095C142.72 202.173 143.035 202.215 143.34 202.205C143.644 202.189 143.939 202.131 144.212 202.037C144.753 201.843 145.189 201.517 145.525 201.176C145.693 201.002 145.84 200.824 145.966 200.645C145.997 200.603 146.024 200.556 146.055 200.509C146.071 200.488 146.081 200.467 146.097 200.44C146.113 200.419 146.123 200.393 146.134 200.372C146.16 200.33 146.186 200.283 146.207 200.241C146.228 200.199 146.249 200.151 146.27 200.109C146.291 200.067 146.312 200.025 146.328 199.983C146.344 199.941 146.365 199.899 146.381 199.857C146.412 199.773 146.444 199.694 146.465 199.616C146.517 199.458 146.549 199.316 146.575 199.185C146.628 198.922 146.638 198.712 146.643 198.571C146.659 198.444 146.649 198.371 146.643 198.371Z" fill="black" stroke="black" stroke-width="0.947608" stroke-miterlimit="10"/>
<circle cx="422.153" cy="261.79" r="3.79043" fill="#FF7372"/>
<path d="M425.643 263.371C425.638 263.371 425.633 263.444 425.617 263.581C425.601 263.718 425.58 263.922 425.517 264.18C425.486 264.306 425.449 264.448 425.396 264.6C425.37 264.679 425.339 264.752 425.307 264.836C425.291 264.878 425.27 264.915 425.255 264.957C425.239 264.999 425.218 265.041 425.197 265.083C425.176 265.125 425.155 265.167 425.129 265.209C425.102 265.251 425.076 265.293 425.055 265.335C425.044 265.356 425.029 265.377 425.018 265.398C425.002 265.419 424.992 265.44 424.976 265.461C424.945 265.503 424.918 265.545 424.887 265.587C424.761 265.755 424.614 265.929 424.451 266.092C424.12 266.417 423.695 266.727 423.175 266.906C422.917 266.995 422.639 267.047 422.345 267.058C422.056 267.063 421.757 267.026 421.457 266.948C421.31 266.911 421.158 266.858 421.011 266.801C420.974 266.785 420.937 266.769 420.901 266.753C420.864 266.738 420.827 266.722 420.79 266.701C420.717 266.664 420.643 266.638 420.575 266.596C420.286 266.449 420.013 266.26 419.756 266.044C419.241 265.614 418.795 265.052 418.511 264.4C418.369 264.075 418.269 263.733 418.217 263.392C418.164 263.051 418.159 262.709 418.201 262.373C418.238 262.037 418.322 261.717 418.437 261.417C418.553 261.118 418.7 260.834 418.873 260.577C419.052 260.325 419.251 260.099 419.467 259.905C419.687 259.71 419.924 259.553 420.165 259.427C420.291 259.374 420.412 259.311 420.538 259.269C420.57 259.259 420.601 259.248 420.633 259.238C420.664 259.227 420.696 259.217 420.727 259.206C420.79 259.19 420.853 259.175 420.916 259.159C420.979 259.143 421.042 259.133 421.1 259.122C421.163 259.112 421.221 259.101 421.284 259.096C421.405 259.091 421.526 259.07 421.641 259.075C422.109 259.07 422.534 259.159 422.881 259.28C423.233 259.406 423.511 259.574 423.726 259.721C424.146 260.036 424.314 260.293 424.33 260.278C424.335 260.272 424.293 260.214 424.209 260.099C424.167 260.041 424.104 259.978 424.036 259.905C423.968 259.826 423.873 259.752 423.768 259.663C423.553 259.5 423.275 259.322 422.917 259.185C422.56 259.049 422.13 258.949 421.641 258.949C421.52 258.944 421.394 258.959 421.268 258.965C421.205 258.97 421.142 258.98 421.079 258.991C421.016 259.001 420.948 259.007 420.885 259.022C420.822 259.038 420.754 259.054 420.691 259.07C420.659 259.075 420.628 259.085 420.591 259.101C420.559 259.112 420.528 259.122 420.491 259.133C420.36 259.169 420.234 259.238 420.102 259.29C419.85 259.421 419.598 259.584 419.367 259.784C419.141 259.983 418.926 260.22 418.742 260.482C418.558 260.745 418.406 261.039 418.28 261.349C418.159 261.664 418.07 261.995 418.028 262.342C417.986 262.688 417.991 263.051 418.044 263.408C418.096 263.765 418.201 264.122 418.348 264.458C418.648 265.136 419.11 265.719 419.64 266.165C419.908 266.391 420.192 266.58 420.491 266.732C420.564 266.774 420.643 266.806 420.717 266.843C420.754 266.858 420.79 266.879 420.832 266.895C420.869 266.911 420.906 266.927 420.948 266.942C421.1 267 421.258 267.053 421.41 267.095C421.72 267.173 422.035 267.215 422.34 267.205C422.644 267.189 422.938 267.131 423.212 267.037C423.752 266.843 424.188 266.517 424.525 266.176C424.693 266.002 424.84 265.824 424.966 265.645C424.997 265.603 425.023 265.556 425.055 265.509C425.071 265.488 425.081 265.467 425.097 265.44C425.113 265.419 425.123 265.393 425.134 265.372C425.16 265.33 425.186 265.283 425.207 265.241C425.228 265.199 425.249 265.151 425.27 265.109C425.291 265.067 425.312 265.025 425.328 264.983C425.344 264.941 425.365 264.899 425.381 264.857C425.412 264.773 425.444 264.694 425.465 264.616C425.517 264.458 425.549 264.316 425.575 264.185C425.627 263.922 425.638 263.712 425.643 263.571C425.659 263.444 425.648 263.371 425.643 263.371Z" fill="black" stroke="black" stroke-width="0.947608" stroke-miterlimit="10"/>
<path d="M158.742 437.108C168.638 442.493 179.429 446.035 190.591 447.562C198.5 448.528 206.494 448.572 214.413 447.693C223.401 446.701 232.238 444.638 240.736 441.548C267.049 432.405 284.145 425.305 299.751 419.562C322.646 411.132 334.093 406.926 349.399 404.621C366.347 402.096 383.591 402.308 400.471 405.249C400.331 371.713 391.834 348.613 384.237 333.831C370.411 306.936 349.306 287.667 312.529 254.094C293.597 236.811 276.717 223.34 263.817 196.999C259.418 187.959 255.986 178.48 253.579 168.718L209.467 179.35C193.367 201.037 184.263 227.118 183.369 254.113C182.058 282.141 173.683 343.367 158.742 437.108Z" fill="#EBEBEB"/>
<path d="M208.896 179.079C201.842 187.078 196.259 194.114 192.184 199.462C184.222 209.926 178.507 217.495 172.606 228.614C168.715 235.601 165.527 242.956 163.088 250.572C160.709 258.159 160.231 262.553 158.02 275.864C155.857 288.829 154.273 298.346 152.512 306.281C149.786 318.571 148.437 318.908 138.901 347.057C129.365 375.207 127.773 383.591 127.042 387.685C125.3 397.642 123.707 407.122 125.075 419.712C126.01 430.157 128.918 440.329 133.646 449.688C138.971 459.815 146.279 468.767 155.135 476.011C164.486 483.717 175.33 489.403 186.985 492.714C181.428 482.2 176.896 471.177 173.449 459.796C169.925 447.942 167.528 435.782 166.292 423.478C165.186 411.77 165.004 399.993 165.749 388.256C166.423 376.771 167.575 370.748 172.353 342.58C175.566 323.601 178.245 307.405 179.5 299.658C185.748 261.251 185.027 259.265 187.753 245.185C192.225 222.407 199.319 200.224 208.896 179.079Z" fill="#FF7372"/>
<path d="M253.57 168.737C255.808 176.932 258.6 184.966 261.925 192.783C268.654 208.384 277.379 223.045 287.883 236.399C320.154 278.759 336.294 299.939 349.184 314.955C349.184 314.955 371.938 341.446 388.612 370.682C391.352 375.419 393.684 380.379 395.582 385.511C400.575 399.066 401.071 410.12 401.549 419.403C402.289 433.895 403.263 450.101 404.678 471.318C408.368 468.967 411.884 466.353 415.197 463.496C426.731 453.405 435.686 440.702 441.314 426.447C441.043 416.097 439.716 405.802 437.352 395.722C436.049 390.223 429.923 365.605 407.207 333.952C388.022 307.217 367.769 290.477 351.301 277.054C334.833 263.63 325.803 258.581 300.819 237.335C286.131 224.82 278.244 217.186 270.74 206.179C262.981 194.736 257.178 182.083 253.57 168.737Z" fill="#FF7372"/>
<path d="M208.399 178.582C193.055 196.784 177.421 215.416 167.491 237.261C156.606 261.204 157.421 287.845 149.955 312.773C136.466 357.849 108.091 408.855 135.548 454.532C141.241 464.019 148.754 472.288 157.654 478.863C166.553 485.438 176.665 490.19 187.406 492.845C188.278 493.06 188.652 491.702 187.772 491.496C167.778 486.568 150.35 474.342 138.911 457.22C125.403 437.033 123.248 412.827 127.445 389.352C131.847 364.725 142.217 341.812 149.777 318.103C153.562 306.388 156.295 294.359 157.945 282.159C159.575 269.729 161.149 257.495 165.543 245.682C174.854 220.633 192.418 199.781 209.42 179.575C209.992 178.882 209.008 177.889 208.427 178.582H208.399Z" fill="black"/>
<path d="M187.519 492.358C168.653 454.26 162.461 411.797 168.203 369.821C171.144 348.341 174.891 326.955 178.282 305.541C181.533 285.026 184.446 264.408 188.315 243.996C192.549 221.645 198.619 199.491 210.113 179.706C210.208 179.545 210.234 179.352 210.187 179.171C210.139 178.991 210.022 178.836 209.86 178.741C209.699 178.647 209.507 178.621 209.326 178.668C209.145 178.716 208.99 178.833 208.896 178.994C188.025 214.769 184.418 257.916 178.058 298.028C174.47 320.65 170.648 343.254 167.35 365.924C164.381 386.364 163.603 406.832 166.273 427.366C169.287 450.221 176.057 472.422 186.31 493.07C186.704 493.875 187.922 493.173 187.519 492.358Z" fill="black"/>
<path d="M168.802 440.705C182.048 446.616 195.031 450.428 209.692 448.986C224.577 447.515 239.228 443.112 253.298 438.232C282.768 428.002 310.964 414.007 341.493 406.991C359.872 402.766 378.832 401.239 397.464 404.724C398.345 404.893 398.719 403.534 397.839 403.366C336.013 391.806 282 432.63 223.94 445.211C215.087 447.084 205.926 448.574 196.839 447.749C187.228 446.869 178.254 443.393 169.514 439.496C168.699 439.131 167.978 440.34 168.802 440.705Z" fill="black"/>
<path d="M252.895 168.952C260.82 211.828 299.957 237.551 331.863 262.534C366.046 289.307 399.965 318.43 421.164 357.006C432.892 378.355 440.293 401.97 440.611 426.466C440.611 426.653 440.685 426.831 440.817 426.963C440.949 427.095 441.127 427.169 441.314 427.169C441.5 427.169 441.679 427.095 441.811 426.963C441.942 426.831 442.016 426.653 442.016 426.466C441.473 384.912 420.893 346.842 393.783 316.388C379.291 300.136 362.87 285.691 346.008 271.995C328.557 257.85 310.065 244.876 293.288 229.916C274.909 213.514 258.843 193.383 254.263 168.578C254.094 167.688 252.745 168.062 252.904 168.952H252.895Z" fill="black"/>
<path d="M260.155 185.748C270.843 222.881 299.161 250.675 322.393 280.267C336.781 298.599 350.28 317.625 364.003 336.472C377.005 354.27 391.919 372.069 397.371 393.876C400.331 405.726 400.893 418.007 401.314 430.166C401.776 443.393 402.217 456.623 402.635 469.857C402.635 470.793 404.078 470.793 404.04 469.857C403.31 447.88 403.965 425.305 400.687 403.516C397.474 382.073 386.579 365.053 374.036 347.844C360.387 329.109 346.87 310.299 332.959 291.789C320.856 275.705 307.723 260.492 295.199 244.736C280.941 226.825 267.902 207.631 261.475 185.411C261.414 185.246 261.293 185.11 261.136 185.03C260.98 184.95 260.799 184.932 260.629 184.979C260.46 185.026 260.314 185.135 260.221 185.285C260.128 185.434 260.094 185.613 260.127 185.786L260.155 185.748Z" fill="black"/>
<path d="M405.033 471.917C421.14 461.448 433.896 446.568 441.782 429.051C442.157 428.237 440.939 427.525 440.574 428.349C432.797 445.651 420.21 460.351 404.312 470.7C403.553 471.196 404.256 472.414 405.024 471.917H405.033Z" fill="black"/>
<path d="M243.846 417.83L228.98 433.22C240.458 472.102 247.412 491.265 249.841 490.709C252.127 490.185 250.425 472.299 244.736 437.052L254.956 426.841L243.846 417.83Z" fill="black"/>
<path d="M270.188 261.691C272.548 266.516 275.724 273.223 279.227 281.363C285.796 296.48 291.473 311.97 296.229 327.751C298.309 334.768 300.829 344.023 303.236 355.048C300.595 360.169 297.881 365.315 295.096 370.486C281.7 395.394 267.752 418.795 253.56 440.743C248.384 434.108 245.035 426.235 243.846 417.905C243.473 415.083 243.36 412.232 243.509 409.39C245.645 402.995 247.796 396.578 249.963 390.139C254.722 376.025 259.521 362.018 264.361 348.116C260.189 339.298 256.036 330.412 251.902 321.456C244.015 304.395 236.364 287.471 228.952 270.684L270.188 261.691Z" fill="white"/>
<path d="M272.38 267.312C284.471 294.12 294.407 321.848 302.093 350.234C302.143 350.414 302.262 350.567 302.425 350.659C302.587 350.751 302.78 350.775 302.96 350.725C303.14 350.676 303.293 350.557 303.385 350.394C303.477 350.232 303.501 350.039 303.452 349.859C295.721 321.359 285.738 293.519 273.597 266.6C273.223 265.776 272.014 266.497 272.38 267.312Z" fill="black"/>
<path d="M241.373 304.286C250.073 318.435 257.488 333.336 263.527 348.81C263.855 349.644 265.213 349.278 264.885 348.435C258.806 332.856 251.345 317.852 242.591 303.602C242.113 302.825 240.895 303.536 241.373 304.305V304.286Z" fill="black"/>
<path d="M242.16 410.982C243.17 421.745 246.882 432.078 252.951 441.024C253.457 441.764 254.675 441.024 254.16 440.312C248.217 431.582 244.573 421.494 243.565 410.982C243.481 410.092 242.076 410.045 242.16 410.982Z" fill="black"/>
<path d="M254.042 439.971C254.001 439.945 254.237 439.58 254.697 438.957C255.116 438.308 255.826 437.387 256.678 436.156C258.398 433.76 260.932 430.281 264.017 425.951C270.159 417.33 278.38 405.224 286.79 391.401C290.962 384.496 295.032 377.928 297.859 371.592C299.273 368.424 300.379 365.288 301.099 362.304C301.819 359.32 302.112 356.463 302.141 353.838C302.103 351.227 301.8 348.847 301.329 346.818C300.857 344.79 300.217 343.111 299.582 341.781C298.311 339.121 297.234 337.851 297.327 337.796C297.353 337.756 297.625 338.046 298.143 338.668C298.621 339.264 299.292 340.272 300.02 341.547C300.722 342.863 301.403 344.567 301.956 346.649C302.509 348.73 302.878 351.095 302.971 353.799C303.023 356.477 302.785 359.427 302.053 362.518C301.388 365.594 300.256 368.772 298.856 372.006C295.991 378.49 291.962 385.084 287.79 391.989C279.38 405.812 271.011 417.88 264.706 426.396C261.541 430.674 258.911 434.034 257.07 436.351C256.136 437.53 255.412 438.384 254.912 438.981C254.359 439.658 254.042 439.971 254.042 439.971Z" fill="black" stroke="black" stroke-width="0.10934" stroke-miterlimit="10"/>
<path d="M232.54 407.907C232.513 407.89 232.668 407.65 232.971 407.239C233.248 406.811 233.716 406.204 234.278 405.392C235.412 403.813 237.082 401.519 239.116 398.664C243.165 392.981 248.585 384.999 254.13 375.886C256.881 371.334 259.564 367.003 261.428 362.826C262.36 360.738 263.089 358.67 263.564 356.703C264.038 354.736 264.232 352.852 264.251 351.121C264.226 349.4 264.026 347.831 263.715 346.493C263.404 345.156 262.982 344.049 262.563 343.172C261.725 341.419 261.016 340.581 261.077 340.545C261.094 340.518 261.274 340.71 261.615 341.12C261.93 341.513 262.372 342.177 262.852 343.018C263.315 343.886 263.764 345.009 264.129 346.381C264.493 347.753 264.736 349.313 264.798 351.095C264.832 352.861 264.675 354.806 264.193 356.844C263.754 358.872 263.008 360.967 262.085 363.099C260.196 367.374 257.54 371.721 254.789 376.273C249.244 385.387 243.727 393.343 239.57 398.958C237.483 401.778 235.75 403.993 234.536 405.521C233.92 406.298 233.443 406.861 233.113 407.255C232.749 407.701 232.54 407.907 232.54 407.907Z" fill="black" stroke="black" stroke-width="0.160618" stroke-miterlimit="10"/>
<path d="M237.396 460.915L239.378 474.928C239.038 478.728 238.717 484.283 238.925 490.993C239.34 504.762 241.993 522.955 245.239 523C247.618 523 249.788 514.003 252.044 504.603C253.607 498.089 254.722 491.511 255.385 484.898L252.979 477.481L252.318 461.272C252.186 460.953 250.798 457.883 247.089 457.04C243.522 456.227 239.378 457.777 237.396 460.915Z" fill="black"/>
<path opacity="0.14" d="M215.603 276.417C215.537 284.567 215.678 292.904 216.081 301.4C219.116 366.973 235.93 424.115 256.305 470.85C253.438 471.339 250.521 471.472 247.621 471.243C241.078 470.683 234.801 468.398 229.429 464.62C225.373 445.557 221.729 425.426 218.713 404.275C212.505 360.738 209.484 316.806 209.673 272.829L215.603 276.417Z" fill="#9E9E9E"/>
<path d="M208.971 272.829C207.994 337.377 214.631 401.814 228.745 464.808C228.942 465.688 230.301 465.313 230.104 464.433C216.024 401.562 209.411 337.25 210.404 272.829C210.404 272.643 210.33 272.464 210.198 272.332C210.066 272.2 209.888 272.126 209.701 272.126C209.515 272.126 209.336 272.2 209.204 272.332C209.073 272.464 208.999 272.643 208.999 272.829H208.971Z" fill="black"/>
<path d="M251.78 282.553C248.876 344.247 247.706 408.078 265.747 467.796C266.01 468.658 267.368 468.292 267.106 467.421C249.101 407.825 250.282 344.126 253.186 282.553C253.232 281.616 251.827 281.616 251.78 282.553Z" fill="black"/>
<path d="M229.458 465.82C234.722 469.969 241.092 471.215 247.621 471.946C253.504 472.611 259.509 472.742 264.249 468.742C264.942 468.152 263.949 467.168 263.256 467.74C258.853 471.487 253.017 471.159 247.621 470.55C241.504 469.857 235.443 468.742 230.451 464.836C229.748 464.283 228.746 465.267 229.458 465.829V465.82Z" fill="black"/>
<path d="M209.673 272.829C209.589 277.719 209.523 284.473 209.589 292.501C209.589 292.501 209.785 317.025 211.462 341.521C213.036 364.537 218.02 408.424 229.429 464.602C232.642 467.016 236.253 468.849 240.099 470.016C252.37 473.698 263.049 469.192 266.431 467.59C262.215 453.007 258.871 438.187 256.417 423.206C253.953 408.218 252.23 392.041 251.415 366.936C250.376 333.36 251.283 299.752 254.131 266.281L209.673 272.829Z" fill="white"/>
<path d="M202.039 178.189C208.272 174.784 214.871 172.097 221.71 170.179C234.14 166.721 247.142 165.819 259.93 167.528C263.965 177.09 266.262 187.295 266.712 197.664C267.152 209.139 264.979 214.591 264.698 224.099C264.417 233.776 266.113 247.518 275.265 264.539C268.504 268.453 261.282 271.511 253.766 273.644C239.399 277.673 224.293 278.314 209.636 275.518C214.123 257.719 212.793 244.539 210.779 235.79C208.671 226.656 205.851 222.563 203.491 212.109C201.009 200.976 200.518 189.492 202.039 178.189Z" fill="#2898A4"/>
<path d="M214.554 228.164C214.422 233.554 214.288 238.943 214.151 244.333C210.514 245.811 207.594 248.647 206.01 252.239C205.608 253.176 202.882 259.855 206.844 264.155C209.776 267.33 214.338 266.965 215.069 266.965C214.994 272.96 217.523 275.583 218.319 276.332C221.242 279.03 226.057 279.63 227.93 279.855C231.228 280.267 232.858 279.77 234.385 281.166C235.453 282.103 235.799 283.442 236.436 286.009C236.924 287.926 237.215 289.888 237.307 291.864L225.13 295.236L225.673 306.571C229.464 307.87 233.394 308.722 237.382 309.109C245.97 309.892 254.62 308.581 262.59 305.287L260.904 293.906C259.317 292.259 257.252 291.152 255.002 290.74C252.752 290.328 250.429 290.633 248.361 291.611L249.56 279.695C253.755 279.571 257.837 278.311 261.373 276.051C263.411 274.925 265.063 273.212 266.113 271.133C267.028 269.02 267.238 266.668 266.712 264.426C269.298 264.192 271.714 263.039 273.522 261.176C277.41 256.885 276.623 249.298 272.586 244.951C268.839 240.96 263.565 240.96 262.478 240.989L261.925 223.78C260.044 222.808 258.062 222.045 256.014 221.504C250.591 220.061 248.183 221.12 235.406 222.441C227.303 223.303 224.118 223.321 219.247 225.513C217.613 226.267 216.043 227.154 214.554 228.164Z" fill="white"/>
<path opacity="0.19" d="M257.719 221.879C259.499 223.659 261.4 226.048 260.745 227.865C258.824 233.186 238.132 225.055 229.485 234.329C224.239 239.949 225.579 249.757 226.525 256.698C227.19 261.569 227.912 266.862 232.146 271.518C235.746 275.264 240.532 277.647 245.691 278.262L243.274 295.667C240.389 298.478 239.939 299.63 240.23 300.089C241.485 302.075 256.707 291.808 261.625 296.108C263.705 297.925 263.349 301.831 262.562 305.26C250.846 310.273 237.68 310.731 225.645 306.543L226.001 294.29L237.242 291.48C237.569 284.698 235.949 282.169 234.319 281.176C233.082 280.408 232.183 280.726 226.431 279.677C224.809 279.426 223.209 279.05 221.645 278.553C219.818 277.803 216.67 275.583 214.909 267.471C213.926 267.302 208.736 266.319 206.572 262.197C203.977 257.251 206.572 249.279 214.066 244.97C213.985 238.981 213.904 233.002 213.823 227.031C227.845 221.937 242.858 220.164 257.682 221.851L257.719 221.879Z" fill="#9E9E9E"/>
<path d="M219.818 227.087C216.071 229.504 218.066 232.708 221.87 233.345C230.113 234.806 239.097 233.673 247.162 231.771C248.043 231.565 247.668 230.216 246.787 230.422C242.194 231.533 237.504 232.195 232.783 232.399C230.984 232.464 229.195 232.455 227.396 232.399C226.207 232.352 225.008 232.268 223.818 232.165C220.858 232.727 219.756 231.44 220.511 228.305C221.261 227.818 220.558 226.6 219.799 227.097L219.818 227.087Z" fill="black"/>
<path d="M237.57 222.937C243.115 222.432 248.933 221.392 254.497 222.001C255.48 222.113 259.621 222.563 259.893 223.434L258.272 227.518C257.543 228.033 256.749 228.448 255.911 228.755C252.605 230.235 248.989 230.563 245.42 230.872C244.483 230.956 244.483 232.361 245.42 232.277C249.86 231.884 254.497 231.471 258.394 229.092C259.986 228.155 263.078 226.001 262.141 223.649C261.204 221.298 256.52 220.774 254.572 220.558C248.951 219.94 243.106 220.998 237.542 221.495C236.652 221.579 236.605 222.984 237.542 222.9L237.57 222.937Z" fill="black"/>
<path d="M215.425 247.808C211.2 247.612 208.614 253.663 208.586 257.176C208.536 259.235 209.264 261.238 210.625 262.783C211.987 264.329 213.881 265.304 215.931 265.513C216.867 265.607 216.867 264.202 215.931 264.108C214.253 263.905 212.712 263.08 211.613 261.797C210.513 260.514 209.935 258.865 209.991 257.176C209.991 254.619 212.043 249.026 215.425 249.185C216.361 249.185 216.361 247.818 215.425 247.78V247.808Z" fill="black"/>
<path d="M213.917 244.314C207.987 245.991 203.5 252.604 204.034 258.74C204.54 264.623 209.401 268.688 215.275 267.621C216.165 267.461 215.79 266.103 214.9 266.262C208.231 267.48 204.287 260.913 205.757 255.021C206.779 250.89 210.17 246.834 214.31 245.654C214.49 245.604 214.643 245.485 214.735 245.322C214.828 245.16 214.852 244.967 214.802 244.787C214.752 244.607 214.633 244.454 214.47 244.362C214.308 244.27 214.115 244.246 213.935 244.295L213.917 244.314Z" fill="black"/>
<path d="M214.853 244.333C214.341 239.105 214.457 233.834 215.2 228.633C215.331 227.696 213.973 227.359 213.851 228.258C213.066 233.581 212.931 238.978 213.448 244.333C213.533 245.27 214.938 245.27 214.853 244.333Z" fill="black"/>
<path d="M261.26 223.78C261.682 229.504 261.85 235.218 261.766 240.96C261.766 241.147 261.84 241.325 261.972 241.457C262.104 241.589 262.282 241.663 262.469 241.663C262.655 241.663 262.834 241.589 262.965 241.457C263.097 241.325 263.171 241.147 263.171 240.96C263.256 235.218 263.087 229.504 262.665 223.78C262.6 222.843 261.195 222.843 261.26 223.78Z" fill="black"/>
<path d="M262.272 241.926C267.752 242.094 272.108 244.689 273.513 250.216C274.843 255.537 273.738 263.696 266.731 263.696C266.545 263.696 266.366 263.77 266.234 263.902C266.102 264.033 266.028 264.212 266.028 264.398C266.028 264.585 266.102 264.763 266.234 264.895C266.366 265.027 266.545 265.101 266.731 265.101C274.038 265.101 276.033 257.541 275.162 251.499C274.159 244.605 269.166 240.736 262.3 240.521C262.114 240.521 261.935 240.595 261.803 240.726C261.671 240.858 261.597 241.037 261.597 241.223C261.597 241.409 261.671 241.588 261.803 241.72C261.935 241.852 262.114 241.926 262.3 241.926H262.272Z" fill="black"/>
<path d="M263.312 246.478C271.256 246.984 271.902 258.047 264.146 259.649C263.265 259.836 263.64 261.185 264.52 261.007C268.558 260.173 271.743 256.417 271.246 252.192C270.962 250.267 270.013 248.501 268.564 247.201C267.115 245.901 265.257 245.148 263.312 245.073C262.375 245.017 262.375 246.422 263.312 246.478Z" fill="black"/>
<path d="M214.31 267.855C216.183 271.246 215.827 275.602 219.181 278.075C222.385 280.426 227.097 280.417 230.862 280.932C231.799 281.044 232.127 279.696 231.237 279.574C227.752 279.105 222.975 279.152 220.071 276.923C217.167 274.693 217.261 270.365 215.528 267.143C215.097 266.347 213.888 267.059 214.31 267.855Z" fill="black"/>
<path d="M266.337 264.745C265.892 265.965 265.624 267.243 265.541 268.539C265.354 271.396 264.361 273.504 261.794 274.993C258.375 277.007 254.038 277.934 250.291 279.18C249.438 279.471 249.804 280.829 250.666 280.539C255.003 279.087 260.633 278.075 264.23 275.031C267.565 272.22 266.309 268.876 267.658 265.12C267.967 264.267 266.609 263.902 266.3 264.745H266.337Z" fill="black"/>
<path d="M231.134 280.426C232.071 280.988 233.654 281.363 234.403 282.075C235.175 283.015 235.628 284.176 235.696 285.391C236.052 287.733 236.239 290.075 236.502 292.473C236.595 293.363 238 293.41 237.907 292.473C237.579 289.522 237.588 286.253 236.717 283.405C235.902 280.726 234.094 280.473 231.883 279.19C231.722 279.095 231.53 279.069 231.349 279.116C231.168 279.164 231.013 279.281 230.919 279.443C230.824 279.604 230.798 279.796 230.845 279.977C230.893 280.158 231.01 280.313 231.171 280.407L231.134 280.426Z" fill="black"/>
<path d="M248.886 279.49C247.608 283.491 247.287 287.735 247.949 291.883C248.089 292.82 249.438 292.398 249.307 291.518C248.705 287.613 249.026 283.622 250.244 279.864C250.525 279.003 249.167 278.628 248.895 279.49H248.886Z" fill="black"/>
<path d="M236.904 293.119C238.778 297.569 246.937 297.438 249.41 293.672C249.907 292.913 248.689 292.21 248.192 292.96C246.263 295.911 239.537 295.77 238.113 292.407C237.766 291.583 236.548 292.295 236.904 293.119Z" fill="black"/>
<path d="M237.12 291.161C234.787 291.555 232.436 291.92 230.113 292.332C228.539 292.613 226.263 292.866 225.083 294.131C224.09 295.189 224.305 296.492 224.333 297.878C224.408 300.773 224.633 303.658 224.97 306.543C225.073 307.433 226.478 307.48 226.375 306.543C226.038 303.686 224.268 296.126 227.115 294.581C229.963 293.035 234.319 293.044 237.495 292.51C238.385 292.37 238 291.012 237.12 291.161Z" fill="black"/>
<path d="M226.741 308.023C231.958 310.309 238.872 310.122 244.455 309.99C250.361 310 256.169 308.483 261.316 305.588C261.396 305.541 261.466 305.479 261.522 305.405C261.578 305.331 261.619 305.247 261.643 305.158C261.666 305.068 261.672 304.975 261.659 304.883C261.646 304.791 261.616 304.703 261.569 304.623C261.522 304.543 261.46 304.473 261.387 304.417C261.313 304.361 261.229 304.32 261.139 304.297C261.05 304.273 260.956 304.267 260.864 304.28C260.773 304.293 260.684 304.323 260.604 304.37C255.674 307.159 250.101 308.613 244.436 308.585C239.209 308.707 232.258 308.922 227.434 306.805C226.609 306.449 225.898 307.658 226.722 308.023H226.741Z" fill="black"/>
<path d="M249.523 291.939C252.586 291.939 258.281 291.733 260.117 294.478C261.953 297.222 261.831 301.897 261.888 305.26C261.888 305.446 261.962 305.625 262.093 305.756C262.225 305.888 262.404 305.962 262.59 305.962C262.777 305.962 262.955 305.888 263.087 305.756C263.219 305.625 263.293 305.446 263.293 305.26C263.262 302.81 263.062 300.366 262.693 297.944C262.44 296.304 262.281 294.356 261.138 293.054C258.768 290.375 252.764 290.496 249.523 290.534C249.336 290.534 249.157 290.608 249.026 290.74C248.894 290.871 248.82 291.05 248.82 291.236C248.82 291.423 248.894 291.601 249.026 291.733C249.157 291.865 249.336 291.939 249.523 291.939Z" fill="black"/>
<path d="M215.163 228.521C216.483 225.879 221.42 225.158 223.996 224.577C226.915 223.944 229.883 223.561 232.867 223.434C233.804 223.434 233.804 221.982 232.867 222.029C228.885 222.215 224.936 222.844 221.092 223.902C218.469 224.633 215.256 225.233 213.945 227.856C213.542 228.661 214.75 229.373 215.163 228.567V228.521Z" fill="black"/>
<path d="M228.53 246.75V257.991C228.53 258.177 228.604 258.356 228.736 258.488C228.867 258.62 229.046 258.694 229.232 258.694C229.419 258.694 229.598 258.62 229.729 258.488C229.861 258.356 229.935 258.177 229.935 257.991V246.75C229.935 246.564 229.861 246.385 229.729 246.253C229.598 246.121 229.419 246.047 229.232 246.047C229.046 246.047 228.867 246.121 228.736 246.253C228.604 246.385 228.53 246.564 228.53 246.75Z" fill="black"/>
<path d="M234.347 246.75L233.823 257.251C233.823 258.188 235.19 258.188 235.228 257.251L235.715 246.75C235.715 245.813 234.347 245.813 234.31 246.75H234.347Z" fill="black"/>
<path d="M226.15 251.237L237.017 250.188C237.907 250.103 237.953 248.698 237.017 248.782L226.15 249.832C225.26 249.916 225.214 251.321 226.15 251.237Z" fill="black"/>
<path d="M227.106 255.705L236.783 253.832C237.663 253.663 237.289 252.314 236.408 252.483L226.731 254.356C225.841 254.525 226.226 255.883 227.106 255.715V255.705Z" fill="black"/>
<path d="M244.474 251.911C245.965 250.252 247.226 248.4 248.221 246.403L246.937 245.86C245.877 250.509 245.411 255.275 245.551 260.042C245.551 260.979 246.984 260.979 246.956 260.042C246.815 255.401 247.265 250.761 248.296 246.234C248.464 245.494 247.359 244.951 247.012 245.691C246.08 247.586 244.891 249.345 243.481 250.918C242.881 251.583 243.874 252.585 244.483 251.911H244.474Z" fill="black"/>
<path d="M202.02 180.193C199.393 183.87 196.975 187.692 194.779 191.641C193.149 194.573 185.411 208.736 180.943 229.991C180.166 233.691 179.669 236.727 179.379 238.628C181.283 246.899 186.372 254.086 193.543 258.628C195.631 259.936 197.866 260.992 200.203 261.775C201.425 263.083 202.8 264.241 204.296 265.223C207.416 267.265 211.238 268.632 211.575 268.033C211.762 267.724 210.985 266.637 205.955 262.909C210.207 264.492 213.673 264.445 214.217 263.293C214.76 262.141 212.68 259.546 209.027 257.26C213.046 258.047 215.163 258.131 215.397 257.513C215.715 256.651 212.396 254.428 205.439 250.843C205.542 248.558 204.503 247.012 203.641 246.993C202.779 246.975 201.87 248.23 201.589 250.075L193.627 236.464C196.119 231.649 198.948 226.581 202.17 221.364C206.423 214.479 210.751 208.305 214.938 202.835C215.537 197.286 214.073 191.711 210.826 187.172C208.546 184.121 205.512 181.715 202.02 180.193Z" fill="white"/>
<path opacity="0.14" d="M202.02 180.193C199.669 186.039 196.634 193.776 193.252 202.966C185.121 225.045 183.997 231.012 185.646 237.813C186.948 243.19 190.676 251.977 196.69 253.026C200.802 253.747 204.343 250.562 206.011 252.277C207.678 253.991 204.933 257.316 206.011 262.974C206.368 264.794 207.04 266.538 207.997 268.127C206.056 265.717 203.683 263.69 200.999 262.15C198.46 260.707 197.158 260.586 194.751 259.34C191.328 257.543 188.334 255.028 185.973 251.968C182.419 247.646 180.033 242.486 179.042 236.979C183.258 216.833 191.04 197.603 202.02 180.193Z" fill="#9E9E9E"/>
<path d="M201.421 179.8C189.449 196.025 184.044 215.547 178.939 234.75C178.906 234.923 178.94 235.102 179.033 235.251C179.126 235.4 179.272 235.509 179.441 235.557C179.611 235.604 179.792 235.585 179.948 235.505C180.105 235.426 180.226 235.29 180.287 235.125C185.374 216.024 190.732 196.643 202.629 180.512C203.163 179.781 201.945 179.079 201.421 179.8Z" fill="black"/>
<path d="M209.158 210.104C202.86 218.511 197.457 227.553 193.037 237.083C192.653 237.898 193.87 238.61 194.245 237.795C198.682 228.266 204.097 219.225 210.404 210.816C210.947 210.095 209.73 209.392 209.196 210.104H209.158Z" fill="black"/>
<path d="M191.51 238.038C193.692 235.425 196.793 242.938 197.383 244.043L201.13 251.078C201.561 251.874 202.769 251.162 202.348 250.366L198.826 243.809C197.881 241.706 196.769 239.682 195.5 237.757C194.245 236.137 192.034 235.219 190.498 237.055C189.917 237.739 190.91 238.741 191.491 238.048L191.51 238.038Z" fill="black"/>
<path d="M178.386 237.167C179.45 242.917 182.015 248.284 185.819 252.725C189.624 257.167 194.534 260.524 200.053 262.459C200.905 262.759 201.271 261.401 200.428 261.101C195.14 259.223 190.443 255.981 186.81 251.704C183.178 247.428 180.741 242.267 179.744 236.745C179.575 235.855 178.226 236.23 178.386 237.12V237.167Z" fill="black"/>
<path d="M202.441 251.509C202.498 250.675 202.516 249.541 203.191 248.923C203.622 248.52 204.437 248.445 204.699 249.054C205.055 249.879 206.263 249.167 205.917 248.342C205.765 248.075 205.561 247.842 205.317 247.656C205.073 247.47 204.794 247.336 204.496 247.26C204.199 247.185 203.889 247.171 203.586 247.218C203.283 247.266 202.992 247.374 202.732 247.537C201.327 248.314 201.13 250.075 201.036 251.509C200.98 252.445 202.385 252.445 202.441 251.509Z" fill="black"/>
<path d="M205.308 250.975C207.181 254.928 212.596 254.413 214.872 257.897C215.369 258.647 216.586 257.944 216.09 257.185C213.795 253.691 208.334 254.019 206.516 250.272C206.123 249.457 204.915 250.169 205.308 250.975Z" fill="black"/>
<path d="M200.353 262.3C201.065 264.642 203.641 265.335 205.243 266.984C206.03 267.906 207.076 268.57 208.245 268.891C209.414 269.212 210.652 269.174 211.8 268.782C212.652 268.501 212.287 267.143 211.425 267.424C208.615 268.361 207.285 266.74 205.327 265.129C204.118 264.126 202.207 263.602 201.711 261.963C201.449 261.101 200.09 261.466 200.353 262.337V262.3Z" fill="black"/>
<path d="M206.292 263.565C207.869 265.246 209.699 266.672 211.716 267.79C212.502 268.221 213.214 267.012 212.427 266.572C210.511 265.517 208.775 264.163 207.285 262.563C206.666 261.907 205.673 262.9 206.292 263.565Z" fill="black"/>
<path d="M206.085 262.722C207.231 263.754 208.659 264.421 210.186 264.636C211.714 264.852 213.27 264.606 214.657 263.93C215.481 263.546 214.76 262.328 213.954 262.722C212.837 263.25 211.59 263.438 210.367 263.261C209.144 263.085 208 262.552 207.078 261.729C206.404 261.129 205.411 262.122 206.085 262.722Z" fill="black"/>
<path d="M208.858 258.356C210.841 259.06 212.526 260.418 213.636 262.206C214.113 262.965 215.331 262.263 214.844 261.494C213.537 259.4 211.554 257.813 209.223 256.998C208.371 256.698 208.006 258.057 208.858 258.356Z" fill="black"/>
<path d="M206.657 260.099C208.613 261.399 210.872 262.17 213.214 262.337C214.151 262.412 214.151 261.007 213.214 260.932C211.122 260.769 209.108 260.066 207.369 258.89C206.61 258.384 205.908 259.602 206.657 260.099Z" fill="black"/>
<path d="M210.929 258.637C211.648 258.907 212.416 259.022 213.182 258.975C213.949 258.928 214.697 258.721 215.378 258.366C216.184 257.963 215.481 256.754 214.666 257.157C214.145 257.415 213.575 257.559 212.993 257.58C212.412 257.601 211.833 257.498 211.294 257.279C210.451 256.961 210.086 258.319 210.929 258.637Z" fill="black"/>
<path d="M259.93 167.528C257.554 169.913 256.049 173.028 255.659 176.371C254.825 184.633 261.869 189.992 262.272 190.291L280.202 223.34C277.523 228.567 274.85 233.794 272.183 239.021C271.725 238.605 271.182 238.292 270.592 238.104C270.002 237.917 269.378 237.859 268.764 237.935C268.005 238.064 267.296 238.401 266.717 238.909C266.139 239.416 265.712 240.075 265.485 240.811C265.729 240.904 268.164 241.85 268.483 243.883C268.516 244.43 268.439 244.977 268.258 245.494C268.076 246.01 267.792 246.485 267.424 246.89C264.811 250.309 260.595 249.551 260.155 251.377C259.799 252.895 262.356 254.768 263.818 255.555C265.164 256.209 266.627 256.587 268.122 256.667C269.616 256.747 271.112 256.529 272.52 256.024C269.972 260.127 269.822 261.335 270.188 261.644C270.993 262.375 275.687 259.939 277.251 255.733C278.693 251.855 276.829 248.239 276.408 247.434C278.061 245.854 279.793 244.36 281.597 242.956C282.581 242.188 283.93 241.167 289.26 237.551C294.815 233.804 295.002 233.804 295.864 232.867C296.904 231.79 299.836 228.764 300.295 224.614C300.707 220.923 298.965 217.973 298.056 216.38C289.223 201.177 291.902 200.896 281.513 185.814C275.949 177.673 273.335 175.05 270.272 172.84C267.12 170.545 263.631 168.753 259.93 167.528Z" fill="white"/>
<path opacity="0.21" d="M263.434 170.076C267.368 174.348 270.506 178.188 272.858 181.233C282.534 193.776 289.925 203.612 290.216 216.202C290.348 219.653 289.843 223.098 288.726 226.366C288.22 227.762 284.576 237.719 275.836 240.998C272.726 242.159 270.534 241.935 269.635 243.724C268.333 246.375 271.771 249.344 270.572 252.576C269.832 254.628 267.621 255.771 265.626 256.436L272.502 256.023C269.963 260.08 269.794 261.325 270.169 261.644C270.993 262.403 275.893 260.014 277.232 255.733C278.422 251.911 276.192 248.483 275.818 247.921C279.326 244.24 283.326 241.062 287.705 238.478C290.834 236.605 293.625 235.452 296.501 232.127C297.85 230.562 299.911 228.118 300.248 224.633C300.426 222.675 299.995 220.961 298.525 217.504C296.987 213.766 295.105 210.178 292.904 206.788C282.366 191.706 283.096 183.275 272.296 175.097C269.57 173.049 266.592 171.361 263.434 170.076Z" fill="#9E9E9E"/>
<path d="M259.743 168.212C270.769 171.397 277.691 180.54 283.293 190.011C288.895 199.481 293.925 209.28 298.562 219.256C298.946 220.071 300.155 219.359 299.771 218.544C294.469 207.134 288.773 195.697 281.972 185.121C276.642 176.887 269.794 169.646 260.155 166.854C259.975 166.804 259.783 166.828 259.62 166.92C259.458 167.013 259.338 167.166 259.289 167.346C259.239 167.526 259.263 167.718 259.355 167.881C259.447 168.043 259.6 168.163 259.78 168.212H259.743Z" fill="black"/>
<path d="M261.663 190.638C267.739 200.445 273.195 210.622 278 221.111C278.375 221.935 279.584 221.223 279.209 220.408C274.408 209.916 268.949 199.738 262.862 189.935C262.394 189.167 261.176 189.87 261.654 190.638H261.663Z" fill="black"/>
<path d="M286.609 220.015C283.18 218.947 280.576 221.083 279.002 224.015C276.445 228.774 275.199 234.048 272.117 238.563C271.611 239.312 272.82 240.015 273.335 239.275C275.025 236.679 276.432 233.909 277.532 231.013C278.937 227.547 280.895 219.706 286.234 221.364C287.096 221.636 287.471 220.277 286.609 220.015Z" fill="black"/>
<path d="M299.396 222.432C300.108 229.926 293.71 233.897 288.155 237.354C283.982 240.054 280.046 243.103 276.389 246.469C275.705 247.068 276.708 248.061 277.382 247.462C280.391 244.664 283.6 242.091 286.984 239.762C289.653 238 292.52 236.502 294.993 234.469C298.74 231.387 301.251 227.406 300.773 222.432C300.688 221.495 299.283 221.495 299.368 222.432H299.396Z" fill="black"/>
<path d="M272.783 238.666C272.437 238.175 271.978 237.774 271.445 237.498C270.912 237.221 270.32 237.077 269.72 237.077C269.119 237.077 268.527 237.221 267.994 237.498C267.461 237.774 267.002 238.175 266.656 238.666C266.132 239.406 267.35 240.108 267.865 239.378C268.086 239.092 268.37 238.86 268.695 238.701C269.02 238.542 269.377 238.459 269.738 238.459C270.1 238.459 270.457 238.542 270.782 238.701C271.106 238.86 271.39 239.092 271.612 239.378C272.127 240.108 273.354 239.378 272.82 238.666H272.783Z" fill="black"/>
<path d="M267.546 238.094C266.225 238.235 264.511 238.75 264.595 240.417C264.633 240.72 264.744 241.008 264.919 241.258C265.094 241.508 265.327 241.711 265.598 241.851C266.413 242.413 267.256 242.937 268.08 243.471C268.904 244.005 269.541 242.75 268.792 242.263C268.043 241.776 267.293 241.326 266.553 240.802C266.197 240.567 265.841 240.352 266.188 239.912C266.534 239.471 267.125 239.546 267.546 239.499C268.436 239.406 268.483 238.001 267.546 238.094Z" fill="black"/>
<path d="M275.359 247.555C276.483 250.656 277.635 254.028 275.883 257.138C275.443 257.925 276.661 258.637 277.101 257.841C279.05 254.384 277.982 250.693 276.708 247.181C276.408 246.337 275.05 246.703 275.359 247.555Z" fill="black"/>
<path d="M267.546 243.284C268.857 246.309 264.876 247.827 262.862 248.764C261.766 249.27 259.415 250.281 259.218 251.705C258.731 255.227 267.124 252.22 268.361 251.93C269.242 251.724 268.867 250.366 267.986 250.572C266.853 250.843 262.057 252.567 261.317 251.733C260.783 251.143 262.975 250.253 263.574 249.982C264.417 249.588 265.279 249.251 266.085 248.782C268.352 247.48 269.897 245.157 268.773 242.572C268.417 241.747 267.209 242.459 267.565 243.284H267.546Z" fill="black"/>
<path d="M261.345 252.483L261.158 252.623C261.028 252.707 260.928 252.828 260.871 252.971C260.814 253.113 260.803 253.27 260.839 253.42C261.092 254.834 262.984 254.984 264.127 255.153C266.065 255.412 268.036 255.268 269.916 254.731C270.096 254.681 270.249 254.562 270.342 254.4C270.434 254.237 270.458 254.045 270.408 253.865C270.358 253.685 270.239 253.532 270.077 253.439C269.914 253.347 269.722 253.323 269.541 253.373C268.354 253.717 267.124 253.89 265.888 253.888C265.373 253.888 262.338 253.888 262.141 253.045L261.823 253.832L262.01 253.701C262.722 253.167 262.01 251.94 261.298 252.483H261.345Z" fill="black"/>
<path d="M262.169 255.134C263.608 256.412 265.393 257.234 267.299 257.495C269.206 257.757 271.147 257.447 272.876 256.604C273.691 256.22 272.979 255.003 272.164 255.396C270.706 256.092 269.075 256.344 267.475 256.121C265.874 255.898 264.374 255.209 263.162 254.141C262.488 253.541 261.485 254.534 262.169 255.134Z" fill="black"/>
<path d="M272.324 256.145C270.905 257.623 269.931 259.47 269.514 261.475C269.429 261.878 269.701 262.412 270.188 262.365C271.369 262.255 272.511 261.886 273.533 261.284C274.555 260.681 275.431 259.861 276.099 258.881C276.614 258.131 275.396 257.429 274.881 258.169C274.348 258.946 273.654 259.6 272.846 260.085C272.037 260.57 271.134 260.875 270.197 260.979L270.872 261.869C271.231 260.107 272.082 258.483 273.326 257.185C273.944 256.529 272.951 255.536 272.333 256.192L272.324 256.145Z" fill="black"/>
<path d="M215.771 123.988C214.454 125.252 213.327 126.7 212.427 128.288C210.39 132.025 209.584 136.309 210.123 140.531C209.332 140.722 208.587 141.069 207.932 141.551C207.277 142.034 206.726 142.643 206.31 143.342C205.486 144.812 204.849 147.632 206.591 149.075C207.356 149.598 208.269 149.861 209.195 149.826C210.121 149.791 211.011 149.458 211.734 148.878C213.957 154.257 217.564 158.953 222.188 162.489C223.031 165.611 223.868 168.734 224.698 171.856C226.006 172.41 227.402 172.728 228.82 172.793C231.356 172.87 233.855 172.174 235.986 170.798C235.836 167.716 235.696 164.634 235.546 161.552C236.826 160.708 238.016 159.735 239.096 158.648C242.033 155.652 244.133 151.937 245.185 147.875C249.71 146.779 252.202 144.128 251.855 142.573C251.555 141.234 249.176 140.26 246.347 140.091C246.572 139.042 248.426 129.459 242.319 123.229C235.012 115.642 221.645 118.452 215.771 123.988Z" fill="white"/>
<path opacity="0.28" d="M211.912 129.909C211.848 133.472 212.257 137.029 213.13 140.485C213.898 143.529 217.926 159.491 228.492 161.477C230.188 161.796 233.429 162.011 237.86 159.754C236.21 161.735 234.405 163.583 232.464 165.281C231.099 166.473 229.666 167.586 228.174 168.615L228.839 172.737L224.717 171.8L222.272 161.299C220.906 160.708 219.616 159.953 218.432 159.051C215.023 156.313 212.613 152.526 211.575 148.278C211.172 149.215 210.535 150.208 209.626 150.33C207.603 150.602 204.418 146.405 205.767 144.054C206.703 142.349 209.598 142.424 209.795 142.433L211.912 129.909Z" fill="#9E9E9E"/>
<path d="M211.228 129.721C208.786 136.343 208.952 143.646 211.693 150.149C214.434 156.653 219.546 161.871 225.991 164.747C226.806 165.121 227.518 163.904 226.703 163.529C220.525 160.814 215.62 155.837 212.995 149.62C210.37 143.403 210.224 136.417 212.586 130.096C212.886 129.234 211.528 128.869 211.228 129.721Z" fill="black"/>
<path d="M230.582 164.484C245.57 159.875 248.38 143.229 246.244 129.637C246.104 128.7 244.755 129.131 244.895 130.012C246.937 142.808 244.436 158.761 230.207 163.126C229.345 163.388 229.72 164.746 230.582 164.484Z" fill="black"/>
<path d="M210.563 149.224C207.05 151.95 204.174 143.716 207.753 143.379C208.689 143.295 208.689 141.89 207.753 141.974C201.523 142.555 206.001 154.508 211.5 150.217C212.212 149.665 211.209 148.681 210.507 149.224H210.563Z" fill="black"/>
<path d="M247.153 140.503C247.886 140.223 248.699 140.238 249.42 140.545C250.142 140.853 250.716 141.429 251.022 142.152C251.743 144.081 249.869 145.899 247.996 145.843C247.059 145.843 247.059 147.21 247.996 147.248C250.628 147.369 253.11 144.868 252.492 142.17C252.335 141.584 252.059 141.037 251.681 140.562C251.303 140.087 250.831 139.696 250.295 139.412C249.758 139.128 249.169 138.958 248.564 138.912C247.959 138.866 247.351 138.945 246.778 139.145C245.944 139.454 246.3 140.822 247.153 140.503Z" fill="black"/>
<path d="M221.514 162.639C222.114 165.538 222.871 168.402 223.781 171.22C224.062 172.072 225.42 171.707 225.139 170.845C224.225 168.029 223.468 165.164 222.872 162.264C222.685 161.384 221.336 161.758 221.514 162.639Z" fill="black"/>
<path d="M224.343 172.437C226.145 173.243 228.129 173.556 230.092 173.345C232.055 173.134 233.927 172.408 235.518 171.238C236.239 170.714 235.518 169.496 234.806 170.03C233.431 171.073 231.804 171.733 230.091 171.942C228.378 172.151 226.64 171.902 225.055 171.22C224.23 170.873 223.518 172.081 224.343 172.437Z" fill="black"/>
<path d="M234.9 162.658C234.819 165 234.847 167.335 234.984 169.665C235.04 170.601 236.446 170.601 236.389 169.665C236.246 167.335 236.218 165 236.305 162.658C236.305 161.721 234.928 161.721 234.9 162.658Z" fill="black"/>
<path d="M224.802 151.963C226.283 152.179 227.794 152.07 229.229 151.643C230.664 151.216 231.988 150.481 233.111 149.49C233.794 148.89 232.801 147.907 232.118 148.497C231.181 149.328 230.076 149.946 228.878 150.31C227.679 150.674 226.417 150.774 225.176 150.605C224.296 150.483 223.912 151.841 224.802 151.963Z" fill="black"/>
<path d="M221.888 134.808C221.607 134.47 221.461 134.04 221.479 133.6C221.496 133.161 221.675 132.743 221.982 132.428L220.876 132.288C221.307 133.122 221.916 134.293 221.017 135.023L222.122 135.164C221.898 134.69 221.747 134.184 221.673 133.665C221.523 132.728 220.174 133.15 220.314 134.04C220.418 134.69 220.617 135.321 220.905 135.913C220.96 136.005 221.036 136.083 221.125 136.141C221.215 136.199 221.317 136.237 221.423 136.25C221.53 136.264 221.638 136.253 221.739 136.219C221.841 136.185 221.933 136.128 222.01 136.054C223.453 134.892 222.806 132.991 222.094 131.613C222.039 131.522 221.963 131.444 221.873 131.386C221.784 131.327 221.682 131.29 221.575 131.277C221.469 131.263 221.361 131.274 221.26 131.308C221.158 131.342 221.066 131.398 220.989 131.473C220.46 132.006 220.139 132.71 220.082 133.458C220.025 134.207 220.237 134.951 220.68 135.557C221.223 136.269 222.441 135.557 221.888 134.845V134.808Z" fill="black"/>
<path d="M233.738 134.808C233.453 134.47 233.304 134.039 233.32 133.597C233.335 133.156 233.514 132.736 233.822 132.419L232.717 132.279C233.148 133.112 233.757 134.283 232.857 135.014L233.963 135.155C233.739 134.68 233.587 134.175 233.513 133.656C233.363 132.719 232.005 133.141 232.155 134.03C232.258 134.681 232.457 135.312 232.745 135.904C232.801 135.995 232.876 136.073 232.966 136.132C233.056 136.19 233.158 136.227 233.264 136.241C233.37 136.254 233.478 136.244 233.58 136.21C233.681 136.176 233.774 136.119 233.85 136.044C235.293 134.883 234.647 132.981 233.935 131.604C233.877 131.523 233.803 131.455 233.717 131.405C233.631 131.354 233.536 131.322 233.437 131.31C233.338 131.299 233.238 131.308 233.143 131.338C233.048 131.368 232.96 131.417 232.886 131.482C232.357 132.015 232.035 132.719 231.979 133.468C231.922 134.216 232.134 134.96 232.576 135.567C233.12 136.279 234.338 135.567 233.785 134.855L233.738 134.808Z" fill="black"/>
<path d="M231.537 125.459C232.709 124.627 234.146 124.257 235.574 124.419C236.511 124.503 236.464 123.098 235.574 123.014C233.894 122.837 232.206 123.276 230.825 124.251C230.085 124.756 230.825 125.984 231.537 125.459Z" fill="black"/>
<path d="M209.889 141.843C209.623 140.714 209.655 139.536 209.982 138.424C210.262 137.54 210.732 136.728 211.359 136.044C212.474 134.761 213.907 130.686 215.481 119.183C217.244 120.58 219.158 121.777 221.186 122.752C224.869 124.479 228.831 125.532 232.886 125.862C235.019 126.099 237.167 126.181 239.312 126.105C239.936 127.436 240.561 128.781 241.185 130.143C242.878 133.627 244.605 136.934 246.366 140.063C247.197 139.635 248.154 139.517 249.064 139.732C249.975 139.947 250.778 140.479 251.331 141.234C251.675 141.89 251.819 142.633 251.746 143.371C251.673 144.108 251.385 144.808 250.918 145.384C250.274 146.157 249.401 146.706 248.424 146.952C247.448 147.198 246.419 147.127 245.485 146.751C244.399 149.399 243.306 152.047 242.207 154.695C239.243 156.457 236.927 159.128 235.602 162.311C232.624 169.974 236.586 180.175 244.539 183.763C251.181 186.76 257.757 183.866 258.993 183.285C261.532 182.334 263.85 180.873 265.804 178.993C267.758 177.113 269.307 174.853 270.356 172.353C270.581 171.791 273.522 164.184 269.878 156.943C267.705 152.615 264.792 151.651 261.822 148.887C251.705 139.52 259.883 126.892 251.874 116.56C244.071 106.499 224.942 103.764 215.237 111.323C213.09 113.043 211.38 115.244 210.244 117.749C208.625 118.063 207.086 118.7 205.72 119.623C198.282 124.822 202.704 135.304 196.399 149.337C192.774 157.384 190.048 156.747 188.577 163.323C188.287 164.606 185.449 178.17 194.029 185.13C202.835 192.268 218.675 188.362 223.069 179.809C224.942 176.156 224.399 172.381 224.005 169.505C222.432 158.77 214.975 152.128 212.184 149.89C211.806 150.258 211.359 150.547 210.868 150.74C210.378 150.933 209.854 151.026 209.326 151.014C207.35 150.864 206.338 148.915 206.01 148.297C205.823 147.932 204.305 145.037 206.01 143.061C207.322 141.524 209.673 141.787 209.889 141.843Z" fill="black"/>
<path d="M216.161 200.366C215.844 200.434 214.571 196.113 212.508 190.989C210.505 185.83 208.515 181.772 208.809 181.599C209.104 181.426 211.54 185.3 213.625 190.53C215.698 195.807 216.477 200.299 216.161 200.366Z" fill="black" stroke="black" stroke-width="0.10934" stroke-miterlimit="10"/>
<path d="M263.975 195.119C263.68 195.253 261.502 191.31 258.38 186.753C255.308 182.15 252.488 178.618 252.738 178.386C252.988 178.153 256.205 181.409 259.371 186.064C262.536 190.767 264.269 194.984 263.975 195.119Z" fill="black" stroke="black" stroke-width="0.10934" stroke-miterlimit="10"/>
<path d="M207.649 214.58C207.442 214.41 209.577 211.364 211.824 207.395C214.124 203.446 215.721 200.072 215.984 200.173C216.247 200.274 214.999 203.842 212.695 207.88C210.355 211.934 207.855 214.75 207.649 214.58Z" fill="black" stroke="black" stroke-width="0.10934" stroke-miterlimit="10"/>
<path d="M227.626 146.554C227.576 146.684 226.733 146.393 225.767 145.487C225.494 145.264 225.221 145.041 224.986 144.563C224.837 144.328 224.806 144.018 224.844 143.764C224.881 143.51 224.862 143.324 224.9 143.07C224.999 142.183 225.216 141.222 225.496 140.256C226.054 138.322 226.699 136.63 227.208 135.452C227.717 134.275 228.082 133.549 228.206 133.537C228.337 133.587 228.231 134.411 227.914 135.632C227.604 136.915 227.021 138.601 226.456 140.473C226.177 141.44 225.954 142.338 225.786 143.169C225.742 143.361 225.705 143.615 225.656 143.745C225.612 143.938 225.618 144 225.693 144.117C225.779 144.359 226.058 144.644 226.207 144.88C227.062 145.922 227.737 146.418 227.626 146.554Z" fill="black" stroke="black" stroke-width="0.473804" stroke-miterlimit="10"/>
<path d="M169.764 32.5399C166.504 38.3242 161.347 42.8052 155.164 45.225L160.625 52.6245C162.908 51.157 165.068 49.5075 167.084 47.692C169.906 45.1262 172.428 42.2489 174.602 39.1152L169.764 32.5399Z" fill="white"/>
<path d="M344.047 227.795C343.574 233.064 343.111 238.319 342.658 243.561L349.571 243.822C349.865 238.658 350.164 233.487 350.468 228.31L344.047 227.795Z" fill="white"/>
<path d="M377.425 142.279C376.914 144.34 376.519 146.429 376.244 148.535C375.564 153.835 375.631 159.204 376.443 164.485L383.423 163.923C383.215 159.551 383.268 155.171 383.581 150.805C383.79 147.929 384.097 145.21 384.472 142.665L377.425 142.279Z" fill="white"/>
<path d="M271.331 57.7691C270.173 59.1701 271.162 61.6274 272.059 64.364C273.795 69.7297 274.973 75.26 275.576 80.8672L281.89 81.1118C281.468 77.9716 281.117 74.6794 280.837 71.235C280.465 66.6196 280.264 62.2594 280.263 58.0864C278.354 57.433 273.065 55.6625 271.331 57.7691Z" fill="white"/>
<path d="M163.695 234.561C162.06 234.656 161.534 237.613 158.611 241.176C157.105 242.995 155.324 244.567 153.333 245.835L158.732 249.506C160.878 248.615 162.802 247.265 164.371 245.551C165.94 243.838 167.115 241.802 167.815 239.587C165.928 235.289 164.591 234.513 163.695 234.561Z" fill="white"/>
<path d="M91.4463 267.171C90.3863 268.419 92.1632 270.841 92.722 275.416C92.9985 277.761 92.9063 280.134 92.4489 282.451L98.8328 281.079C99.6689 278.912 100.021 276.587 99.8644 274.269C99.7079 271.951 99.0465 269.695 97.9267 267.66C93.5147 266.059 92.0303 266.49 91.4463 267.171Z" fill="white"/>
<path d="M154.053 244.48C153.879 244.138 156.09 242.77 158.304 240.548C160.517 238.327 161.922 236.154 162.268 236.327C162.614 236.499 161.658 239.101 159.241 241.48C156.824 243.86 154.188 244.806 154.053 244.48Z" fill="black" stroke="black" stroke-width="0.408086" stroke-miterlimit="10"/>
<path d="M91.9657 280.995C91.5983 280.884 92.1354 278.34 92.0561 275.205C91.9768 272.07 91.3746 269.554 91.7384 269.423C92.1022 269.291 93.325 271.778 93.3778 275.17C93.4306 278.561 92.2951 281.122 91.9657 280.995Z" fill="black" stroke="black" stroke-width="0.408086" stroke-miterlimit="10"/>
<path d="M158.73 249.495C158.671 249.289 159.774 248.917 161.184 247.808C162.981 246.263 164.527 244.448 165.766 242.429C166.152 241.852 166.565 241.235 166.891 240.746C167.218 240.258 167.28 239.828 167.115 239.502C166.835 239.08 166.487 238.708 166.085 238.4L164.953 237.406C163.54 236.216 162.622 235.503 162.72 235.343C162.817 235.182 163.91 235.619 165.509 236.649C165.909 236.917 166.343 237.207 166.804 237.516C167.365 237.88 167.847 238.352 168.221 238.906C168.435 239.303 168.519 239.758 168.461 240.206C168.392 240.607 168.256 240.994 168.059 241.35C167.677 242.008 167.273 242.524 166.899 243.157C165.58 245.299 163.817 247.133 161.728 248.536C160.038 249.565 158.736 249.676 158.73 249.495Z" fill="black" stroke="black" stroke-width="0.408086" stroke-miterlimit="10"/>
<path d="M98.8229 281.073C98.6335 280.973 99.1261 279.919 99.297 278.133C99.4199 275.767 99.174 273.395 98.5681 271.104C98.4173 270.427 98.2558 269.702 98.1281 269.129C98.0004 268.555 97.732 268.214 97.3822 268.108C96.8837 268.019 96.374 268.014 95.8738 268.092L94.3733 268.226C92.5365 268.426 91.3875 268.598 91.3387 268.416C91.2899 268.235 92.36 267.746 94.2091 267.301C94.6791 267.196 95.189 267.082 95.7307 266.962C96.381 266.808 97.0556 266.785 97.7146 266.896C98.1499 267.016 98.5368 267.269 98.8206 267.62C99.0635 267.947 99.2495 268.313 99.3708 268.702C99.5836 269.432 99.6777 270.08 99.8772 270.788C100.516 273.221 100.626 275.763 100.199 278.242C99.7769 280.175 98.9584 281.194 98.8229 281.073Z" fill="black" stroke="black" stroke-width="0.408086" stroke-miterlimit="10"/>
<path d="M159.652 248.895C159.667 249.062 159.257 249.308 158.51 249.339C157.532 249.333 156.581 249.019 155.791 248.442C154.995 247.877 154.401 247.07 154.099 246.142C153.881 245.426 153.988 244.958 154.151 244.919C154.52 244.852 155.077 246.324 156.571 247.364C158.066 248.403 159.596 248.523 159.652 248.895Z" fill="black" stroke="black" stroke-width="0.408086" stroke-miterlimit="10"/>
<path d="M99.025 279.991C99.157 280.096 99.0518 280.562 98.5581 281.124C97.8785 281.827 96.9948 282.299 96.0322 282.472C95.0735 282.658 94.0805 282.53 93.2001 282.108C92.5315 281.772 92.2667 281.371 92.3516 281.226C92.5577 280.913 94.0071 281.527 95.7908 281.163C97.5744 280.799 98.7178 279.775 99.025 279.991Z" fill="black" stroke="black" stroke-width="0.408086" stroke-miterlimit="10"/>
<path d="M63.731 80.7534C64.0616 83.3493 64.6884 85.8988 65.599 88.352C67.38 93.0933 70.1676 97.3921 73.7699 100.952L81.7756 96.7444C77.2648 91.4824 73.9469 85.3061 72.0499 78.64L63.731 80.7534Z" fill="white"/>
<path d="M164.731 320.753C165.062 323.349 165.688 325.899 166.599 328.352C168.38 333.093 171.168 337.392 174.77 340.952L182.776 336.744C178.265 331.482 174.947 325.306 173.05 318.64L164.731 320.753Z" fill="white"/>
<path d="M173.686 318.276C173.879 318.572 172.168 320.03 169.547 320.739C166.925 321.449 164.704 321.103 164.731 320.753C164.758 320.404 166.79 320.132 169.187 319.457C171.585 318.783 173.482 317.96 173.686 318.276Z" fill="black" stroke="black" stroke-width="0.408086" stroke-miterlimit="10"/>
<path d="M182.752 336.737C182.638 336.865 181.687 336.284 180.384 335.053C178.707 333.423 177.271 331.562 176.119 329.526C174.955 327.499 174.091 325.314 173.554 323.039C173.154 321.294 173.144 320.184 173.308 320.147C173.706 320.07 174.625 324.304 177.27 328.863C179.915 333.423 183.019 336.442 182.752 336.737Z" fill="black" stroke="black" stroke-width="0.408086" stroke-miterlimit="10"/>
<path d="M174.41 340.13C174.295 340.258 173.348 339.635 172.06 338.357C170.394 336.665 168.976 334.746 167.846 332.658C166.703 330.573 165.863 328.336 165.353 326.014C164.99 324.203 164.975 323.108 165.145 323.082C165.543 323.005 166.434 327.332 169.016 332.018C171.598 336.704 174.678 339.86 174.41 340.13Z" fill="black" stroke="black" stroke-width="0.408086" stroke-miterlimit="10"/>
<path d="M182.515 336.676C182.651 336.793 182.442 337.293 181.903 337.958C181.178 338.808 180.303 339.517 179.322 340.051C178.346 340.592 177.281 340.953 176.177 341.116C175.297 341.212 174.788 341.12 174.764 340.942C174.706 340.567 176.618 340.038 178.682 338.881C180.747 337.725 182.223 336.427 182.515 336.676Z" fill="black" stroke="black" stroke-width="0.408086" stroke-miterlimit="10"/>
<path d="M205.902 271.844C207.377 274.006 209.094 275.992 211.02 277.763C214.762 281.177 219.199 283.739 224.025 285.273L229.244 277.886C222.834 275.249 217.071 271.256 212.351 266.18L205.902 271.844Z" fill="white"/>
<path d="M212.753 265.567C213.059 265.743 212.197 267.819 210.185 269.643C208.173 271.466 206.037 272.168 205.902 271.844C205.768 271.52 207.453 270.354 209.283 268.664C211.112 266.973 212.427 265.378 212.753 265.567Z" fill="black" stroke="black" stroke-width="0.408086" stroke-miterlimit="10"/>
<path d="M229.22 277.89C229.176 278.056 228.064 277.97 226.345 277.466C224.11 276.776 221.985 275.771 220.034 274.481C218.075 273.205 216.313 271.652 214.8 269.87C213.651 268.497 213.137 267.513 213.267 267.406C213.586 267.156 216.329 270.509 220.758 273.368C225.186 276.227 229.323 277.506 229.22 277.89Z" fill="black" stroke="black" stroke-width="0.408086" stroke-miterlimit="10"/>
<path d="M223.331 284.703C223.287 284.869 222.16 284.745 220.432 284.193C218.179 283.442 216.044 282.378 214.088 281.031C212.122 279.694 210.358 278.083 208.848 276.247C207.701 274.799 207.19 273.831 207.329 273.73C207.648 273.48 210.41 276.93 214.839 279.93C219.269 282.93 223.447 284.342 223.331 284.703Z" fill="black" stroke="black" stroke-width="0.408086" stroke-miterlimit="10"/>
<path d="M228.98 277.943C229.154 277.985 229.196 278.525 229.018 279.363C228.758 280.449 228.301 281.479 227.67 282.401C227.047 283.326 226.262 284.132 225.354 284.779C224.613 285.264 224.118 285.413 224.016 285.266C223.793 284.959 225.256 283.618 226.569 281.649C227.882 279.681 228.607 277.854 228.98 277.943Z" fill="black" stroke="black" stroke-width="0.408086" stroke-miterlimit="10"/>
<path d="M198.207 122.571C197.098 120.2 195.722 117.964 194.105 115.907C190.959 111.938 186.991 108.697 182.472 106.409L176.137 112.863C182.041 116.494 187.088 121.36 190.933 127.127L198.207 122.571Z" fill="white"/>
<path d="M190.438 127.668C190.164 127.445 191.348 125.534 193.626 124.056C195.905 122.579 198.126 122.229 198.207 122.57C198.288 122.912 196.437 123.792 194.36 125.167C192.283 126.542 190.729 127.906 190.438 127.668Z" fill="black" stroke="black" stroke-width="0.408086" stroke-miterlimit="10"/>
<path d="M176.161 112.862C176.231 112.706 177.315 112.968 178.931 113.742C181.026 114.781 182.963 116.114 184.681 117.701C186.41 119.274 187.9 121.09 189.107 123.092C190.022 124.631 190.371 125.685 190.226 125.77C189.871 125.965 187.701 122.216 183.788 118.683C179.876 115.15 175.998 113.225 176.161 112.862Z" fill="black" stroke="black" stroke-width="0.408086" stroke-miterlimit="10"/>
<path d="M183.066 107.082C183.137 106.925 184.229 107.228 185.847 108.051C187.95 109.153 189.887 110.546 191.601 112.189C193.327 113.824 194.81 115.697 196.006 117.752C196.906 119.365 197.254 120.403 197.101 120.48C196.746 120.675 194.574 116.827 190.683 113.156C186.792 109.484 182.894 107.42 183.066 107.082Z" fill="black" stroke="black" stroke-width="0.408086" stroke-miterlimit="10"/>
<path d="M176.406 112.849C176.241 112.779 176.287 112.239 176.596 111.441C177.027 110.41 177.643 109.468 178.414 108.659C179.178 107.846 180.081 107.176 181.082 106.684C181.891 106.323 182.404 106.255 182.481 106.417C182.651 106.756 180.993 107.845 179.381 109.577C177.769 111.31 176.76 112.997 176.406 112.849Z" fill="black" stroke="black" stroke-width="0.408086" stroke-miterlimit="10"/>
<path d="M120.241 140.968C120.901 143.243 121.72 145.667 122.735 148.208C124.267 152.02 126.09 155.709 128.187 159.241L135.101 155.526C133.395 153.49 132.05 151.178 131.125 148.688C130.189 146.161 129.705 143.489 129.694 140.794L120.241 140.968Z" fill="white"/>
<path d="M129.174 141.397C129.208 141.568 128.798 141.83 128.057 142.001C126.109 142.401 124.081 142.018 122.414 140.934C121.79 140.51 121.499 140.117 121.595 139.966C121.809 139.647 123.371 140.35 125.374 140.717C127.377 141.083 129.081 141.02 129.174 141.397Z" fill="black" stroke="black" stroke-width="0.408086" stroke-miterlimit="10"/>
<path d="M135.096 155.516C134.96 155.629 134.251 155.035 133.354 153.873C131.041 150.768 129.678 147.058 129.431 143.193C129.36 141.716 129.519 140.81 129.699 140.804C130.086 140.791 130.353 144.328 131.871 148.356C133.388 152.385 135.406 155.276 135.096 155.516Z" fill="black" stroke="black" stroke-width="0.408086" stroke-miterlimit="10"/>
<path d="M128.191 159.2C127.898 159.385 125.247 155.701 123.031 150.588C120.815 145.474 119.915 141.033 120.247 140.945C120.58 140.857 122.064 145.054 124.254 150.057C126.443 155.061 128.506 159.03 128.191 159.2Z" fill="black" stroke="black" stroke-width="0.408086" stroke-miterlimit="10"/>
<path d="M134.244 155.773C134.382 155.883 134.25 156.354 133.768 156.943C133.102 157.694 132.247 158.254 131.293 158.565C130.341 158.886 129.321 158.944 128.339 158.733C127.611 158.517 127.215 158.245 127.264 158.081C127.373 157.713 129.012 157.929 130.901 157.307C132.789 156.686 133.945 155.548 134.244 155.773Z" fill="black" stroke="black" stroke-width="0.408086" stroke-miterlimit="10"/>
<path d="M294.962 135.18C293.656 137.156 292.34 139.351 291.061 141.77C289.149 145.406 287.519 149.184 286.186 153.07L293.495 155.932C293.941 153.313 294.832 150.791 296.13 148.473C297.449 146.123 299.171 144.024 301.218 142.27L294.962 135.18Z" fill="white"/>
<path d="M300.421 142.264C300.312 142.401 299.848 142.258 299.238 141.804C297.671 140.579 296.65 138.786 296.395 136.814C296.315 136.064 296.425 135.587 296.602 135.563C296.984 135.519 297.46 137.165 298.478 138.928C299.496 140.691 300.648 141.95 300.421 142.264Z" fill="black" stroke="black" stroke-width="0.408086" stroke-miterlimit="10"/>
<path d="M293.499 155.921C293.325 155.89 293.319 154.965 293.623 153.529C294.491 149.756 296.435 146.315 299.219 143.623C300.298 142.612 301.092 142.147 301.214 142.28C301.474 142.567 298.952 145.061 296.865 148.826C294.779 152.591 293.883 156.001 293.499 155.921Z" fill="black" stroke="black" stroke-width="0.408086" stroke-miterlimit="10"/>
<path d="M286.22 153.046C285.889 152.942 286.98 148.537 289.44 143.537C291.901 138.536 294.701 134.974 294.984 135.17C295.267 135.367 293.03 139.216 290.636 144.125C288.242 149.033 286.554 153.176 286.22 153.046Z" fill="black" stroke="black" stroke-width="0.408086" stroke-miterlimit="10"/>
<path d="M292.752 155.438C292.758 155.614 292.313 155.819 291.552 155.833C290.548 155.812 289.568 155.524 288.713 154.998C287.852 154.481 287.147 153.741 286.672 152.856C286.366 152.162 286.316 151.684 286.472 151.615C286.823 151.46 287.721 152.848 289.417 153.884C291.114 154.921 292.73 155.065 292.752 155.438Z" fill="black" stroke="black" stroke-width="0.408086" stroke-miterlimit="10"/>
<path d="M361.962 308.18C360.656 310.156 359.34 312.351 358.061 314.77C356.149 318.406 354.519 322.184 353.186 326.07L360.495 328.932C360.941 326.313 361.832 323.791 363.13 321.473C364.449 319.123 366.171 317.024 368.218 315.27L361.962 308.18Z" fill="white"/>
<path d="M367.421 315.264C367.312 315.401 366.848 315.258 366.238 314.804C364.671 313.579 363.65 311.786 363.395 309.814C363.315 309.064 363.425 308.587 363.602 308.563C363.984 308.519 364.46 310.165 365.478 311.928C366.496 313.691 367.648 314.95 367.421 315.264Z" fill="black" stroke="black" stroke-width="0.408086" stroke-miterlimit="10"/>
<path d="M360.499 328.921C360.325 328.89 360.319 327.965 360.623 326.529C361.491 322.756 363.435 319.315 366.219 316.623C367.298 315.612 368.092 315.147 368.214 315.28C368.474 315.567 365.952 318.061 363.865 321.826C361.779 325.591 360.883 329.001 360.499 328.921Z" fill="black" stroke="black" stroke-width="0.408086" stroke-miterlimit="10"/>
<path d="M353.22 326.046C352.889 325.942 353.98 321.537 356.44 316.537C358.901 311.536 361.701 307.974 361.984 308.17C362.267 308.367 360.03 312.216 357.636 317.125C355.242 322.033 353.554 326.176 353.22 326.046Z" fill="black" stroke="black" stroke-width="0.408086" stroke-miterlimit="10"/>
<path d="M359.752 328.438C359.758 328.614 359.313 328.819 358.552 328.833C357.548 328.812 356.568 328.524 355.713 327.998C354.852 327.481 354.147 326.741 353.672 325.856C353.366 325.162 353.316 324.684 353.472 324.615C353.823 324.46 354.721 325.848 356.417 326.884C358.114 327.921 359.73 328.065 359.752 328.438Z" fill="black" stroke="black" stroke-width="0.408086" stroke-miterlimit="10"/>
<path d="M154.472 45.1466C154.341 44.7584 158.712 43.3772 162.938 39.8496C167.165 36.322 169.427 32.3545 169.771 32.5164C169.927 32.563 169.569 33.7082 168.612 35.3222C166.018 39.5404 162.092 42.7735 157.455 44.5103C155.681 45.1746 154.518 45.3052 154.472 45.1466Z" fill="black" stroke="black" stroke-width="0.408086" stroke-miterlimit="10"/>
<path d="M161.14 52.982C161.052 53.1346 160.467 53.0115 159.646 52.5372C157.505 51.2507 155.922 49.209 155.21 46.814C154.966 45.8897 154.988 45.3002 155.157 45.2482C155.534 45.156 156.279 47.2002 157.942 49.2793C159.606 51.3584 161.349 52.6524 161.14 52.982Z" fill="black" stroke="black" stroke-width="0.408086" stroke-miterlimit="10"/>
<path d="M174.586 39.1105C174.265 39.3043 173.076 37.8606 171.598 36.1345C170.119 34.4084 168.908 32.9834 169.147 32.6968C169.385 32.4102 171.063 33.4378 172.636 35.277C174.209 37.1163 174.903 38.9324 174.586 39.1105Z" fill="black" stroke="black" stroke-width="0.408086" stroke-miterlimit="10"/>
<path d="M158.71 53.9956C158.506 53.6794 162.426 50.7247 167.054 46.8484L170.301 44.0937C171.304 43.2426 172.175 42.4887 172.842 41.7931C174.192 40.4065 174.693 39.2954 174.878 39.3591C175.064 39.4228 174.825 40.7398 173.564 42.3739C172.827 43.3079 172.015 44.1797 171.136 44.9807C170.174 45.8951 169.084 46.8652 167.915 47.8456C163.214 51.794 158.911 54.2938 158.71 53.9956Z" fill="black" stroke="black" stroke-width="0.408086" stroke-miterlimit="10"/>
<path d="M343.284 244.088C342.944 244.174 341.876 240.467 342.033 235.762C342.083 233.438 342.443 231.131 343.104 228.902L343.644 227.232L343.848 228.893C343.955 229.82 343.958 230.382 343.822 230.41C343.686 230.438 343.433 229.945 343.107 229.065L343.853 229.048C343.731 230.545 343.441 233.005 343.364 235.809C343.209 240.336 343.67 244.024 343.284 244.088Z" fill="black" stroke="black" stroke-width="0.408086" stroke-miterlimit="10"/>
<path d="M349.83 242.094C349.48 242.126 348.865 237.242 349.512 231.235C349.556 230.857 349.596 230.494 349.646 230.126C349.696 229.757 349.733 229.462 349.78 229.135L349.819 229.002L349.84 228.932C349.84 228.932 349.801 228.92 349.785 228.915L349.66 228.878L349.558 228.848L349.31 228.825C348.032 228.683 346.844 228.525 345.903 228.398C343.97 228.112 342.771 227.849 342.791 227.668C342.811 227.486 344.025 227.413 345.978 227.458C346.96 227.478 348.121 227.526 349.411 227.629L350.906 227.725L351.131 227.741L351.233 227.771L351.288 227.787L351.272 227.842L351.219 228.278C351.132 228.567 351.135 228.874 351.095 229.178L350.834 231.399C350.209 237.217 350.212 242.071 349.83 242.094Z" fill="black" stroke="black" stroke-width="0.408086" stroke-miterlimit="10"/>
<path d="M350.545 243.814C350.564 244.177 348.796 244.596 346.576 244.531C344.355 244.466 342.619 243.949 342.666 243.589C342.714 243.229 344.501 243.147 346.623 243.2C348.745 243.253 350.502 243.443 350.545 243.814Z" fill="black" stroke="black" stroke-width="0.408086" stroke-miterlimit="10"/>
<path d="M275.016 79.4315C274.684 79.5456 273.015 75.14 272.081 69.4375C271.147 63.7351 271.301 58.9864 271.64 59.0193C271.979 59.0522 272.46 63.615 273.399 69.2166C274.337 74.8183 275.385 79.3369 275.016 79.4315Z" fill="black" stroke="black" stroke-width="0.408086" stroke-miterlimit="10"/>
<path d="M277.707 59.3155C279.862 59.4633 281.629 59.283 281.654 58.9126C281.68 58.5422 279.954 58.1221 277.799 57.9743C275.645 57.8264 273.877 58.0068 273.852 58.3772C273.827 58.7475 275.553 59.1676 277.707 59.3155Z" fill="black" stroke="black" stroke-width="0.409878" stroke-miterlimit="10"/>
<path d="M281.822 78.0515C281.47 78.1171 280.368 73.8119 279.874 68.3767C279.38 62.9414 279.673 58.5239 280.014 58.5232C280.355 58.5224 280.685 62.9043 281.199 68.2433C281.713 73.5824 282.185 78.0061 281.822 78.0515Z" fill="black" stroke="black" stroke-width="0.408086" stroke-miterlimit="10"/>
<path d="M283.65 81.1504C283.641 81.5225 282.042 81.8042 280.055 81.7834C278.069 81.7625 276.483 81.4524 276.482 81.0858C276.48 80.7191 278.09 80.432 280.077 80.4528C282.063 80.4736 283.655 80.7603 283.65 81.1504Z" fill="black" stroke="black" stroke-width="0.408086" stroke-miterlimit="10"/>
<path d="M349.942 88.1123C348.079 88.9035 347.964 91.3217 346.082 94.8998C344.587 97.7223 342.567 100.234 340.132 102.3L345.588 105.713C347.256 104.616 348.823 103.373 350.27 101.997C353.408 98.9836 355.954 95.4089 357.776 91.4581C353.51 87.7694 351.231 87.585 349.942 88.1123Z" fill="white"/>
<path d="M339.924 101.31C339.684 101 342.652 98.4685 345.459 94.6461C348.266 90.8236 349.877 87.2414 350.27 87.4094C350.663 87.5774 349.544 91.451 346.569 95.4364C343.594 99.4218 340.09 101.581 339.924 101.31Z" fill="black" stroke="black" stroke-width="0.408086" stroke-miterlimit="10"/>
<path d="M358.058 90.5966C357.87 90.9152 356.248 90.2963 354.369 89.345C352.489 88.3937 351.025 87.4469 351.169 87.1066C351.313 86.7662 353.046 87.18 354.968 88.161C356.89 89.1419 358.244 90.2859 358.058 90.5966Z" fill="black" stroke="black" stroke-width="0.408086" stroke-miterlimit="10"/>
<path d="M345.588 105.738C345.371 105.409 348.99 102.893 352.389 98.7701C355.788 94.647 357.689 90.6912 358.051 90.8499C358.215 90.8988 357.952 92.0126 357.213 93.666C355.203 97.9722 352.104 101.679 348.221 104.418C346.717 105.436 345.681 105.885 345.588 105.738Z" fill="black" stroke="black" stroke-width="0.408086" stroke-miterlimit="10"/>
<path d="M346.56 106.394C346.358 106.7 344.764 106.046 342.987 104.921C341.21 103.796 339.928 102.64 340.121 102.365C340.313 102.09 341.909 102.71 343.688 103.827C345.467 104.944 346.756 106.077 346.56 106.394Z" fill="black" stroke="black" stroke-width="0.408086" stroke-miterlimit="10"/>
<path d="M117.95 309.245C116.088 310.036 115.973 312.454 114.09 316.033C112.595 318.855 110.576 321.367 108.14 323.433L113.596 326.845C115.265 325.749 116.832 324.506 118.279 323.13C121.417 320.116 123.963 316.542 125.785 312.591C121.518 308.902 119.24 308.718 117.95 309.245Z" fill="white"/>
<path d="M107.933 322.442C107.693 322.133 110.66 319.601 113.468 315.779C116.275 311.956 117.886 308.374 118.279 308.542C118.672 308.71 117.552 312.584 114.578 316.569C111.603 320.555 108.099 322.713 107.933 322.442Z" fill="black" stroke="black" stroke-width="0.408086" stroke-miterlimit="10"/>
<path d="M126.067 311.729C125.878 312.048 124.257 311.429 122.377 310.478C120.498 309.526 119.034 308.58 119.178 308.239C119.322 307.899 121.055 308.313 122.977 309.294C124.899 310.275 126.253 311.419 126.067 311.729Z" fill="black" stroke="black" stroke-width="0.408086" stroke-miterlimit="10"/>
<path d="M113.597 326.871C113.38 326.542 116.999 324.026 120.398 319.903C123.797 315.78 125.698 311.824 126.06 311.983C126.224 312.032 125.961 313.145 125.221 314.799C123.212 319.105 120.112 322.812 116.23 325.551C114.726 326.568 113.69 327.018 113.597 326.871Z" fill="black" stroke="black" stroke-width="0.408086" stroke-miterlimit="10"/>
<path d="M114.569 327.526C114.367 327.833 112.773 327.179 110.996 326.054C109.219 324.929 107.937 323.772 108.13 323.498C108.322 323.223 109.917 323.842 111.697 324.96C113.476 326.077 114.765 327.21 114.569 327.526Z" fill="black" stroke="black" stroke-width="0.408086" stroke-miterlimit="10"/>
<path d="M421.093 159.483C418.494 156.102 415.898 152.722 413.304 149.344L417.298 145.333L425.842 154.524L421.093 159.483Z" fill="white"/>
<path d="M351.757 169.618C352.758 171.376 351.384 173.369 350.711 177.356C350.188 180.507 350.27 183.728 350.954 186.848L344.547 186.253C343.885 184.37 343.392 182.431 343.076 180.459C342.408 176.16 342.552 171.774 343.499 167.527C349.128 167.182 351.052 168.417 351.757 169.618Z" fill="white"/>
<path d="M351.72 186.187C352.098 186.086 351.274 182.274 351.36 177.532C351.446 172.791 352.337 168.965 351.922 168.86C351.508 168.756 350.049 172.515 349.998 177.487C349.946 182.46 351.423 186.302 351.72 186.187Z" fill="black" stroke="black" stroke-width="0.408086" stroke-miterlimit="10"/>
<path d="M343.797 166.672C343.754 167.039 345.418 167.53 347.49 167.914C349.561 168.297 351.299 168.432 351.391 168.074C351.483 167.716 349.854 166.994 347.731 166.609C345.608 166.223 343.837 166.312 343.797 166.672Z" fill="black" stroke="black" stroke-width="0.408086" stroke-miterlimit="10"/>
<path d="M344.53 186.273C344.902 186.144 343.551 181.948 343.348 176.609C343.146 171.269 344.033 166.971 343.649 166.877C343.489 166.817 343.023 167.862 342.608 169.625C341.594 174.268 341.811 179.095 343.237 183.628C343.816 185.348 344.368 186.334 344.53 186.273Z" fill="black" stroke="black" stroke-width="0.408086" stroke-miterlimit="10"/>
<path d="M343.36 186.205C343.335 186.571 344.999 187.018 347.094 187.201C349.189 187.384 350.91 187.242 350.924 186.906C350.937 186.571 349.293 186.097 347.201 185.906C345.108 185.715 343.396 185.835 343.36 186.205Z" fill="black" stroke="black" stroke-width="0.408086" stroke-miterlimit="10"/>
<path d="M409.531 349.497C409.777 349.747 413.958 345.693 417.784 339.672C418.407 338.695 418.988 337.737 419.498 336.83C419.755 336.36 420.005 335.905 420.243 335.463L420.309 335.287L420.367 335.134C420.393 335.066 420.434 334.959 420.448 334.921L420.607 335.077L420.94 335.351C421.285 335.638 421.657 335.89 422.051 336.104C422.679 336.462 423.358 336.72 424.066 336.868C425.243 337.078 425.926 336.909 425.915 336.8C425.904 336.691 425.282 336.56 424.245 336.211C423.644 335.982 423.071 335.683 422.54 335.321C422.218 335.098 421.916 334.849 421.635 334.576C421.416 334.363 421.211 334.136 421.019 333.898L420.251 332.908C420.066 333.188 419.873 333.559 419.673 333.903C419.473 334.246 419.309 334.541 419.122 334.872C418.936 335.203 418.609 335.743 418.343 336.192C417.8 337.094 417.22 338.027 416.599 339.022C412.909 344.868 409.245 349.24 409.531 349.497Z" fill="black" stroke="black" stroke-width="0.408086" stroke-miterlimit="10"/>
<path d="M426.217 337.892C425.374 339.841 424.421 341.741 423.363 343.583C420.689 348.209 417.38 352.438 413.532 356.145L408.323 351.465C411.139 348.115 413.754 344.6 416.152 340.938C417.73 338.525 419.134 336.177 420.38 333.926L426.217 337.892Z" fill="white"/>
<path d="M414.637 354.565C414.851 354.829 418.692 351.833 422.046 346.898C425.399 341.964 426.83 337.312 426.492 337.237C426.154 337.161 424.218 341.42 420.941 346.174C417.664 350.929 414.362 354.277 414.637 354.565Z" fill="black" stroke="black" stroke-width="0.408086" stroke-miterlimit="10"/>
<path d="M405.647 348.322C405.357 348.535 406.639 350.749 408.867 352.955C411.095 355.16 413.334 356.393 413.53 356.127C413.727 355.861 411.945 354.138 409.802 352.008C407.659 349.878 405.951 348.097 405.647 348.322Z" fill="black" stroke="black" stroke-width="0.408086" stroke-miterlimit="10"/>
</svg>
