<svg width="77" height="111" viewBox="0 0 77 111" fill="none" xmlns="http://www.w3.org/2000/svg">
<path d="M24.2578 10.4144L24.1992 17.5736C23.484 17.5678 22.7741 17.697 22.1068 17.9543C21.5536 18.1658 20.7758 18.4685 20.7628 18.9305C20.7628 19.2852 21.1761 19.5814 21.3648 19.6823L21.6902 41.0815C21.2546 40.8856 20.764 40.8488 20.304 40.9774C19.9824 41.0732 19.6911 41.2503 19.4579 41.4916C19.4872 39.7018 19.4579 37.7948 19.3375 35.787C19.2572 34.3769 19.1422 33.0253 18.9925 31.7324C18.7298 31.5648 18.445 31.4344 18.1465 31.3451C17.3781 31.1323 16.5613 31.1757 15.8197 31.4688C15.8328 34.506 15.8469 37.5323 15.862 40.5479C15.5051 40.4446 15.1284 40.4294 14.7643 40.5037C14.4002 40.578 14.0595 40.7395 13.7715 40.9744C13.4836 41.2092 13.2568 41.5105 13.1109 41.8522C12.9649 42.1939 12.9039 42.566 12.9333 42.9364C13.0852 50.1346 13.2359 57.3328 13.3856 64.5309L8.50442 65.0581L8.12368 58.4359C7.24395 58.3622 6.36854 58.2438 5.50084 58.0812C5.13963 58.0129 4.78492 57.938 4.44324 57.8599C4.44324 60.3721 4.44324 62.8833 4.44324 65.3933L2.19788 66.2068C1.78135 70.486 1.46895 74.993 1.30299 79.7278C1.06218 86.5257 1.14679 92.9234 1.44942 98.8557C2.69526 100.108 4.04998 101.247 5.49759 102.26C9.72798 105.221 13.7924 106.412 17.0791 107.349C19.1148 107.915 21.1785 108.374 23.262 108.726C27.4813 109.514 31.7543 109.982 36.0443 110.125C39.7912 110.222 43.5403 110.045 47.2613 109.594C53.7696 108.81 58.4881 107.408 62.0872 106.317C67.5607 104.661 70.2226 103.333 72.2369 102.155C73.3435 101.502 74.4165 100.794 75.452 100.034C75.3739 97.6256 75.3132 95.198 75.2698 92.7509C75.1071 83.2813 75.2069 74.0927 75.5692 65.185L71.2574 65.5104C71.2336 62.8681 71.2086 60.2268 71.1826 57.5866L67.4956 57.2319C67.5477 59.564 67.5976 61.8973 67.6453 64.2316L65.3154 64.6058C65.3023 60.8635 65.3023 57.1017 65.3154 53.3204C65.3154 49.2592 65.3403 45.2208 65.3902 41.2052L63.3564 40.0012C63.3889 36.5995 63.4204 33.2011 63.4507 29.8059C63.1921 29.5744 62.8845 29.4041 62.551 29.3078C62.2175 29.2115 61.8666 29.1915 61.5243 29.2495C60.9469 29.3786 60.4433 29.7291 60.1217 30.2257C60.3105 33.6382 60.5003 37.0507 60.6912 40.4632C60.6001 40.8147 60.5122 41.1629 60.4244 41.5111C59.8615 41.0317 59.1861 40.7031 58.4615 40.5563C57.7369 40.4094 56.9869 40.4491 56.2818 40.6715C56.1799 37.3935 56.1094 34.0612 56.0703 30.6748C56.0269 26.8739 56.0269 23.1371 56.0703 19.4642C56.1249 19.0765 56.0854 18.6813 55.9552 18.312C55.8249 17.9427 55.6077 17.6102 55.3219 17.3425C55.0619 17.1287 54.7595 16.9727 54.4347 16.8846C54.1099 16.7965 53.77 16.7784 53.4377 16.8316C53.014 16.6856 52.6008 16.5105 52.2011 16.3077C51.9083 16.158 51.6447 16.0051 51.4071 15.8521L51.2672 9.45772C51.145 9.24955 50.975 9.07341 50.7713 8.94385C50.5676 8.81428 50.3361 8.73499 50.0957 8.71251C49.768 8.71156 49.4493 8.81982 49.1901 9.02018C48.9308 9.22055 48.7456 9.5016 48.6639 9.81893V15.6764C47.8485 15.475 46.9963 15.475 46.181 15.6764C45.6769 15.8032 45.1952 16.0062 44.7524 16.2784C44.2337 16.0111 43.6738 15.8329 43.096 15.7512C42.2073 15.6276 41.3017 15.7306 40.4634 16.0506L40.2324 8.78736C39.983 8.57972 39.6951 8.42338 39.3852 8.32732C39.0753 8.23127 38.7494 8.1974 38.4263 8.22765C37.9943 8.28058 37.586 8.45427 37.2483 8.72878C37.3394 11.0197 37.4327 13.3106 37.5282 15.6015L35.195 16.5778C34.6127 16.28 33.968 16.1249 33.3141 16.1255C32.3853 16.138 31.4864 16.4559 30.7563 17.0301C30.271 16.6853 29.7185 16.4468 29.1347 16.3301C28.551 16.2135 27.9492 16.2214 27.3687 16.3533L27.4273 10.7073C27.2368 10.4444 26.9903 10.2271 26.7055 10.0712C26.4207 9.91535 26.1048 9.82471 25.7807 9.80591C25.2127 9.80038 24.6655 10.019 24.2578 10.4144Z" fill="white"/>
<path d="M25.7871 9.81879C26.1933 9.15359 26.4725 8.4187 26.6104 7.65153C26.7446 6.84629 26.7281 6.02312 26.5616 5.22393C26.4632 4.68381 26.3072 4.15579 26.0962 3.64893C26.2947 4.93106 26.0116 5.48427 25.7187 5.75436C25.4259 6.02446 25.0907 5.99517 24.8043 6.36614C24.4268 6.86403 24.5375 7.54089 24.5928 7.86305C24.7439 8.63691 25.1677 9.33087 25.7871 9.81879Z" fill="white"/>
<path d="M38.9274 7.95745C37.5314 6.51912 37.398 5.70883 37.5737 5.22722C37.7494 4.74561 38.2831 4.63822 38.7061 3.99389C39.2105 3.23242 39.1682 2.30825 39.0315 1.61511C39.2994 2.38705 39.4998 3.18079 39.6303 3.98739C39.78 4.91808 39.8679 5.47779 39.7247 6.19045C39.5931 6.83123 39.3208 7.43477 38.9274 7.95745Z" fill="white"/>
<path d="M50.1024 8.7125C48.586 7.12122 48.5762 6.20681 48.7194 5.72845C48.8171 5.40303 48.996 5.24033 49.4646 4.64156C50.1155 3.8085 50.5906 3.10235 50.8867 2.64026C51.1382 3.37323 51.2647 4.14326 51.2609 4.91816C51.2424 6.26721 50.8406 7.58317 50.1024 8.7125Z" fill="white"/>
<path d="M61.7654 20.9546C61.8027 21.8118 61.6654 22.6676 61.3619 23.47C60.9421 24.5569 60.4443 24.8823 60.4117 25.748C60.3694 26.7665 60.991 27.8859 61.4921 27.8697C62.1234 27.8534 62.6799 26.0213 62.7254 24.5862C62.7509 23.3098 62.4184 22.0517 61.7654 20.9546Z" fill="white"/>
<path d="M17.346 23.6781C17.2307 24.4024 16.955 25.0917 16.539 25.6957C16.181 26.2066 15.9077 26.3628 15.7417 26.8802C15.5803 27.4253 15.6078 28.009 15.8198 28.5365C16.0962 29.2207 16.6269 29.7712 17.3004 30.0725C17.8364 29.583 18.2386 28.9647 18.4687 28.2762C19.2204 25.93 17.4957 23.8538 17.346 23.6781Z" fill="white"/>
<path d="M6.53912 50.5576C6.36014 50.5315 6.27878 50.9416 5.62795 51.9568C4.97712 52.9721 4.79814 52.9819 4.63544 53.5091C4.56385 53.7336 4.26121 54.7033 4.82093 55.4843C5.08648 55.835 5.46064 56.0879 5.88503 56.2035C6.39999 55.3127 6.73189 54.3281 6.86127 53.3073C7.01096 52.0577 6.86453 50.6031 6.53912 50.5576Z" fill="white"/>
<path d="M69.4253 50.4924C68.7567 51.0627 68.2411 51.7909 67.9252 52.6109C67.7039 53.2031 67.4598 53.8507 67.7006 54.5959C67.9054 55.1652 68.3102 55.6405 68.8396 55.9334C69.3027 55.361 69.6358 54.6948 69.8158 53.9809C70.0859 52.8075 69.9481 51.5771 69.4253 50.4924Z" fill="white"/>
<path d="M1.68714 98.823C1.58598 98.4127 1.53033 97.9925 1.52118 97.5701C1.44634 96.7631 1.36498 95.5916 1.28362 94.1435C1.12092 91.2473 0.990753 87.2382 1.00052 82.8125C1.01028 78.3869 1.15997 74.3778 1.32593 71.4816C1.41379 70.0335 1.50165 68.862 1.57975 68.055C1.59132 67.6323 1.64915 67.2122 1.75222 66.8021C1.80812 67.2206 1.81903 67.6439 1.78477 68.0647C1.76524 68.8783 1.73595 70.0498 1.70016 71.4979C1.62531 74.3941 1.5342 78.3934 1.52443 82.8125C1.51467 87.2317 1.58626 91.2343 1.65135 94.1305C1.68063 95.5786 1.70341 96.7501 1.71968 97.5603C1.75659 97.9811 1.74568 98.4047 1.68714 98.823Z" fill="black" stroke="black" stroke-width="0.162707" stroke-miterlimit="10"/>
<path d="M2 97.5L1 99C26.6 119 60.6667 109 74.5 101.5L75 100.5L76 98L74.5 97.5L72.5 98L71 100.5H68.5C68.1 100.5 66.6667 101.167 66 101.5L64 103H60.5L58 105H55H52L50 107.5L48 106H45L42.5 107.5L39 106H36.5L34 107.5V106L32 105H29.5L27.5 106L25.5 105L23.5 103.5L21.5 105L20 103.5L18 103L15.5 103.5L13 100.5H10.5H8.5L5.5 97.5H3.5H2Z" fill="#FF7372"/>
<path d="M75.2048 100.57C74.9942 100.728 74.7698 100.866 74.5344 100.984C74.0853 101.238 73.4182 101.609 72.5591 102.077C70.0966 103.355 67.5653 104.495 64.977 105.494C61.1176 106.929 57.1531 108.064 53.1189 108.888C43.2009 110.893 32.9834 110.906 23.0603 108.927L19.7476 108.172C18.6802 107.902 17.6584 107.59 16.6626 107.313C14.8165 106.792 13.0029 106.162 11.2315 105.426C8.64552 104.392 6.21109 103.014 3.99422 101.329C3.3995 100.863 2.83028 100.365 2.28905 99.8383C2.09353 99.6622 1.91486 99.4683 1.75537 99.259C1.97204 99.4072 2.17465 99.575 2.36064 99.7602C2.75114 100.086 3.33689 100.583 4.11788 101.166C6.3616 102.768 8.79873 104.08 11.3714 105.071C13.1361 105.779 14.9396 106.387 16.7733 106.89C17.7658 107.157 18.7843 107.459 19.8452 107.72L23.1416 108.449C33.008 110.358 43.1501 110.344 53.0115 108.41C57.0261 107.614 60.9774 106.526 64.8338 105.156C68.1075 103.922 70.6913 102.767 72.4518 101.901C73.3239 101.459 74.0072 101.12 74.4726 100.896C74.7063 100.766 74.9514 100.657 75.2048 100.57Z" fill="black" stroke="black" stroke-width="0.162707" stroke-miterlimit="10"/>
<path d="M75.2566 99.3632C75.404 99.3632 75.5234 92.3525 75.5234 83.7043C75.5234 75.056 75.404 68.0453 75.2566 68.0453C75.1092 68.0453 74.9897 75.056 74.9897 83.7043C74.9897 92.3525 75.1092 99.3632 75.2566 99.3632Z" fill="black" stroke="black" stroke-width="0.162707" stroke-miterlimit="10"/>
<path d="M10.1448 104.472C10.0667 104.502 9.7738 103.822 9.16853 102.767C8.40051 101.414 7.45614 100.169 6.3602 99.0639C5.79514 98.4455 5.12674 97.9302 4.38492 97.541C4.06963 97.3908 3.72809 97.3035 3.37939 97.2839C3.08013 97.2751 2.78285 97.3352 2.51054 97.4596C2.10117 97.6327 1.77066 97.9516 1.58311 98.3545C1.4627 98.6474 1.47246 98.8394 1.4269 98.8427C1.38135 98.8459 1.31301 98.6539 1.3846 98.2927C1.45397 98.0417 1.57526 97.808 1.74062 97.6067C1.90598 97.4055 2.11174 97.2412 2.34458 97.1245C2.66213 96.9468 3.01881 96.8506 3.38265 96.8446C3.79463 96.8434 4.20238 96.9276 4.58018 97.0919C5.39549 97.4807 6.12807 98.0232 6.73768 98.6897C7.87399 99.8255 8.80928 101.146 9.50371 102.595C10.0374 103.704 10.2066 104.453 10.1448 104.472Z" fill="black" stroke="black" stroke-width="0.162707" stroke-miterlimit="10"/>
<path d="M16.4902 106.825C16.4024 106.841 16.2917 106.174 15.8589 105.198C15.3055 103.925 14.4725 102.792 13.4216 101.885C12.8448 101.391 12.2046 100.976 11.5179 100.652C10.979 100.369 10.3821 100.214 9.77367 100.2C9.37001 100.183 8.97187 100.298 8.63798 100.525C8.41018 100.694 8.31256 100.85 8.27351 100.815C8.23446 100.779 8.27351 100.619 8.5013 100.372C8.83878 100.044 9.28679 99.8533 9.7574 99.8383C10.4298 99.7999 11.1012 99.9308 11.7099 100.219C12.4524 100.539 13.1424 100.969 13.7568 101.495C14.8755 102.449 15.7192 103.685 16.2006 105.074C16.5683 106.116 16.5456 106.822 16.4902 106.825Z" fill="black" stroke="black" stroke-width="0.162707" stroke-miterlimit="10"/>
<path d="M22.7806 108.224C22.7091 108.257 22.4357 107.736 22.0029 106.923C21.4879 105.847 20.7811 104.874 19.917 104.052C19.4295 103.641 18.8639 103.332 18.2541 103.145C17.7565 102.991 17.2337 102.935 16.7149 102.982C15.8233 103.076 15.3612 103.473 15.3059 103.395C15.2863 103.372 15.3742 103.245 15.5922 103.07C15.9077 102.838 16.2714 102.68 16.6563 102.608C17.2294 102.497 17.82 102.517 18.3843 102.666C19.0761 102.848 19.7187 103.181 20.2652 103.642C20.7888 104.107 21.2377 104.649 21.5961 105.25C21.8831 105.731 22.1322 106.234 22.3413 106.753C22.696 107.632 22.8425 108.198 22.7806 108.224Z" fill="black" stroke="black" stroke-width="0.162707" stroke-miterlimit="10"/>
<path d="M1.5 78V66.5C31.9 84.5 63.1667 73.3333 75 65.5V78L74 79C73.6667 79.1667 72.9 79.5 72.5 79.5H71L70 80L68.5 80.5C68.5 80.6667 68.3 81.1 67.5 81.5C65.9 85.9 61.8333 85.3333 60 84.5C56 81.5 52 84.5 50.5 85.5C45.7 89.9 41.8333 88 40.5 86.5C37 83 32 85.5 31.5 86C23.5 90.5 20.4294 84.8616 20.5 85C18.1 80.2 13.5 81.3333 11.5 82.5C7.1 84.5 4.66667 82.3333 4 81C3.2 78.6 2 78 1.5 78Z" fill="#2898A4"/>
<path d="M29.383 109.5C29.3082 109.523 29.0837 108.94 28.6346 108.055C28.0892 106.902 27.2892 105.887 26.2949 105.087C25.7398 104.682 25.1108 104.389 24.4432 104.225C23.8975 104.091 23.3321 104.055 22.7739 104.121C21.7976 104.245 21.2965 104.632 21.2477 104.554C21.2281 104.528 21.3323 104.401 21.5731 104.228C21.9175 103.995 22.3046 103.833 22.712 103.75C23.3181 103.621 23.9446 103.621 24.5506 103.75C25.2969 103.9 26.0012 104.212 26.6138 104.664C27.2125 105.116 27.7297 105.666 28.1432 106.291C28.4776 106.794 28.7579 107.331 28.9795 107.892C29.3505 108.852 29.4449 109.48 29.383 109.5Z" fill="black" stroke="black" stroke-width="0.162707" stroke-miterlimit="10"/>
<path d="M36.233 109.959C36.1711 110.001 35.7546 109.493 35.1266 108.657C34.8011 108.234 34.4464 107.72 34.0462 107.15C33.6681 106.542 33.1519 106.031 32.5395 105.66C31.8786 105.374 31.1636 105.235 30.4438 105.253C29.8532 105.193 29.2568 105.227 28.6768 105.354C28.3121 105.463 28.004 105.709 27.8177 106.041C27.6941 106.282 27.7006 106.451 27.6583 106.454C27.616 106.457 27.5444 106.285 27.6257 105.966C27.6964 105.745 27.8159 105.542 27.9752 105.373C28.1346 105.204 28.3299 105.073 28.5467 104.99C29.1621 104.793 29.8087 104.712 30.4536 104.752C31.2518 104.706 32.0495 104.851 32.7803 105.175C33.4729 105.584 34.048 106.164 34.4497 106.861C34.8304 107.453 35.1624 107.983 35.4259 108.436C35.9726 109.34 36.298 109.92 36.233 109.959Z" fill="black" stroke="black" stroke-width="0.162707" stroke-miterlimit="10"/>
<path d="M21.5 20.9999V19.9999C31.1 15.5999 48.1667 17.4999 55.5 18.9999V19.9999L54 20.9999L50.5 19.9999H49H47.5L45.5 20.9999H44L42.5 19.9999H40.5H38.5L35.5 20.9999H33L30 19.9999H28L26.5 20.9999L24.5 21.9999H23L21.5 20.9999Z" fill="#2898A4"/>
<path d="M44.453 109.298C44.4042 109.357 43.89 108.956 43.07 108.322C42.0451 107.475 40.8931 106.795 39.6564 106.308C38.9781 106.076 38.2643 105.966 37.5477 105.982C36.9626 105.991 36.3835 106.101 35.836 106.308C34.8988 106.679 34.4823 107.202 34.414 107.134C34.3456 107.066 34.4595 106.962 34.658 106.734C34.9467 106.414 35.2949 106.153 35.6831 105.966C36.2589 105.686 36.8853 105.524 37.5249 105.491C38.3078 105.448 39.0916 105.559 39.8321 105.816C41.1314 106.322 42.3156 107.085 43.3141 108.058C44.0788 108.755 44.5018 109.236 44.453 109.298Z" fill="black" stroke="black" stroke-width="0.162707" stroke-miterlimit="10"/>
<path d="M51.9959 108.709C51.9503 108.768 51.4297 108.436 50.6226 107.853C50.2224 107.564 49.7505 107.203 49.2071 106.877C48.6348 106.507 48.0012 106.241 47.3359 106.093C46.9948 106.03 46.6478 106.004 46.3011 106.015C45.4164 106.055 44.5587 106.333 43.8182 106.819C43.0144 107.342 42.6662 107.863 42.5914 107.811C42.5165 107.759 42.7834 107.16 43.5969 106.509C44.0765 106.134 44.6232 105.854 45.2077 105.683C45.5559 105.582 45.9136 105.517 46.2751 105.491C46.6651 105.47 47.0562 105.497 47.4401 105.569C48.1689 105.73 48.8589 106.033 49.4707 106.461C49.9562 106.795 50.4193 107.162 50.8569 107.557C51.5924 108.218 52.0414 108.651 51.9959 108.709Z" fill="black" stroke="black" stroke-width="0.162707" stroke-miterlimit="10"/>
<path d="M21.5 19V20C33.1 16.4 49 17.8333 55.5 19V18L54.5 17H53L51 16L49.5 17L48.5 15.5H46L44.5 16L42 15.5L40.5 16H38.5H36.5C36.1667 16 35.4 16.2 35 17C34.6 17.8 33.8333 16.6667 33.5 16H32L30.5 17L28 16L25 17L24 18H21.5V19Z" fill="#FF7372"/>
<path d="M60.5742 106.773C60.5221 106.841 59.9852 106.448 59.0284 106.018C57.7918 105.449 56.4571 105.124 55.0974 105.061C53.5159 105.003 52.0515 105.263 51.1924 105.797C50.8458 105.993 50.5513 106.27 50.3334 106.604C50.1837 106.845 50.1283 107.004 50.086 106.994C50.0437 106.984 50.0405 106.812 50.1479 106.513C50.3218 106.096 50.6122 105.739 50.9842 105.484C51.5234 105.11 52.1354 104.852 52.7805 104.729C54.9658 104.257 57.2481 104.598 59.2009 105.686C60.1511 106.223 60.6132 106.727 60.5742 106.773Z" fill="black" stroke="black" stroke-width="0.162707" stroke-miterlimit="10"/>
<path d="M66.8155 104.261C66.7797 104.332 66.2395 104.124 65.3641 103.847C64.2466 103.464 63.0699 103.282 61.8887 103.311C60.7239 103.365 59.6054 103.783 58.6899 104.505C57.9967 105.074 57.7364 105.598 57.6551 105.556C57.5737 105.514 57.7462 104.928 58.4361 104.228C59.366 103.348 60.5831 102.833 61.8627 102.78C63.1118 102.74 64.3537 102.985 65.4943 103.496C66.3599 103.873 66.8448 104.199 66.8155 104.261Z" fill="black" stroke="black" stroke-width="0.162707" stroke-miterlimit="10"/>
<path d="M72.6016 102.038C72.5365 102.093 72.159 101.67 71.3813 101.26C70.929 101.026 70.4459 100.856 69.9462 100.756C69.3376 100.638 68.7131 100.628 68.1011 100.727C66.9758 100.916 65.9186 101.394 65.0324 102.113C64.7679 102.318 64.5579 102.585 64.4206 102.891C64.3328 103.109 64.336 103.252 64.297 103.255C64.2579 103.258 64.1863 103.118 64.2221 102.839C64.296 102.456 64.4884 102.106 64.7721 101.839C65.6618 100.973 66.799 100.404 68.0262 100.212C68.7038 100.104 69.3961 100.131 70.0633 100.291C70.604 100.417 71.1183 100.637 71.583 100.941C72.364 101.472 72.6504 102.005 72.6016 102.038Z" fill="black" stroke="black" stroke-width="0.162707" stroke-miterlimit="10"/>
<path d="M74.5966 100.912C74.5705 100.883 74.6551 100.759 74.8244 100.548C75.0663 100.27 75.284 99.9713 75.4752 99.6561C75.5939 99.4474 75.6785 99.2211 75.7258 98.9857C75.78 98.7289 75.7688 98.4626 75.6932 98.2112C75.6125 97.9498 75.4342 97.7296 75.1953 97.5962C74.9271 97.4487 74.622 97.382 74.3167 97.4042C73.6893 97.4977 73.1092 97.7923 72.6636 98.2438C72.2585 98.611 71.8921 99.0188 71.5702 99.4608C71.0203 100.222 70.7827 100.762 70.7079 100.743C70.633 100.723 70.7599 100.115 71.2546 99.2558C71.5501 98.7545 71.9113 98.2949 72.3284 97.8891C72.8399 97.3325 73.5313 96.9741 74.2809 96.877C74.6923 96.8458 75.1034 96.9412 75.4589 97.1504C75.8021 97.3558 76.0527 97.6857 76.1586 98.0713C76.2296 98.3777 76.2332 98.6958 76.1692 99.0037C76.1051 99.3116 75.9749 99.602 75.7876 99.8546C75.5577 100.174 75.2825 100.458 74.9708 100.697C74.7528 100.863 74.6193 100.938 74.5966 100.912Z" fill="black" stroke="black" stroke-width="0.162707" stroke-miterlimit="10"/>
<path d="M2.5 71.5L1.5 66.5L4 68L14 73L22 74L29 75.5H33.5H35.5H43L55.5 74L64 72L75 65.5V68.5L74 70.5C73.5 70.8333 72.3 71.5 71.5 71.5C70.7 71.5 69.5 70.1667 69 69.5V71.5L68 74L64.5 75.5L61.5 75L60 73L58 76.5L55.5 78.5H52L49 77.5L47 75.5L46 76.5L43 78.5H41H37.5L35 77.5L33.5 75.5L33 76.5L31 77.5L29.5 78.5H26.5L24.5 77.5L22 76.5L20.5 74L18.5 75.5L17 76.5C16.1667 76.3333 14.4 76 14 76C13.6 76 11.1667 74.6667 10 74L9.5 71.5L7 73H4L2.5 71.5Z" fill="#FF7372"/>
<path d="M74.4566 66.0214C74.2756 66.2071 74.076 66.374 73.8611 66.5192C73.6593 66.6722 73.412 66.8739 73.1094 67.0887L72.0518 67.8209C69.764 69.3243 67.3372 70.6047 64.8048 71.6445C61.0418 73.1766 57.1204 74.2866 53.1127 74.954C48.2066 75.7537 43.2365 76.0936 38.2672 75.9693C32.9825 75.8652 27.9711 75.4291 23.4283 74.9247C18.8855 74.4203 14.8113 73.584 11.5409 72.3962C8.94176 71.4977 6.50782 70.1785 4.33621 68.4913L3.35997 67.6517C3.07685 67.4076 2.86859 67.1668 2.68961 67.0009C2.49861 66.8242 2.32432 66.6303 2.16895 66.4216C2.37973 66.5722 2.57782 66.7398 2.7612 66.9228C2.9532 67.0887 3.17448 67.3165 3.4641 67.5476L4.46312 68.3416C6.65852 69.9407 9.08908 71.1889 11.6678 72.0415C14.922 73.1707 18.9571 73.9452 23.4836 74.4366C28.0101 74.928 33.0183 75.338 38.2737 75.4389C43.2123 75.5578 48.1515 75.231 53.0313 74.4626C57.0108 73.8208 60.9106 72.7572 64.6649 71.2898C67.1925 70.2868 69.6272 69.0639 71.9412 67.6354L73.0183 66.9488C73.3437 66.747 73.5845 66.5615 73.7993 66.4249C74.006 66.2712 74.226 66.1361 74.4566 66.0214Z" fill="black" stroke="black" stroke-width="0.162707" stroke-miterlimit="10"/>
<path d="M9.75756 72.1749C9.78685 72.2335 9.22713 72.637 8.1793 73.0698C7.55786 73.3247 6.89764 73.4721 6.22681 73.5059C5.37409 73.5526 4.52888 73.3245 3.81548 72.855C3.14001 72.3484 2.62117 71.6615 2.31858 70.8732C2.05907 70.2655 1.8575 69.6347 1.71656 68.9891C1.479 67.8859 1.50178 67.1895 1.56687 67.183C1.63195 67.1765 1.75886 67.8339 2.07777 68.8915C2.26434 69.4988 2.49268 70.0924 2.76114 70.6682C3.0529 71.3603 3.52073 71.9638 4.11812 72.419C4.74379 72.8223 5.4761 73.0286 6.2203 73.0112C6.84564 72.9997 7.46601 72.8978 8.06215 72.7086C9.09371 72.3897 9.72176 72.1 9.75756 72.1749Z" fill="black" stroke="black" stroke-width="0.162707" stroke-miterlimit="10"/>
<path d="M20.7563 74.5893C20.7986 74.6316 20.2812 75.2206 19.191 75.8324C18.5484 76.1856 17.8641 76.4567 17.1539 76.6394C16.727 76.7489 16.2916 76.8219 15.8523 76.8575C15.3679 76.8967 14.8805 76.847 14.4139 76.711C13.9616 76.568 13.5253 76.3782 13.1123 76.1448C12.7185 75.93 12.3508 75.7022 12.0124 75.4712C11.4216 75.0624 10.8694 74.6005 10.3625 74.0914C9.48715 73.2096 9.0934 72.5457 9.14221 72.5099C9.19103 72.4741 9.70193 73.0306 10.6163 73.8116C11.15 74.2698 11.7154 74.6896 12.3085 75.0677C12.6339 75.2792 13.0016 75.4907 13.3824 75.6892C13.7643 75.8984 14.1653 76.0705 14.5799 76.2034C15.3898 76.4007 16.2368 76.3872 17.04 76.1643C17.7218 76.0181 18.3861 75.7999 19.0218 75.5135C20.1087 74.9961 20.7042 74.521 20.7563 74.5893Z" fill="black" stroke="black" stroke-width="0.162707" stroke-miterlimit="10"/>
<path d="M33.6007 75.6536C33.6235 75.6698 33.5356 75.8683 33.2981 76.1807C32.9582 76.6182 32.5545 77.0021 32.1006 77.3197C31.4236 77.7979 30.6681 78.1536 29.8682 78.3708C28.8875 78.6385 27.864 78.7125 26.8549 78.5888C25.8513 78.4663 24.8743 78.1817 23.9619 77.746C23.2215 77.3926 22.5239 76.9559 21.8825 76.4443C21.4247 76.1221 21.0335 75.7143 20.7306 75.2435C20.5353 74.8888 20.5353 74.6545 20.5646 74.6513C20.5939 74.648 20.672 74.8433 20.89 75.1296C21.2384 75.5242 21.643 75.8652 22.0908 76.1417C23.5206 77.1505 25.1707 77.8032 26.9037 78.0454C27.8485 78.1599 28.8061 78.1048 29.7315 77.8827C30.4892 77.6981 31.2137 77.3973 31.8793 76.991C33.0443 76.3076 33.5259 75.5885 33.6007 75.6536Z" fill="black" stroke="black" stroke-width="0.162707" stroke-miterlimit="10"/>
<path d="M47.4147 75.4129C47.4407 75.4291 47.3529 75.6439 47.1218 75.9888C46.7879 76.4785 46.3845 76.917 45.9243 77.2905C45.2431 77.8487 44.4731 78.2887 43.6464 78.5922C42.632 78.9663 41.558 79.1527 40.4768 79.1421C39.402 79.1205 38.3371 78.9316 37.3203 78.5824C36.4965 78.3003 35.7064 77.9282 34.9643 77.4727C33.7017 76.6917 33.0671 76.0246 33.1062 75.9791C33.1452 75.9335 33.8742 76.4705 35.1498 77.1473C36.7887 78.0458 38.6154 78.5474 40.4833 78.6117C41.5021 78.6209 42.5152 78.4592 43.4804 78.1333C44.2708 77.8668 45.0175 77.4852 45.6965 77.0009C46.855 76.145 47.3366 75.3543 47.4147 75.4129Z" fill="black" stroke="black" stroke-width="0.162707" stroke-miterlimit="10"/>
<path d="M59.4514 73.8345C59.4807 73.8345 59.5003 74.0623 59.4026 74.456C59.243 75.0094 58.963 75.5206 58.5826 75.953C58.0188 76.5869 57.3424 77.111 56.5878 77.4987C55.673 77.9855 54.683 78.3155 53.6591 78.4749C52.6328 78.6479 51.5821 78.6103 50.5709 78.3643C49.7456 78.1657 48.9651 77.8136 48.2702 77.3262C47.8013 77.0053 47.3852 76.6133 47.0369 76.1645C46.7961 75.8391 46.7115 75.6405 46.731 75.6243C46.8058 75.5624 47.3037 76.3011 48.4752 77.0138C49.1571 77.4258 49.9027 77.7216 50.6815 77.8892C51.6344 78.092 52.617 78.113 53.5777 77.951C54.5437 77.7944 55.4798 77.4904 56.3535 77.0496C57.077 76.7092 57.7372 76.2481 58.306 75.6861C58.6835 75.3103 58.99 74.8693 59.2106 74.3844C59.3571 74.0395 59.4026 73.828 59.4514 73.8345Z" fill="black" stroke="black" stroke-width="0.162707" stroke-miterlimit="10"/>
<path d="M69.2791 69.6886C69.3084 69.6886 69.4028 69.8546 69.4613 70.206C69.5301 70.7074 69.48 71.218 69.3149 71.6964C69.0694 72.4102 68.6461 73.0497 68.0848 73.5545C67.4074 74.1584 66.6285 74.6376 65.7841 74.9701C64.9495 75.3292 64.0561 75.5321 63.1483 75.5688C62.4013 75.5991 61.6566 75.4681 60.9647 75.1849C60.5059 74.9982 60.0863 74.7266 59.7282 74.3843C59.4743 74.137 59.3767 73.9678 59.4028 73.945C59.4288 73.9222 59.9852 74.4624 61.1112 74.8334C61.7659 75.0456 62.4553 75.1296 63.1418 75.0807C63.9835 75.0151 64.8089 74.8129 65.5856 74.482C66.3746 74.1659 67.1083 73.7265 67.7594 73.1803C68.2833 72.7396 68.6968 72.1824 68.9667 71.5532C69.1459 71.1259 69.2452 70.6692 69.2596 70.206C69.2628 69.8871 69.2368 69.6984 69.2791 69.6886Z" fill="black" stroke="black" stroke-width="0.162707" stroke-miterlimit="10"/>
<path d="M75.3219 67.4432C75.3512 67.4432 75.4423 67.5213 75.4976 67.7459C75.5492 68.0641 75.4967 68.3905 75.3479 68.6766C75.1431 69.0801 74.8763 69.449 74.5572 69.77C74.1816 70.1816 73.7421 70.53 73.2555 70.8015C72.7601 71.0858 72.1996 71.2371 71.6284 71.2408C71.1598 71.2347 70.7 71.1117 70.291 70.8829C70.0151 70.7251 69.7826 70.5015 69.6141 70.232C69.5002 70.0466 69.4839 69.9066 69.5132 69.9066C69.5425 69.9066 69.8386 70.2678 70.4602 70.5347C70.8282 70.6854 71.2246 70.7543 71.6219 70.7364C72.1097 70.7076 72.5842 70.5662 73.0082 70.3232C73.4455 70.0744 73.8481 69.7691 74.2057 69.4153C74.5109 69.1375 74.7829 68.8251 75.016 68.4846C75.1636 68.2631 75.2572 68.0101 75.2893 67.7459C75.3056 67.5832 75.2828 67.4563 75.3219 67.4432Z" fill="black" stroke="black" stroke-width="0.162707" stroke-miterlimit="10"/>
<path d="M4.61909 66.4899C4.4694 66.4899 4.36526 64.5081 4.29367 62.0643C4.22208 59.6204 4.20256 57.6321 4.349 57.6224C4.49543 57.6126 4.74925 59.5911 4.8241 62.048C4.89894 64.5049 4.76227 66.4932 4.61909 66.4899Z" fill="black" stroke="black" stroke-width="0.162707" stroke-miterlimit="10"/>
<path d="M8.56956 67.0429C8.6021 67.108 8.39709 67.2967 7.99032 67.4952C7.4416 67.7675 6.82134 67.8608 6.21681 67.7621C5.9038 67.7058 5.6082 67.5775 5.35345 67.3871C5.0987 67.1968 4.89181 66.9497 4.74919 66.6654C4.55068 66.2098 4.65482 65.8974 4.71664 65.9072C4.77847 65.917 4.8403 66.1708 5.0746 66.4767C5.38155 66.8734 5.82214 67.1452 6.31443 67.2414C6.8322 67.3148 7.35953 67.2804 7.86341 67.1405C8.27017 67.0462 8.53701 66.9746 8.56956 67.0429Z" fill="black" stroke="black" stroke-width="0.162707" stroke-miterlimit="10"/>
<path d="M7.89939 58.0551C7.92868 58.195 7.14443 58.4684 6.1389 58.4098C5.13337 58.3512 4.38166 57.9868 4.43047 57.8534C4.47928 57.7199 5.2375 57.8273 6.16819 57.8794C7.09887 57.9315 7.8701 57.9087 7.89939 58.0551Z" fill="black" stroke="black" stroke-width="0.162707" stroke-miterlimit="10"/>
<path d="M8.14968 66.6069C8.00649 66.6069 7.80799 64.7098 7.79823 62.3505C7.78847 59.9913 7.9707 58.0843 8.12364 58.0908C8.27659 58.0973 8.3254 60.001 8.33517 62.3473C8.34493 64.6935 8.31238 66.6069 8.14968 66.6069Z" fill="black" stroke="black" stroke-width="0.162707" stroke-miterlimit="10"/>
<path d="M5.49116 55.0808C5.63435 55.0515 5.88166 55.6731 6.04437 56.4671C6.20708 57.2611 6.22335 57.9282 6.08017 57.9575C5.93698 57.9868 5.68641 57.3652 5.5237 56.5712C5.361 55.7772 5.34798 55.1101 5.49116 55.0808Z" fill="black" stroke="black" stroke-width="0.162707" stroke-miterlimit="10"/>
<path d="M5.88822 56.1937C5.85893 56.1676 5.96306 56.0082 6.11601 55.7088C6.33192 55.2906 6.48645 54.8434 6.57485 54.3811C6.67898 53.6887 6.66688 52.9837 6.53905 52.2952C6.43817 51.5012 6.25269 50.5575 6.51953 49.5487L7.03368 49.6594C7.03368 49.7733 6.99788 49.8871 6.97185 49.9848C6.76597 50.9383 6.31765 51.8226 5.67019 52.5523C5.39282 52.8267 5.14019 53.1251 4.91523 53.4439C4.74821 53.7106 4.66439 54.021 4.67442 54.3356C4.71231 54.8216 4.85556 55.2935 5.09421 55.7186C5.25691 56.044 5.36105 56.21 5.32851 56.2327C5.29596 56.2555 5.14302 56.1221 4.91848 55.8292C4.58506 55.404 4.37157 54.8972 4.30019 54.3616C4.25958 53.9679 4.3414 53.5713 4.53449 53.2259C4.75598 52.8687 5.0133 52.5351 5.30247 52.2301C5.87391 51.5499 6.27247 50.7416 6.46421 49.8741C6.48698 49.77 6.50325 49.6691 6.51953 49.565L7.03693 49.6789C6.80589 50.525 6.94907 51.4133 7.03693 52.2269C7.14953 52.9675 7.12082 53.7228 6.95233 54.4527C6.82464 54.9407 6.60362 55.3993 6.3015 55.8032C6.07045 56.0993 5.91425 56.2165 5.88822 56.1937Z" fill="black" stroke="black" stroke-width="0.162707" stroke-miterlimit="10"/>
<path d="M67.6748 65.9888C67.5251 65.9888 67.4209 64.0038 67.3493 61.5599C67.2777 59.116 67.2582 57.131 67.4047 57.1213C67.5511 57.1115 67.8049 59.0737 67.8798 61.5436C67.9546 64.0135 67.8179 65.9888 67.6748 65.9888Z" fill="black" stroke="black" stroke-width="0.162707" stroke-miterlimit="10"/>
<path d="M71.6255 66.542C71.658 66.6039 71.4497 66.7959 71.043 66.9944C70.4952 67.2659 69.8762 67.3592 69.2727 67.2612C68.9597 67.205 68.6641 67.0766 68.4094 66.8863C68.1546 66.6959 67.9477 66.4488 67.8051 66.1646C67.6066 65.709 67.7107 65.3966 67.7726 65.4064C67.8344 65.4161 67.8962 65.6667 68.1305 65.9758C68.4378 66.3716 68.8784 66.6422 69.3703 66.7373C69.8879 66.8116 70.4152 66.7784 70.9193 66.6397C71.3261 66.5453 71.5929 66.4737 71.6255 66.542Z" fill="black" stroke="black" stroke-width="0.162707" stroke-miterlimit="10"/>
<path d="M70.9551 57.554C70.9844 57.6939 70.2001 57.9673 69.1913 57.9055C68.1825 57.8436 67.4373 57.4857 67.4862 57.3523C67.535 57.2188 68.2932 57.3262 69.2239 57.3783C70.1546 57.4304 70.9258 57.4043 70.9551 57.554Z" fill="black" stroke="black" stroke-width="0.162707" stroke-miterlimit="10"/>
<path d="M71.2053 66.1025C71.0589 66.1025 70.8799 64.2021 70.8539 61.8461C70.8278 59.4901 71.0264 57.5799 71.1793 57.5831C71.3322 57.5864 71.3843 59.4966 71.3941 61.8428C71.4038 64.1891 71.3518 66.096 71.2053 66.1025Z" fill="black" stroke="black" stroke-width="0.162707" stroke-miterlimit="10"/>
<path d="M68.5468 54.5666C68.69 54.5373 68.9373 55.1556 69.1 55.9528C69.2627 56.7501 69.2758 57.4139 69.1326 57.4432C68.9894 57.4725 68.7421 56.851 68.5794 56.0569C68.4167 55.2629 68.4036 54.6089 68.5468 54.5666Z" fill="black" stroke="black" stroke-width="0.162707" stroke-miterlimit="10"/>
<path d="M68.944 55.6926C68.9147 55.6698 69.0188 55.5104 69.1685 55.2078C69.3878 54.7918 69.5435 54.3454 69.6306 53.8833C69.7347 53.1909 69.7226 52.4859 69.5948 51.7974C69.4939 51.0001 69.3052 50.0597 69.572 49.0509L70.0894 49.1616C70.0699 49.2754 70.0504 49.3893 70.0276 49.487C69.8218 50.4395 69.3734 51.3228 68.726 52.0512C68.4492 52.3275 68.1967 52.6268 67.971 52.9461C67.804 53.2128 67.7201 53.5232 67.7302 53.8378C67.767 54.324 67.9104 54.7961 68.15 55.2208C68.3127 55.5462 68.4136 55.7121 68.3843 55.7349C68.355 55.7577 68.1988 55.6243 67.9742 55.3314C67.6408 54.9062 67.4273 54.3994 67.356 53.8638C67.3134 53.469 67.3953 53.0708 67.5903 52.7248C67.8127 52.3702 68.0687 52.0378 68.355 51.7323C68.9289 51.0524 69.3277 50.2425 69.5167 49.3731C69.5395 49.2722 69.559 49.1681 69.5753 49.0672L70.0927 49.1778C69.8617 50.0239 70.0048 50.9155 70.0927 51.7291C70.2021 52.4688 70.1734 53.2224 70.0081 53.9517C69.8809 54.4398 69.6598 54.8985 69.3573 55.3021C69.1262 55.5983 68.97 55.7154 68.944 55.6926Z" fill="black" stroke="black" stroke-width="0.162707" stroke-miterlimit="10"/>
<path d="M57 59.5H58.5L59.5 59V56.5L58.5 54.5L56.5 53V54.5L57 56.5L56.5 58L57 59.5Z" fill="white"/>
<path d="M4.42701 65.3867C4.42701 65.5364 3.81523 65.6893 3.12535 65.9952C2.94963 66.0701 2.78367 66.1449 2.63072 66.2165L2.24673 66.3987C2.23128 66.4027 2.21688 66.4101 2.20452 66.4202C2.19216 66.4303 2.18214 66.443 2.17514 66.4573C2.17297 66.462 2.17175 66.4671 2.17156 66.4723C2.17136 66.4774 2.1722 66.4826 2.17401 66.4874C2.17583 66.4923 2.17859 66.4967 2.18214 66.5005C2.18568 66.5042 2.18994 66.5073 2.19467 66.5094C2.23372 66.5289 2.24022 66.4703 2.2207 66.4671C2.20638 66.4606 2.19085 66.4573 2.17514 66.4573C2.15943 66.4573 2.1439 66.4606 2.12958 66.4671C2.11097 66.4804 2.08961 66.4893 2.06709 66.4932C2.04456 66.4972 2.02144 66.496 1.99942 66.4899C1.97129 66.4796 1.94661 66.4617 1.92819 66.4381C1.90977 66.4145 1.89837 66.3862 1.89528 66.3564C1.89431 66.265 1.92804 66.1766 1.98966 66.1091C2.04828 66.0471 2.11136 65.9895 2.17839 65.9366C2.24516 65.8797 2.31585 65.8275 2.38992 65.7804C2.55559 65.6675 2.7322 65.5716 2.91709 65.4941C3.70459 65.1622 4.42701 65.2435 4.42701 65.3867Z" fill="black" stroke="black" stroke-width="0.162707" stroke-miterlimit="10"/>
<path d="M12.9593 64.3616C12.9593 64.508 12.0449 64.687 10.9026 64.8107C9.76044 64.9343 8.82325 64.9701 8.80047 64.8107C8.77769 64.6512 9.68885 64.3974 10.8441 64.2705C11.9993 64.1436 12.9495 64.2152 12.9593 64.3616Z" fill="black" stroke="black" stroke-width="0.162707" stroke-miterlimit="10"/>
<path d="M13.3404 65.5623C13.194 65.5623 12.9922 60.681 12.8881 54.6869C12.784 48.6927 12.8198 43.805 12.9662 43.8018C13.1126 43.7985 13.3144 48.683 13.4185 54.6771C13.5227 60.6713 13.4869 65.559 13.3404 65.5623Z" fill="black" stroke="black" stroke-width="0.162707" stroke-miterlimit="10"/>
<path d="M18.5958 70.7559C18.4494 70.7559 18.3224 68.6635 18.3159 66.0927C18.3094 63.522 18.4233 61.4295 18.5698 61.4263C18.7162 61.423 18.8399 63.5122 18.8464 66.0895C18.8529 68.6668 18.7422 70.7559 18.5958 70.7559Z" fill="black" stroke="black" stroke-width="0.162707" stroke-miterlimit="10"/>
<path d="M22.7577 71.1139C22.8 71.1594 22.6438 71.41 22.2468 71.6541C22.0129 71.7937 21.758 71.8948 21.4919 71.9534C20.8359 72.1022 20.1492 72.029 19.5394 71.7452C19.2927 71.629 19.0654 71.4753 18.8658 71.2896C18.5403 70.9642 18.4297 70.6908 18.4818 70.655C18.5338 70.6192 18.7454 70.7852 19.0936 70.9805C19.2949 71.1005 19.5074 71.2008 19.7281 71.2798C19.9969 71.3733 20.2752 71.4366 20.5579 71.4686C20.8403 71.4981 21.1249 71.4981 21.4073 71.4686C21.6396 71.4374 21.8685 71.3841 22.0906 71.3091C22.4714 71.1855 22.7057 71.052 22.7577 71.1139Z" fill="black" stroke="black" stroke-width="0.162707" stroke-miterlimit="10"/>
<path d="M22.3933 61.7747C22.4161 61.9147 21.5635 62.1587 20.4962 62.0448C19.4288 61.931 18.6413 61.5242 18.6934 61.394C18.7454 61.2638 19.5557 61.42 20.5515 61.5209C21.5472 61.6218 22.3738 61.6251 22.3933 61.7747Z" fill="black" stroke="black" stroke-width="0.162707" stroke-miterlimit="10"/>
<path d="M22.3055 70.984C22.1623 70.984 21.9345 68.9827 21.98 66.49C22.0256 63.9973 22.3315 61.9993 22.4714 62.0123C22.6113 62.0253 22.556 64.0331 22.5105 66.4997C22.4649 68.9664 22.4682 70.9775 22.3055 70.984Z" fill="black" stroke="black" stroke-width="0.162707" stroke-miterlimit="10"/>
<path d="M19 58.5L20.5 60.5L21.5 59.5L22 56L21.5 52.5L20.5 54.5L19 57V58.5Z" fill="white"/>
<path d="M20.4309 59.3568C20.5578 59.295 20.88 59.7278 20.9256 60.3624C20.9711 60.9969 20.7238 61.4688 20.6001 61.4297C20.4765 61.3907 20.4537 60.9351 20.4114 60.4014C20.3691 59.8677 20.2943 59.4187 20.4309 59.3568Z" fill="black" stroke="black" stroke-width="0.162707" stroke-miterlimit="10"/>
<path d="M21.1762 53.3562C21.2087 53.3562 21.2412 53.4831 21.2119 53.7142C21.1631 54.036 21.0526 54.3454 20.8865 54.6253C20.6439 55.0227 20.3731 55.4023 20.0762 55.761C19.7365 56.1622 19.4729 56.6221 19.2985 57.118C19.2262 57.3584 19.2095 57.6121 19.2497 57.86C19.2974 58.1017 19.3773 58.3359 19.4872 58.5564C19.7053 59.0087 19.9168 59.435 20.0762 59.7897C20.4017 60.5023 20.5676 60.9612 20.5025 60.9937C20.4375 61.0263 20.1543 60.6325 19.7443 59.9654C19.5393 59.64 19.305 59.2365 19.0512 58.7744C18.903 58.5185 18.7934 58.2422 18.7258 57.9543C18.665 57.6296 18.6817 57.2951 18.7746 56.9781C18.9676 56.4129 19.2782 55.895 19.6857 55.4584C20.0307 55.0614 20.3366 54.7327 20.5579 54.4268C21.0265 53.8216 21.0948 53.3465 21.1762 53.3562Z" fill="black" stroke="black" stroke-width="0.162707" stroke-miterlimit="10"/>
<path d="M21.1375 59.8058C20.9943 59.731 21.733 58.3285 21.8111 56.4378C21.8892 54.5471 21.323 53.0795 21.4857 53.0209C21.5443 52.9916 21.7818 53.3268 22.0031 53.9419C22.5571 55.578 22.4687 57.3635 21.7558 58.937C21.4629 59.5292 21.1961 59.8384 21.1375 59.8058Z" fill="black" stroke="black" stroke-width="0.162707" stroke-miterlimit="10"/>
<path d="M36.9751 71.9079C36.8287 71.9079 36.705 69.8188 36.6985 67.2447C36.692 64.6707 36.8026 62.5848 36.9491 62.5815C37.0955 62.5783 37.2224 64.6642 37.2289 67.2447C37.2354 69.8253 37.1215 71.9112 36.9751 71.9079Z" fill="black" stroke="black" stroke-width="0.162707" stroke-miterlimit="10"/>
<path d="M41.1372 72.266C41.1827 72.3148 41.0265 72.5621 40.6295 72.8062C40.3965 72.9476 40.1429 73.0519 39.8778 73.1153C39.5506 73.1839 39.2148 73.2025 38.882 73.1706C38.55 73.1327 38.226 73.0427 37.9221 72.9038C37.6744 72.7907 37.4469 72.6379 37.2485 72.4515C36.923 72.126 36.8091 71.8527 36.8645 71.8169C36.9198 71.7811 37.128 71.9471 37.473 72.1423C37.6743 72.2624 37.8868 72.3627 38.1075 72.4417C38.6457 72.636 39.2226 72.6985 39.7899 72.6239C40.0223 72.5928 40.2512 72.5394 40.4733 72.4645C40.854 72.3376 41.0851 72.2041 41.1372 72.266Z" fill="black" stroke="black" stroke-width="0.162707" stroke-miterlimit="10"/>
<path d="M40.7759 62.9298C40.7987 63.0698 39.9461 63.3106 38.8787 63.1999C37.8114 63.0893 37.0239 62.6793 37.0759 62.5491C37.128 62.4189 37.935 62.5751 38.9308 62.6728C39.9266 62.7704 40.7564 62.7802 40.7759 62.9298Z" fill="black" stroke="black" stroke-width="0.162707" stroke-miterlimit="10"/>
<path d="M40.698 72.1391C40.5581 72.1391 40.3303 70.1345 40.3726 67.6451C40.4149 65.1557 40.724 63.1511 40.8672 63.1641C41.0104 63.1771 40.9486 65.1849 40.903 67.6548C40.8575 70.1247 40.8542 72.1391 40.698 72.1391Z" fill="black" stroke="black" stroke-width="0.162707" stroke-miterlimit="10"/>
<path d="M38.8105 60.5119C38.9407 60.4501 39.2629 60.8796 39.3084 61.5142C39.354 62.1487 39.1067 62.6238 38.9667 62.5815C38.8268 62.5392 38.8235 62.0869 38.778 61.5565C38.7324 61.0261 38.6739 60.5705 38.8105 60.5119Z" fill="black" stroke="black" stroke-width="0.162707" stroke-miterlimit="10"/>
<path d="M56.2559 70.2678C56.1094 70.2678 55.9858 68.1754 55.9793 65.6046C55.9728 63.0338 56.0834 60.9414 56.2298 60.9381C56.3763 60.9349 56.4999 63.024 56.5097 65.6013C56.5195 68.1786 56.4023 70.2678 56.2559 70.2678Z" fill="black" stroke="black" stroke-width="0.162707" stroke-miterlimit="10"/>
<path d="M60.4178 70.6259C60.4634 70.6714 60.3072 70.922 59.9102 71.166C59.6759 71.3052 59.4211 71.4062 59.1552 71.4654C58.4992 71.6132 57.8128 71.54 57.2027 71.2572C56.9562 71.1421 56.7289 70.9895 56.5291 70.8048C56.2037 70.4794 56.093 70.2028 56.1451 70.154C56.1972 70.1052 56.4087 70.2842 56.7569 70.4794C56.9582 70.5995 57.1707 70.6998 57.3914 70.7788C57.6607 70.8712 57.9388 70.9355 58.2213 70.9708C58.5046 71.0019 58.7905 71.0019 59.0738 70.9708C59.3064 70.9405 59.5353 70.8871 59.7572 70.8113C60.1314 70.6974 60.3788 70.564 60.4178 70.6259Z" fill="black" stroke="black" stroke-width="0.162707" stroke-miterlimit="10"/>
<path d="M60.0537 61.2864C60.0797 61.4263 59.2271 61.6704 58.1565 61.5565C57.0859 61.4426 56.3049 61.0358 56.3569 60.9057C56.409 60.7755 57.216 60.9317 58.2118 61.0293C59.2076 61.127 60.0341 61.1367 60.0537 61.2864Z" fill="black" stroke="black" stroke-width="0.162707" stroke-miterlimit="10"/>
<path d="M59.9786 70.512C59.8354 70.512 59.6076 68.5107 59.6531 66.0181C59.6987 63.5254 60.0046 61.5273 60.1478 61.5403C60.291 61.5534 60.2291 63.5612 60.1836 66.0278C60.138 68.4945 60.1282 70.4893 59.9786 70.512Z" fill="black" stroke="black" stroke-width="0.162707" stroke-miterlimit="10"/>
<path d="M58.1011 58.8687C58.2312 58.8068 58.5502 59.2396 58.599 59.8742C58.6478 60.5088 58.394 60.9806 58.2573 60.9416C58.1206 60.9025 58.1141 60.4469 58.0685 59.9132C58.023 59.3796 57.9546 58.9305 58.1011 58.8687Z" fill="black" stroke="black" stroke-width="0.162707" stroke-miterlimit="10"/>
<path d="M37.5 59.5L39 61.5L40 59L40.5 57L40 54L39 55.5C38.5 56 37.5 57.1 37.5 57.5V59.5Z" fill="white"/>
<path d="M39.5523 54.508C39.5848 54.508 39.6141 54.6382 39.5881 54.8692C39.539 55.19 39.4285 55.4982 39.2627 55.7771C39.0207 56.175 38.7499 56.5546 38.4524 56.9128C38.1119 57.3147 37.8483 57.7758 37.6746 58.2731C37.6007 58.512 37.5829 58.7648 37.6226 59.0117C37.6729 59.2532 37.7538 59.4872 37.8634 59.7081C38.0814 60.1637 38.2897 60.59 38.4491 60.9447C38.7745 61.6574 38.9438 62.1129 38.8787 62.1487C38.8136 62.1845 38.5272 61.7875 38.1205 61.1204C37.9154 60.795 37.6811 60.3915 37.4241 59.9262C37.2767 59.6699 37.1671 59.3937 37.0986 59.1061C37.0384 58.7812 37.0563 58.4466 37.1507 58.1299C37.3424 57.5638 37.6518 57.0447 38.0586 56.6069C38.4036 56.2132 38.7095 55.8812 38.934 55.5786C39.4058 54.9766 39.4774 54.5015 39.5523 54.508Z" fill="black" stroke="black" stroke-width="0.162707" stroke-miterlimit="10"/>
<path d="M39.5201 60.958C39.3769 60.8864 40.1156 59.4806 40.1937 57.5899C40.2718 55.6993 39.7056 54.2316 39.852 54.1731C39.9138 54.147 40.1481 54.4789 40.3694 55.0972C40.9221 56.7333 40.8349 58.518 40.1253 60.0924C39.8422 60.6846 39.5754 60.9905 39.5201 60.958Z" fill="black" stroke="black" stroke-width="0.162707" stroke-miterlimit="10"/>
<path d="M56.5782 55.149C56.601 55.1229 56.6921 55.149 56.806 55.2791C56.953 55.4652 57.0373 55.693 57.0468 55.93C57.06 56.2625 57.0069 56.5944 56.8906 56.9062C56.7582 57.2381 56.66 57.5827 56.5977 57.9345C56.5098 58.6146 57.037 59.1288 57.4308 59.4152C57.8245 59.7015 58.1402 59.8447 58.1141 59.9195C58.0881 59.9944 57.7497 59.9781 57.2388 59.7341C56.9326 59.5891 56.6616 59.3792 56.4448 59.119C56.3023 58.9481 56.1957 58.7502 56.1314 58.5372C56.0672 58.3242 56.0464 58.1004 56.0705 57.8792C56.1364 57.4829 56.2592 57.0982 56.435 56.737C56.5551 56.4774 56.6341 56.2008 56.6693 55.9169C56.7311 55.4548 56.5229 55.2173 56.5782 55.149Z" fill="black" stroke="black" stroke-width="0.162707" stroke-miterlimit="10"/>
<path d="M58.5535 60.154C58.4885 60.1052 58.7683 59.7049 58.9863 58.9825C59.2772 58.0548 59.2462 57.056 58.8985 56.1481C58.7043 55.6554 58.422 55.2022 58.0654 54.8107C57.7697 54.4859 57.4289 54.2054 57.0534 53.9776C56.7766 53.8122 56.5265 53.606 56.3114 53.3658C56.165 53.1803 56.1357 53.0404 56.165 53.0404C56.1943 53.0404 56.2854 53.1055 56.4546 53.2259C56.705 53.3921 56.9683 53.538 57.2421 53.6619C57.6799 53.864 58.0787 54.1416 58.4201 54.482C58.8454 54.9032 59.1779 55.4086 59.3964 55.9659C59.595 56.4699 59.6923 57.008 59.6828 57.5496C59.6733 58.0913 59.5572 58.6257 59.341 59.1224C59.0026 59.8676 58.5991 60.1963 58.5535 60.154Z" fill="black" stroke="black" stroke-width="0.162707" stroke-miterlimit="10"/>
<path d="M18.0752 67.375C18.0752 67.4466 17.7855 67.5149 17.3104 67.5084C16.0627 67.4551 14.866 66.9983 13.9001 66.2068C13.5389 65.9009 13.3664 65.6568 13.412 65.6048C13.5161 65.4876 14.4142 66.1612 15.6899 66.6331C16.9655 67.1049 18.0752 67.2221 18.0752 67.375Z" fill="black" stroke="black" stroke-width="0.162707" stroke-miterlimit="10"/>
<path d="M36.7179 69.0086C36.7179 69.0769 35.9564 69.2331 34.6971 69.3665C31.4105 69.6878 28.0974 69.6179 24.8272 69.1582C23.5744 68.9728 22.8097 68.7873 22.8227 68.7189C22.8455 68.5627 25.9369 68.9532 29.767 69.0248C33.5972 69.0964 36.7016 68.8524 36.7179 69.0086Z" fill="black" stroke="black" stroke-width="0.162707" stroke-miterlimit="10"/>
<path d="M55.9825 67.7492C56.0021 67.811 55.2146 68.1429 53.8869 68.5236C50.4118 69.495 46.7982 69.8756 43.197 69.6496C41.8172 69.5552 40.9777 69.3958 40.9842 69.3242C40.9842 69.1615 44.388 69.4543 48.5338 68.9988C52.6796 68.5432 55.937 67.5832 55.9825 67.7492Z" fill="black" stroke="black" stroke-width="0.162707" stroke-miterlimit="10"/>
<path d="M64.9704 64.7228C65.0257 64.7651 64.85 65.084 64.3846 65.3736C63.7928 65.6886 63.1769 65.9563 62.5428 66.1741C61.9151 66.4095 61.2669 66.586 60.6066 66.7013C60.0957 66.7827 59.7703 66.7697 59.7572 66.7013C59.7442 66.633 60.0404 66.5126 60.5122 66.3401L62.3606 65.6893C63.0797 65.4192 63.7664 65.2142 64.2154 65.0384C64.6645 64.8627 64.9118 64.674 64.9704 64.7228Z" fill="black" stroke="black" stroke-width="0.162707" stroke-miterlimit="10"/>
<path d="M13.5 41V43C41.5 47 59.5 43.6667 65 41.5V41L63.5 40.5H61.5L60 41L57 40.5L55.5 41.5L53 41L51 42.5H49L46.5 41.5L44.5 43L43 42.5L40.5 41.5L38 43L34.5 41.5H32.5L30.5 43L28 41H26L25 42.5L22.5 41H20.5L19 42.5L18 41H15.5H13.5Z" fill="#FF7372"/>
<path d="M65.374 64.5668C65.5214 64.5668 65.6409 59.6481 65.6409 53.5807C65.6409 47.5133 65.5214 42.5947 65.374 42.5947C65.2266 42.5947 65.1072 47.5133 65.1072 53.5807C65.1072 59.6481 65.2266 64.5668 65.374 64.5668Z" fill="black" stroke="black" stroke-width="0.162707" stroke-miterlimit="10"/>
<path d="M64.3262 41.8526C64.1676 41.9257 64.0002 41.9782 63.8283 42.0088C63.5029 42.0934 63.0082 42.2138 62.3769 42.3602L61.3258 42.601L60.0535 42.8516C59.1521 43.0273 58.1237 43.2421 56.9783 43.4211L55.1853 43.7172C54.5605 43.8181 53.9064 43.8994 53.2328 43.9938C51.8823 44.1956 50.4342 44.3452 48.9113 44.5112C45.8589 44.8106 42.4941 45.0351 38.9536 45.1132C35.413 45.1913 32.0417 45.0839 28.9828 44.9082C27.4534 44.8008 25.9988 44.7097 24.6418 44.5633C23.9649 44.4949 23.3076 44.4396 22.6893 44.3648L20.8865 44.1402C19.7345 44.0068 18.6997 43.8343 17.7886 43.6944L16.5227 43.4927L15.4618 43.2941C14.8273 43.1737 14.3327 43.0729 14.0007 43.0013C13.8273 42.9782 13.6577 42.9322 13.4963 42.8646C13.6706 42.8509 13.8458 42.8618 14.017 42.8971C14.3424 42.9362 14.8566 43.0013 15.4944 43.0891L16.5618 43.2421L17.8309 43.4015C18.742 43.5122 19.7834 43.6586 20.9288 43.766L22.7349 43.958C23.3597 44.0231 24.017 44.0654 24.6874 44.1272C26.0411 44.2541 27.4924 44.3257 29.0154 44.4233C32.0678 44.5698 35.4261 44.6446 38.9503 44.5828C42.4745 44.521 45.8263 44.2932 48.8689 44.0263C50.3886 43.8701 51.8335 43.74 53.1807 43.5577C53.8543 43.4731 54.5084 43.4015 55.1332 43.3137L56.9262 43.0501C58.0717 42.8971 59.1 42.7051 60.0079 42.562L61.2705 42.3504L62.3281 42.1552C62.9789 42.0413 63.4606 41.9567 63.799 41.9046C63.9713 41.8619 64.1488 41.8443 64.3262 41.8526Z" fill="black" stroke="black" stroke-width="0.162707" stroke-miterlimit="10"/>
<path d="M20.2519 43.636C20.1966 43.6881 19.7833 43.3106 19.1358 42.7086C18.4882 42.1066 17.5575 41.3028 16.3177 40.9188C15.754 40.7265 15.148 40.6938 14.5669 40.8244C14.325 40.8897 14.0975 41.0001 13.8966 41.1499C13.7287 41.2753 13.5937 41.4394 13.5028 41.6282C13.3856 41.934 13.3356 42.2614 13.3564 42.5882C13.3564 42.8355 13.3564 42.9787 13.3141 42.9852C13.2718 42.9917 13.2165 42.8648 13.1514 42.6142C13.043 42.2479 13.043 41.8579 13.1514 41.4916C13.2438 41.2269 13.4043 40.9912 13.6167 40.8082C13.855 40.6077 14.1319 40.4582 14.4303 40.3689C15.1002 40.1872 15.8089 40.2075 16.4673 40.4274C17.1071 40.6315 17.7054 40.9477 18.2344 41.3614C18.6542 41.6919 19.0431 42.0601 19.3961 42.4613C19.9981 43.1251 20.304 43.5872 20.2519 43.636Z" fill="black" stroke="black" stroke-width="0.162707" stroke-miterlimit="10"/>
<path d="M25.6607 44.1697C25.6054 44.2185 25.2572 43.8931 24.7398 43.3301C24.4762 43.0535 24.1866 42.6793 23.8449 42.3539C23.472 42.0018 23.0282 41.7333 22.5433 41.5664C22.0521 41.3954 21.5417 41.2861 21.0236 41.241C20.6195 41.1904 20.2093 41.2535 19.8391 41.4232C19.5948 41.5461 19.3864 41.7299 19.2338 41.9569C19.1232 42.1228 19.0874 42.2367 19.0483 42.2302C19.0093 42.2237 18.98 42.0968 19.0483 41.8723C19.1556 41.5543 19.3679 41.2823 19.6503 41.101C20.0695 40.8401 20.5603 40.7182 21.0529 40.7528C21.6246 40.777 22.1895 40.8867 22.7288 41.0783C23.2832 41.2705 23.784 41.5917 24.1899 42.0154C24.4925 42.355 24.7729 42.7137 25.0294 43.0893C25.472 43.7174 25.7193 44.1241 25.6607 44.1697Z" fill="black" stroke="black" stroke-width="0.162707" stroke-miterlimit="10"/>
<path d="M31.7584 44.2705C31.6998 44.3225 31.3256 43.9743 30.7073 43.4504C29.9312 42.7564 29.0447 42.1966 28.0845 41.7941C27.5634 41.598 27.0138 41.4881 26.4574 41.4686C26.0301 41.438 25.608 41.5772 25.2827 41.8559C25.0749 42.0799 24.9046 42.3359 24.7783 42.6141C24.6774 42.8159 24.609 42.9395 24.5732 42.92C24.5375 42.9005 24.5407 42.7768 24.5732 42.5458C24.636 42.2017 24.7812 41.8779 24.9963 41.6021C25.1605 41.4046 25.3705 41.2505 25.6081 41.153C25.8727 41.0484 26.1534 40.99 26.4379 40.9805C27.0615 40.9725 27.681 41.0829 28.2635 41.3059C29.2883 41.7266 30.2073 42.369 30.9546 43.1868C31.5371 43.7856 31.8072 44.2249 31.7584 44.2705Z" fill="black" stroke="black" stroke-width="0.162707" stroke-miterlimit="10"/>
<path d="M38.9013 44.4072C38.9013 44.4365 38.7451 44.4268 38.5108 44.3129C38.1943 44.1418 37.9066 43.9222 37.6582 43.662C37.3152 43.2974 36.9345 42.9701 36.5225 42.6858C36.0227 42.3587 35.4732 42.1148 34.8954 41.9634C33.6588 41.638 32.4353 41.7877 31.7226 42.1847C31.436 42.3296 31.1925 42.5473 31.0165 42.816C30.8928 43.0112 30.8505 43.1414 30.8115 43.1414C30.7724 43.1414 30.7496 42.9917 30.8277 42.7346C30.9595 42.3789 31.2041 42.076 31.5241 41.8723C32.3084 41.3223 33.6654 41.1075 35.0256 41.4557C35.6682 41.6203 36.2742 41.9039 36.8121 42.292C37.2395 42.6097 37.6216 42.9841 37.9478 43.405C38.1549 43.6706 38.3846 43.9178 38.6344 44.1437C38.7939 44.2933 38.9013 44.3714 38.9013 44.4072Z" fill="black" stroke="black" stroke-width="0.162707" stroke-miterlimit="10"/>
<path d="M45.7972 44.4788C45.7386 44.5374 45.3286 44.1957 44.6126 43.7564C43.684 43.1818 42.6703 42.7579 41.6091 42.5003C41.0311 42.3597 40.4399 42.2801 39.8453 42.2627C39.3772 42.2427 38.9115 42.3412 38.4916 42.5491C37.7724 42.9233 37.6195 43.4798 37.5446 43.4472C37.4698 43.4147 37.4991 43.2943 37.5967 43.0535C37.7415 42.7139 37.9853 42.4258 38.2963 42.2269C38.7568 41.9347 39.2902 41.778 39.8355 41.7746C40.4731 41.7633 41.1096 41.8333 41.7295 41.9829C42.8527 42.2475 43.9073 42.7465 44.8242 43.4472C45.5206 43.9939 45.8427 44.4365 45.7972 44.4788Z" fill="black" stroke="black" stroke-width="0.162707" stroke-miterlimit="10"/>
<path d="M52.6243 43.7141C52.5787 43.776 52.1491 43.5156 51.4104 43.2065C51.0395 43.0503 50.5937 42.8811 50.0893 42.7151C49.5849 42.5492 49.0219 42.3637 48.4362 42.227C47.897 42.0938 47.3399 42.0487 46.7863 42.0936C46.3414 42.1368 45.9103 42.272 45.5204 42.4906C44.8501 42.8713 44.6288 43.3497 44.5442 43.3074C44.4596 43.2651 44.5279 43.1609 44.6321 42.9429C44.7948 42.6387 45.0253 42.3759 45.3057 42.1749C45.7232 41.8782 46.2048 41.6842 46.7115 41.6087C47.3231 41.5282 47.9444 41.5624 48.5435 41.7096C49.1229 41.8519 49.6916 42.0346 50.2455 42.2563C50.7 42.4295 51.1415 42.635 51.5667 42.8713C52.3053 43.2813 52.6666 43.6621 52.6243 43.7141Z" fill="black" stroke="black" stroke-width="0.162707" stroke-miterlimit="10"/>
<path d="M57.5317 42.9883C57.4829 43.0469 57.1054 42.7931 56.5034 42.4026C55.7575 41.8792 54.9108 41.5169 54.0172 41.3385C53.584 41.2773 53.1425 41.3114 52.7238 41.4384C52.3051 41.5654 51.9191 41.7823 51.5929 42.0739C51.0722 42.5295 50.8867 42.9493 50.8086 42.9135C50.7305 42.8777 50.8086 42.3993 51.326 41.8103C51.6308 41.4684 52.0076 41.1984 52.4292 41.0196C52.9544 40.7965 53.5317 40.7255 54.0953 40.8146C54.6399 40.9001 55.1646 41.0831 55.6443 41.3548C56.0283 41.5666 56.3902 41.8162 56.7247 42.1C57.2876 42.5816 57.574 42.9363 57.5317 42.9883Z" fill="black" stroke="black" stroke-width="0.162707" stroke-miterlimit="10"/>
<path d="M61.4626 42.2008C61.4236 42.2626 61.0851 42.1097 60.571 41.8396C59.9269 41.478 59.2448 41.1887 58.5371 40.9772C57.8439 40.786 57.1119 40.786 56.4187 40.9772C55.8915 41.1334 55.6051 41.358 55.5498 41.3027C55.4945 41.2473 55.7125 40.9154 56.282 40.6518C57.0327 40.3181 57.8764 40.2571 58.6673 40.4794C59.4297 40.6994 60.1432 41.0627 60.7695 41.55C61.2446 41.8917 61.5049 42.1552 61.4626 42.2008Z" fill="black" stroke="black" stroke-width="0.162707" stroke-miterlimit="10"/>
<path d="M64.805 41.6379C64.7301 41.6575 64.6227 41.3679 64.281 41.075C63.8264 40.6961 63.2448 40.5042 62.654 40.538C62.0496 40.5389 61.4521 40.6663 60.9 40.9123C60.49 41.1108 60.3077 41.3548 60.2491 41.3125C60.1906 41.2702 60.2752 40.9318 60.7145 40.5966C61.2885 40.2026 61.9708 39.9968 62.667 40.0076C63.0572 40.0008 63.4444 40.0774 63.8027 40.2322C64.0971 40.3649 64.3559 40.5656 64.5576 40.8179C64.8961 41.2637 64.87 41.6347 64.805 41.6379Z" fill="black" stroke="black" stroke-width="0.162707" stroke-miterlimit="10"/>
<path d="M16.0475 40.2484C15.9043 40.2484 15.6635 38.2959 15.6017 35.8683C15.5399 33.4407 15.6733 31.472 15.8165 31.4752C15.9597 31.4785 16.067 33.4277 16.1419 35.8553C16.2167 38.2829 16.1972 40.2484 16.0475 40.2484Z" fill="black" stroke="black" stroke-width="0.162707" stroke-miterlimit="10"/>
<path d="M18.9896 31.7257C18.905 31.8493 18.2217 31.5109 17.3268 31.4491C16.9569 31.4105 16.5832 31.4325 16.2204 31.5142C15.9568 31.5825 15.8136 31.7061 15.7485 31.6671C15.6834 31.628 15.7485 31.3807 16.0739 31.1757C16.471 30.9582 16.9259 30.8695 17.3756 30.9219C17.8151 30.9515 18.2412 31.0853 18.6187 31.3124C18.8985 31.4914 19.0254 31.6638 18.9896 31.7257Z" fill="black" stroke="black" stroke-width="0.162707" stroke-miterlimit="10"/>
<path d="M19.3768 41.0326C19.2271 41.0326 19.1327 39.0183 19.0839 36.5387C19.0351 34.059 19.0546 32.0414 19.2043 32.0349C19.354 32.0284 19.5655 34.0362 19.6143 36.5257C19.6631 39.0151 19.5232 41.0326 19.3768 41.0326Z" fill="black" stroke="black" stroke-width="0.162707" stroke-miterlimit="10"/>
<path d="M17.04 28.8231C17.1734 28.7677 17.476 29.194 17.5444 29.7993C17.6127 30.4046 17.4207 30.9025 17.2775 30.8797C17.1344 30.8569 17.0823 30.3981 17.0172 29.8611C16.9521 29.3242 16.9033 28.8784 17.04 28.8231Z" fill="black" stroke="black" stroke-width="0.162707" stroke-miterlimit="10"/>
<path d="M17.4732 23.1055C17.5383 23.1055 17.5546 23.5611 17.3691 24.251C17.2572 24.6547 17.1023 25.0453 16.907 25.416C16.6857 25.8423 16.3766 26.2523 16.1325 26.6851C15.8908 27.053 15.786 27.4941 15.8364 27.9314C15.9134 28.2937 16.0827 28.63 16.3278 28.9077C16.7541 29.4153 17.086 29.7082 17.0339 29.7733C16.9819 29.8384 16.5946 29.6496 16.0577 29.1647C15.7224 28.8658 15.4816 28.4757 15.3646 28.0421C15.2631 27.4864 15.3797 26.913 15.69 26.441C15.9666 25.9529 16.279 25.5657 16.5003 25.1882C16.7017 24.8514 16.88 24.5013 17.0339 24.1403C17.2813 23.5058 17.3951 23.0925 17.4732 23.1055Z" fill="black" stroke="black" stroke-width="0.162707" stroke-miterlimit="10"/>
<path d="M17.8474 29.4054C17.7856 29.3534 18.0004 29.0573 18.1729 28.5236C18.3944 27.8302 18.448 27.094 18.329 26.3758C18.1902 25.6438 17.972 24.9291 17.6782 24.2444C17.4634 23.7009 17.3365 23.3527 17.4016 23.3137C17.4667 23.2746 17.7075 23.5642 18.0134 24.0784C18.4287 24.7581 18.7124 25.5099 18.8497 26.2945C18.9937 27.1019 18.8799 27.9342 18.5243 28.6733C18.2282 29.2297 17.8897 29.451 17.8474 29.4054Z" fill="black" stroke="black" stroke-width="0.162707" stroke-miterlimit="10"/>
<path d="M31.8173 41.6704C31.6676 41.6704 31.6449 39.1908 31.6188 36.1384C31.5928 33.086 31.583 30.6063 31.7327 30.6063C31.8824 30.6063 32.1297 33.0697 32.1493 36.1384C32.1688 39.207 31.9605 41.6769 31.8173 41.6704Z" fill="black" stroke="black" stroke-width="0.162707" stroke-miterlimit="10"/>
<path d="M35.5691 30.587C35.5333 30.6553 35.3055 30.587 34.9606 30.4991C34.5376 30.3655 34.101 30.2793 33.6589 30.242C33.2269 30.2216 32.7957 30.2972 32.3963 30.4633C32.0872 30.5935 31.9082 30.7301 31.8496 30.6781C31.7911 30.626 31.8822 30.3917 32.2043 30.1411C32.6321 29.8309 33.1543 29.6791 33.6817 29.7116C34.1899 29.7429 34.6832 29.8958 35.1201 30.1574C35.439 30.3527 35.6017 30.5251 35.5691 30.587Z" fill="black" stroke="black" stroke-width="0.162707" stroke-miterlimit="10"/>
<path d="M35.5465 42.1C35.4033 42.1 35.182 39.5683 35.1658 36.4313C35.1495 33.2943 35.3415 30.7496 35.4912 30.7528C35.6409 30.7561 35.6832 33.2976 35.7027 36.428C35.7222 39.5585 35.6962 42.0968 35.5465 42.1Z" fill="black" stroke="black" stroke-width="0.162707" stroke-miterlimit="10"/>
<path d="M33.4084 27.4626C33.5548 27.4626 33.7078 27.9052 33.7338 28.4779C33.7598 29.0507 33.6947 29.5193 33.5483 29.5323C33.4019 29.5453 33.2489 29.0897 33.2229 28.517C33.1969 27.9443 33.2619 27.4757 33.4084 27.4626Z" fill="black" stroke="black" stroke-width="0.162707" stroke-miterlimit="10"/>
<path d="M32.5 27L33 29H33.5L35 27V25.5L34 22V23.5L32.5 25.5V27Z" fill="white"/>
<path d="M34.056 28.2341C34.0267 28.2113 34.1146 28.0551 34.2838 27.7883C34.5298 27.4321 34.7146 27.0372 34.8305 26.6201C34.9574 26.1222 34.7914 25.4583 34.6287 24.7229C34.466 23.9875 34.2154 23.1902 33.9584 22.3409L34.4758 22.2595C34.4788 22.4584 34.4691 22.6573 34.4465 22.855C34.3865 23.3484 34.2377 23.8269 34.0072 24.2673C33.7876 24.6623 33.5198 25.0285 33.2099 25.3574C32.955 25.6237 32.7411 25.9264 32.5753 26.2556C32.4587 26.5376 32.427 26.8475 32.4842 27.1472C32.549 27.6238 32.658 28.0933 32.8096 28.5498C32.9333 28.8752 33.0537 29.0151 33.0244 29.0411C32.9951 29.0672 32.8194 28.9565 32.6242 28.6409C32.3837 28.1929 32.2084 27.713 32.1035 27.2156C32.0064 26.8447 32.0246 26.4531 32.1556 26.0929C32.3193 25.7096 32.5446 25.3556 32.8227 25.0451C33.0979 24.7354 33.336 24.3947 33.5321 24.0298C33.7275 23.6412 33.8542 23.2217 33.9063 22.7899C33.9273 22.6172 33.9371 22.4433 33.9356 22.2693L33.8998 20.3168L34.453 22.1944C34.7036 23.0503 34.9313 23.8703 35.081 24.6285C35.1526 25.0093 35.2145 25.3672 35.247 25.7187C35.287 26.0548 35.2593 26.3956 35.1656 26.7209C35.0093 27.168 34.7572 27.5756 34.427 27.9152C34.2187 28.143 34.082 28.2536 34.056 28.2341Z" fill="black" stroke="black" stroke-width="0.162707" stroke-miterlimit="10"/>
<path d="M47.395 41.1724C47.2486 41.1724 47.0371 38.8034 46.9264 35.8649C46.8158 32.9264 46.8418 30.5444 46.9883 30.5379C47.1347 30.5313 47.343 32.9101 47.4569 35.8454C47.5708 38.7806 47.5415 41.1692 47.395 41.1724Z" fill="black" stroke="black" stroke-width="0.162707" stroke-miterlimit="10"/>
<path d="M50.5514 30.18C50.5091 30.2419 50.3171 30.18 50.0242 30.1052C49.6433 30.011 49.2543 29.9532 48.8625 29.9327C48.6512 29.9169 48.4391 29.9169 48.2279 29.9327C48.0671 29.941 47.9083 29.9717 47.756 30.0238C47.5152 30.1084 47.4306 30.2777 47.3493 30.2614C47.2679 30.2451 47.2874 30.193 47.307 30.0857C47.345 29.9315 47.436 29.7955 47.5641 29.7017C47.9599 29.4489 48.4336 29.3472 48.8983 29.4153C49.3446 29.4333 49.7804 29.5559 50.1706 29.7733C50.47 29.9392 50.5937 30.1247 50.5514 30.18Z" fill="black" stroke="black" stroke-width="0.162707" stroke-miterlimit="10"/>
<path d="M50.9843 41.244C50.8346 41.244 50.7891 38.7806 50.6784 35.751C50.5678 32.7214 50.4376 30.2645 50.5873 30.2515C50.737 30.2385 51.0982 32.6856 51.2056 35.7315C51.313 38.7774 51.1275 41.2473 50.9843 41.244Z" fill="black" stroke="black" stroke-width="0.162707" stroke-miterlimit="10"/>
<path d="M48.3192 27.0365C48.4657 27.0365 48.6186 27.4791 48.6609 28.0518C48.7032 28.6245 48.6219 29.0931 48.4754 29.1061C48.329 29.1192 48.176 28.6603 48.1337 28.0909C48.0914 27.5214 48.1728 27.0463 48.3192 27.0365Z" fill="black" stroke="black" stroke-width="0.162707" stroke-miterlimit="10"/>
<path d="M47.5 27.5C47.6667 27.8333 48.1 28.5 48.5 28.5H49L50 27V24.5L49 22L48.5 24L47 26L47.5 27.5Z" fill="white"/>
<path d="M48.6899 22.3961C48.7582 22.3961 48.8461 22.7769 48.7745 23.3984C48.728 23.7638 48.6373 24.1222 48.5044 24.4658C48.3369 24.8767 48.1275 25.2692 47.8796 25.6373C47.6929 25.9379 47.5813 26.279 47.5541 26.6319C47.5269 26.9847 47.585 27.3389 47.7234 27.6646C47.9317 28.1853 48.2213 28.4326 48.1693 28.4977C48.1172 28.5628 47.7364 28.4 47.3883 27.8468C47.191 27.5137 47.0792 27.137 47.0628 26.7502C47.0502 26.5179 47.0743 26.2851 47.1344 26.0603C47.199 25.8218 47.2976 25.5938 47.4273 25.3835C47.662 25.0336 47.873 24.6683 48.0586 24.2901C48.1995 23.9826 48.3169 23.665 48.4101 23.3398C48.563 22.7639 48.6118 22.3929 48.6899 22.3961Z" fill="black" stroke="black" stroke-width="0.162707" stroke-miterlimit="10"/>
<path d="M49.5493 28.1105C49.481 28.0682 49.6274 27.7623 49.7478 27.2579C49.9005 26.6018 49.927 25.9226 49.8259 25.2566C49.7144 24.5862 49.5255 23.931 49.2629 23.3041C49.0709 22.8062 48.9375 22.4906 49.0091 22.4515C49.0807 22.4125 49.3085 22.6598 49.6014 23.1349C49.9829 23.7652 50.2382 24.4637 50.3531 25.1915C50.4693 25.9318 50.3827 26.6898 50.1025 27.3848C49.8715 27.9055 49.6046 28.1495 49.5493 28.1105Z" fill="black" stroke="black" stroke-width="0.162707" stroke-miterlimit="10"/>
<path d="M60.7961 39.5219C60.9432 39.5128 60.9298 37.3794 60.7661 34.757C60.6025 32.1345 60.3507 30.0161 60.2036 30.0253C60.0565 30.0344 60.0699 32.1678 60.2335 34.7902C60.3971 37.4126 60.649 39.5311 60.7961 39.5219Z" fill="black" stroke="black" stroke-width="0.162707" stroke-miterlimit="10"/>
<path d="M63.4379 29.7961C63.3337 29.9034 62.7415 29.4283 61.9149 29.4706C61.0884 29.5129 60.5221 30.0011 60.4147 29.9002C60.3627 29.8579 60.431 29.6496 60.6816 29.4186C61.0195 29.1227 61.4499 28.9537 61.8988 28.9406C62.3477 28.9276 62.7872 29.0712 63.1417 29.347C63.4053 29.5487 63.4867 29.7505 63.4379 29.7961Z" fill="black" stroke="black" stroke-width="0.162707" stroke-miterlimit="10"/>
<path d="M63.2329 39.3143C63.0865 39.3143 62.9986 37.3455 63.0409 34.9212C63.0832 32.4968 63.2329 30.5378 63.3663 30.5378C63.4997 30.5378 63.5974 32.4903 63.5583 34.9309C63.5193 37.3716 63.3793 39.3175 63.2329 39.3143Z" fill="black" stroke="black" stroke-width="0.162707" stroke-miterlimit="10"/>
<path d="M61.4138 27.248C61.5635 27.248 61.7002 27.5735 61.7783 27.9932C61.8564 28.413 61.8433 28.7742 61.7034 28.8165C61.5635 28.8589 61.339 28.5432 61.2576 28.0876C61.1762 27.632 61.2706 27.2578 61.4138 27.248Z" fill="black" stroke="black" stroke-width="0.162707" stroke-miterlimit="10"/>
<path d="M62.0713 27.4628C61.9997 27.4173 62.439 26.8673 62.5366 25.8357C62.5882 25.2244 62.532 24.6087 62.3707 24.0167C62.3316 23.8475 62.2796 23.6913 62.2242 23.5025L62.1364 23.2357L62.0615 23.0242L61.9509 22.7606C61.9622 22.812 61.9622 22.8653 61.9509 22.9168C61.9408 22.9643 61.9244 23.0103 61.9021 23.0535C61.8207 23.2235 61.7294 23.3887 61.6287 23.5481C61.4372 23.8298 61.2297 24.1004 61.0072 24.3584C60.8238 24.5553 60.6831 24.7879 60.5939 25.0417C60.5466 25.2704 60.5466 25.5062 60.5939 25.7349C60.7078 26.6753 60.7436 27.2513 60.6753 27.2643C60.6069 27.2773 60.4507 26.7176 60.2457 25.7934C60.1661 25.5176 60.1483 25.2276 60.1936 24.9441C60.2774 24.6239 60.4308 24.3262 60.6427 24.072C60.8443 23.8175 61.0322 23.5524 61.2057 23.278C61.2917 23.1365 61.3688 22.9897 61.4367 22.8387L61.5148 22.6239C61.541 22.5343 61.5606 22.443 61.5734 22.3506C61.5797 22.1 61.5545 21.8497 61.4986 21.6054L61.4205 21.0717L61.1471 19.5129L61.4725 20.2646L61.5962 20.5413L61.6613 20.6812V20.7202V20.7398L61.7036 20.8179C61.7231 20.8569 61.7036 20.8179 61.7198 20.8179C61.7361 20.8179 61.7198 20.8179 61.7198 20.8179L61.7036 20.7625V20.7365V20.7528V20.7918C61.9737 21.4427 62.2405 22.0935 62.4748 22.7443L62.5464 22.9396L62.592 23.0795L62.6766 23.3593C62.7286 23.5481 62.7774 23.7303 62.8165 23.9126C62.9672 24.5627 62.9871 25.2364 62.8751 25.8943C62.8026 26.3397 62.6362 26.7645 62.3869 27.1407C62.2405 27.3782 62.0973 27.4856 62.0713 27.4628Z" fill="black" stroke="black" stroke-width="0.162707" stroke-miterlimit="10"/>
<path d="M21.6546 39.8839C21.5082 39.8839 21.3292 35.3965 21.2804 29.8579C21.2315 24.3193 21.2804 19.8286 21.4366 19.8286C21.5928 19.8286 21.762 24.3128 21.8108 29.8514C21.8596 35.39 21.8043 39.8807 21.6546 39.8839Z" fill="black" stroke="black" stroke-width="0.162707" stroke-miterlimit="10"/>
<path d="M55.7124 19.1225C55.2596 19.1398 54.8062 19.1125 54.3587 19.0411L50.6848 18.6539C47.5836 18.3285 43.2979 17.9022 38.55 17.8436C34.5002 17.7752 30.4529 18.0857 26.4609 18.771C24.9314 19.0444 23.7014 19.321 22.8553 19.5292C22.4227 19.6648 21.9781 19.7585 21.5276 19.8091C21.9327 19.6031 22.3595 19.4427 22.8 19.3307C23.9765 18.9606 25.1713 18.651 26.3795 18.4033C30.3846 17.606 34.4639 17.2427 38.5468 17.3197C42.6197 17.3975 46.6841 17.7235 50.7173 18.2959C52.2663 18.5074 53.5159 18.6994 54.375 18.8491C54.829 18.8942 55.2771 18.9858 55.7124 19.1225Z" fill="black" stroke="black" stroke-width="0.162707" stroke-miterlimit="10"/>
<path d="M56.0576 39.4544C56.205 39.4544 56.3245 35.1084 56.3245 29.7473C56.3245 24.3862 56.205 20.0402 56.0576 20.0402C55.9102 20.0402 55.7908 24.3862 55.7908 29.7473C55.7908 35.1084 55.9102 39.4544 56.0576 39.4544Z" fill="black" stroke="black" stroke-width="0.162707" stroke-miterlimit="10"/>
<path d="M25.4231 18.7189C25.371 18.7807 25.0977 18.592 24.6161 18.3935C24.0076 18.139 23.347 18.0341 22.6896 18.0876C22.3462 18.1074 22.012 18.2065 21.7134 18.3772C21.4873 18.5099 21.3191 18.7223 21.2415 18.9727C21.1016 19.425 21.3196 19.7016 21.2643 19.7505C21.209 19.7993 21.1439 19.7505 21.0365 19.6073C20.8926 19.4019 20.8331 19.1491 20.8706 18.9011C20.8954 18.7162 20.9586 18.5384 21.0561 18.3793C21.1536 18.2201 21.2833 18.0831 21.4368 17.9769C21.7929 17.7315 22.2091 17.5875 22.6408 17.5604C23.3922 17.4891 24.1463 17.6651 24.7886 18.0616C25.2702 18.3707 25.4687 18.6733 25.4231 18.7189Z" fill="black" stroke="black" stroke-width="0.162707" stroke-miterlimit="10"/>
<path d="M31.5244 17.847C31.4789 17.912 31.1014 17.6908 30.4929 17.3849C29.7368 16.9623 28.8859 16.7384 28.0197 16.734C27.547 16.7721 27.0829 16.8818 26.6432 17.0595C26.2711 17.1863 25.9098 17.343 25.5628 17.5281C24.9803 17.8535 24.8632 18.2667 24.7883 18.2505C24.7135 18.2342 24.733 18.1236 24.7883 17.9251C24.9008 17.6439 25.0917 17.4011 25.3383 17.2254C25.6829 16.9759 26.0566 16.7693 26.4512 16.6104C26.9327 16.3906 27.4495 16.2584 27.9774 16.2199C28.5127 16.1955 29.0472 16.2842 29.5459 16.4802C29.942 16.633 30.3188 16.8318 30.6686 17.0725C31.2706 17.4695 31.5667 17.7949 31.5244 17.847Z" fill="black" stroke="black" stroke-width="0.162707" stroke-miterlimit="10"/>
<path d="M35.5757 17.3977C35.5172 17.453 35.2731 17.2513 34.8501 17.0007C34.3225 16.6701 33.7255 16.4662 33.1058 16.4052C32.493 16.3649 31.8816 16.5027 31.3454 16.8022C30.9288 17.0365 30.7108 17.2675 30.6457 17.2187C30.5806 17.1699 30.7075 16.8542 31.1306 16.4963C31.6987 16.0411 32.4192 15.8199 33.1449 15.878C33.8596 15.9366 34.5364 16.2242 35.0746 16.698C35.4749 17.056 35.6278 17.3554 35.5757 17.3977Z" fill="black" stroke="black" stroke-width="0.162707" stroke-miterlimit="10"/>
<path d="M40.8249 17.2708C40.7826 17.3327 40.4506 17.1862 39.9495 16.9031L39.0872 16.3955C38.7704 16.1985 38.4155 16.0709 38.0458 16.0212C37.6675 16.0269 37.2931 16.0985 36.9394 16.2328L35.9632 16.4866C35.7633 16.5368 35.5745 16.624 35.4067 16.7437C35.2896 16.8283 35.2342 16.9031 35.1952 16.8868C35.1561 16.8706 35.1561 16.7697 35.2473 16.6102C35.3901 16.3997 35.5915 16.2357 35.8265 16.1384C36.1064 16.005 36.422 15.8976 36.78 15.7674C36.9622 15.7023 37.1444 15.634 37.3592 15.5722C37.5922 15.5025 37.8357 15.4749 38.0784 15.4908C38.53 15.5472 38.9605 15.7149 39.3312 15.9789C39.6566 16.2002 39.9235 16.4117 40.1513 16.594C40.6101 16.9552 40.8542 17.2123 40.8249 17.2708Z" fill="black" stroke="black" stroke-width="0.162707" stroke-miterlimit="10"/>
<path d="M45.9436 17.375C45.8948 17.4335 45.5726 17.2188 45.065 16.8966C44.433 16.4661 43.7302 16.15 42.9888 15.9627C42.2612 15.8049 41.5016 15.8954 40.8313 16.2197C40.3204 16.4768 40.0861 16.7827 40.0178 16.7372C39.9495 16.6916 40.0927 16.2946 40.6328 15.8976C40.992 15.6592 41.3957 15.4959 41.8196 15.4177C42.2435 15.3394 42.6789 15.3476 43.0995 15.442C43.915 15.6368 44.6683 16.0341 45.2895 16.5972C45.7614 17.0105 45.9892 17.3229 45.9436 17.375Z" fill="black" stroke="black" stroke-width="0.162707" stroke-miterlimit="10"/>
<path d="M50.0698 17.7524C49.9885 17.7524 49.9136 17.427 49.5882 17.0365C49.3969 16.8105 49.1692 16.6181 48.9146 16.467C48.5991 16.2841 48.2546 16.1564 47.8961 16.0895C47.5246 16.0204 47.1479 15.9834 46.7701 15.9789C46.4656 15.9616 46.1602 15.9769 45.859 16.0244C45.3546 16.1025 45.2081 16.4117 45.1496 16.3921C45.091 16.3726 45.0975 16.2815 45.1756 16.1188C45.3061 15.9022 45.5108 15.7403 45.7516 15.6632C46.0779 15.5534 46.4193 15.4952 46.7636 15.4907C47.1776 15.4647 47.5932 15.492 48.0002 15.5721C48.4234 15.6498 48.8257 15.815 49.1814 16.057C49.4725 16.2572 49.7167 16.5181 49.8974 16.8217C50.2 17.3554 50.1317 17.7524 50.0698 17.7524Z" fill="black" stroke="black" stroke-width="0.162707" stroke-miterlimit="10"/>
<path d="M53.6753 17.8924C53.607 17.9282 53.4313 17.707 53.1677 17.3718C52.9041 17.0366 52.5169 16.5908 51.9637 16.5224C51.6714 16.4948 51.3773 16.4948 51.085 16.5224C50.8019 16.542 50.5514 16.568 50.3366 16.594C50.1901 16.6011 50.0468 16.64 49.9168 16.7079C49.8387 16.7535 49.8094 16.8251 49.7704 16.8218C49.7313 16.8186 49.6792 16.734 49.7704 16.581C49.8855 16.4047 50.0636 16.279 50.2682 16.2296C50.5201 16.1423 50.7793 16.078 51.0427 16.0376C51.3766 15.9777 51.7171 15.9634 52.0548 15.9953C52.4253 16.0496 52.7681 16.2232 53.031 16.4899C53.2259 16.6895 53.3874 16.9191 53.5094 17.17C53.6851 17.5833 53.7372 17.8599 53.6753 17.8924Z" fill="black" stroke="black" stroke-width="0.162707" stroke-miterlimit="10"/>
<path d="M55.6505 18.9436C55.5789 18.9176 55.6017 18.6898 55.5399 18.3709C55.4686 17.9658 55.2494 17.6017 54.9248 17.3491C54.7491 17.2147 54.5475 17.1183 54.3326 17.0659C54.1653 17.0206 53.989 17.0206 53.8217 17.0659C53.5321 17.1278 53.4605 17.3263 53.3856 17.323C53.3108 17.3198 53.314 17.2547 53.3368 17.1278C53.3601 17.0412 53.4011 16.9604 53.4571 16.8904C53.513 16.8204 53.5829 16.7627 53.6622 16.721C53.8888 16.5947 54.1515 16.5488 54.4074 16.5908C54.7097 16.6301 54.9963 16.7482 55.2385 16.9333C55.4806 17.1184 55.6699 17.3639 55.7872 17.6452C55.8791 17.871 55.9192 18.1145 55.9043 18.3578C55.8816 18.7711 55.7123 18.9664 55.6505 18.9436Z" fill="black" stroke="black" stroke-width="0.162707" stroke-miterlimit="10"/>
<path d="M24.1083 10.6812C24.2612 10.6812 24.2189 12.3539 24.2612 14.391C24.3035 16.4281 24.3979 18.0812 24.2612 18.1007C24.1246 18.1202 23.7796 16.4736 23.7438 14.4007C23.708 12.3278 23.9684 10.6682 24.1083 10.6812Z" fill="black" stroke="black" stroke-width="0.162707" stroke-miterlimit="10"/>
<path d="M27.4343 10.7169C27.3692 10.756 27.2227 10.6356 26.9234 10.551L26.3669 10.3883C26.153 10.3198 25.9358 10.2623 25.7161 10.2158C25.3423 10.1269 24.9493 10.1694 24.6031 10.3362C24.3428 10.4663 24.2257 10.6356 24.1508 10.6095C24.076 10.5835 24.0857 10.3167 24.3819 10.0335C24.5534 9.87633 24.7614 9.76447 24.9871 9.70813C25.2582 9.64233 25.5403 9.63678 25.8137 9.69186C26.0677 9.74458 26.3153 9.82422 26.5524 9.92942C26.7419 10.0111 26.9257 10.1057 27.1023 10.2125C27.2337 10.2955 27.3448 10.4066 27.4278 10.5379C27.4635 10.6356 27.4635 10.6974 27.4343 10.7169Z" fill="black" stroke="black" stroke-width="0.162707" stroke-miterlimit="10"/>
<path d="M27.6747 16.7372C27.5315 16.7535 27.2549 15.4095 27.18 13.7239C27.1052 12.0382 27.2581 10.6715 27.4046 10.678C27.551 10.6845 27.6356 12.035 27.7105 13.6979C27.7853 15.3607 27.8374 16.721 27.6747 16.7372Z" fill="black" stroke="black" stroke-width="0.162707" stroke-miterlimit="10"/>
<path d="M25.6181 8.17547C25.7515 8.12015 26.0118 8.45858 26.0639 8.95972C26.116 9.46086 25.9272 9.84485 25.7873 9.81881C25.6474 9.79278 25.5823 9.43157 25.5367 9.01504C25.4912 8.59851 25.4781 8.23079 25.6181 8.17547Z" fill="black" stroke="black" stroke-width="0.162707" stroke-miterlimit="10"/>
<path d="M26.2821 8.60177C26.2073 8.56923 26.4253 8.08111 26.5067 7.24805C26.5524 6.76142 26.5305 6.2708 26.4416 5.79019C26.4188 5.65677 26.383 5.51684 26.3505 5.38342C26.3309 5.3281 26.3147 5.27603 26.3016 5.24675C26.2886 5.21746 26.2235 5.04499 26.2235 5.19468C26.2155 5.23482 26.2036 5.27407 26.1878 5.31183V5.34111C26.1878 5.3704 26.1422 5.42572 26.1194 5.46477C26.0709 5.55188 26.0165 5.63559 25.9567 5.71534C25.8416 5.87357 25.7084 6.01774 25.5597 6.14489C25.2571 6.40197 24.9512 6.53864 24.7885 6.72413C24.7129 6.80122 24.6639 6.90039 24.6485 7.00724C24.6365 7.12997 24.642 7.25377 24.6648 7.37496C24.7071 7.64505 24.7624 7.89562 24.821 8.12016C25.0651 9.02481 25.3612 9.54873 25.2896 9.59103C25.218 9.63334 24.821 9.16474 24.4631 8.23731C24.37 7.98199 24.2929 7.72115 24.232 7.45631C24.192 7.29245 24.1767 7.12356 24.1865 6.95517C24.2057 6.75261 24.2863 6.56073 24.4175 6.40522C24.6684 6.16944 24.936 5.95194 25.218 5.75439C25.3391 5.65078 25.4482 5.53399 25.5434 5.4062C25.589 5.34111 25.6345 5.27278 25.6736 5.20444C25.6963 5.16653 25.7169 5.12742 25.7354 5.08729C25.7708 5.01235 25.8012 4.93517 25.8265 4.85625C25.8571 4.77281 25.88 4.68676 25.8949 4.59917C25.8949 4.5471 25.9144 4.50805 25.9209 4.45273L25.9404 4.25748C25.9665 3.96135 25.9958 3.66848 26.0218 3.37561C26.1305 3.52779 26.2243 3.69018 26.3016 3.86048C26.4188 4.10779 26.5197 4.30304 26.6271 4.54385C26.7227 4.77447 26.8021 5.01152 26.8646 5.25326C26.9004 5.41596 26.9297 5.57867 26.9492 5.71534C27.0206 6.24267 27.0041 6.77817 26.9004 7.30011C26.6726 8.18524 26.3277 8.63106 26.2821 8.60177Z" fill="black" stroke="black" stroke-width="0.162707" stroke-miterlimit="10"/>
<path d="M37.4566 15.5983C37.3102 15.5983 37.1312 14.0558 37.0856 12.1456C37.0401 10.2354 37.0856 8.68644 37.2418 8.67668C37.398 8.66692 37.5673 10.2159 37.6128 12.1293C37.6584 14.0428 37.5998 15.5983 37.4566 15.5983Z" fill="black" stroke="black" stroke-width="0.162707" stroke-miterlimit="10"/>
<path d="M40.2355 8.80021C40.203 8.8653 40.011 8.84252 39.7311 8.76442C39.3907 8.65986 39.044 8.57726 38.6931 8.51711C38.3649 8.47443 38.0314 8.50555 37.7168 8.60822C37.4727 8.68632 37.3231 8.7872 37.2612 8.73838C37.1994 8.68957 37.2612 8.48456 37.5346 8.27955C37.8924 8.02903 38.3327 7.92536 38.7646 7.98993C39.1694 8.04731 39.5556 8.19647 39.8938 8.42599C40.1379 8.59195 40.2681 8.73513 40.2355 8.80021Z" fill="black" stroke="black" stroke-width="0.162707" stroke-miterlimit="10"/>
<path d="M40.3887 15.9562C40.2423 15.9562 40.1089 14.3942 40.0893 12.4612C40.0698 10.5283 40.1707 8.96301 40.3171 8.96301C40.4636 8.96301 40.597 10.525 40.6198 12.4547C40.6425 14.3844 40.5286 15.9529 40.3887 15.9562Z" fill="black" stroke="black" stroke-width="0.162707" stroke-miterlimit="10"/>
<path d="M38.6121 5.89098C38.752 5.85844 38.9733 6.29775 39.0611 6.86722C39.149 7.4367 39.0611 7.93133 38.9277 7.94435C38.7943 7.95736 38.6251 7.50504 38.5372 6.94533C38.4494 6.38561 38.4689 5.92352 38.6121 5.89098Z" fill="black" stroke="black" stroke-width="0.162707" stroke-miterlimit="10"/>
<path d="M13 48V43C31.8 47 54.5 44 63.5 42L65.5 41.5V46.5C65.1 47.7 63.6667 47.3333 63 47C60.6 46.6 59.6667 47.8333 59.5 48.5C57.1 52.1 54.1667 51 53 50C51 48 49.1667 48.8333 48.5 49.5C44.1 52.3 41 51 40 50C37.6 47.6 35.6667 48.6667 35 49.5C31.4 52.3 29.1667 51.6667 28.5 51C28.3333 51 27.9 50.9 27.5 50.5C27 48 22.5 47.5 21 49C19.5 50.5 17 51 16 49.5C15.2 48.3 14.6667 48 14.5 48H13Z" fill="#2898A4"/>
<path d="M39.4779 6.87699C39.403 6.8412 39.6536 6.34331 39.6373 5.49398C39.6208 4.99643 39.5398 4.50312 39.3965 4.02636L39.3379 3.8246L39.3152 3.76928L39.2729 3.66515L39.2338 3.56427C39.2369 3.60217 39.2369 3.64026 39.2338 3.67816V3.69769C39.2251 3.73538 39.2109 3.77157 39.1915 3.80507L39.1395 3.88643L39.0613 4.00033C39.006 4.07128 38.9462 4.13866 38.8824 4.20208C38.7597 4.32843 38.6207 4.43787 38.4691 4.5275C38.3292 4.60885 38.2055 4.67393 38.0981 4.74227C38.0098 4.78352 37.9352 4.84934 37.8832 4.93186C37.8313 5.01438 37.8042 5.11012 37.8052 5.20762C37.8247 5.42867 37.8683 5.64693 37.9354 5.85845C38.1632 6.67849 38.378 7.16011 38.3096 7.20566C38.2413 7.25122 37.9126 6.80215 37.584 5.97559C37.4794 5.74245 37.4071 5.49611 37.3692 5.24341C37.3501 5.06823 37.3841 4.89136 37.4668 4.73576C37.5552 4.58308 37.6763 4.45192 37.8215 4.35177C38.0692 4.21308 38.3006 4.04718 38.5114 3.85714C38.5569 3.80833 38.5993 3.75627 38.6416 3.70094L38.7001 3.61633C38.7164 3.58705 38.7294 3.57078 38.7717 3.49268L38.8596 3.28441C38.8791 3.18679 38.9019 3.1152 38.9182 2.99479V2.34397C38.9019 1.89815 38.8856 1.44907 38.8661 1L39.0223 1.41002L39.1362 1.68663L39.1817 1.78099V1.75496V1.77774C39.2729 2.04458 39.364 2.30817 39.4551 2.56524C39.5462 2.82232 39.6276 3.06964 39.7057 3.32346L39.8163 3.69769L39.8716 3.92548C40.0061 4.44894 40.0544 4.99078 40.0148 5.52977C39.9885 5.89502 39.8924 6.25182 39.7317 6.58086C39.6113 6.79238 39.5072 6.89326 39.4779 6.87699Z" fill="black" stroke="black" stroke-width="0.162707" stroke-miterlimit="10"/>
<path d="M48.8147 15.5982C48.9621 15.5967 49.0665 14.2055 49.0479 12.4911C49.0294 10.7766 48.8949 9.3881 48.7475 9.38969C48.6002 9.39129 48.4958 10.7824 48.5143 12.4969C48.5329 14.2113 48.6674 15.5998 48.8147 15.5982Z" fill="black" stroke="black" stroke-width="0.162707" stroke-miterlimit="10"/>
<path d="M51.2674 9.45756C51.1991 9.49336 51.0754 9.37946 50.8802 9.2558C50.645 9.08915 50.3676 8.9922 50.0798 8.97608C49.792 8.95997 49.5055 9.02533 49.2531 9.16469C49.0449 9.26556 48.9114 9.36645 48.8496 9.32089C48.7878 9.27533 48.8203 9.0931 49.0253 8.86856C49.1654 8.72487 49.3347 8.61285 49.5217 8.54003C49.7087 8.4672 49.9092 8.43527 50.1096 8.44637C50.3099 8.45746 50.5056 8.51134 50.6835 8.60437C50.8613 8.6974 51.0171 8.82742 51.1405 8.98571C51.326 9.22977 51.3358 9.42827 51.2674 9.45756Z" fill="black" stroke="black" stroke-width="0.162707" stroke-miterlimit="10"/>
<path d="M51.4396 15.5168C51.2932 15.5168 51.1598 14.1826 51.1435 12.523C51.1272 10.8634 51.2314 9.52271 51.3778 9.52271C51.5243 9.52271 51.6577 10.8667 51.6739 12.5165C51.6902 14.1664 51.5926 15.5168 51.4396 15.5168Z" fill="black" stroke="black" stroke-width="0.162707" stroke-miterlimit="10"/>
<path d="M49.9657 7.1765C50.1024 7.13094 50.3139 7.39453 50.3204 7.77852C50.3269 8.16251 50.1219 8.42935 49.995 8.38704C49.8681 8.34474 49.8063 8.08116 49.7998 7.78503C49.7932 7.4889 49.8323 7.22206 49.9657 7.1765Z" fill="black" stroke="black" stroke-width="0.162707" stroke-miterlimit="10"/>
<path d="M50.3694 8.1917C50.3434 8.16241 50.4605 8.02899 50.5842 7.75238C50.7409 7.34319 50.8501 6.91737 50.9096 6.48327C51.1516 5.0457 51.0056 3.56959 50.4866 2.20731L50.2881 1.69641L50.8217 1.86237C50.8975 1.8876 50.9664 1.93016 51.0229 1.98664C51.0794 2.04313 51.1219 2.11199 51.1472 2.18779C51.1875 2.34248 51.1875 2.50495 51.1472 2.65964C51.1146 2.78981 51.0788 2.89719 51.0398 3.01109C50.8101 3.65199 50.4054 4.21568 49.8715 4.63816C49.5461 4.90826 49.1686 5.05144 49.0189 5.25645C48.9566 5.37401 48.919 5.50306 48.9084 5.63568C48.8977 5.76831 48.9143 5.9017 48.9571 6.02768C49.1686 7.15687 49.6079 7.77842 49.5299 7.82072C49.4518 7.86303 49.3606 7.71333 49.1686 7.43022C48.9051 7.02303 48.7095 6.57572 48.5894 6.10578C48.5439 5.94421 48.5144 5.77852 48.5015 5.61115C48.4861 5.39627 48.5421 5.18232 48.661 5.00263C48.7865 4.83535 48.9421 4.69298 49.1198 4.58284C49.2739 4.48201 49.4227 4.3734 49.5656 4.25743C49.8553 4.01002 50.1007 3.71511 50.2913 3.38532C50.3931 3.21203 50.4771 3.02885 50.5419 2.83862C50.5752 2.74364 50.6034 2.64697 50.6265 2.549C50.6425 2.48489 50.6425 2.41785 50.6265 2.35375C50.6265 2.35375 50.6265 2.35375 50.6493 2.32446C50.6721 2.29518 50.6493 2.30819 50.6493 2.32446L50.9747 1.99905C51.5324 3.45284 51.6334 5.04215 51.2643 6.55486C51.1663 7.01475 50.9913 7.45481 50.7469 7.85652C50.5647 8.12987 50.3889 8.21447 50.3694 8.1917Z" fill="black" stroke="black" stroke-width="0.162707" stroke-miterlimit="10"/>
<path d="M55.5857 19.8124C55.5857 19.8124 55.5174 19.9263 55.3287 20.0793C55.0479 20.3022 54.7293 20.4731 54.3882 20.5837C53.8414 20.7639 53.2571 20.7987 52.6928 20.6845C52.0257 20.5544 51.3684 20.1639 50.6264 19.9328C50.2428 19.8179 49.8408 19.7771 49.4419 19.8124C48.9976 19.8559 48.5604 19.9543 48.1403 20.1053C47.2551 20.4014 46.3375 20.883 45.2115 21.0815C44.6367 21.1817 44.0475 21.1628 43.4803 21.0262C42.9094 20.8818 42.3528 20.6858 41.8174 20.4405C41.2773 20.2094 40.7436 19.9621 40.1904 19.7896C39.6486 19.6013 39.0719 19.5346 38.5015 19.5944C37.925 19.7121 37.3661 19.9035 36.8386 20.1639C36.2779 20.415 35.6873 20.5932 35.0814 20.6943C34.4942 20.7903 33.8972 20.8122 33.3046 20.7594C32.7468 20.6967 32.1943 20.5933 31.6515 20.4502C30.6102 20.1899 29.6307 19.9524 28.7227 20.102C27.8769 20.28 27.0636 20.5873 26.3114 21.0132C25.6588 21.372 24.9603 21.6402 24.2353 21.8105C23.677 21.9346 23.0982 21.9346 22.5399 21.8105C22.1878 21.7257 21.8623 21.5546 21.5929 21.3126C21.4107 21.1499 21.3521 21.0295 21.3619 21.023C21.3716 21.0165 21.466 21.1011 21.658 21.2312C21.952 21.4232 22.2838 21.5497 22.631 21.6022C23.16 21.6866 23.7008 21.66 24.219 21.5241C24.9097 21.3331 25.5718 21.0508 26.1878 20.6845C26.9656 20.2172 27.8123 19.8757 28.6967 19.6725C29.7022 19.4903 30.7631 19.7376 31.7947 19.9816C32.3156 20.1125 32.8452 20.206 33.3794 20.2615C33.9291 20.3073 34.4824 20.2832 35.026 20.1899C35.587 20.0891 36.1335 19.9197 36.6531 19.6855C37.2226 19.4049 37.8266 19.2003 38.4494 19.077C39.0987 19.0033 39.7563 19.0779 40.3726 19.295C40.9415 19.4926 41.4998 19.7196 42.0452 19.9751C42.5505 20.2095 43.0753 20.3989 43.6137 20.5414C44.1156 20.6697 44.6388 20.6918 45.1497 20.6064C46.1617 20.4372 47.0827 19.9784 48.0101 19.6888C48.4625 19.5344 48.9327 19.4381 49.4094 19.4024C49.8589 19.3752 50.3094 19.4337 50.7371 19.5749C51.5376 19.858 52.1526 20.2517 52.7546 20.3949C53.2705 20.5248 53.8105 20.5248 54.3264 20.3949C54.7697 20.2562 55.193 20.0604 55.5857 19.8124Z" fill="black" stroke="black" stroke-width="0.162707" stroke-miterlimit="10"/>
<path d="M65.5139 46.4932C65.5139 46.4932 65.5139 46.5517 65.4748 46.6494C65.4115 46.7948 65.3144 46.9231 65.1917 47.0236C64.944 47.2007 64.6621 47.324 64.3639 47.3856C64.0658 47.4472 63.7581 47.4459 63.4605 47.3816C63.0732 47.3165 62.6665 47.183 62.2239 47.0822C61.7658 46.9423 61.2763 46.9423 60.8181 47.0822C60.3191 47.3123 59.9032 47.6907 59.6271 48.1658C59.2919 48.732 58.9121 49.2706 58.4914 49.7766C57.9423 50.3342 57.2574 50.7391 56.5042 50.9513C55.7509 51.1636 54.9554 51.1759 54.1959 50.9871C53.7752 50.8896 53.3744 50.7201 53.0114 50.486C52.6549 50.2474 52.3146 49.9854 51.9929 49.7018C51.6934 49.4343 51.3391 49.2355 50.9548 49.1193C50.5573 49.0187 50.142 49.0109 49.741 49.0965C48.8743 49.3092 48.0588 49.6931 47.3427 50.2257C46.9457 50.4795 46.5422 50.7463 46.0996 50.9774C45.6508 51.2173 45.1712 51.3946 44.6743 51.5046C43.6488 51.7292 42.5816 51.6718 41.5861 51.3386C41.0778 51.1693 40.5958 50.9294 40.1543 50.6259C39.7369 50.3061 39.3372 49.9639 38.9568 49.6009C38.6184 49.2708 38.1965 49.039 37.7364 48.9305C37.2786 48.8501 36.8073 48.8997 36.3762 49.0737C35.4813 49.3991 34.6906 50.0207 33.8738 50.5706C33.0648 51.1608 32.1379 51.5692 31.1566 51.7681C30.6672 51.8592 30.1653 51.8592 29.6759 51.7681C29.1925 51.6778 28.7342 51.4847 28.332 51.2019C27.5444 50.6552 27.0043 49.9361 26.3795 49.3796C26.0881 49.1004 25.7596 48.8627 25.4032 48.6734C25.061 48.4966 24.6931 48.3747 24.3131 48.3122C23.5875 48.19 22.842 48.291 22.1751 48.6019C21.5491 48.9234 20.9467 49.2887 20.3723 49.6952C19.8212 50.0788 19.2014 50.3528 18.5467 50.5023C17.9428 50.6514 17.3053 50.575 16.7537 50.2875C16.3088 49.9996 15.951 49.5957 15.7189 49.1193C15.5266 48.749 15.3092 48.3924 15.068 48.0519C14.8998 47.8274 14.6803 47.6464 14.4278 47.5241C14.1753 47.4019 13.8971 47.3418 13.6167 47.349C13.4222 47.382 13.2389 47.4624 13.083 47.5833C13.083 47.5833 13.1025 47.528 13.1806 47.4531C13.2983 47.3457 13.4437 47.2736 13.6004 47.2449C13.9063 47.2121 14.2156 47.2565 14.4998 47.3742C14.7841 47.4919 15.0343 47.679 15.2275 47.9185C15.4892 48.2577 15.7242 48.6168 15.9304 48.9923C16.1583 49.4186 16.4952 49.7768 16.9066 50.0304C17.3986 50.2655 17.9586 50.3163 18.4849 50.1736C19.0929 50.0178 19.6659 49.7484 20.1738 49.3796C20.757 48.9528 21.3704 48.5689 22.0091 48.2309C22.5734 47.9622 23.1916 47.826 23.8165 47.8328C24.4414 47.8395 25.0565 47.9891 25.6147 48.2699C26.0061 48.4743 26.3674 48.7317 26.6886 49.0347C27.3394 49.6237 27.8861 50.3363 28.5923 50.7984C28.9496 51.0383 29.3518 51.2032 29.7747 51.2832C30.1975 51.3631 30.6322 51.3565 31.0524 51.2637C31.9604 51.0696 32.8167 50.6847 33.5646 50.1346C34.3684 49.5911 35.1689 48.9533 36.1679 48.5726C36.6892 48.364 37.2584 48.3054 37.8113 48.4033C38.3617 48.5303 38.8676 48.8035 39.2757 49.1941C39.642 49.541 40.0277 49.8669 40.4309 50.1703C40.8305 50.4499 41.2691 50.6692 41.7325 50.8212C42.6375 51.1247 43.6073 51.1797 44.5409 50.9806C46.3795 50.6259 47.6876 48.9338 49.6304 48.5986C50.1035 48.5035 50.5922 48.518 51.0589 48.6409C51.504 48.7795 51.9145 49.0113 52.263 49.321C52.5716 49.5976 52.8977 49.8541 53.2392 50.089C53.5597 50.3001 53.9141 50.4542 54.287 50.5446C54.9718 50.7214 55.6905 50.7194 56.3743 50.5388C57.058 50.3582 57.6839 50.005 58.192 49.513C58.6048 49.0265 58.9822 48.511 59.3212 47.9706C59.6444 47.4478 60.122 47.0385 60.688 46.7991C61.1999 46.6473 61.7459 46.6553 62.2532 46.8218C62.7088 46.9422 63.1058 47.0854 63.4703 47.1473C63.7437 47.217 64.0283 47.2319 64.3075 47.1911C64.5868 47.1504 64.8552 47.0547 65.0973 46.9097C65.2604 46.7974 65.4015 46.6562 65.5139 46.4932Z" fill="black" stroke="black" stroke-width="0.162707" stroke-miterlimit="10"/>
<path d="M75.1558 78.042C75.1514 78.1163 75.1302 78.1886 75.094 78.2535C75.0037 78.4524 74.878 78.6333 74.723 78.7872C74.0913 79.3456 73.2874 79.6706 72.4451 79.7081C71.9082 79.77 71.3127 79.7797 70.6814 79.8806C70.0037 79.9835 69.3652 80.263 68.8298 80.6909C68.2144 81.2007 67.6607 81.7806 67.1799 82.4188C66.6272 83.1583 65.9881 83.829 65.2762 84.4169C64.8659 84.727 64.4013 84.9577 63.9062 85.097C63.3862 85.2347 62.8434 85.2635 62.3117 85.1816C61.2281 85.0352 60.216 84.5666 59.1845 84.1533C58.1529 83.74 57.0628 83.3495 55.914 83.4472C54.7223 83.5782 53.5761 83.9788 52.5623 84.6186C51.4786 85.2337 50.4601 86.0212 49.3341 86.7436C48.1911 87.5324 46.9023 88.0856 45.5431 88.3707C44.8233 88.4991 44.0844 88.4725 43.3758 88.2926C42.6695 88.0992 41.9984 87.795 41.3875 87.3912C40.164 86.6297 39.0738 85.66 37.7526 85.2011C36.4314 84.7423 34.9964 84.9115 33.6784 85.3215C32.3698 85.7823 31.0878 86.3157 29.8385 86.9193C28.5914 87.5035 27.2548 87.8731 25.8847 88.0127C25.202 88.0627 24.5158 87.9922 23.8574 87.8045C23.2173 87.6092 22.6184 87.2981 22.0904 86.8868C21.0458 86.0928 20.2746 85.1003 19.4871 84.2281C19.1029 83.796 18.6897 83.3905 18.2505 83.0144C17.8312 82.6617 17.3604 82.3752 16.8545 82.165C15.8687 81.8057 14.7963 81.758 13.7826 82.0283C12.8192 82.2677 11.8688 82.5566 10.9352 82.8939C10.0617 83.1979 9.1508 83.3807 8.22774 83.4374C7.38636 83.4995 6.54391 83.332 5.79038 82.9525C5.45698 82.7654 5.15501 82.5271 4.89548 82.2464C4.66358 81.9864 4.45963 81.7028 4.28696 81.4003C3.96155 80.8308 3.71748 80.2841 3.46691 79.8188C3.12441 79.0846 2.57174 78.4685 1.87889 78.0485C1.62477 77.9259 1.35562 77.8373 1.07837 77.7849C1.1513 77.7693 1.22672 77.7693 1.29965 77.7849C1.51607 77.8092 1.72709 77.8686 1.92444 77.9607C2.66829 78.3545 3.27024 78.9712 3.64589 79.7244C3.91599 80.193 4.16981 80.7332 4.50173 81.2766C4.67349 81.5593 4.87298 81.8242 5.09724 82.0674C5.3421 82.318 5.62286 82.5307 5.9303 82.6987C6.6396 83.0356 7.42595 83.1772 8.20821 83.1087C9.0971 83.0373 9.97256 82.848 10.8115 82.5458C11.7535 82.191 12.7138 81.8869 13.6882 81.6346C14.7817 81.3378 15.9398 81.3821 17.0074 81.7615C17.5582 81.9851 18.0717 82.2912 18.5304 82.6694C18.9918 83.0562 19.4267 83.4737 19.832 83.919C20.6488 84.8009 21.4168 85.7674 22.3963 86.4995C22.8814 86.8772 23.4334 87.1599 24.0234 87.3326C24.6262 87.5018 25.2542 87.5624 25.8782 87.5116C27.1932 87.3706 28.4749 87.0086 29.6693 86.441C30.9338 85.8256 32.2321 85.2824 33.558 84.8139C34.2605 84.5904 34.9868 84.4506 35.722 84.3974C36.4807 84.3492 37.2415 84.4509 37.9609 84.6967C39.4188 85.2109 40.5252 86.2132 41.7032 86.9421C42.2681 87.3168 42.8886 87.6002 43.5418 87.7817C44.1802 87.9432 44.8457 87.9676 45.4943 87.8533C46.7833 87.5848 48.0065 87.0639 49.0933 86.3206C50.1932 85.6209 51.2346 84.8269 52.3475 84.1989C53.4316 83.5246 54.6565 83.1093 55.9271 82.9851C56.5407 82.947 57.1565 83.0108 57.7494 83.1738C58.3095 83.3285 58.8586 83.5209 59.3927 83.7498C60.4308 84.1793 61.4135 84.6382 62.4093 84.7781C62.8887 84.8586 63.3796 84.8386 63.8509 84.7195C64.2991 84.5969 64.7214 84.3941 65.0972 84.1208C65.7904 83.5557 66.4161 82.9125 66.9619 82.2041C67.4684 81.5557 68.0494 80.9691 68.6931 80.4566C69.2742 80.0124 69.9624 79.7296 70.6879 79.6365C71.3387 79.5454 71.9407 79.5519 72.4679 79.5064C73.2778 79.4931 74.061 79.2141 74.697 78.7124C74.8827 78.5132 75.0373 78.2872 75.1558 78.042Z" fill="black" stroke="black" stroke-width="0.162707" stroke-miterlimit="10"/>
</svg>
