<svg width="426" height="451" viewBox="0 0 426 451" fill="none" xmlns="http://www.w3.org/2000/svg">
<path d="M425 338.487C425 339.551 330.176 340.97 213.136 341.207C96.0953 341.502 1 340.497 1 339.433C1 338.369 95.8243 337.6 212.865 337.364C329.905 337.128 424.729 337.423 425 338.487Z" fill="black" stroke="black" stroke-width="0.0786642" stroke-miterlimit="10"/>
<path d="M318.693 325.342L303.323 322.978L306.279 349.581L318.693 353.128L334.655 349.581V322.978H330.517L318.693 325.342Z" fill="#2898A4"/>
<path d="M334.359 325.343L338.793 324.16H341.454L345.001 325.343L347.365 330.072V334.801L345.001 338.053L341.454 341.304H334.951L334.359 337.166H339.68L342.636 334.801V332.141L341.454 330.072L337.906 328.89L334.359 330.959V325.343Z" fill="#2898A4"/>
<path d="M334.894 348.194C334.953 348.075 335.485 348.134 336.372 348.489C336.786 348.666 337.318 348.903 337.909 349.258C338.205 349.435 338.5 349.612 338.796 349.849C339.091 350.085 339.446 350.322 339.801 350.795C340.155 351.268 340.274 352.036 339.978 352.687C339.682 353.337 339.209 353.692 338.737 353.987C338.5 354.164 338.264 354.283 337.968 354.401C337.672 354.519 337.436 354.578 337.199 354.697C336.667 354.815 336.194 355.051 335.603 355.11C333.416 355.642 330.992 355.938 328.391 355.938C323.248 355.938 318.755 354.992 315.562 354.283C312.37 353.514 310.419 352.923 310.478 352.687C310.537 352.45 312.547 352.568 315.799 352.923C319.05 353.278 323.484 353.987 328.391 353.987C330.815 353.987 333.12 353.751 335.189 353.337C335.722 353.278 336.194 353.1 336.667 352.982C336.904 352.923 337.14 352.864 337.318 352.805C337.495 352.746 337.732 352.627 337.85 352.568C338.204 352.391 338.441 352.154 338.559 351.977C338.677 351.8 338.677 351.622 338.559 351.445C338.441 351.209 338.205 350.972 337.968 350.736C337.732 350.499 337.436 350.263 337.199 350.085C336.727 349.671 336.254 349.376 335.899 349.08C335.249 348.607 334.835 348.312 334.894 348.194Z" fill="black" stroke="black" stroke-width="0.178501" stroke-miterlimit="10"/>
<path d="M335.13 350.085C335.249 350.322 334.835 350.913 333.889 351.622C332.943 352.332 331.465 353.041 329.691 353.514C327.918 353.928 326.263 353.987 325.139 353.81C323.957 353.632 323.307 353.278 323.307 353.041C323.366 352.509 326.085 352.45 329.218 351.622C332.411 350.795 334.835 349.612 335.13 350.085Z" fill="black" stroke="black" stroke-width="0.178501" stroke-miterlimit="10"/>
<path d="M337.909 350.499C338.086 350.676 337.85 351.327 337.081 352.036C336.372 352.805 335.071 353.573 333.534 354.046C331.997 354.519 330.519 354.519 329.455 354.283C328.45 354.046 327.859 353.691 327.918 353.455C328.036 352.923 330.342 353.041 332.943 352.213C335.604 351.445 337.495 350.144 337.909 350.499Z" fill="black" stroke="black" stroke-width="0.178501" stroke-miterlimit="10"/>
<path d="M337.495 351.445C337.081 351.799 336.135 351.326 335.189 350.676C334.244 350.026 333.416 349.376 333.593 348.903C333.652 348.666 334.007 348.489 334.48 348.489C334.953 348.489 335.603 348.666 336.254 349.08C336.845 349.494 337.318 350.026 337.495 350.44C337.731 350.913 337.672 351.267 337.495 351.445Z" fill="black" stroke="black" stroke-width="0.178501" stroke-miterlimit="10"/>
<path d="M338.479 352.012C338.557 351.495 337.6 350.923 336.341 350.733C335.082 350.543 333.998 350.807 333.92 351.324C333.842 351.841 334.799 352.413 336.058 352.603C337.317 352.793 338.401 352.529 338.479 352.012Z" fill="black" stroke="black" stroke-width="0.178501" stroke-miterlimit="10"/>
<path d="M305.948 345.813C306.335 345.751 305.897 341.049 304.97 335.311C304.043 329.574 302.978 324.974 302.591 325.036C302.204 325.099 302.642 329.8 303.569 335.538C304.496 341.275 305.561 345.875 305.948 345.813Z" fill="black" stroke="black" stroke-width="0.133876" stroke-miterlimit="10"/>
<path d="M333.475 349.849C333.534 350.026 332.234 350.913 329.869 351.8C329.278 352.036 328.628 352.273 327.859 352.45C327.15 352.687 326.381 352.864 325.553 353.041C323.898 353.337 322.006 353.573 320.055 353.573C318.104 353.573 316.213 353.396 314.557 353.1C313.73 352.923 312.961 352.805 312.193 352.568C311.483 352.391 310.774 352.155 310.183 351.918C307.759 351.031 306.458 350.145 306.517 350.026C306.636 349.849 308.054 350.381 310.478 350.972C311.069 351.15 311.72 351.268 312.429 351.386C313.139 351.563 313.907 351.623 314.735 351.8C316.331 351.977 318.105 352.155 319.996 352.155C321.888 352.155 323.662 351.977 325.258 351.741C326.085 351.623 326.854 351.504 327.504 351.327C328.214 351.209 328.864 351.031 329.455 350.854C331.938 350.204 333.416 349.672 333.475 349.849Z" fill="black" stroke="black" stroke-width="0.133876" stroke-miterlimit="10"/>
<path d="M335.12 345.171C335.511 345.15 335.625 341.432 335.373 336.868C335.122 332.304 334.601 328.622 334.21 328.643C333.819 328.665 333.705 332.382 333.957 336.946C334.208 341.51 334.729 345.193 335.12 345.171Z" fill="black" stroke="black" stroke-width="0.133876" stroke-miterlimit="10"/>
<path d="M338.5 337.138C338.559 336.961 339.446 337.138 340.451 336.429C340.924 336.074 341.338 335.542 341.574 334.774C341.811 334.005 341.811 333.059 341.633 332.113C341.456 331.167 340.983 330.399 340.451 329.867C339.919 329.335 339.21 329.157 338.618 329.157C337.377 329.157 336.845 329.926 336.667 329.808C336.608 329.748 336.608 329.512 336.845 329.098C337.081 328.743 337.673 328.27 338.5 328.152C338.914 328.093 339.387 328.034 339.86 328.152C340.333 328.27 340.865 328.507 341.279 328.862C342.165 329.571 342.757 330.635 343.052 331.818C343.289 333 343.23 334.182 342.875 335.187C342.52 336.192 341.752 337.02 340.983 337.316C340.215 337.67 339.505 337.67 339.091 337.552C338.618 337.434 338.441 337.197 338.5 337.138Z" fill="black" stroke="black" stroke-width="0.133876" stroke-miterlimit="10"/>
<path d="M337.377 341.336C337.377 341.217 337.85 341.217 338.618 341.04C339.387 340.922 340.451 340.626 341.633 340.035C342.816 339.385 344.116 338.38 345.003 336.902C345.89 335.424 346.422 333.473 346.244 331.522C346.067 329.512 345.121 327.798 343.88 326.556C342.638 325.315 341.16 324.723 339.86 324.546C338.559 324.369 337.436 324.546 336.726 324.723C335.958 324.901 335.603 325.078 335.544 325.019C335.485 324.96 335.84 324.605 336.549 324.191C337.258 323.837 338.5 323.423 339.978 323.541C341.456 323.6 343.348 324.251 344.826 325.61C346.304 326.97 347.486 329.039 347.722 331.404C347.959 333.769 347.309 336.015 346.185 337.67C345.062 339.385 343.525 340.449 342.106 340.981C340.746 341.572 339.505 341.69 338.677 341.631C337.79 341.572 337.377 341.454 337.377 341.336Z" fill="black" stroke="black" stroke-width="0.133876" stroke-miterlimit="10"/>
<path d="M331.347 323.6C331.465 323.955 325.671 325.551 318.4 325.669C311.069 325.788 305.335 324.31 305.394 323.955C305.453 323.541 311.246 324.369 318.4 324.25C325.494 324.132 331.229 323.186 331.347 323.6Z" fill="black" stroke="black" stroke-width="0.133876" stroke-miterlimit="10"/>
<path d="M306.399 319.344C306.34 319.521 306.044 319.639 305.63 319.758C305.216 319.876 304.684 320.053 304.152 320.349C303.62 320.644 303.147 320.94 302.852 321.236C302.497 321.472 302.261 321.708 302.083 321.59C301.906 321.531 301.847 321.176 302.024 320.644C302.201 320.112 302.733 319.462 303.502 319.107C304.271 318.693 305.098 318.693 305.63 318.812C306.162 318.871 306.458 319.166 306.399 319.344Z" fill="black" stroke="black" stroke-width="0.133876" stroke-miterlimit="10"/>
<path d="M307.936 257.447C308.054 257.506 307.522 258.275 306.813 259.753C306.162 261.231 305.394 263.536 305.453 266.433C305.453 267.852 305.749 269.389 306.281 271.044C306.813 272.64 307.581 274.355 308.291 276.188C309.059 278.02 309.828 280.03 310.064 282.277C310.183 283.4 310.123 284.582 309.828 285.765C309.532 286.947 309.059 287.952 308.705 289.016C308.527 289.548 308.35 290.021 308.291 290.553C308.172 291.026 308.172 291.558 308.172 292.031C308.172 293.036 308.468 294.041 308.705 295.046C309.296 297.056 310.123 299.007 310.36 301.135C310.537 303.264 310.123 305.156 309.65 306.87C309.177 308.584 308.645 310.121 308.291 311.54C307.64 314.378 307.877 316.743 308.527 318.221C309.177 319.699 309.946 320.29 309.828 320.349C309.828 320.408 308.882 319.994 307.995 318.457C307.167 316.92 306.695 314.319 307.286 311.304C307.581 309.826 308.054 308.23 308.468 306.574C308.882 304.919 309.237 303.086 309 301.313C308.823 299.48 307.995 297.588 307.345 295.519C307.049 294.455 306.754 293.332 306.695 292.149C306.695 291.558 306.695 290.908 306.813 290.317C306.931 289.726 307.108 289.134 307.286 288.602C307.7 287.479 308.113 286.474 308.35 285.528C308.586 284.523 308.645 283.518 308.586 282.513C308.409 280.503 307.7 278.611 306.99 276.779C306.281 274.946 305.512 273.232 305.039 271.517C304.507 269.803 304.271 268.088 304.33 266.551C304.448 263.477 305.394 261.112 306.222 259.634C307.167 258.038 307.877 257.388 307.936 257.447Z" fill="black" stroke="black" stroke-width="0.133876" stroke-miterlimit="10"/>
<path d="M331.051 317.807C330.933 318.22 326.676 316.92 321.297 316.742C315.917 316.506 311.542 317.393 311.483 316.979C311.424 316.802 312.488 316.329 314.262 315.915C316.035 315.501 318.577 315.205 321.356 315.324C324.134 315.442 326.676 315.974 328.391 316.565C330.105 317.097 331.11 317.629 331.051 317.807Z" fill="black" stroke="black" stroke-width="0.133876" stroke-miterlimit="10"/>
<path d="M318.282 289.903C318.4 289.962 318.282 290.376 318.518 291.144C318.636 291.558 318.814 291.972 319.109 292.504C319.405 293.036 319.701 293.627 319.996 294.396C320.114 294.81 320.292 295.223 320.292 295.696C320.351 296.169 320.233 296.701 320.055 297.234C319.701 298.239 319.05 299.007 318.518 299.835C318.282 300.249 318.045 300.662 317.927 301.017C317.809 301.431 317.809 301.845 317.927 302.259C318.104 303.086 318.814 303.973 319.523 304.86C320.233 305.747 321.06 306.692 321.533 307.875C321.77 308.466 321.888 309.116 321.829 309.707C321.829 310.299 321.651 310.89 321.474 311.422C320.706 313.491 319.464 314.851 319.05 316.211C318.577 317.57 318.696 318.753 318.991 319.462C319.287 320.171 319.76 320.408 319.701 320.526C319.701 320.585 319.582 320.526 319.346 320.467C319.109 320.349 318.814 320.171 318.518 319.758C317.927 318.989 317.691 317.511 318.045 315.974C318.4 314.319 319.582 312.782 320.173 311.008C320.469 310.121 320.528 309.235 320.173 308.348C319.819 307.461 319.109 306.633 318.4 305.747C318.045 305.274 317.631 304.801 317.336 304.328C316.981 303.796 316.686 303.264 316.567 302.554C316.449 301.904 316.449 301.194 316.626 300.603C316.804 300.012 317.099 299.48 317.395 299.066C317.986 298.179 318.636 297.47 318.932 296.761C319.228 296.051 319.168 295.401 318.991 294.691C318.814 293.982 318.518 293.391 318.282 292.8C318.045 292.208 317.927 291.676 317.868 291.203C317.868 290.376 318.223 289.903 318.282 289.903Z" fill="black" stroke="black" stroke-width="0.133876" stroke-miterlimit="10"/>
<path d="M326.499 308.703C326.381 308.644 326.558 308.171 326.677 307.225C326.795 306.279 326.854 304.919 326.44 303.323C326.322 302.909 326.204 302.495 326.026 302.141C325.849 301.727 325.612 301.313 325.435 300.781C325.199 300.308 325.08 299.658 325.021 299.066C324.962 298.475 325.021 297.825 325.139 297.234C325.376 296.051 325.731 294.869 325.967 293.746C326.144 292.622 326.085 291.44 325.79 290.199C325.199 287.775 323.898 285.587 322.952 283.459C322.006 281.331 321.474 279.144 321.711 277.311C321.888 275.478 322.716 274.118 323.425 273.409C324.134 272.7 324.726 272.522 324.785 272.581C324.844 272.7 324.371 272.995 323.898 273.764C323.366 274.532 322.834 275.774 322.775 277.37C322.716 279.025 323.248 280.917 324.253 282.927C325.199 284.937 326.558 287.124 327.268 289.844C327.622 291.204 327.682 292.623 327.445 293.982C327.209 295.283 326.795 296.406 326.558 297.47C326.322 298.534 326.322 299.48 326.677 300.308C326.854 300.781 327.031 301.195 327.209 301.668C327.386 302.141 327.504 302.613 327.563 303.027C327.918 304.86 327.622 306.338 327.327 307.284C326.913 308.289 326.558 308.762 326.499 308.703Z" fill="black" stroke="black" stroke-width="0.133876" stroke-miterlimit="10"/>
<path d="M334.303 326.556C333.889 326.438 334.126 324.724 333.535 322.773C333.002 320.822 331.938 319.462 332.175 319.166C332.293 319.048 332.766 319.225 333.357 319.758C333.948 320.29 334.54 321.236 334.894 322.418C335.249 323.6 335.19 324.723 334.953 325.492C334.776 326.201 334.48 326.615 334.303 326.556Z" fill="black" stroke="black" stroke-width="0.133876" stroke-miterlimit="10"/>
<path d="M111.927 161.745C111.062 162.178 112.045 165.993 112.714 168.038C113.579 170.595 115.271 174.253 118.968 178.107C119.401 179.681 120.227 182.001 121.918 184.361C123.727 186.918 125.733 188.334 127.582 189.671C129.076 190.772 131.2 192.11 133.993 193.29C134.15 194.784 134.543 198.206 134.74 199.74C139.893 244.893 137.021 217.282 139.342 237.027C140.168 244.107 140.443 246.939 141.859 251.304C143.668 256.89 146.068 261.137 147.877 263.851C149.018 264.284 150.591 264.835 152.557 265.307C153.816 265.582 158.969 266.723 165.891 265.7C173.718 264.52 179.225 261.295 187.288 256.536C193.817 252.681 198.104 249.22 201.054 246.821C207.701 241.393 209.825 238.522 210.494 237.578C212.972 234.077 213.955 231.284 215.568 226.761C217.101 222.513 217.219 220.625 216.511 218.895C215.764 217.086 214.388 215.984 213.365 215.394C211.556 215.866 209.314 216.535 206.718 217.479C204.083 218.462 200.661 219.917 197.042 221.963C195.351 222.907 192.794 224.48 186.658 229.278C176.786 237.027 175.685 239.033 170.375 242.022C166.284 244.343 162.587 245.601 160.227 246.27C159.795 244.854 159.087 242.651 158.064 240.016C155.901 234.549 154.681 233.408 153.147 229.475C151.81 226.132 151.299 223.143 150.316 217.204C149.49 212.366 149.018 209.494 148.978 205.404C148.9 199.425 148.9 196.436 149.726 192.7C150.198 190.576 150.827 188.57 150.08 186.052C149.804 185.109 148.939 183.929 147.248 181.647C145.399 179.13 143.354 176.77 141.702 174.174C139.853 171.264 139.263 169.651 137.572 169.336C136.785 169.179 135.723 169.336 135.212 169.966C134.347 170.988 134.858 173.27 136.864 175.393C135.566 175.118 133.639 174.568 131.672 173.27C129.47 171.854 128.25 170.202 126.008 167.134C124.592 165.206 122.35 161.903 121.21 160.211C119.597 157.851 118.732 156.475 117.945 156.671C117.198 156.829 116.883 158.441 116.765 159.582C116.569 159.464 115.153 158.638 114.327 159.149C113.461 159.7 113.304 161.706 114.641 163.83C113.579 162.65 112.478 161.47 111.927 161.745Z" fill="white"/>
<path d="M160.699 246.624C165.734 245.562 170.1 242.809 174.269 239.898C179.028 236.555 183.748 233.133 188.389 229.593C197.081 222.985 206.718 214.254 218.517 215.984C219.265 216.102 219.579 214.962 218.832 214.844C207.898 213.231 198.812 220.075 190.67 226.368C185.675 230.222 180.641 233.959 175.488 237.617C170.847 240.921 166.088 244.264 160.424 245.483C159.637 245.68 159.952 246.781 160.699 246.624Z" fill="black"/>
<path d="M161.132 247.214C160.188 242.454 157.631 238.285 155.704 233.88C153.62 229.081 152.046 224.047 150.984 218.934C148.86 208.668 148.9 198.009 151.024 187.743C151.181 186.996 150.04 186.681 149.883 187.429C147.798 197.458 147.68 207.842 149.568 217.911C150.552 223.103 152.046 228.216 154.092 233.093C156.097 237.892 158.969 242.415 159.991 247.568C160.149 248.276 161.289 247.961 161.132 247.214Z" fill="black"/>
<path d="M150.434 188.058C151.378 185.108 148.428 182.355 146.815 180.192C144.377 176.927 142.017 173.544 139.499 170.319C138.359 168.864 136.667 167.841 135.173 169.572C133.364 171.696 135.133 174.134 136.667 175.826C137.179 176.376 138.005 175.55 137.493 175C136.864 174.292 135.802 173.269 135.684 172.286C135.763 171.735 135.841 171.184 135.881 170.634C136.549 170.516 137.218 170.398 137.926 170.28C138.28 170.437 138.713 171.263 138.949 171.578C140.247 173.308 141.545 175.078 142.843 176.809C144.062 178.461 145.281 180.113 146.5 181.725C147.68 183.338 150.001 185.58 149.332 187.783C149.057 188.491 150.198 188.805 150.434 188.058Z" fill="black"/>
<path d="M134.268 192.739C130.256 190.733 126.008 188.53 123.137 184.99C119.479 180.507 119.676 173.938 119.243 168.432C119.125 167.134 119.007 165.796 118.968 164.498C118.968 163.83 118.968 163.161 119.007 162.493C119.047 162.217 119.361 159.779 119.755 159.621C121.013 159.11 121.839 166.662 121.918 167.37C122.508 171.578 123.452 176.023 126.992 178.776C127.582 179.248 128.408 178.422 127.818 177.95C122.39 173.742 123.688 166.19 121.8 160.329C121.407 159.11 120.581 157.065 119.086 158.481C117.355 160.133 117.709 164.066 117.867 166.111C118.103 169.808 118.457 173.466 118.929 177.124C119.243 179.681 119.833 182.119 121.249 184.322C124.16 188.766 129.116 191.402 133.717 193.722C134.347 194.116 134.937 193.093 134.268 192.739Z" fill="black"/>
<path d="M120.069 178.54C117.159 174.961 114.13 171.264 112.911 166.701C112.635 165.639 112.242 164.223 112.399 163.083C112.478 162.571 112.281 162.257 112.989 162.414C113.304 162.493 113.855 163.751 114.051 164.027C115.389 166.072 116.726 168.078 118.024 170.123C118.457 170.752 119.479 170.162 119.047 169.533C117.985 167.92 116.962 166.347 115.9 164.735C115.153 163.633 114.327 161.431 113.147 160.723C111.416 159.621 111.219 162.021 111.219 163.161C111.219 169.533 115.389 174.764 119.204 179.405C119.715 179.956 120.541 179.13 120.069 178.54Z" fill="black"/>
<path d="M115.821 164.341C115.507 163.594 115.231 162.807 115.035 162.02C114.956 161.666 114.366 159.818 114.681 159.582C114.995 159.346 117.552 162.768 117.827 163.122C118.299 163.712 119.125 162.886 118.653 162.296C117.788 161.234 116.962 160.093 116.018 159.07C115.507 158.48 114.681 157.969 113.934 158.559C113.344 159.031 113.422 159.857 113.501 160.526C113.698 161.942 114.091 163.318 114.642 164.616C114.995 165.324 116.136 165.009 115.821 164.341Z" fill="black"/>
<path d="M118.024 161.391C118.063 160.565 117.749 159.857 117.513 159.07C117.395 158.716 117.277 158.363 117.316 157.969C117.355 157.733 117.355 157.537 117.552 157.379C117.591 157.34 118.26 157.065 118.142 157.458C117.945 158.205 119.086 158.52 119.283 157.773C119.637 156.396 117.867 155.531 116.805 156.357C115.153 157.655 116.883 159.818 116.805 161.352C116.805 162.138 117.985 162.138 118.024 161.391Z" fill="black"/>
<path d="M119.676 158.126C122.783 166.071 128.565 172.64 136.038 176.73C136.707 177.084 137.297 176.062 136.628 175.708C129.43 171.775 123.806 165.481 120.777 157.812C120.541 157.104 119.4 157.418 119.676 158.126Z" fill="black"/>
<path d="M133.206 193.643C135.173 206.938 136.864 220.271 138.319 233.605C139.46 244.185 140.718 255.355 147.326 264.126C147.759 264.716 148.821 264.126 148.349 263.536C141.387 254.333 140.482 242.454 139.263 231.402C137.847 218.698 136.235 205.994 134.386 193.368C134.268 192.581 133.127 192.896 133.206 193.643Z" fill="black"/>
<path d="M147.916 264.284C159.873 269.515 172.971 265.582 183.709 259.328C189.491 255.945 195.036 252.012 200.346 247.961C205.105 244.342 209.629 240.291 212.696 235.099C216.197 229.16 217.613 222.159 216.826 215.315C216.748 214.568 215.568 214.568 215.646 215.315C216.315 221.294 215.332 227.39 212.618 232.779C209.983 238.049 205.774 242.219 201.211 245.798C196.492 249.534 191.536 252.996 186.462 256.221C181.191 259.603 175.567 262.593 169.51 264.205C162.627 266.054 155.193 266.132 148.546 263.222C147.798 262.986 147.208 263.969 147.916 264.284Z" fill="black"/>
<path d="M112.596 396.125C114.681 402.694 116.765 409.262 118.85 415.87C112.95 420.826 107.719 424.13 103.864 426.332C99.1444 429.046 93.7952 431.524 91.4746 436.952C91.1599 437.739 90.098 440.098 91.0813 441.16C92.0646 442.262 94.6998 441.436 96.5878 440.767C103.746 438.21 109.371 434.828 111.141 433.766C119.872 428.574 120.974 429.518 131.318 423.264C134.229 421.494 136.589 419.921 138.162 418.859C137.65 416.381 136.864 412.92 135.881 408.829C134.779 404.228 133.639 399.508 131.79 393.529C130.925 390.776 129.745 387.079 128.132 382.713C122.94 387.157 117.788 391.641 112.596 396.125Z" fill="black"/>
<path d="M97.9645 396.125C99.1445 396.715 100.875 397.462 102.999 398.092C109.685 399.98 115.271 398.918 119.047 398.131C129.863 395.928 138.123 390.186 142.213 386.961C140.954 381.14 139.814 375.043 138.87 368.632C137.179 357.698 136.195 347.393 135.684 337.835C138.162 339.448 141.623 341.65 145.871 343.971C151.849 347.275 156.294 349.713 162.39 351.64C167.307 353.214 172.735 354.905 179.933 354.394C181.585 354.276 188.743 353.686 196.688 349.202C200.307 347.196 211.28 341.06 214.938 328.474C215.843 325.288 217.416 319.939 215.292 314.511C212.028 306.094 201.29 300.784 188.389 301.256C185.085 299.879 179.736 297.638 173.128 294.766C162.312 290.086 157.592 287.804 149.254 284.697C137.533 280.292 133.324 279.741 130.531 279.505C126.284 279.191 121.288 278.837 115.507 281.157C108.702 283.911 104.887 288.67 103.432 290.558C101.229 293.39 99.3018 296.851 96.9419 305.622C94.3853 315.101 93.284 323.321 92.6547 330.48C92.1434 336.498 91.3174 346.134 92.0254 358.838C92.5367 368.711 94.0706 381.494 97.9645 396.125Z" fill="#EBEBEB"/>
<path opacity="0.19" d="M142.252 386.489C139.303 388.455 136.353 390.422 133.403 392.388C133.167 386.489 133.009 380.431 132.931 374.256C132.773 359.349 133.206 345.151 134.032 331.66C136.982 333.272 141.23 335.396 146.5 337.481C153.226 340.116 162.666 343.853 173.875 344.403C179.697 344.679 191.575 344.364 205.695 337.205C204.201 340.981 201.211 346.37 195.547 349.792C192.716 351.522 190.041 352.27 187.445 352.978C187.445 352.978 180.641 354.826 173.325 354.63C164.436 354.394 149.726 349.005 135.133 336.93C137.533 353.45 139.893 369.969 142.252 386.489Z" fill="#9B9797"/>
<path d="M98.5544 395.968C91.5927 369.969 90.4127 342.555 95.2505 316.084C97.2171 305.425 99.7737 292.996 108.623 285.759C118.692 277.46 132.773 279.387 144.18 283.439C151.613 286.074 158.811 289.378 166.088 292.485C173.403 295.592 180.759 298.699 188.074 301.807C188.782 302.082 189.372 301.099 188.664 300.784C175.213 295.081 161.84 289.063 148.231 283.714C137.021 279.309 123.924 276.162 112.517 281.826C102.291 286.9 97.9645 298.149 95.5259 308.611C92.4186 322.063 91.0027 335.947 91.0813 349.752C91.16 365.446 93.284 381.139 97.3352 396.282C97.6105 396.99 98.7511 396.676 98.5544 395.968Z" fill="black"/>
<path d="M97.8858 396.793C113.265 404.148 129.627 396.085 142.528 387.432C143.157 387 142.567 385.977 141.938 386.41C129.43 394.748 113.422 402.89 98.4758 395.771C97.8071 395.417 97.2172 396.439 97.8858 396.793Z" fill="black"/>
<path d="M142.842 386.331C139.066 368.829 136.628 351.09 135.566 333.194C135.527 332.446 134.347 332.446 134.386 333.194C135.487 351.169 137.926 369.025 141.702 386.646C141.859 387.393 143 387.079 142.842 386.331Z" fill="black"/>
<path d="M135.369 338.267C144.494 344.285 154.524 349.792 164.986 353.095C174.78 356.203 185.242 355.495 194.446 350.814C195.115 350.46 194.525 349.438 193.856 349.792C184.416 354.59 173.875 354.905 163.924 351.522C154.052 348.14 144.652 342.987 135.959 337.284C135.33 336.851 134.74 337.874 135.369 338.267Z" fill="black"/>
<path d="M113.107 399.626C115.31 404.935 117.041 410.403 118.299 415.988C118.378 415.752 118.496 415.555 118.574 415.319C112.517 419.095 106.696 423.264 101.15 427.748C98.3578 430.029 95.6045 432.35 92.93 434.789C91.4747 436.126 88.7214 437.974 89.7047 440.295C90.688 442.616 93.4806 442.616 95.4865 441.868C98.7904 440.649 101.976 438.918 105.123 437.384C112.045 434.041 118.889 430.501 125.694 426.883C129.469 424.877 133.324 422.95 137.061 420.826C137.769 420.432 138.713 419.882 138.241 418.938C137.965 418.348 137.375 418.269 136.825 418.584C136.156 418.977 136.746 420 137.415 419.606C136.943 419.528 136.471 419.685 136.117 420C135.684 420.236 135.212 420.472 134.779 420.708C133.875 421.18 133.009 421.652 132.105 422.124C130.531 422.95 128.997 423.776 127.424 424.602C124.317 426.253 121.17 427.905 118.024 429.518C111.534 432.901 104.966 436.165 98.3578 439.233C96.6665 440.02 94.1886 441.632 92.222 441.003C88.7214 439.902 92.1826 436.952 93.4413 435.772C96.1159 433.333 98.8298 430.973 101.622 428.731C107.168 424.208 113.029 420.078 119.086 416.263C119.322 416.106 119.4 415.87 119.361 415.594C118.103 409.97 116.372 404.503 114.169 399.232C113.933 398.603 112.793 398.918 113.107 399.626Z" fill="black"/>
<path d="M131.2 393.686C133.324 402.143 135.448 410.56 137.572 419.016C137.769 419.763 138.909 419.449 138.713 418.702C136.589 410.245 134.465 401.828 132.341 393.372C132.144 392.624 131.004 392.939 131.2 393.686Z" fill="black"/>
<path d="M225.125 206.977C218.793 210.91 214.899 215.394 211.752 219.091C201.801 230.655 197.711 242.848 195.941 249.652C193.895 257.597 195.036 258.581 193.345 266.526C190.591 279.427 185.006 289.063 180.798 295.12C186.54 300.705 196.727 309.162 211.555 315.062C223.866 319.939 234.879 321.276 242.313 321.551C244.909 313.292 248.134 302.436 251.399 289.496C257.535 265.346 255.804 265.739 261.783 239.701C267.958 212.956 270.829 207.921 266.974 203.319C259.816 194.705 238.419 198.757 225.125 206.977Z" fill="#FF7372"/>
<path d="M143.55 404.11C146.146 409.616 148.781 415.123 151.377 420.629C148.034 423.815 145.438 426.765 143.472 429.125C137.768 436.087 134.622 441.947 133.993 443.206C132.616 445.802 131.633 448.083 130.964 449.735C132.97 449.342 135.88 448.594 139.145 447.178C144.534 444.818 148.034 441.868 150.433 439.823C156.53 434.592 163.688 428.378 171.712 421.14C170.178 418.072 168.683 414.887 167.189 411.583C164.278 405.132 161.722 398.878 159.44 392.821C154.131 396.597 148.821 400.373 143.55 404.11Z" fill="black"/>
<path d="M122.665 401.789C120.934 398.446 118.81 394.08 116.686 388.967C114.208 383.028 111.141 374.925 108.545 365.013C105.595 353.804 104.139 343.735 103.392 335.514C102.33 323.597 101.701 316.792 103.785 307.589C105.28 301.099 106.971 294.058 113.068 288.159C118.81 282.573 125.457 280.921 128.761 280.135C137.69 278.05 144.927 279.781 153.423 281.826C162.862 284.107 169.785 287.372 172.695 288.867C175.488 290.282 179.146 292.328 197.75 305.858C202.155 309.083 205.852 311.797 208.409 313.685C213.05 315.691 218.635 317.697 225.125 319.192C228.98 320.096 232.598 320.686 235.902 321.04C235.115 323.597 233.896 326.901 232.126 330.637C231.418 332.092 228.586 337.953 223.119 344.993C219.579 349.556 216.275 353.725 210.69 357.658C206.324 360.726 203.178 361.788 201.644 362.26C197.829 363.401 194.682 363.401 193.463 363.362C189.765 363.283 186.226 362.378 180.444 359.625C174.78 356.95 170.06 353.961 164.436 349.949C160.148 346.881 154.485 342.555 148.073 336.93C149.332 340.785 150.709 344.679 152.203 348.651C157.002 361.592 162.312 373.431 167.818 384.247C167.818 385.859 167.543 388.613 166.009 391.445C164.79 393.687 163.138 395.299 160.62 397.03C152.479 402.694 143.511 404.07 143.511 404.07C134.15 405.565 126.559 403.284 122.665 401.789Z" fill="#EBEBEB"/>
<path d="M123.176 401.514C110.197 376.262 102.684 347.314 103.274 318.837C103.55 305.897 107.089 291.305 118.928 284.107C124.946 280.449 132.223 280.056 139.106 280.371C145.674 280.685 152.125 281.865 158.418 283.793C172.892 288.198 186.029 296.3 197.357 306.291C197.907 306.802 198.773 305.976 198.183 305.465C187.917 296.418 176.235 288.945 163.374 284.225C157.002 281.905 150.394 280.292 143.668 279.545C136.825 278.797 129.312 278.601 122.783 280.961C110.511 285.405 104.336 298.267 102.724 310.46C101.74 317.815 102.016 325.288 102.566 332.643C103.117 339.998 104.1 347.314 105.555 354.551C108.859 371.071 114.484 387.079 122.193 402.064C122.508 402.772 123.53 402.182 123.176 401.514Z" fill="black"/>
<path d="M140.679 318.602C148.152 341.139 157.041 363.204 167.346 384.64C167.661 385.309 168.684 384.719 168.369 384.05C158.103 362.732 149.254 340.785 141.82 318.326C141.544 317.54 140.443 317.854 140.679 318.602Z" fill="black"/>
<path d="M122.508 402.812C131.711 407.256 142.213 405.368 151.456 402.025C159.362 399.154 169.667 393.883 168.015 383.775C167.897 383.028 166.756 383.342 166.874 384.09C168.526 394.198 156.884 399.036 149.214 401.553C140.797 404.346 131.318 405.801 123.058 401.789C122.429 401.474 121.8 402.497 122.508 402.812Z" fill="black"/>
<path d="M148.113 337.992C159.48 348.179 171.751 358.563 186.816 362.535C194.525 364.541 201.88 364.227 208.684 359.821C214.938 355.77 220.169 349.949 224.614 344.049C229.766 337.127 233.778 329.418 236.492 321.237C236.728 320.529 235.587 320.214 235.351 320.922C230.75 334.57 222.451 347.511 211.162 356.557C208.094 358.995 204.672 361.119 200.857 362.063C196.767 363.086 192.479 362.614 188.428 361.67C181.27 359.979 174.583 356.714 168.448 352.702C161.486 348.14 155.153 342.673 148.939 337.127C148.388 336.655 147.523 337.481 148.113 337.992Z" fill="black"/>
<path d="M143.039 404.424C145.635 409.93 148.27 415.437 150.866 420.943C151.181 421.612 152.203 421.022 151.889 420.353C149.293 414.847 146.658 409.341 144.062 403.834C143.708 403.126 142.685 403.755 143.039 404.424Z" fill="black"/>
<path d="M150.866 420.747C141.938 428.653 134.937 438.525 130.374 449.538C130.099 450.246 131.239 450.561 131.515 449.853C135.999 438.997 142.921 429.361 151.732 421.573C152.282 421.101 151.417 420.275 150.866 420.747Z" fill="black"/>
<path d="M130.728 450.049C134.386 451.387 138.083 448.515 141.072 446.706C144.927 444.346 148.664 441.829 152.321 439.154C159.441 433.884 166.048 427.984 172.145 421.573C172.656 421.022 171.83 420.196 171.319 420.747C165.616 426.765 159.441 432.311 152.833 437.345C149.686 439.705 146.461 441.947 143.157 444.071C141.387 445.172 139.617 446.274 137.808 447.336C135.763 448.515 133.481 449.813 131.082 448.948C130.335 448.633 130.02 449.774 130.728 450.049Z" fill="black"/>
<path d="M161.092 397.108C163.767 405.368 167.071 413.352 171.004 421.061C171.358 421.73 172.381 421.14 172.027 420.471C168.133 412.841 164.868 404.935 162.233 396.794C161.997 396.046 160.856 396.361 161.092 397.108Z" fill="black"/>
<path d="M224.024 147.546C222.293 148.962 220.798 151.126 217.849 155.492C214.269 160.762 210.572 165.954 208.724 173.427C207.937 176.613 206.678 182.001 207.622 188.806C208.96 198.482 213.915 205.207 216.669 208.393C218.635 208.236 220.877 207.961 223.276 207.41C226.62 206.702 229.53 205.719 231.89 204.735C232.755 206.623 233.778 208.629 234.958 210.674C236.807 213.939 238.734 216.771 240.543 219.249C241.605 218.305 243.178 216.85 244.988 214.962C249 210.714 250.612 207.882 252.736 205.089C259.029 196.83 262.333 198.639 266.542 192.149C270.318 186.328 270.632 180.349 270.75 177.557C271.34 166.583 266.266 158.795 264.85 156.632C263.08 153.958 259.58 148.923 253.011 145.659C244.004 141.135 231.733 141.214 224.024 147.546Z" fill="white"/>
<path d="M211.831 165.128C212.735 162.414 214.977 156.75 220.602 152.188C230.592 144.085 242.746 146.366 244.555 146.72C244.712 149.71 245.499 155.727 249.432 161.942C252.264 166.386 255.607 169.179 257.849 170.792C258.557 170.792 261.075 170.792 263.041 172.64C265.873 175.354 264.929 179.563 264.772 180.153C264.575 180.939 264.103 182.985 262.255 184.519C258.715 187.508 253.72 185.659 253.523 185.581C252.658 186.682 251.36 188.57 250.77 191.126C249.944 194.627 250.73 197.734 251.95 200.841C255.607 210.202 258.715 218.187 266.502 221.137C276.847 225.07 290.22 218.266 295.451 208.472C301.508 197.105 293.917 183.575 288.686 174.017C285.185 167.566 281.252 162.925 278.499 159.975C277.712 156.514 275.47 148.569 268.43 141.607C266.974 140.152 257.181 130.83 242.392 131.106C229.845 131.342 213.955 138.5 210.69 151.598C209.392 157.025 210.69 162.021 211.831 165.128Z" fill="black"/>
<path d="M210.14 198.285C209.668 200.841 209.235 204.578 209.707 209.062C210.179 213.546 210.926 220.547 214.978 223.418C219.933 226.958 229.845 224.362 238.38 216.338C236.532 212.326 234.683 208.314 232.874 204.302C230.671 205.246 228.075 206.19 225.125 206.977C222.175 207.764 219.461 208.196 217.101 208.472C214.781 205.05 212.46 201.667 210.14 198.285Z" fill="black"/>
<path d="M220.169 151.755C213.05 159.739 207.858 169.612 206.875 180.389C205.931 190.654 209.078 201.274 216.236 208.826C216.747 209.376 217.573 208.55 217.062 208C210.1 200.684 207.111 190.379 208.055 180.428C208.999 170.005 214.112 160.369 220.995 152.659C221.506 152.03 220.68 151.204 220.169 151.755Z" fill="black"/>
<path d="M216.865 208.944C232.323 208.157 246.011 198.796 254.074 185.856C254.467 185.226 253.444 184.636 253.051 185.266C245.185 197.813 231.89 207.016 216.826 207.764C216.118 207.803 216.079 208.983 216.865 208.944Z" fill="black"/>
<path d="M250.416 189.828C249.786 194.43 250.416 198.953 252.343 203.201C252.657 203.909 253.68 203.28 253.365 202.611C251.596 198.678 250.966 194.43 251.556 190.143C251.635 189.396 250.494 189.081 250.416 189.828Z" fill="black"/>
<path d="M232.126 205.129C233.739 210.478 236.492 215.316 240.189 219.485C240.701 220.036 241.526 219.21 241.015 218.659C237.436 214.647 234.801 209.967 233.227 204.814C233.07 204.067 231.929 204.381 232.126 205.129Z" fill="black"/>
<path d="M240.701 219.799C243.69 218.698 245.853 216.535 247.741 214.057C250.18 210.832 252.264 207.371 254.113 203.791C254.467 203.123 253.444 202.533 253.09 203.201C251.517 206.191 249.826 209.101 247.898 211.854C245.932 214.647 243.729 217.44 240.425 218.659C239.678 218.934 239.953 220.075 240.701 219.799Z" fill="black"/>
<path d="M215.725 188.688C218.281 190.497 221.31 189.828 223.945 188.531C226.856 187.075 229.648 185.187 231.104 182.198C231.458 181.529 230.435 180.939 230.081 181.608C228.075 185.659 220.681 190.812 216.315 187.665C215.725 187.233 215.135 188.255 215.725 188.688Z" fill="black"/>
<path d="M221.158 162.273C221.767 160.762 221.868 159.379 221.385 159.184C220.901 158.989 220.016 160.057 219.407 161.568C218.798 163.079 218.697 164.462 219.181 164.657C219.664 164.852 220.55 163.784 221.158 162.273Z" fill="black"/>
<path d="M238.596 166.867C239.204 165.356 239.306 163.973 238.822 163.778C238.338 163.583 237.453 164.65 236.844 166.162C236.236 167.673 236.134 169.056 236.618 169.251C237.101 169.445 237.987 168.378 238.596 166.867Z" fill="black"/>
<path d="M221.192 154.311C222.726 152.895 225.243 152.62 226.305 154.744C226.659 155.413 227.642 154.823 227.328 154.154C225.951 151.322 222.411 151.558 220.366 153.485C219.815 153.997 220.641 154.823 221.192 154.311Z" fill="black"/>
<path d="M236.964 158.048C240.111 156.042 243.768 156.593 244.791 160.565C244.988 161.312 246.128 160.998 245.932 160.25C244.712 155.57 240.189 154.626 236.374 157.025C235.745 157.458 236.335 158.481 236.964 158.048Z" fill="black"/>
<path d="M257.849 171.381C262.923 171.145 265.48 176.101 264.064 180.585C262.766 184.636 258.282 187.35 254.427 184.676C253.798 184.243 253.208 185.266 253.837 185.698C258.321 188.806 263.71 185.659 265.204 180.9C266.817 175.669 263.71 169.926 257.889 170.201C257.102 170.241 257.102 171.421 257.849 171.381Z" fill="black"/>
<path d="M260.996 199.543C258.557 200.92 257.102 202.926 255.529 205.758C251.596 212.916 250.337 219.524 249.944 221.451C245.971 242.179 247.112 233.369 245.578 243.28C244.437 250.675 243.06 260.547 241.802 272.347C240.504 274.864 239.049 278.129 237.987 282.141C236.767 286.703 236.531 290.322 236.374 292.957C235.351 310.656 235.981 311.404 235.194 320.961C234.761 326.35 235.351 331.778 234.643 337.127C234.447 338.661 234.014 341.807 235.627 344.915C235.941 345.505 237.043 347.55 239.363 348.926C241.448 350.185 243.65 350.185 247.977 350.146C251.163 350.106 253.719 349.831 255.332 349.634C259.501 349.084 261.979 349.005 264.772 347.707C265.834 347.196 267.564 346.409 267.486 345.505C267.446 345.269 267.25 344.6 264.182 343.695C262.451 343.184 259.973 342.633 256.866 342.555C257.338 341.925 258.125 341.099 259.265 340.391C259.659 340.155 260.721 339.565 264.496 339.054C266.699 338.739 267.918 338.582 269.649 338.661C272.599 338.739 273.189 339.329 275.037 338.857C276.139 338.582 276.847 338.189 278.341 337.323C279.993 336.379 280.977 335.789 281.724 334.61C282.393 333.587 282.55 332.525 282.629 331.856C281.724 330.598 280.033 328.631 277.358 327.136C276.06 326.428 272.992 324.737 269.098 325.248C266.345 325.602 264.457 326.861 262.727 328.08C260.17 329.811 258.479 331.778 257.456 333.154C254.899 333.705 252.304 334.295 249.747 334.846C252.304 322.141 254.545 311.364 256.276 303.105C258.675 291.777 261.586 277.971 265.637 259.997C266.03 258.227 267.368 252.563 270.003 241.196C271.616 234.273 272.284 227.154 274.33 220.35C274.723 219.013 276.06 214.765 275.863 209.337C275.745 206.426 275.234 204.027 273.779 201.824C273.189 200.959 272.324 199.622 270.672 198.717C266.502 196.475 261.625 199.15 260.996 199.543Z" fill="white"/>
<path opacity="0.35" d="M259.265 340.352C260.288 339.998 261.743 339.526 263.553 339.172C266.581 338.582 269.059 338.622 269.61 338.622C272.953 338.7 273.268 339.33 274.998 338.818C275.785 338.582 275.392 338.543 278.853 336.734C280.741 335.75 281.527 335.357 281.724 334.57C281.881 333.823 281.409 333.076 280.977 332.604C278.577 331.856 276.021 331.149 273.346 330.519C271.773 330.126 270.239 329.811 268.744 329.497C267.407 331.031 266.109 332.604 264.733 334.138C262.884 336.222 261.075 338.307 259.265 340.352Z" fill="#9B9797"/>
<path d="M240.818 271.914C236.177 281.983 235.548 293.114 235.155 304.009C234.722 316.556 234.329 329.103 233.896 341.611C233.857 342.358 235.037 342.358 235.076 341.611C235.469 329.536 235.863 317.5 236.295 305.425C236.649 294.255 237.082 282.809 241.841 272.504C242.156 271.835 241.133 271.206 240.818 271.914Z" fill="black"/>
<path d="M242.392 272.347C243.454 261.019 244.988 249.77 247.033 238.6C248.016 233.211 249.117 227.862 250.337 222.513C251.556 217.282 252.933 212.051 255.411 207.292C257.417 203.398 260.72 199.11 265.322 198.284C270.907 197.301 274.605 202.65 275.195 207.606C275.785 212.995 274.093 218.659 273.071 223.89C272.009 229.278 270.868 234.667 269.688 240.055C267.014 252.287 264.064 264.48 260.878 276.634C260.681 277.381 261.822 277.696 262.018 276.949C265.204 264.834 268.154 252.641 270.829 240.37C272.127 234.352 273.385 228.374 274.605 222.316C275.627 217.085 277.24 211.382 276.178 206.033C275.431 202.336 272.992 198.599 269.255 197.38C265.244 196.082 261.232 198.206 258.478 200.998C255.017 204.538 253.011 209.337 251.517 213.978C249.707 219.563 248.567 225.345 247.387 231.087C244.634 244.696 242.628 258.463 241.33 272.307C241.133 273.094 242.313 273.094 242.392 272.347Z" fill="black"/>
<path d="M261.074 275.965C257.102 295.867 253.09 315.73 249.118 335.632C248.96 336.379 250.101 336.694 250.258 335.947C254.231 316.045 258.243 296.182 262.215 276.28C262.372 275.533 261.232 275.218 261.074 275.965Z" fill="black"/>
<path d="M234.053 341.65C234.565 345.583 237.2 349.084 241.054 350.303C243.729 351.168 246.679 350.775 249.432 350.578C252.303 350.382 255.214 350.224 258.085 349.949C260.406 349.752 262.648 349.28 264.772 348.258C265.834 347.746 268.272 346.802 268.036 345.268C267.8 343.774 265.244 342.751 264.024 342.397C262.923 342.043 261.743 341.886 260.602 341.965C258.911 342.083 257.299 342.672 255.607 342.122C254.899 341.886 254.585 343.026 255.293 343.262C257.102 343.852 258.754 343.262 260.602 343.144C262.451 343.026 264.772 343.538 266.188 344.836C267.328 345.937 265.834 346.448 264.811 346.96C263.867 347.432 262.884 347.864 261.861 348.14C259.855 348.73 257.771 348.808 255.686 348.966C251.753 349.241 247.584 349.949 243.65 349.595C239.324 349.202 235.863 345.976 235.273 341.65C235.155 340.903 233.975 340.903 234.053 341.65Z" fill="black"/>
<path d="M257.299 342.79C260.957 339.723 263.907 336.065 266.817 332.328C267.84 330.991 268.272 330.008 270.278 330.283C271.458 330.44 272.717 330.951 273.858 331.266C276.375 331.935 278.892 332.643 281.37 333.311C282.117 333.508 282.432 332.367 281.685 332.171C278.813 331.384 275.942 330.598 273.071 329.811C271.144 329.3 269.02 328.12 267.368 329.654C265.44 331.463 263.985 334.019 262.255 336.065C260.445 338.189 258.557 340.155 256.433 341.925C255.883 342.436 256.709 343.262 257.299 342.79Z" fill="black"/>
<path d="M256.04 334.334C258.046 332.918 259.934 331.424 261.743 329.811C264.103 327.687 266.03 324.816 269.57 325.524C274.29 326.468 279.049 328.474 282.196 332.289C282.668 332.879 283.494 332.053 283.022 331.463C279.679 327.373 274.29 325.091 269.138 324.265C266.542 323.833 264.89 325.209 263.12 326.901C260.72 329.261 258.164 331.385 255.411 333.351C254.821 333.744 255.411 334.767 256.04 334.334Z" fill="black"/>
<path d="M250.848 334.57C253.247 334.138 255.607 333.587 257.967 332.958C258.715 332.761 258.4 331.62 257.653 331.817C255.293 332.446 252.933 332.997 250.534 333.43C249.786 333.587 250.101 334.688 250.848 334.57Z" fill="black"/>
<path d="M266.345 333.665C269.688 331.935 273.228 333.311 276.611 334.177C278.577 334.688 281.016 335.357 282.628 333.665C283.14 333.115 282.314 332.289 281.802 332.84C279.797 334.963 274.487 332.171 272.087 331.778C269.885 331.424 267.761 331.542 265.794 332.603C265.047 332.997 265.637 334.019 266.345 333.665Z" fill="black"/>
<path d="M263.434 337.088C266.188 333.469 271.222 336.026 274.723 336.734C277.358 337.284 280.229 337.088 282.157 334.964C282.668 334.413 281.842 333.587 281.331 334.138C276.257 339.644 267.446 329.89 262.451 336.458C261.94 337.088 262.962 337.678 263.434 337.088Z" fill="black"/>
<path d="M259.423 340.942C261.507 340.431 263.592 339.841 265.676 339.369C267.722 338.897 269.413 339.33 271.419 339.526C274.29 339.841 277.24 339.369 279.285 337.166C279.797 336.616 278.971 335.79 278.459 336.34C275.824 339.212 272.245 338.307 268.862 337.953C265.637 337.599 262.176 339.054 259.108 339.841C258.361 339.959 258.675 341.099 259.423 340.942Z" fill="black"/>
<path d="M65.0347 70.5081C65.9246 76.0698 66.884 81.7456 67.7739 87.3073C65.2128 91.0618 62.6517 94.8163 60.0906 98.5709C63.2232 97.6765 66.2641 96.7598 69.3967 95.8654C68.515 103.526 68.4304 107.491 69.2568 107.691C69.8996 107.846 70.9839 105.776 72.6016 101.501C72.8708 106.816 73.3489 112.472 74.1973 118.607C74.9731 124.238 75.9296 129.525 76.9972 134.352C78.0296 134.504 79.4515 134.654 81.2851 134.709C89.8357 135.126 96.4016 133.701 101.001 132.773C113.651 129.904 117.471 128.982 122.206 127.892C132.478 125.615 140.691 123.811 151.133 122.838C158.3 122.143 164.144 122.099 167.903 122.231C168.113 119.754 168.359 115.926 168.118 111.298C167.767 104.312 166.689 101.135 164.969 91.7754C164.489 88.9375 163.786 83.8098 162.493 73.4847C161.497 65.953 160.715 59.5426 160.151 54.643C151.223 55.7874 143.989 56.7586 139.067 57.4145C118.144 60.3223 117.302 60.9932 102.58 62.7771C93.5603 63.8993 90.8113 64.0118 84.5653 65.3193C76.1908 66.9865 69.4693 69.0538 65.0347 70.5081Z" fill="white"/>
<path d="M88.7798 77.2264C88.4821 77.2515 88.5844 75.6237 87.6736 73.362C87.1612 72.2659 86.3955 71.0114 85.1292 70.2189C83.8629 69.4264 82.1181 69.0042 80.3792 69.361C78.6626 69.6261 77.0658 70.6006 76.0201 71.7084C74.8825 72.794 74.1819 74.0826 73.8234 75.1623C73.4427 76.3338 73.4959 77.3188 73.6381 77.9365C73.758 78.6459 73.875 78.9659 73.8528 79.0577C73.7387 79.1273 73.4159 78.8547 73.1123 78.1008C72.7865 77.4387 72.594 76.2257 72.8133 74.9178C73.0548 73.5182 73.7999 72.046 75.0041 70.6849C76.2084 69.3238 78.0332 68.2101 80.1616 67.8503C82.29 67.4905 84.4021 68.0016 85.9913 69.0666C87.5805 70.1316 88.3713 71.6839 88.8393 72.9636C89.2154 74.2211 89.3161 75.412 89.2523 76.077C89.0746 76.8116 88.8716 77.2486 88.7798 77.2264Z" fill="black" stroke="black" stroke-width="0.19666" stroke-miterlimit="10"/>
<path d="M77.3132 76.0066C77.405 76.0289 77.4998 76.4406 77.7338 77.0805C77.9678 77.7204 78.4106 78.7024 79.4236 79.3364C79.9302 79.6534 80.5507 79.9007 81.1462 79.8504C81.8112 79.9141 82.5429 79.7024 83.0435 79.2403C83.5442 78.7782 83.9974 78.1102 84.1056 77.2616C84.3056 76.4351 84.1161 75.6116 83.8347 74.7658C83.5311 74.0119 82.9298 73.2832 82.2396 72.9217C81.5494 72.5603 80.7703 72.5662 80.1305 72.8001C79.3988 73.0119 78.8063 73.4518 78.4671 74.0501C78.0583 74.5344 77.9027 75.1772 77.8612 75.7504C77.7782 76.8968 78.221 77.8789 78.6609 78.4713C79.0089 79.0416 79.4236 79.3364 79.3096 79.406C79.2873 79.4978 78.8282 79.3867 78.1825 78.8416C77.6285 78.3187 76.8184 77.2478 76.8067 75.6897C76.8008 74.9106 76.909 74.0619 77.4985 73.2325C77.974 72.4727 78.7249 71.7796 79.7988 71.359C80.7586 71.008 82.0413 70.9296 83.0766 71.4717C84.1118 72.0139 84.9442 72.993 85.3648 74.0668C86.2978 76.2367 85.7451 78.922 84.0595 80.2638C83.1249 80.9125 82.1177 81.0576 81.155 81.019C80.2145 80.8886 79.4102 80.5968 78.8563 80.0739C77.6566 79.006 77.3501 77.8625 77.2524 77.0612C77.0184 76.4213 77.2214 75.9844 77.3132 76.0066Z" fill="black" stroke="black" stroke-width="0.19666" stroke-miterlimit="10"/>
<path d="M88.9548 76.1021C89.0466 76.1243 89.1636 76.4443 89.214 77.0397C89.2643 77.6351 89.1339 78.5756 88.7532 79.7472C88.3028 80.8047 87.5326 81.9792 86.395 83.0648C85.2797 84.0586 83.6133 84.919 81.7352 85.0478C79.8572 85.1765 78.1568 84.5707 76.8905 83.7782C75.5324 82.9635 74.6304 81.8703 74.0958 80.8661C73.5611 79.8619 73.302 78.9243 73.2517 78.3289C73.2013 77.7334 73.2902 77.3661 73.4043 77.2965C73.702 77.2714 73.85 78.6681 75.1222 80.2396C75.7013 81.0602 76.5781 81.8556 77.7748 82.5341C78.8797 83.1903 80.349 83.5458 81.8153 83.5118C83.3039 83.386 84.628 82.7344 85.6767 82.0161C86.7476 81.206 87.4734 80.2152 87.9712 79.3635C88.7355 77.41 88.6793 76.0354 88.9548 76.1021Z" fill="black" stroke="black" stroke-width="0.19666" stroke-miterlimit="10"/>
<path d="M82.4162 84.2405C82.5776 84.3768 81.4266 86.7228 79.3025 90.6803C78.2404 92.659 76.9976 94.9829 75.5741 97.6518C74.8734 98.9403 74.0365 100.39 73.2914 101.863C72.093 104.003 70.8724 106.235 69.5378 108.536C69.2359 104.964 69.0006 101.116 68.7653 97.2678L68.7179 97.0619L68.398 97.1789C67.9862 97.2737 67.6441 97.4825 67.2323 97.5773C66.3866 97.8586 65.6549 98.0704 64.8091 98.3518C64.3974 98.4465 63.9856 98.5413 63.5738 98.6361L62.7503 98.8256C62.4304 98.9426 62.0408 98.9456 61.7209 99.0625C61.0114 99.1825 60.3938 99.3246 59.7984 99.375L58.883 99.5423C58.5853 99.5674 58.1736 99.6622 57.9677 99.7096C59.0134 98.6018 59.9451 97.5635 60.9909 96.4557C61.65 95.7404 62.1951 95.0946 62.832 94.4711C63.9 93.2714 64.8539 92.1414 65.6938 91.0809C67.4875 88.8904 69.031 86.931 70.2101 85.2722C71.481 83.6356 72.3875 82.2996 72.9297 81.2644C73.4496 80.3209 73.6052 79.6781 73.697 79.7003C73.7888 79.7225 73.8169 80.4098 73.3666 81.4673C73.0081 82.547 72.0793 83.9748 70.9699 85.7476C69.8604 87.5205 68.3866 89.594 66.6846 91.8067C65.8225 92.959 64.8686 94.0891 63.8925 95.3109C63.3474 95.9567 62.6882 96.6721 62.1209 97.4096C62.2127 97.4318 62.5327 97.3149 62.7386 97.2675L63.2644 97.1031C63.6761 97.0083 63.996 96.8913 64.4078 96.7966C65.1395 96.5848 65.9852 96.3034 66.7169 96.0917C67.1509 95.9051 67.5627 95.8103 67.9048 95.6015C68.5669 95.2757 69.2986 95.0639 69.9607 94.7381C70.011 95.3335 70.0836 95.8371 70.0421 96.4103C70.1234 98.0825 70.2966 99.7769 70.378 101.449C70.4506 101.953 70.4313 102.434 70.5038 102.938C70.5512 103.144 70.5068 103.327 70.5542 103.533C70.6904 103.372 70.7571 103.096 70.8934 102.935C71.2326 102.336 71.5718 101.738 71.911 101.14C72.7479 99.6897 73.5626 98.3315 74.3773 96.9734C75.8927 94.3267 77.3191 92.0473 78.4508 90.1826C80.8283 86.3836 82.2325 84.196 82.4162 84.2405Z" fill="black" stroke="black" stroke-width="0.19666" stroke-miterlimit="10"/>
<path d="M72.3852 75.8836C72.3852 75.8836 72.2711 75.9532 72.3852 75.8836C72.3156 75.7695 72.3378 75.6777 72.4296 75.6999L72.5437 75.6303C72.6355 75.6525 72.7051 75.7666 72.6829 75.8584C72.7303 76.0643 72.6162 76.1339 72.5021 76.2035C72.2518 76.4345 72.0237 76.5738 71.7038 76.6907C71.4535 76.9218 71.1113 77.1306 70.861 77.3617C70.6107 77.5927 70.5218 77.96 70.5692 78.1659C70.5943 78.4636 70.8254 78.7139 71.1482 78.9865C71.3793 79.2368 71.7466 79.3257 72.0221 79.3924C72.6649 79.5479 73.1463 79.5672 73.1936 79.7731C73.241 79.979 72.8544 80.3714 71.9613 80.4469C71.4799 80.4276 70.9986 80.4084 70.4002 80.0692C69.8937 79.7522 69.2479 79.2071 69.0806 78.2917C68.9133 77.3764 69.3888 76.6166 69.8672 76.2463C70.3679 75.7842 70.8937 75.6198 71.3054 75.5251C71.7172 75.4303 72.1067 75.4274 72.1986 75.4496C72.2933 75.8613 72.3852 75.8836 72.3852 75.8836C72.477 75.9058 72.3852 75.8836 72.3852 75.8836C72.3852 75.8836 72.3629 75.9754 72.3852 75.8836Z" fill="black"/>
<path d="M72.3852 75.8836C72.3852 75.8836 72.2711 75.9532 72.3852 75.8836C72.3156 75.7695 72.3378 75.6777 72.4296 75.6999L72.5437 75.6303C72.6355 75.6525 72.7051 75.7666 72.6829 75.8584C72.7303 76.0643 72.6162 76.1339 72.5021 76.2035C72.2518 76.4345 72.0237 76.5738 71.7038 76.6907C71.4535 76.9218 71.1113 77.1306 70.861 77.3617C70.6107 77.5927 70.5218 77.96 70.5692 78.1659C70.5943 78.4636 70.8254 78.7139 71.1482 78.9865C71.3793 79.2368 71.7466 79.3257 72.0221 79.3924C72.6649 79.5479 73.1463 79.5672 73.1936 79.7731C73.241 79.979 72.8544 80.3714 71.9613 80.4469C71.4799 80.4276 70.9986 80.4084 70.4002 80.0692C69.8937 79.7522 69.2479 79.2071 69.0806 78.2917C68.9133 77.3764 69.3888 76.6166 69.8672 76.2463C70.3679 75.7842 70.8937 75.6198 71.3054 75.5251C71.7172 75.4303 72.1067 75.4274 72.1986 75.4496C72.2933 75.8613 72.3852 75.8836 72.3852 75.8836ZM72.3852 75.8836C72.477 75.9058 72.3852 75.8836 72.3852 75.8836ZM72.3852 75.8836C72.3852 75.8836 72.3629 75.9754 72.3852 75.8836Z" stroke="black" stroke-width="0.19666" stroke-miterlimit="10"/>
<path d="M72.6091 72.1466C72.4728 72.308 72.0358 72.1051 71.51 72.2695C70.8924 72.4116 70.414 72.7819 70.328 73.5387C70.2421 74.2956 70.7738 74.9103 71.3025 75.1355C71.809 75.4525 72.2904 75.4717 72.3378 75.6776C72.3852 75.8835 71.9068 76.2538 70.944 76.2152C70.4627 76.1959 69.9339 75.9708 69.4718 75.4701C69.0097 74.9695 68.7061 74.2155 68.7921 73.4587C68.878 72.7018 69.2617 71.9198 69.832 71.5718C70.4244 71.1319 71.1117 71.1038 71.5708 71.2149C72.03 71.326 72.3751 71.5067 72.5143 71.7348C72.6757 71.8711 72.6313 72.0548 72.6091 72.1466Z" fill="black" stroke="black" stroke-width="0.19666" stroke-miterlimit="10"/>
<path d="M75.4324 69.7191C75.2265 69.7665 74.9259 69.4021 74.4667 69.291C74.1913 69.2243 74.0076 69.1799 73.7795 69.3191C73.5736 69.3665 73.1396 69.5531 72.8893 69.7841C72.639 70.0152 72.4805 70.2684 72.4138 70.5439C72.3694 70.7276 72.4168 70.9335 72.4641 71.1393C72.6507 71.5733 73.0181 71.6622 73.0654 71.8681C73.0432 71.9599 72.9988 72.1436 72.7929 72.191C72.587 72.2383 72.1056 72.2191 71.6909 71.9243C71.3681 71.6517 70.9282 71.0593 70.9919 70.3942C71.0557 69.7292 71.3949 69.1309 71.8955 68.6688C72.3962 68.2067 72.9442 67.9505 73.6315 67.9224C74.3187 67.8943 74.8475 68.1194 75.1481 68.4838C75.7939 69.0289 75.6383 69.6717 75.4324 69.7191Z" fill="black" stroke="black" stroke-width="0.19666" stroke-miterlimit="10"/>
<path d="M79.1709 67.1241C78.9428 67.2633 78.5726 66.7849 78.0883 66.376C77.8572 66.1257 77.5121 65.945 77.2366 65.8783C76.8693 65.7894 76.7553 65.8591 76.4827 66.1819C75.9598 66.7358 75.9213 67.6986 76.1775 68.2466C76.3196 68.8643 76.7343 69.159 76.5758 69.4123C76.5314 69.5959 75.8442 69.6241 75.1733 68.7812C74.8726 68.4169 74.6164 67.8688 74.5883 67.1816C74.5602 66.4943 74.7602 65.6679 75.2831 65.114C75.5556 64.7911 75.8978 64.5823 76.4236 64.4179C76.8353 64.3231 77.3167 64.3424 77.6618 64.5231C78.3742 64.7927 78.7445 65.2712 79.0451 65.6355C79.4183 66.5035 79.3768 67.0767 79.1709 67.1241Z" fill="black" stroke="black" stroke-width="0.19666" stroke-miterlimit="10"/>
<path d="M82.9357 68.0355C82.7521 67.9911 82.7936 67.4179 82.7432 66.8225C82.7181 66.5248 82.6929 66.2271 82.4619 65.9767C82.3227 65.7486 82.139 65.7042 81.8635 65.6375C81.5658 65.6627 81.2459 65.7797 80.9955 66.0107C80.7452 66.2418 80.5867 66.495 80.5423 66.6787C80.3171 67.2074 80.4119 67.6192 80.2756 67.7806C80.1393 67.9421 79.5632 67.511 79.4877 66.6179C79.4152 66.1143 79.5707 65.4715 80.0714 65.0094C80.4802 64.5251 81.1645 64.1075 82.0354 64.1238C82.4249 64.1209 82.8841 64.232 83.207 64.5045C83.5298 64.7771 83.8305 65.1414 83.9475 65.4614C84.1815 66.1012 84.1399 66.6744 83.937 67.1114C83.4837 67.7793 83.1194 68.08 82.9357 68.0355Z" fill="black" stroke="black" stroke-width="0.19666" stroke-miterlimit="10"/>
<path d="M86.8678 69.8617C86.8204 69.6558 87.2766 69.3774 87.4544 68.6428C87.724 67.9303 87.6485 67.0372 86.8887 66.5617C86.1511 65.9944 85.2136 66.2536 84.6907 66.8075C84.19 67.2696 84.0567 67.8205 83.759 67.8457C83.5531 67.8931 83.2273 67.231 83.7694 66.1957C84.0642 65.781 84.4953 65.2049 85.2269 64.9931C85.9809 64.6895 86.8992 64.9117 87.659 65.3872C88.4188 65.8627 88.8838 66.7529 88.8897 67.532C88.8955 68.3111 88.6481 68.9316 88.2616 69.3241C87.672 70.1535 86.9152 70.0676 86.8678 69.8617Z" fill="black" stroke="black" stroke-width="0.19666" stroke-miterlimit="10"/>
<path d="M87.9713 73.3366C87.924 73.1307 88.4024 72.7605 89.0867 72.3428C89.4288 72.134 89.7932 71.8333 90.0658 71.5105C90.3383 71.1876 90.4494 70.7285 90.3547 70.3167C90.3266 69.6295 89.2246 69.3628 88.5151 69.4827C87.7138 69.5804 87.188 69.7448 87.0488 69.5167C87.0014 69.3108 87.2962 68.8961 88.1864 68.4311C88.6204 68.2445 89.3521 68.0327 90.0867 68.2105C90.454 68.2994 90.8909 68.5023 91.2138 68.7749C91.5367 69.0474 91.7929 69.5955 91.8654 70.0991C92.0105 71.1062 91.6269 71.8883 91.104 72.4422C90.5811 72.9961 90.0331 73.2523 89.5073 73.4167C88.706 73.5144 88.1328 73.4729 87.9713 73.3366Z" fill="black" stroke="black" stroke-width="0.19666" stroke-miterlimit="10"/>
<path d="M88.4735 76.0827C88.3343 75.8546 88.9045 75.5066 89.7725 75.1334C90.2065 74.9468 90.6405 74.7602 91.0049 74.4595C91.3692 74.1589 91.55 73.8138 91.547 73.4243C91.5441 73.0347 91.2656 72.5785 90.9205 72.3978C90.5755 72.2171 90.1163 72.106 89.8186 72.1311C89.0173 72.2288 88.5611 72.5073 88.3997 72.371C88.2382 72.2347 88.5078 71.5223 89.5817 71.1017C90.1075 70.9373 90.817 70.8174 91.6212 71.1092C92.4032 71.4929 93.0963 72.2439 93.1496 73.2288C93.2222 73.7324 92.997 74.2612 92.7941 74.6981C92.4993 75.1128 92.249 75.3439 91.9068 75.5527C91.2225 75.9703 90.6271 76.0206 90.1235 76.0932C89.0941 76.3301 88.6127 76.3108 88.4735 76.0827Z" fill="black" stroke="black" stroke-width="0.19666" stroke-miterlimit="10"/>
<path d="M84.8619 83.3739C84.9982 83.2124 85.6188 83.4598 85.992 84.3278C86.1786 84.7618 86.3207 85.3794 86.257 86.0444C86.1933 86.7095 85.5119 87.5166 84.758 87.8202C84.0041 88.1238 83.0413 88.0853 82.3734 87.632C81.7276 87.0869 81.5855 86.4693 81.5129 85.9657C81.4597 84.9807 81.7544 84.566 81.9603 84.5186C82.1662 84.4712 82.3083 85.0889 82.6342 85.751C82.96 86.413 83.3747 86.7078 84.2204 86.4265C84.5626 86.2176 84.7907 86.0784 84.9714 85.7333C85.1521 85.3882 85.1492 84.9987 85.124 84.701C84.9122 83.9693 84.7256 83.5353 84.8619 83.3739Z" fill="black" stroke="black" stroke-width="0.19666" stroke-miterlimit="10"/>
<path d="M87.1399 81.5925C87.1621 81.5007 87.2761 81.4311 87.5738 81.4059C87.8716 81.3808 88.2167 81.5615 88.5173 81.9259C88.818 82.2903 89.0964 82.7465 89.2163 83.4559C89.2415 83.7536 89.2666 84.0513 89.1778 84.4187C89.1333 84.6023 89.0889 84.786 89.0444 84.9696C89 85.1533 88.8415 85.4066 88.6134 85.5458C88.4771 85.7072 88.363 85.7768 88.1572 85.8242C87.7232 86.0108 87.2418 85.9915 86.8745 85.9026C86.5072 85.8137 86.2761 85.5634 86.0229 85.4049C85.6304 85.0183 85.352 84.5621 85.2572 84.1504C85.0677 83.3268 85.2706 82.8899 85.4765 82.8425C85.6824 82.7951 85.869 83.2291 86.2392 83.7075C86.3784 83.9357 86.6317 84.0942 86.9546 84.3667C87.116 84.503 87.2078 84.5252 87.3915 84.5696C87.4833 84.5919 87.5752 84.6141 87.5974 84.5223C87.5974 84.5223 87.5974 84.5223 87.6196 84.4304C87.6196 84.4304 87.6196 84.4304 87.6418 84.3386C87.664 84.2468 87.6863 84.1549 87.6863 84.1549C87.7307 83.9713 87.7751 83.7876 87.7278 83.5817C87.7248 83.1922 87.6997 82.8945 87.5827 82.5746C87.5101 82.071 87.1873 81.7984 87.1399 81.5925Z" fill="black" stroke="black" stroke-width="0.19666" stroke-miterlimit="10"/>
<path d="M89.1557 78.4834C89.1084 78.2775 89.495 77.885 90.5021 77.74C90.7998 77.7148 91.0976 77.6896 91.4426 77.8703C91.7877 78.0511 92.1106 78.3236 92.2972 78.7576C92.6704 79.6256 92.2867 80.4076 92.0394 81.0282C91.7002 81.6265 91.3609 82.2249 90.5848 82.6203C90.2427 82.8291 89.7613 82.8098 89.394 82.721C89.0266 82.6321 88.7734 82.4736 88.5423 82.2232C87.8492 81.4723 87.7989 80.8768 88.0048 80.8295C88.141 80.668 88.6253 81.0768 89.2459 81.3242C89.4992 81.4827 89.7969 81.4576 89.9332 81.2961C90.1613 81.1569 90.4561 80.7422 90.6812 80.2135C90.9064 79.6847 90.9953 79.3174 90.9479 79.1115C90.9005 78.9056 90.7391 78.7694 90.4636 78.7027C89.7985 78.639 89.2031 78.6893 89.1557 78.4834Z" fill="black" stroke="black" stroke-width="0.19666" stroke-miterlimit="10"/>
<path d="M91.2609 75.0077C91.3054 74.824 91.7393 74.6374 92.3377 74.9766C92.591 75.1351 92.8916 75.4995 92.9864 75.9113C93.0812 76.323 93.1315 76.9184 92.7227 77.4027C92.3138 77.8871 91.7658 78.1433 91.3763 78.1462C90.8949 78.1269 90.5276 78.038 90.2966 77.7877C89.7204 77.3567 89.8315 76.8975 90.0596 76.7583C90.2655 76.7109 90.541 76.7776 90.8387 76.7524C91.1364 76.7273 91.5482 76.6325 91.5926 76.4488C91.7067 76.3792 91.7259 75.8979 91.609 75.5779C91.4253 75.5335 91.2861 75.3054 91.2609 75.0077Z" fill="black" stroke="black" stroke-width="0.19666" stroke-miterlimit="10"/>
<path d="M76.0332 131.105C75.6215 131.199 74.2918 125.045 73.1339 117.377C71.9761 109.709 71.3336 103.527 71.7454 103.432C72.1572 103.338 73.4869 109.492 74.6447 117.16C75.9166 124.758 76.445 131.01 76.0332 131.105Z" fill="black" stroke="black" stroke-width="0.19666" stroke-miterlimit="10"/>
<path d="M72.2157 68.552C72.2853 68.6661 71.5091 69.0615 70.3435 69.4599C69.7036 69.6938 68.9497 69.9974 68.1039 70.2788C67.6699 70.4654 67.2582 70.5602 66.7324 70.7245C66.5265 70.7719 66.2984 70.9111 66.0925 70.9585L65.8644 71.0977C65.9118 71.3036 65.934 71.2118 65.9843 71.8072C66.0569 72.3108 66.1517 72.7226 66.2242 73.2262C66.3915 74.1415 66.5366 75.1487 66.7513 76.2699C67.9062 83.5483 68.5235 89.4329 68.1117 89.5276C67.7 89.6224 66.3954 83.7659 65.2183 76.5794C65.0732 75.5722 64.9281 74.565 64.783 73.5578C64.5906 72.3448 64.4677 71.2458 64.3448 70.1468C64.7566 70.052 65.2824 69.8876 65.6942 69.7928C65.9919 69.7677 66.22 69.6285 66.5177 69.6033C67.0213 69.5308 67.4552 69.3442 67.9588 69.2716C68.8742 69.1043 69.6059 68.8925 70.3154 68.7726C71.367 68.4439 72.1461 68.438 72.2157 68.552Z" fill="black" stroke="black" stroke-width="0.19666" stroke-miterlimit="10"/>
<path d="M160.151 54.6429C160.129 54.7347 159.191 54.9938 157.36 55.3285C155.53 55.6631 152.898 56.0954 149.648 56.6699C143.171 57.7271 134.198 59.0552 124.24 60.4365C114.283 61.8179 105.24 63.0319 98.738 63.7914C95.441 64.16 92.8312 64.5005 90.9531 64.6292C89.075 64.758 88.0901 64.8113 88.1123 64.7194C88.1345 64.6276 89.0721 64.3685 90.9028 64.0338C92.7335 63.6992 95.3655 63.2668 98.6151 62.6923C105.092 61.6352 114.065 60.3071 124.023 58.9258C133.981 57.5444 143.023 56.3304 149.525 55.5709C152.822 55.2023 155.432 54.8618 157.31 54.733C159.096 54.5821 160.081 54.5288 160.151 54.6429Z" fill="black" stroke="black" stroke-width="0.19666" stroke-miterlimit="10"/>
<path d="M167.243 107.685C166.831 107.779 164.817 96.0161 162.897 81.4564C160.977 66.8967 159.65 55.1053 160.062 55.0105C160.474 54.9157 162.488 66.679 164.408 81.2387C166.328 95.7984 167.632 107.682 167.243 107.685Z" fill="black" stroke="black" stroke-width="0.19666" stroke-miterlimit="10"/>
<path d="M154.247 122.425C154.294 122.631 150.724 123.323 145.049 124.282C139.351 125.334 131.524 126.745 122.922 128.551C114.319 130.358 106.518 132.066 100.867 133.324C95.2167 134.581 91.7167 135.386 91.6693 135.18C91.6219 134.975 95.0049 133.849 100.63 132.294C106.164 130.717 114.01 128.825 122.612 127.018C131.307 125.234 139.18 124.029 144.904 123.275C150.719 122.544 154.291 122.242 154.247 122.425Z" fill="black" stroke="black" stroke-width="0.19666" stroke-miterlimit="10"/>
<path d="M102.895 83.1694C102.505 83.1724 102.129 81.9149 101.728 80.3597C101.418 78.8267 101.042 77.5692 101.476 77.3826C101.818 77.1737 102.812 78.2891 103.261 80.0502C103.709 81.8113 103.284 83.1665 102.895 83.1694Z" fill="black" stroke="black" stroke-width="0.19666" stroke-miterlimit="10"/>
<path d="M141.32 76.6234C141.415 77.0352 132.926 78.7721 122.398 80.5015C111.87 82.2308 103.262 83.2583 103.167 82.8465C103.072 82.4347 111.561 80.6978 122.089 78.9685C132.709 77.2613 141.225 76.2117 141.32 76.6234Z" fill="black" stroke="black" stroke-width="0.19666" stroke-miterlimit="10"/>
<path d="M139.696 70.8841C139.79 71.2958 131.28 73.1246 120.752 74.8539C110.224 76.5833 101.663 77.8166 101.59 77.313C101.518 76.8094 110.006 75.0725 120.534 73.3432C131.062 71.6138 139.601 70.4723 139.696 70.8841Z" fill="black" stroke="black" stroke-width="0.19666" stroke-miterlimit="10"/>
<path d="M141.362 76.0503C140.95 76.1451 140.324 75.1186 139.97 73.7693C139.616 72.42 139.721 71.1817 140.133 71.087C140.545 70.9922 141.171 72.0187 141.525 73.368C141.879 74.7173 141.774 75.9556 141.362 76.0503Z" fill="black" stroke="black" stroke-width="0.19666" stroke-miterlimit="10"/>
<path d="M135.558 90.3931C135.605 90.599 132.815 91.2846 128.216 92.213C123.617 93.1414 117.279 94.4267 110.346 95.7623C103.412 97.0979 96.9828 98.3609 92.406 99.1975C87.8293 100.034 84.9914 100.514 84.944 100.308C84.8966 100.102 87.7094 99.3246 92.1691 98.1681C96.7207 97.0338 102.989 95.6345 110.014 94.3211C117.039 93.0077 123.333 91.9061 127.979 91.1836C132.625 90.4611 135.511 90.1872 135.558 90.3931Z" fill="black" stroke="black" stroke-width="0.19666" stroke-miterlimit="10"/>
<path d="M114.463 100.841C114.558 101.253 110.148 103.005 104.359 104.034C98.5688 105.063 93.8247 104.984 93.8218 104.595C93.8189 104.205 98.443 103.575 104.141 102.523C109.817 101.564 114.368 100.43 114.463 100.841Z" fill="black" stroke="black" stroke-width="0.19666" stroke-miterlimit="10"/>
<path d="M106.964 111.883C117.759 109.721 126.444 107.636 126.362 107.227C126.28 106.818 117.462 108.239 106.667 110.401C95.8716 112.563 87.1868 114.648 87.2688 115.057C87.3508 115.466 96.1685 114.045 106.964 111.883Z" fill="black" stroke="black" stroke-width="0.19666" stroke-miterlimit="10"/>
<path d="M135.839 112.528C135.934 112.939 127.173 114.999 116.35 117.143C105.528 119.287 96.6466 120.638 96.5518 120.226C96.4571 119.814 105.218 117.754 116.041 115.61C126.956 113.488 135.767 112.024 135.839 112.528Z" fill="black" stroke="black" stroke-width="0.19666" stroke-miterlimit="10"/>
<path d="M27.0589 88.0499C26.9197 87.8218 28.6749 86.5941 30.9693 83.9415C33.1497 81.3585 35.7078 77.2144 36.5627 72.0749C37.4176 66.9354 36.4419 62.1306 35.2497 59.0231C34.0798 55.8238 32.7602 54.0463 32.9883 53.9071C33.1023 53.8375 34.7641 55.4061 36.3236 58.6025C37.883 61.7989 39.0899 66.8541 38.1461 72.3609C37.2023 77.8677 34.302 82.2206 31.8461 84.7369C29.2066 87.2088 27.2203 88.1862 27.0589 88.0499Z" fill="black" stroke="black" stroke-width="0.19666" stroke-miterlimit="10"/>
<path d="M75.5175 26.3854C75.7012 26.4299 75.19 28.542 73.1489 31.353C71.1995 34.1863 67.5587 37.5824 62.5539 39.3847C57.549 41.1869 52.5739 40.8578 49.3125 39.8742C46.0288 38.9823 44.2086 37.667 44.3449 37.5056C44.5034 37.2523 46.3207 38.1781 49.5791 38.7722C52.7235 39.4359 57.4676 39.5147 62.1303 37.9213C66.8153 36.236 70.2754 33.185 72.3417 30.6717C74.408 28.1583 75.2642 26.2269 75.5175 26.3854Z" fill="black" stroke="black" stroke-width="0.19666" stroke-miterlimit="10"/>
<path d="M160.521 33.8332C160.568 34.0391 157.984 34.6773 153.635 35.3747C151.507 35.7345 148.919 35.9832 145.987 36.0512C143.054 36.1191 139.821 35.8227 136.515 35.0227C133.231 34.1309 130.287 32.6407 127.89 30.8943C125.516 29.0561 123.782 26.9839 122.69 25.0672C121.599 23.1506 121.058 21.3673 120.888 20.0624C120.696 18.8493 120.759 18.1843 120.873 18.1147C120.965 18.1369 121.107 18.7545 121.506 19.9202C121.812 21.0637 122.489 22.6856 123.625 24.4186C124.761 26.1515 126.54 28.0401 128.775 29.6502C131.01 31.2603 133.793 32.6143 136.893 33.4616C140.015 34.2172 143.156 34.4914 145.953 34.5848C148.771 34.5865 151.337 34.4296 153.512 34.2757C157.794 33.8538 160.474 33.6274 160.521 33.8332Z" fill="black" stroke="black" stroke-width="0.19666" stroke-miterlimit="10"/>
<path d="M183.251 60.8161C183.115 60.9775 182.057 60.5272 180.49 59.3703C178.923 58.2135 176.847 56.3501 175.36 53.6573C173.873 50.9645 173.507 48.057 173.79 46.0842C174.073 44.1113 174.821 43.0286 175.005 43.0731C175.28 43.1397 174.9 44.3113 174.937 46.1672C174.973 48.023 175.45 50.4714 176.798 52.9361C178.146 55.4007 179.924 57.2893 181.263 58.5854C182.533 59.7674 183.409 60.5628 183.251 60.8161Z" fill="black" stroke="black" stroke-width="0.19666" stroke-miterlimit="10"/>
<path d="M46.0302 151.451C45.7547 151.385 46.1991 149.548 46.1534 146.524C46.0854 143.591 45.3658 139.334 42.8407 135.71C40.2237 132.063 36.4277 130.075 33.581 129.386C30.7343 128.697 28.8117 129.01 28.7866 128.712C28.7169 128.598 30.6588 127.804 33.8476 128.284C35.4532 128.478 37.2453 129.106 39.1322 130.146C40.9273 131.164 42.7727 132.777 44.2315 134.782C45.5985 136.766 46.5315 138.936 47.0053 140.995C47.4792 143.053 47.5161 144.909 47.4138 146.537C47.1174 149.77 46.2138 151.496 46.0302 151.451Z" fill="black" stroke="black" stroke-width="0.19666" stroke-miterlimit="10"/>
<path d="M214.18 216.145L201.2 233.451C199.365 239.613 195.379 253.667 194.121 260.59C192.547 269.243 187.434 285.762 182.714 293.629" stroke="black" stroke-width="1.17996"/>
<path d="M224.565 182.462C224.495 182.525 224.235 182.381 223.785 182.029C223.334 181.676 222.732 181.131 222.117 180.265C221.829 179.84 221.532 179.321 221.319 178.699C221.107 178.078 221.033 177.329 221.131 176.601C221.229 175.873 221.445 175.19 221.661 174.507C221.916 173.839 222.132 173.156 222.403 172.448C224.433 166.784 226.411 162.317 226.765 162.452C227.118 162.587 225.729 167.28 223.7 172.944C223.429 173.651 223.174 174.319 222.958 175.002C222.702 175.67 222.516 176.275 222.4 176.816C222.191 177.952 222.534 178.938 222.937 179.768C223.395 180.574 223.874 181.207 224.186 181.686C224.473 182.112 224.634 182.398 224.565 182.462Z" fill="black" stroke="black" stroke-width="0.178501" stroke-miterlimit="10"/>
</svg>
