<svg width="56" height="55" viewBox="0 0 56 55" fill="none" xmlns="http://www.w3.org/2000/svg">
<rect x="0.470703" width="55" height="54.1129" rx="8.87097" fill="#E0EEF0"/>
<path d="M37.0703 27.2926C35.1605 22.3298 28.3609 22.0622 30.003 14.8489C30.1247 14.3137 29.553 13.9001 29.0907 14.1799C24.6752 16.783 21.5004 22.0013 24.1643 28.8375C24.3833 29.397 23.7264 29.9201 23.252 29.5551C21.0504 27.8887 20.8192 25.4924 21.0139 23.7773C21.0868 23.1447 20.2597 22.8406 19.9069 23.3637C19.0798 24.6287 18.2405 26.6723 18.2405 29.7498C18.7027 36.5616 24.4563 38.6538 26.5241 38.9214C29.48 39.2985 32.6791 38.7511 34.9781 36.6467C37.5082 34.2991 38.4326 30.5526 37.0703 27.2926ZM25.7821 33.4111C27.5337 32.9854 28.4339 31.7203 28.6771 30.6012C29.0786 28.8618 27.5094 27.1588 28.5677 24.4098C28.9691 26.6845 32.5453 28.1076 32.5453 30.5891C32.6426 33.6666 29.3097 36.3061 25.7821 33.4111Z" fill="#2898A4"/>
<path d="M37.0703 27.2926C35.1605 22.3298 28.3609 22.0622 30.003 14.8489C30.1247 14.3137 29.553 13.9001 29.0907 14.1799C24.6752 16.783 21.5004 22.0013 24.1643 28.8375C24.3833 29.397 23.7264 29.9201 23.252 29.5551C21.0504 27.8887 20.8192 25.4924 21.0139 23.7773C21.0868 23.1447 20.2597 22.8406 19.9069 23.3637C19.0798 24.6287 18.2405 26.6723 18.2405 29.7498C18.7027 36.5616 24.4563 38.6538 26.5241 38.9214C29.48 39.2985 32.6791 38.7511 34.9781 36.6467C37.5082 34.2991 38.4326 30.5526 37.0703 27.2926ZM25.7821 33.4111C27.5337 32.9854 28.4339 31.7203 28.6771 30.6012C29.0786 28.8618 27.5094 27.1588 28.5677 24.4098C28.9691 26.6845 32.5453 28.1076 32.5453 30.5891C32.6426 33.6666 29.3097 36.3061 25.7821 33.4111Z" fill="#2898A4"/>
</svg>
