<svg width="285" height="459" viewBox="0 0 285 459" fill="none" xmlns="http://www.w3.org/2000/svg">
<path d="M33.4648 223.666L50.3648 385.266" stroke="#263238" stroke-width="1.8289" stroke-miterlimit="10"/>
<path d="M47.6664 354.366L40.0664 346.266" stroke="#263238" stroke-width="1.8289" stroke-miterlimit="10"/>
<path d="M42.3675 348.666C42.3675 348.666 42.5675 345.066 39.3675 342.166C37.3675 340.366 27.0675 336.066 26.0675 339.666C24.9675 343.666 35.5675 351.466 42.3675 348.666Z" fill="#92E3A9" stroke="#263238" stroke-width="0.9144" stroke-miterlimit="10"/>
<path d="M42.3687 348.665L32.4688 342.565" stroke="#263238" stroke-width="0.4572" stroke-miterlimit="10"/>
<path d="M49.5648 372.766L41.9648 364.666" stroke="#263238" stroke-width="1.8289" stroke-miterlimit="10"/>
<path d="M44.266 367.066C44.266 367.066 44.466 363.466 41.266 360.566C39.266 358.766 28.966 354.466 27.966 358.066C26.866 362.066 37.466 369.866 44.266 367.066Z" fill="#92E3A9" stroke="#263238" stroke-width="0.9144" stroke-miterlimit="10"/>
<path d="M44.2648 367.066L34.4648 360.966" stroke="#263238" stroke-width="0.4572" stroke-miterlimit="10"/>
<path d="M42.9672 309.466L35.3672 301.466" stroke="#263238" stroke-width="1.8289" stroke-miterlimit="10"/>
<path d="M37.6683 303.866C37.6683 303.866 37.8683 300.266 34.6683 297.366C32.6683 295.566 22.3683 291.266 21.3683 294.866C20.2683 298.866 30.8683 306.666 37.6683 303.866Z" fill="#92E3A9" stroke="#263238" stroke-width="0.9144" stroke-miterlimit="10"/>
<path d="M37.6672 303.866L27.8672 297.766" stroke="#263238" stroke-width="0.4572" stroke-miterlimit="10"/>
<path d="M44.8656 327.867L37.2656 319.767" stroke="#263238" stroke-width="1.8289" stroke-miterlimit="10"/>
<path d="M39.5668 322.266C39.5668 322.266 39.7668 318.666 36.5668 315.766C34.5668 313.966 24.2668 309.666 23.2668 313.266C22.1668 317.266 32.7668 324.966 39.5668 322.266Z" fill="#92E3A9" stroke="#263238" stroke-width="0.9144" stroke-miterlimit="10"/>
<path d="M39.5656 322.266L29.7656 316.066" stroke="#263238" stroke-width="0.4572" stroke-miterlimit="10"/>
<path d="M39.8656 279.666L32.2656 271.566" stroke="#263238" stroke-width="1.8289" stroke-miterlimit="10"/>
<path d="M34.5668 273.966C34.5668 273.966 34.7668 270.366 31.5668 267.466C29.5668 265.666 19.2668 261.366 18.2668 264.966C17.1668 268.966 27.7668 276.766 34.5668 273.966Z" fill="#92E3A9" stroke="#263238" stroke-width="0.9144" stroke-miterlimit="10"/>
<path d="M34.568 273.966L24.668 267.866" stroke="#263238" stroke-width="0.4572" stroke-miterlimit="10"/>
<path d="M36.7664 249.666L29.0664 241.566" stroke="#263238" stroke-width="1.8289" stroke-miterlimit="10"/>
<path d="M31.3665 243.966C31.3665 243.966 31.5665 240.366 28.3665 237.466C26.3665 235.666 16.0665 231.366 15.0665 234.966C14.0665 239.066 24.5665 246.766 31.3665 243.966Z" fill="#92E3A9" stroke="#263238" stroke-width="0.9144" stroke-miterlimit="10"/>
<path d="M31.3664 243.966L21.5664 237.866" stroke="#263238" stroke-width="0.4572" stroke-miterlimit="10"/>
<path d="M46.3672 343.466L52.1672 333.966" stroke="#263238" stroke-width="1.8289" stroke-miterlimit="10"/>
<path d="M50.4664 336.866C50.4664 336.866 49.4664 333.366 52.0664 329.866C53.6664 327.766 62.8664 321.366 64.5664 324.766C66.3664 328.366 57.6664 338.166 50.4664 336.866Z" fill="#92E3A9" stroke="#263238" stroke-width="0.9144" stroke-miterlimit="10"/>
<path d="M50.4688 336.866L59.2687 328.366" stroke="#263238" stroke-width="0.4572" stroke-miterlimit="10"/>
<path d="M41.3672 295.066L47.1672 285.666" stroke="#263238" stroke-width="1.8289" stroke-miterlimit="10"/>
<path d="M45.3687 288.466C45.3687 288.466 44.3687 284.966 46.9687 281.466C48.5687 279.366 57.7687 272.966 59.4687 276.366C61.3687 279.966 52.5687 289.766 45.3687 288.466Z" fill="#92E3A9" stroke="#263238" stroke-width="0.9144" stroke-miterlimit="10"/>
<path d="M45.3672 288.465L54.2672 280.065" stroke="#263238" stroke-width="0.4572" stroke-miterlimit="10"/>
<path d="M39.0664 273.866L44.9664 264.366" stroke="#263238" stroke-width="1.8289" stroke-miterlimit="10"/>
<path d="M43.1656 267.266C43.1656 267.266 42.1656 263.766 44.7656 260.266C46.3656 258.166 55.5656 251.766 57.2656 255.166C59.1656 258.766 50.3656 268.566 43.1656 267.266Z" fill="#92E3A9" stroke="#263238" stroke-width="0.9144" stroke-miterlimit="10"/>
<path d="M43.168 267.267L51.968 258.767" stroke="#263238" stroke-width="0.4572" stroke-miterlimit="10"/>
<path d="M35.8672 242.666L41.6672 233.266" stroke="#263238" stroke-width="1.8289" stroke-miterlimit="10"/>
<path d="M39.8687 236.066C39.8687 236.066 38.8687 232.566 41.4687 229.066C43.0687 226.966 52.2687 220.566 53.9687 223.966C55.8687 227.566 47.1687 237.366 39.8687 236.066Z" fill="#92E3A9" stroke="#263238" stroke-width="0.9144" stroke-miterlimit="10"/>
<path d="M39.8672 236.066L48.7672 227.566" stroke="#263238" stroke-width="0.4572" stroke-miterlimit="10"/>
<path d="M33.3687 222.766C33.3687 222.766 32.3687 219.266 34.9687 215.766C36.5687 213.666 45.7687 207.266 47.4687 210.666C49.3687 214.266 40.5687 224.066 33.3687 222.766Z" fill="#92E3A9" stroke="#263238" stroke-width="0.9144" stroke-miterlimit="10"/>
<path d="M33.3672 222.766L42.2672 214.266" stroke="#263238" stroke-width="0.4572" stroke-miterlimit="10"/>
<path d="M33.8672 223.166C33.8672 223.166 30.3672 223.766 27.0672 220.766C25.1672 218.966 19.7672 209.166 23.2672 207.866C27.1672 206.366 35.9672 216.066 33.8672 223.166Z" fill="#92E3A9" stroke="#263238" stroke-width="0.9144" stroke-miterlimit="10"/>
<path d="M33.8672 223.166L26.3672 213.466" stroke="#263238" stroke-width="0.4572" stroke-miterlimit="10"/>
<path d="M77.9656 245.966L61.2656 407.566" stroke="#263238" stroke-width="1.8289" stroke-miterlimit="10"/>
<path d="M64.968 376.767L59.168 367.267" stroke="#263238" stroke-width="1.8289" stroke-miterlimit="10"/>
<path d="M60.8663 370.066C60.8663 370.066 61.7663 366.566 59.2663 363.066C57.6663 360.966 48.4663 354.566 46.7663 357.966C44.8663 361.666 53.6663 371.366 60.8663 370.066Z" fill="#92E3A9" stroke="#263238" stroke-width="0.9144" stroke-miterlimit="10"/>
<path d="M60.8664 370.066L52.5664 362.066" stroke="#263238" stroke-width="0.4572" stroke-miterlimit="10"/>
<path d="M69.5695 331.866L63.7695 322.366" stroke="#263238" stroke-width="1.8289" stroke-miterlimit="10"/>
<path d="M65.5679 325.266C65.5679 325.266 66.4679 321.766 63.9679 318.266C62.3679 316.166 53.1679 309.766 51.4679 313.166C49.5679 316.766 58.2679 326.566 65.5679 325.266Z" fill="#92E3A9" stroke="#263238" stroke-width="0.9144" stroke-miterlimit="10"/>
<path d="M65.568 325.267L57.168 317.267" stroke="#263238" stroke-width="0.4572" stroke-miterlimit="10"/>
<path d="M67.6672 350.266L61.8672 340.766" stroke="#263238" stroke-width="1.8289" stroke-miterlimit="10"/>
<path d="M63.6656 343.666C63.6656 343.666 64.5656 340.166 62.0656 336.666C60.4656 334.566 51.2656 328.166 49.5656 331.566C47.6656 335.166 56.3656 344.966 63.6656 343.666Z" fill="#92E3A9" stroke="#263238" stroke-width="0.9144" stroke-miterlimit="10"/>
<path d="M63.6656 343.665L55.2656 335.565" stroke="#263238" stroke-width="0.4572" stroke-miterlimit="10"/>
<path d="M72.6672 301.966L66.8672 292.566" stroke="#263238" stroke-width="1.8289" stroke-miterlimit="10"/>
<path d="M68.6656 295.366C68.6656 295.366 69.5656 291.866 67.0656 288.366C65.4656 286.266 56.2656 279.866 54.5656 283.266C52.6656 286.966 61.3656 296.666 68.6656 295.366Z" fill="#92E3A9" stroke="#263238" stroke-width="0.9144" stroke-miterlimit="10"/>
<path d="M68.6656 295.366L60.2656 287.366" stroke="#263238" stroke-width="0.4572" stroke-miterlimit="10"/>
<path d="M75.7648 272.066L69.9648 262.566" stroke="#263238" stroke-width="1.8289" stroke-miterlimit="10"/>
<path d="M71.7647 265.366C71.7647 265.366 72.6647 261.866 70.1647 258.366C68.5647 256.266 59.3647 249.866 57.6647 253.266C55.7647 256.966 64.5647 266.666 71.7647 265.366Z" fill="#92E3A9" stroke="#263238" stroke-width="0.9144" stroke-miterlimit="10"/>
<path d="M71.7633 265.366L63.3633 257.366" stroke="#263238" stroke-width="0.4572" stroke-miterlimit="10"/>
<path d="M65.9648 365.866L73.5648 357.766" stroke="#263238" stroke-width="1.8289" stroke-miterlimit="10"/>
<path d="M71.2642 360.166C71.2642 360.166 71.0642 356.566 74.2642 353.666C76.2642 351.866 86.5642 347.566 87.5642 351.166C88.5642 355.166 78.0642 362.966 71.2642 360.166Z" fill="#92E3A9" stroke="#263238" stroke-width="0.9144" stroke-miterlimit="10"/>
<path d="M71.2656 360.166L81.6656 353.666" stroke="#263238" stroke-width="0.4572" stroke-miterlimit="10"/>
<path d="M70.9648 317.466L78.5648 309.366" stroke="#263238" stroke-width="1.8289" stroke-miterlimit="10"/>
<path d="M76.2642 311.766C76.2642 311.766 76.0642 308.166 79.2642 305.266C81.2642 303.466 91.5642 299.166 92.5642 302.766C93.6642 306.766 83.0642 314.566 76.2642 311.766Z" fill="#92E3A9" stroke="#263238" stroke-width="0.9144" stroke-miterlimit="10"/>
<path d="M76.2656 311.766L86.6656 305.366" stroke="#263238" stroke-width="0.4572" stroke-miterlimit="10"/>
<path d="M73.168 296.166L80.768 288.066" stroke="#263238" stroke-width="1.8289" stroke-miterlimit="10"/>
<path d="M78.4673 290.566C78.4673 290.566 78.2673 286.966 81.4673 284.066C83.4673 282.266 93.7673 277.966 94.7673 281.566C95.8673 285.566 85.2673 293.266 78.4673 290.566Z" fill="#92E3A9" stroke="#263238" stroke-width="0.9144" stroke-miterlimit="10"/>
<path d="M78.4688 290.566L88.8688 284.066" stroke="#263238" stroke-width="0.4572" stroke-miterlimit="10"/>
<path d="M76.3672 265.066L84.0672 256.966" stroke="#263238" stroke-width="1.8289" stroke-miterlimit="10"/>
<path d="M81.6665 259.366C81.6665 259.366 81.4665 255.766 84.6665 252.866C86.6665 251.066 96.9665 246.766 97.9665 250.366C99.0665 254.366 88.4665 262.166 81.6665 259.366Z" fill="#92E3A9" stroke="#263238" stroke-width="0.9144" stroke-miterlimit="10"/>
<path d="M81.668 259.366L92.068 252.866" stroke="#263238" stroke-width="0.4572" stroke-miterlimit="10"/>
<path d="M78.065 245.066C78.065 245.066 77.865 241.466 81.065 238.566C83.065 236.766 93.365 232.466 94.365 236.066C95.465 240.066 84.865 247.766 78.065 245.066Z" fill="#92E3A9" stroke="#263238" stroke-width="0.9144" stroke-miterlimit="10"/>
<path d="M78.0664 245.066L88.4664 238.566" stroke="#263238" stroke-width="0.4572" stroke-miterlimit="10"/>
<path d="M78.4668 245.466C78.4668 245.466 74.8668 245.266 72.3668 241.766C70.8668 239.666 67.5668 228.866 71.2668 228.266C75.3668 227.666 81.9668 238.966 78.4668 245.466Z" fill="#92E3A9" stroke="#263238" stroke-width="0.9144" stroke-miterlimit="10"/>
<path d="M78.468 245.466L73.168 234.466" stroke="#263238" stroke-width="0.4572" stroke-miterlimit="10"/>
<path d="M58.7656 180.166V384.466" stroke="#263238" stroke-width="1.8289" stroke-miterlimit="10"/>
<path d="M58.968 353.767L52.168 344.967" stroke="#263238" stroke-width="1.8289" stroke-miterlimit="10"/>
<path d="M54.2676 347.566C54.2676 347.566 54.8676 344.066 51.8676 340.766C50.0676 338.866 40.2676 333.466 38.9676 336.966C37.4676 340.866 47.1676 349.666 54.2676 347.566Z" fill="#92E3A9" stroke="#263238" stroke-width="0.9144" stroke-miterlimit="10"/>
<path d="M54.2664 347.567L45.0664 340.467" stroke="#263238" stroke-width="0.4572" stroke-miterlimit="10"/>
<path d="M58.968 315.366L52.168 306.566" stroke="#263238" stroke-width="1.8289" stroke-miterlimit="10"/>
<path d="M54.2676 309.166C54.2676 309.166 54.8676 305.666 51.8676 302.366C50.0676 300.466 40.2676 295.066 38.9676 298.566C37.4676 302.366 47.1676 311.266 54.2676 309.166Z" fill="#92E3A9" stroke="#263238" stroke-width="0.9144" stroke-miterlimit="10"/>
<path d="M54.2664 309.166L45.0664 302.066" stroke="#263238" stroke-width="0.4572" stroke-miterlimit="10"/>
<path d="M58.968 270.267L52.168 261.467" stroke="#263238" stroke-width="1.8289" stroke-miterlimit="10"/>
<path d="M54.2676 264.066C54.2676 264.066 54.8676 260.566 51.8676 257.266C50.0676 255.366 40.2676 249.966 38.9676 253.466C37.4676 257.366 47.1676 266.166 54.2676 264.066Z" fill="#92E3A9" stroke="#263238" stroke-width="0.9144" stroke-miterlimit="10"/>
<path d="M54.2664 264.067L45.0664 256.967" stroke="#263238" stroke-width="0.4572" stroke-miterlimit="10"/>
<path d="M58.968 240.267L52.168 231.467" stroke="#263238" stroke-width="1.8289" stroke-miterlimit="10"/>
<path d="M54.2676 234.066C54.2676 234.066 54.8676 230.566 51.8676 227.266C50.0676 225.366 40.2676 219.966 38.9676 223.466C37.4676 227.266 47.1676 236.166 54.2676 234.066Z" fill="#92E3A9" stroke="#263238" stroke-width="0.9144" stroke-miterlimit="10"/>
<path d="M54.2664 234.067L45.0664 226.967" stroke="#263238" stroke-width="0.4572" stroke-miterlimit="10"/>
<path d="M58.968 210.066L52.168 201.266" stroke="#263238" stroke-width="1.8289" stroke-miterlimit="10"/>
<path d="M54.2676 203.966C54.2676 203.966 54.8676 200.466 51.8676 197.166C50.0676 195.266 40.2676 189.866 38.9676 193.366C37.4676 197.166 47.1676 205.966 54.2676 203.966Z" fill="#92E3A9" stroke="#263238" stroke-width="0.9144" stroke-miterlimit="10"/>
<path d="M54.2664 203.966L45.0664 196.766" stroke="#263238" stroke-width="0.4572" stroke-miterlimit="10"/>
<path d="M58.7695 365.466L65.5695 356.666" stroke="#263238" stroke-width="1.8289" stroke-miterlimit="10"/>
<path d="M63.4709 359.366C63.4709 359.366 62.8709 355.866 65.8709 352.566C67.6709 350.666 77.4708 345.266 78.7709 348.766C80.2709 352.566 70.5709 361.366 63.4709 359.366Z" fill="#92E3A9" stroke="#263238" stroke-width="0.9144" stroke-miterlimit="10"/>
<path d="M63.4688 359.366L73.1687 351.866" stroke="#263238" stroke-width="0.4572" stroke-miterlimit="10"/>
<path d="M58.7695 304.365L65.5695 295.565" stroke="#263238" stroke-width="1.8289" stroke-miterlimit="10"/>
<path d="M63.4709 298.266C63.4709 298.266 62.8709 294.766 65.8709 291.466C67.6709 289.566 77.4708 284.166 78.7709 287.666C80.2709 291.466 70.5709 300.266 63.4709 298.266Z" fill="#92E3A9" stroke="#263238" stroke-width="0.9144" stroke-miterlimit="10"/>
<path d="M63.4688 298.266L73.1687 290.766" stroke="#263238" stroke-width="0.4572" stroke-miterlimit="10"/>
<path d="M58.7695 274.267L65.5695 265.467" stroke="#263238" stroke-width="1.8289" stroke-miterlimit="10"/>
<path d="M63.4709 268.066C63.4709 268.066 62.8709 264.566 65.8709 261.266C67.6709 259.366 77.4708 253.966 78.7709 257.466C80.2709 261.266 70.5709 270.166 63.4709 268.066Z" fill="#92E3A9" stroke="#263238" stroke-width="0.9144" stroke-miterlimit="10"/>
<path d="M63.4688 268.066L73.1687 260.566" stroke="#263238" stroke-width="0.4572" stroke-miterlimit="10"/>
<path d="M58.7695 234.365L65.5695 225.565" stroke="#263238" stroke-width="1.8289" stroke-miterlimit="10"/>
<path d="M63.4709 228.266C63.4709 228.266 62.8709 224.766 65.8709 221.466C67.6709 219.566 77.4708 214.166 78.7709 217.666C80.2709 221.466 70.5709 230.266 63.4709 228.266Z" fill="#92E3A9" stroke="#263238" stroke-width="0.9144" stroke-miterlimit="10"/>
<path d="M63.4688 228.266L73.1687 220.766" stroke="#263238" stroke-width="0.4572" stroke-miterlimit="10"/>
<path d="M58.7695 203.066L65.5695 194.266" stroke="#263238" stroke-width="1.8289" stroke-miterlimit="10"/>
<path d="M63.4669 196.866C63.4669 196.866 62.8669 193.366 65.8669 190.066C67.6669 188.166 77.4669 182.766 78.7669 186.266C80.2669 190.166 70.5669 198.966 63.4669 196.866Z" fill="#92E3A9" stroke="#263238" stroke-width="0.9144" stroke-miterlimit="10"/>
<path d="M63.4688 196.866L73.1687 189.366" stroke="#263238" stroke-width="0.4572" stroke-miterlimit="10"/>
<path d="M58.3693 182.966C58.3693 182.966 57.7693 179.466 60.7693 176.166C62.5693 174.266 72.3693 168.866 73.6693 172.366C75.1693 176.266 65.4693 185.066 58.3693 182.966Z" fill="#92E3A9" stroke="#263238" stroke-width="0.9144" stroke-miterlimit="10"/>
<path d="M58.3672 182.966L68.0672 175.466" stroke="#263238" stroke-width="0.4572" stroke-miterlimit="10"/>
<path d="M58.8689 183.466C58.8689 183.466 55.2689 183.666 52.3689 180.366C50.5689 178.366 46.2689 168.066 49.9689 167.066C53.8689 166.066 61.6689 176.666 58.8689 183.466Z" fill="#92E3A9" stroke="#263238" stroke-width="0.9144" stroke-miterlimit="10"/>
<path d="M58.8687 183.466L52.4688 172.966" stroke="#263238" stroke-width="0.4572" stroke-miterlimit="10"/>
<path d="M67.1672 437.466H45.5672L42.8672 382.866H69.8672L67.1672 437.466Z" fill="#263238" stroke="#263238" stroke-width="0.9144" stroke-miterlimit="10"/>
<path d="M76.5333 428.889C76.1596 430.01 73.2447 439.802 73.2447 439.802L71.4509 444.585C70.0308 448.247 70.554 452.508 73.1699 455.497C73.9921 456.469 75.0385 457.216 76.2343 457.665C81.242 459.384 85.7265 448.472 85.7265 448.472C85.7265 448.472 85.7265 441.296 87.5203 437.111C89.3141 432.925 93.4249 425.526 89.912 423.209C86.2497 420.817 79.8219 417.977 76.5333 428.889Z" fill="white" stroke="#1A2E35" stroke-width="1.315" stroke-linecap="round" stroke-linejoin="round"/>
<path d="M198.368 128.503C195.976 121.627 194.033 116.395 194.033 116.395C194.033 116.395 193.659 107.277 193.285 105.707C192.986 104.137 193.36 103.315 191.865 102.792C190.37 102.344 179.159 103.539 179.159 103.539C179.159 103.539 177.066 104.96 177.365 106.529C177.365 106.529 177.365 112.135 179.308 113.555C181.252 114.975 188.277 119.833 188.502 120.805C188.576 121.178 189.324 125.887 190.071 131.343L198.368 128.503Z" fill="white" stroke="#1A2E35" stroke-width="1.315" stroke-linecap="round" stroke-linejoin="round"/>
<path d="M195.513 105.706L175.856 107.798L174.66 103.015C174.51 102.566 174.809 102.118 175.258 101.969C175.706 101.894 176.155 102.118 176.304 102.566L177.126 105.93L193.57 104.211L192.897 100.324C192.747 99.8757 192.972 99.3526 193.345 99.2031C193.794 99.0536 194.317 99.2778 194.466 99.6515C194.541 99.801 194.541 99.8758 194.541 100.025L195.513 105.706Z" fill="#1A2E35"/>
<path d="M183.179 105.78L181.012 106.528" stroke="#1A2E35" stroke-width="1.315" stroke-linecap="round" stroke-linejoin="round"/>
<path d="M166.216 104.808L224.215 98.9035L207.922 59.5146L162.18 95.7643L166.216 104.808Z" fill="#C66666" stroke="#1A2E35" stroke-width="0.8747" stroke-miterlimit="10" stroke-linecap="round" stroke-linejoin="round"/>
<path d="M156.275 103.836C155.154 101.369 156.275 98.4544 158.742 97.3332L162.18 95.7637L166.216 104.807L162.778 106.377C160.311 107.423 157.322 106.302 156.275 103.836Z" fill="#C66666" stroke="#1A2E35" stroke-width="0.8747" stroke-miterlimit="10" stroke-linecap="round" stroke-linejoin="round"/>
<path d="M202.693 62.9524C204.412 60.2617 207.626 58.9163 210.691 59.5143C215.175 60.4112 222.201 64.8957 226.162 72.9677C234.384 89.8593 227.881 98.1556 223.92 98.9031C209.27 101.893 194.397 76.2564 202.693 62.9524Z" fill="#1A2E35" stroke="#1A2E35" stroke-width="1.315" stroke-linecap="round" stroke-linejoin="round"/>
<path d="M217.488 83.2079L206.8 90.1589C206.8 90.1589 200.97 83.5069 200.746 76.4812L215.62 74.9863C215.545 74.9863 214.349 78.4244 217.488 83.2079Z" fill="#ED7A7A" stroke="#1A2E35" stroke-width="0.8747" stroke-miterlimit="10" stroke-linecap="round" stroke-linejoin="round"/>
<path d="M213.527 79.8444C214.051 82.0867 215.844 83.6562 217.489 83.2825C219.133 82.9088 220.105 80.7413 219.581 78.4991C219.058 76.2568 217.265 74.6872 215.62 75.0609C213.901 75.3599 213.004 77.5274 213.527 79.8444Z" fill="white" stroke="#1A2E35" stroke-width="1.315" stroke-miterlimit="10" stroke-linecap="round" stroke-linejoin="round"/>
<path d="M179.982 108.621L192.09 107.201L191.94 102.791L179.234 103.538L179.982 108.621Z" fill="white" stroke="#1A2E35" stroke-width="1.315" stroke-linecap="round" stroke-linejoin="round"/>
<path d="M177.963 109.668C177.963 109.668 176.916 104.884 177.439 104.361C177.963 103.838 186.259 102.642 186.558 103.763C186.782 104.884 186.932 105.482 185.96 105.706C184.988 105.93 183.195 106.528 183.195 106.528C183.195 106.528 188.501 109.593 187.903 113.554" fill="white"/>
<path d="M177.963 109.668C177.963 109.668 176.916 104.884 177.439 104.361C177.963 103.838 186.259 102.642 186.558 103.763C186.782 104.884 186.932 105.482 185.96 105.706C184.988 105.93 183.195 106.528 183.195 106.528C183.195 106.528 188.501 109.593 187.903 113.554" stroke="#1A2E35" stroke-width="1.315" stroke-linecap="round" stroke-linejoin="round"/>
<path d="M187.006 106.155L184.465 106.604" stroke="#1A2E35" stroke-width="1.315" stroke-linecap="round" stroke-linejoin="round"/>
<path d="M185.74 120.653L198.371 117.215C198.371 117.215 213.394 161.013 213.394 166.32C213.394 175.887 210.927 178.951 206.368 178.877C205.696 178.877 175.201 169.609 166.905 168.413C144.109 165.274 146.426 133.658 146.426 133.658C146.426 133.658 171.464 143.524 179.013 146.887C184.095 149.055 189.327 150.699 194.709 151.82L185.74 120.653Z" fill="#FF7E7E"/>
<path d="M185.74 120.653L198.371 117.215C198.371 117.215 213.394 161.013 213.394 166.32C213.394 175.887 210.927 178.951 206.368 178.877C205.696 178.877 175.201 169.609 166.905 168.413C144.109 165.274 146.426 133.658 146.426 133.658C146.426 133.658 171.464 143.524 179.013 146.887C184.095 149.055 189.327 150.699 194.709 151.82L185.74 120.653Z" stroke="#1A2E35" stroke-width="0.8747" stroke-miterlimit="10" stroke-linecap="round" stroke-linejoin="round"/>
<path d="M191.793 164.602C192.466 166.694 193.662 168.638 195.231 170.282" stroke="#1A2E35" stroke-width="1.315" stroke-linecap="round" stroke-linejoin="round"/>
<path d="M194.628 151.298C194.628 151.298 190.965 155.409 191.489 162.36" stroke="#1A2E35" stroke-width="1.315" stroke-linecap="round" stroke-linejoin="round"/>
<path d="M91.6367 145.767C97.4666 155.707 98.0645 168.488 93.2063 178.952" stroke="#1A2E35" stroke-width="1.315" stroke-linecap="round" stroke-linejoin="round"/>
<path d="M110.695 207.802C123.177 210.866 136.257 211.688 149.038 210.193" stroke="#1A2E35" stroke-width="1.315" stroke-linecap="round" stroke-linejoin="round"/>
<path d="M118.84 218.639C125.417 215.649 132.891 214.752 139.917 216.098" stroke="#1A2E35" stroke-width="1.315" stroke-linecap="round" stroke-linejoin="round"/>
<path d="M90.0613 244.278C90.0613 244.278 88.7907 354.447 87.7443 359.903C86.7727 365.284 78.7753 373.879 79.149 389.725C79.5228 405.57 78.6259 417.005 78.6259 417.005C78.6259 417.005 75.9352 423.583 76.2341 425.152C78.2521 435.466 89.6876 430.534 89.6876 430.534C89.6876 430.534 93.051 425.526 93.3499 421.639C93.6489 417.753 106.504 372.833 108.522 367.452C110.54 362.07 128.703 283.218 128.703 283.218C128.703 283.218 140.512 343.983 140.512 349.364C140.512 354.746 151.947 425.601 151.947 425.601C151.947 425.601 150.303 434.121 150.303 435.691C150.303 437.26 155.012 444.211 155.012 444.211C160.468 439.727 167.269 437.26 174.295 437.26C174.295 437.26 171.679 426.722 171.679 423.956C171.679 421.266 168.39 360.949 168.017 346.3C167.643 331.65 161.29 250.033 158.973 243.007C156.656 235.981 142.53 232.992 136.401 232.169C130.496 231.347 90.0613 244.278 90.0613 244.278Z" fill="#1A2E35" stroke="#1A2E35" stroke-width="1.315" stroke-linecap="round" stroke-linejoin="round"/>
<path d="M165.477 151.149C165.85 147.337 164.131 141.582 164.131 141.582C162.263 138.891 152.173 134.78 148.436 132.09C144.699 129.399 138.42 126.933 134.683 126.933C130.946 126.933 123.098 127.157 123.098 127.157C118.913 129.175 114.653 130.969 110.243 132.538C106.132 133.809 87.8203 141.881 87.8203 143.301C87.8203 144.721 91.5574 220.434 91.5574 220.434L88.792 247.864C88.194 253.769 93.7249 258.328 99.4053 256.684C113.83 252.498 134.609 246.893 134.609 246.893L156.508 253.844C162.487 255.937 162.562 248.836 161.59 242.558L154.041 210.643C153.892 210.643 165.477 151.224 165.477 151.149Z" fill="#FF7E7E"/>
<path d="M165.477 151.149C165.85 147.337 164.131 141.582 164.131 141.582C162.263 138.891 152.173 134.78 148.436 132.09C144.699 129.399 138.42 126.933 134.683 126.933C130.946 126.933 123.098 127.157 123.098 127.157C118.913 129.175 114.653 130.969 110.243 132.538C106.132 133.809 87.8203 141.881 87.8203 143.301C87.8203 144.721 91.5574 220.434 91.5574 220.434L88.792 247.864C88.194 253.769 93.7249 258.328 99.4053 256.684C113.83 252.498 134.609 246.893 134.609 246.893L156.508 253.844C162.487 255.937 162.562 248.836 161.59 242.558L154.041 210.643C153.892 210.643 165.477 151.224 165.477 151.149Z" stroke="#1A2E35" stroke-width="0.8747" stroke-miterlimit="10" stroke-linecap="round" stroke-linejoin="round"/>
<path d="M146.57 158.923C146.346 163.482 144.627 177.683 140.143 189.044C137.377 196.144 134.911 201.974 134.238 203.245L134.089 203.469C133.939 203.693 133.491 202.722 132.893 200.853V200.778C131.921 197.714 130.576 192.557 129.156 187.101C127.212 179.402 125.194 171.33 124.297 168.415C120.635 156.382 119.364 155.485 118.767 144.05C118.169 132.614 121.158 127.905 121.158 127.905C126.315 120.88 137.751 126.261 140.217 127.457C142.684 128.728 145.599 128.429 146.271 133.586C147.542 141.434 147.542 141.434 146.57 158.923Z" fill="white" stroke="#1A2E35" stroke-width="1.315" stroke-linecap="round" stroke-linejoin="round"/>
<path d="M119.586 132.539L125.64 145.17L136.403 139.415L146.493 144.049" stroke="#1A2E35" stroke-width="1.315" stroke-linecap="round" stroke-linejoin="round"/>
<path d="M138.047 148.608L140.065 189.043C137.3 196.143 134.833 201.973 134.161 203.244L134.011 203.468L132.815 200.852V200.777C131.844 197.713 130.498 192.556 129.078 187.1L134.684 148.757L131.47 142.329L136.328 139.489L142.083 142.329L138.047 148.608Z" fill="#1A2E35"/>
<path d="M136.401 139.415C136.401 139.415 122.349 132.763 123.246 130.147C125.339 123.944 123.545 118.562 121.527 112.284C122.798 114.751 124.517 116.843 126.983 118.637C128.553 119.758 130.272 120.58 131.916 121.029C134.308 121.627 136.7 121.627 138.942 121.029C138.867 121.178 138.867 121.328 138.867 121.403C138.643 122.3 138.494 123.271 138.494 124.168C138.494 124.318 138.494 124.542 138.494 124.691V124.766C138.643 127.382 139.764 129.624 142.903 130.596C144.398 130.895 139.989 139.415 136.401 139.415Z" fill="white" stroke="#1A2E35" stroke-width="1.315" stroke-linecap="round" stroke-linejoin="round"/>
<path d="M138.946 121.029C136.704 121.626 126.689 116.992 124.297 116.395C126.091 118.263 127.586 122.897 138.498 124.915V124.84V124.766V124.168C138.498 123.271 138.573 122.299 138.797 121.402C138.871 121.253 138.946 121.178 138.946 121.029Z" fill="#1A2E35" stroke="#1A2E35" stroke-width="1.315" stroke-linecap="round" stroke-linejoin="round"/>
<path d="M150.007 88.8152C149.932 89.3384 149.858 89.8616 149.783 90.31C149.708 90.6837 149.633 91.1322 149.484 91.5059C149.334 90.908 149.11 90.3848 148.886 89.7868C147.765 86.7224 146.27 83.8823 144.327 81.5653C143.355 82.1632 142.309 82.6864 141.188 83.1348C141.412 81.939 141.711 80.7431 142.234 79.4725C142.383 79.0988 142.533 78.7251 142.757 78.3514C143.803 77.4545 145.672 77.8282 147.167 79.2483C149.035 80.8926 150.455 84.1065 150.007 88.8152Z" fill="#1A2E35" stroke="#1A2E35" stroke-width="1.315" stroke-linecap="round" stroke-linejoin="round"/>
<path d="M144.474 110.267C144.549 110.416 144.474 110.566 144.325 110.64H144.25C143.876 110.715 143.502 110.79 143.129 110.79C140.886 111.089 138.569 110.341 136.85 108.921C136.701 108.847 136.701 108.622 136.85 108.548C136.925 108.398 137.149 108.398 137.224 108.548C139.167 110.117 141.709 110.64 144.1 110.117C144.25 110.042 144.399 110.117 144.474 110.267Z" fill="white" stroke="#1A2E35" stroke-width="1.315" stroke-linecap="round" stroke-linejoin="round"/>
<path d="M147.241 104.287C145.821 105.707 143.354 105.109 143.354 105.109L143.055 99.2792L142.98 97.3359C143.205 97.8591 143.429 98.3823 143.728 98.8308C144.7 100.774 145.895 102.568 147.241 104.287Z" fill="white" stroke="#1A2E35" stroke-width="1.315" stroke-linecap="round" stroke-linejoin="round"/>
<path d="M144.325 81.4901C143.354 82.088 142.307 82.6112 141.186 83.0596C140.588 83.2838 139.99 83.5081 139.393 83.6576C136.478 84.4797 133.488 84.7787 130.424 85.0029C129.751 85.0776 129.078 85.0776 128.406 85.1524C125.192 85.3019 121.081 86.124 117.344 86.3483C117.792 85.1524 118.39 84.0313 119.063 82.9849C122.65 77.6782 129.153 74.8381 135.73 76.1834C138.197 76.7066 140.364 77.8277 142.158 79.3973C142.98 80.07 143.728 80.7426 144.325 81.4901Z" fill="white" stroke="#1A2E35" stroke-width="1.315" stroke-linecap="round" stroke-linejoin="round"/>
<path d="M149.48 91.5811C149.48 91.5059 149.48 91.5059 149.48 91.5059V91.5811Z" fill="white" stroke="#1A2E35" stroke-width="1.315" stroke-linecap="round" stroke-linejoin="round"/>
<path d="M127.511 93.7483L123.326 97.9338L128.334 107.127L123.326 106.529C123.326 106.23 123.251 105.931 123.251 105.632C122.728 102.941 120.411 99.6529 117.571 99.0549C117.347 98.9802 117.122 98.9802 116.823 98.9802C114.432 98.9054 113.086 100.774 113.086 102.941C108.976 100.027 106.584 95.1684 107.331 90.1607C107.481 89.1143 108.901 86.9468 110.321 85.2277C110.844 85.5267 111.442 85.8257 112.04 85.9004C113.61 86.1994 115.478 86.2741 117.347 86.1246C121.084 85.9004 125.195 85.0783 128.408 84.9288C129.081 84.854 129.754 84.854 130.426 84.7793L127.511 93.7483Z" fill="#1A2E35" stroke="#1A2E35" stroke-width="1.315" stroke-linecap="round" stroke-linejoin="round"/>
<path d="M138.942 121.029C136.7 121.627 134.233 121.627 131.916 121.029C130.197 120.581 128.553 119.833 126.983 118.637C124.517 116.844 122.798 114.825 121.527 112.284C121.303 111.836 121.079 111.387 120.929 110.939C120.257 111.088 119.584 111.088 118.762 110.715C116.445 109.594 114.576 107.65 113.605 105.184C113.306 104.436 113.156 103.689 113.156 102.942C113.156 100.774 114.502 98.9055 116.893 98.9803C117.118 98.9803 117.342 98.9803 117.641 99.055C120.481 99.5782 122.798 102.942 123.321 105.632C123.396 105.931 123.396 106.23 123.396 106.529L128.404 107.052L123.396 97.8592L127.581 93.6736L130.496 84.9289C133.561 84.7046 136.55 84.4804 139.465 83.5835C140.063 83.434 140.661 83.2098 141.259 82.9856C142.38 82.5371 143.427 82.0887 144.398 81.416C146.341 83.733 147.911 86.5732 148.957 89.6376C149.182 90.2355 149.331 90.7587 149.555 91.3566C149.555 91.3566 149.555 91.3566 149.555 91.4314C149.555 91.4314 149.555 91.4314 149.63 91.5061C151.125 96.5138 151.648 101.82 151.349 106.155C150.677 113.63 145.37 119.459 138.942 121.029Z" fill="white" stroke="#1A2E35" stroke-width="1.315" stroke-linecap="round" stroke-linejoin="round"/>
<path d="M131.098 82.9853L130.426 85.0034C129.753 85.0781 129.08 85.0781 128.408 85.1528C125.194 85.3023 121.083 86.1245 117.346 86.3487C115.477 86.4982 113.609 86.4234 112.039 86.1245C111.367 85.975 110.769 85.7508 110.32 85.4518C111.292 84.3307 112.264 83.4338 112.862 83.359C114.132 83.2096 116.524 83.0601 119.14 83.0601C124.596 82.8359 131.098 82.9853 131.098 82.9853Z" fill="white" stroke="#1A2E35" stroke-width="1.315" stroke-linecap="round" stroke-linejoin="round"/>
<path d="M148.438 77.753C148.064 78.2762 147.616 78.7994 147.167 79.2478C146.345 80.1447 145.299 80.8921 144.252 81.5648C143.281 82.1627 142.234 82.6859 141.113 83.1344C140.515 83.3586 139.917 83.5828 139.319 83.7323C136.404 84.5545 133.415 84.8534 130.35 85.0777C129.678 85.1524 129.005 85.1524 128.332 85.2271C125.118 85.3766 121.008 86.1988 117.27 86.423C115.402 86.5725 113.533 86.4977 111.964 86.1988C111.291 86.0493 110.693 85.8251 110.245 85.5261C106.732 83.2839 106.732 76.7813 113.384 70.9515C115.85 68.784 119.886 69.5314 123.175 69.6809C126.464 69.7556 129.827 70.1293 133.116 69.8304C135.956 69.5314 146.569 66.2428 147.915 69.9799C149.409 73.5674 150.755 74.5391 148.438 77.753Z" fill="#1A2E35" stroke="#1A2E35" stroke-width="1.315" stroke-linecap="round" stroke-linejoin="round"/>
<path d="M142.98 97.3359C143.205 97.8591 143.429 98.3823 143.728 98.8308C144.7 100.774 145.895 102.568 147.315 104.287C145.895 105.707 143.429 105.109 143.429 105.109" fill="white"/>
<path d="M142.98 97.3359C143.205 97.8591 143.429 98.3823 143.728 98.8308C144.7 100.774 145.895 102.568 147.315 104.287C145.895 105.707 143.429 105.109 143.429 105.109" stroke="#1A2E35" stroke-width="1.315" stroke-linecap="round" stroke-linejoin="round"/>
<path d="M144.103 110.041C141.711 110.639 139.17 110.041 137.227 108.472C137.227 108.546 137.376 122.747 144.103 110.041Z" fill="white" stroke="#1A2E35" stroke-width="1.315" stroke-linecap="round" stroke-linejoin="round"/>
<path d="M137.748 97.0362C137.823 98.0078 137.449 98.83 136.776 98.83C136.104 98.9047 135.506 98.1573 135.431 97.1857C135.282 96.214 135.73 95.3919 136.403 95.3919C137.001 95.3171 137.673 96.0645 137.748 97.0362Z" fill="#1A2E35"/>
<path d="M148.663 96.1394C148.738 97.1111 148.364 97.9332 147.691 97.9332C147.093 98.008 146.57 97.3353 146.346 96.5131C146.346 96.4384 146.346 96.3637 146.271 96.2889C146.196 95.3173 146.57 94.4951 147.243 94.4951C147.467 94.4951 147.691 94.5699 147.841 94.7193C148.289 94.9436 148.588 95.5415 148.663 96.1394Z" fill="#1A2E35"/>
<path d="M131.098 94.4956C132.592 92.5523 134.909 90.8333 137.824 91.4312L131.098 94.4956Z" fill="white"/>
<path d="M131.098 94.4956C132.592 92.5523 134.909 90.8333 137.824 91.4312" stroke="#1A2E35" stroke-width="1.315" stroke-linecap="round" stroke-linejoin="round"/>
<path d="M143.504 90.2357C145.896 89.563 147.689 90.2357 149.633 91.7305L143.504 90.2357Z" fill="white"/>
<path d="M143.504 90.2357C145.896 89.563 147.689 90.2357 149.633 91.7305" stroke="#1A2E35" stroke-width="1.315" stroke-linecap="round" stroke-linejoin="round"/>
<path d="M3.81398 156.381C3.81398 156.381 0.151649 152.868 0.749581 155.783C1.34751 158.698 5.23407 161.687 7.02787 163.107C8.82167 164.528 13.1567 163.705 13.1567 163.705L3.81398 156.381Z" fill="white" stroke="#1A2E35" stroke-width="1.315" stroke-linecap="round" stroke-linejoin="round"/>
<path d="M43.3545 164.079C43.3545 164.079 38.4963 157.576 35.5813 154.512C32.6664 151.448 29.0041 149.205 26.0144 149.43C22.95 149.579 19.2129 150.551 16.7465 150.551C14.28 150.551 11.8135 148.906 11.4398 150.551C11.0661 152.195 11.8135 152.344 13.8316 153.167C15.8496 154.063 20.1846 155.259 20.1846 155.259C20.1846 155.259 14.8032 157.053 13.1589 157.875C11.5146 158.697 8.07646 157.053 8.07646 157.053C8.07646 157.053 2.17188 152.344 2.17188 154.811C2.17188 157.277 6.28266 160.342 8.52491 161.911C10.7672 163.481 11.5893 164.976 14.6537 164.378C17.7181 163.78 30.3494 160.491 30.3494 160.491L37.0762 168.489L43.3545 164.079Z" fill="white" stroke="#1A2E35" stroke-width="1.315" stroke-linecap="round" stroke-linejoin="round"/>
<path d="M17.8692 163.107C17.8692 163.107 13.7584 164.303 12.1888 163.107C10.5445 161.911 4.86414 156.978 4.26621 153.914C3.66828 150.85 14.4311 159.594 14.4311 159.594C14.4311 159.594 23.2506 155.484 25.1938 154.886C26.4644 154.587 27.8098 154.886 28.8562 155.708" fill="white"/>
<path d="M17.8692 163.107C17.8692 163.107 13.7584 164.303 12.1888 163.107C10.5445 161.911 4.86414 156.978 4.26621 153.914C3.66828 150.85 14.4311 159.594 14.4311 159.594C14.4311 159.594 23.2506 155.484 25.1938 154.886C26.4644 154.587 27.8098 154.886 28.8562 155.708" stroke="#1A2E35" stroke-width="1.315" stroke-linecap="round" stroke-linejoin="round"/>
<path d="M87.301 144.048C86.9273 146.066 67.6439 187.248 66.2239 188.071C64.8038 188.893 63.9816 188.295 63.9816 188.295L42.9045 161.911L30.8711 170.282C34.6829 178.653 38.9432 186.725 43.7266 194.498C51.6492 207.578 65.5512 217.369 68.6156 216.323C71.68 215.277 92.2339 182.465 92.2339 182.465L95.4478 158.996C96.3447 152.793 93.0561 146.739 87.301 144.048Z" fill="#FF7E7E"/>
<path opacity="0.2" d="M61.5146 201.45C60.543 198.609 61.2157 195.321 63.2337 193.078C63.2337 196.292 64.4296 199.506 66.6718 201.898C66.7466 199.506 66.896 197.189 66.9708 194.798C68.8393 195.62 67.7929 198.983 69.512 200.029C70.7079 200.777 72.2027 199.805 73.3238 198.908C76.9114 195.919 80.4243 192.854 84.0118 189.865C82.3675 197.937 78.7052 205.486 73.3238 211.689C71.7542 213.558 69.811 215.351 67.494 215.875C63.9064 216.622 60.4683 214.38 57.7028 212.063C49.556 205.261 42.8293 196.965 37.8216 187.622C35.8036 183.885 34.0845 179.924 32.5149 175.963C31.917 174.543 31.3191 172.973 31.4685 171.403C31.6928 166.769 35.8036 167.367 38.0458 169.834C40.2133 172.226 41.4092 177.308 43.203 180.223C48.0612 188.295 54.2647 195.47 61.5146 201.45Z" fill="black"/>
<path d="M87.2971 144.048C86.9233 146.066 67.64 187.248 66.2199 188.071C64.7999 188.893 63.9777 188.295 63.9777 188.295L42.9006 161.911L30.8672 170.282C34.679 178.653 38.9393 186.725 43.7227 194.498C51.6453 207.578 65.5473 217.369 68.6117 216.323C71.6761 215.277 92.23 182.465 92.23 182.465" fill="#FF7E7E"/>
<path d="M87.2971 144.048C86.9233 146.066 67.64 187.248 66.2199 188.071C64.7998 188.893 63.9777 188.295 63.9777 188.295L42.9006 161.911L30.8672 170.282C34.679 178.653 38.9393 186.725 43.7227 194.498C51.6453 207.578 65.5473 217.369 68.6117 216.323C71.6761 215.277 92.23 182.465 92.23 182.465" stroke="#1A2E35" stroke-width="0.8747" stroke-miterlimit="10" stroke-linecap="round" stroke-linejoin="round"/>
<path d="M167.947 348.468C167.723 356.615 166.527 364.238 163.238 369.993" stroke="#BFBFBF" stroke-width="1.315" stroke-miterlimit="10" stroke-linecap="round" stroke-linejoin="round"/>
<path d="M167.57 334.267C167.795 337.406 167.944 340.545 167.944 343.684" stroke="#BFBFBF" stroke-width="1.315" stroke-miterlimit="10" stroke-linecap="round" stroke-linejoin="round"/>
<path d="M108.45 362.444C105.984 366.929 102.77 370.965 98.2852 374.403" stroke="#BFBFBF" stroke-width="1.315" stroke-miterlimit="10" stroke-linecap="round" stroke-linejoin="round"/>
<path d="M112.862 352.129C112.114 354.371 111.292 356.464 110.32 358.557" stroke="#BFBFBF" stroke-width="1.315" stroke-miterlimit="10" stroke-linecap="round" stroke-linejoin="round"/>
<path d="M165.18 395.405C165.329 410.877 167.048 424.256 169.066 436.289" stroke="#BFBFBF" stroke-width="1.315" stroke-miterlimit="10" stroke-linecap="round" stroke-linejoin="round"/>
<path d="M165.333 385.539C165.258 386.884 165.258 388.155 165.258 389.426" stroke="#BFBFBF" stroke-width="1.315" stroke-miterlimit="10" stroke-linecap="round" stroke-linejoin="round"/>
<path d="M88.7178 405.869C87.5967 414.24 85.8029 422.611 83.2617 430.683" stroke="#BFBFBF" stroke-width="1.315" stroke-miterlimit="10" stroke-linecap="round" stroke-linejoin="round"/>
<path d="M89.6912 396.227C89.5417 398.319 89.3922 400.412 89.168 402.505" stroke="#BFBFBF" stroke-width="1.315" stroke-miterlimit="10" stroke-linecap="round" stroke-linejoin="round"/>
<path d="M193.808 444.958C193.659 445.332 193.509 445.631 193.36 446.005C192.313 448.097 190.37 450.34 187.306 451.685C181.924 454.002 169.741 454.151 165.481 456.693C161.071 459.383 155.989 455.646 155.017 454.824C154.942 454.749 154.868 454.675 154.793 454.45L156.288 453.628C159.427 453.18 162.641 452.657 165.63 451.386C168.022 450.34 170.115 448.845 172.432 447.574C177.888 444.585 186.184 442.492 192.388 443.239C193.21 443.538 193.808 444.286 193.808 444.958Z" fill="#1A2E35" stroke="#1A2E35" stroke-width="1.315" stroke-linecap="round" stroke-linejoin="round"/>
<path d="M193.804 444.96C193.73 444.287 193.206 443.54 192.384 443.39C186.181 442.643 177.959 444.735 172.428 447.725C170.186 448.996 168.018 450.49 165.627 451.537C162.712 452.807 159.498 453.331 156.284 453.779L154.789 454.601C154.117 452.658 155.013 444.137 155.013 444.137L167.645 437.934L169.14 437.187C169.439 437.261 169.812 437.411 170.111 437.485C174.222 438.681 178.408 439.653 182.593 440.251C186.928 440.625 193.356 439.503 194.029 441.82C194.328 442.493 194.253 443.689 193.804 444.96Z" fill="white" stroke="#1A2E35" stroke-width="1.315" stroke-linecap="round" stroke-linejoin="round"/>
<path d="M193.804 444.959C193.879 445.333 193.729 445.781 193.355 446.005" stroke="#1A2E35" stroke-width="1.315" stroke-linecap="round" stroke-linejoin="round"/>
<path d="M133.567 203.693C132.969 215.278 133.343 227.013 134.614 238.523L133.567 203.693Z" fill="white"/>
<path d="M133.567 203.693C132.969 215.278 133.343 227.013 134.614 238.523" stroke="#1A2E35" stroke-width="1.315" stroke-linecap="round" stroke-linejoin="round"/>
<path d="M95.229 154.588C97.3217 162.66 96.649 171.405 93.2109 178.954" stroke="#1A2E35" stroke-width="1.315" stroke-linecap="round" stroke-linejoin="round"/>
<path d="M94.0312 150.852C94.2555 151.375 94.405 151.898 94.5544 152.421" stroke="#1A2E35" stroke-width="1.315" stroke-linecap="round" stroke-linejoin="round"/>
<path d="M91.6367 145.769C92.1599 146.665 92.6084 147.562 93.0568 148.534" stroke="#1A2E35" stroke-width="1.315" stroke-linecap="round" stroke-linejoin="round"/>
<path d="M110.695 207.805C123.177 210.869 136.257 211.691 149.038 210.196" stroke="#1A2E35" stroke-width="1.315" stroke-linecap="round" stroke-linejoin="round"/>
<path d="M118.84 218.641C125.417 215.651 132.891 214.754 139.917 216.1" stroke="#1A2E35" stroke-width="1.315" stroke-linecap="round" stroke-linejoin="round"/>
<path d="M236.485 41.4289V14.223C236.485 11.4575 234.242 9.29004 231.552 9.29004H188.874C186.109 9.29004 183.941 11.5323 183.941 14.223V41.4289C183.941 44.1943 186.184 46.3618 188.874 46.3618H203.748L202.552 56.6762H210.25L207.784 70.8023L219.369 50.4726H211.895L212.717 46.2871H231.627C234.242 46.3618 236.485 44.1943 236.485 41.4289Z" fill="white" stroke="#1A2E35" stroke-width="0.871255" stroke-miterlimit="10" stroke-linecap="round" stroke-linejoin="round"/>
<path d="M192.008 19.9043H220.858" stroke="#1A2E35" stroke-width="0.871255" stroke-miterlimit="10" stroke-linecap="round" stroke-linejoin="round"/>
<path d="M192.008 27.6035H228.332" stroke="#1A2E35" stroke-width="0.871255" stroke-miterlimit="10" stroke-linecap="round" stroke-linejoin="round"/>
<path d="M192.008 35.3008H222.727" stroke="#1A2E35" stroke-width="0.871255" stroke-miterlimit="10" stroke-linecap="round" stroke-linejoin="round"/>
<g clip-path="url(#clip0)">
<path d="M21.6695 137.96L2.61179 133.958C1.78596 133.767 1.27775 133.068 1.34128 132.243L2.48474 118.775C2.73884 117.695 3.75525 116.996 4.83519 117.251L9.28199 118.203C9.53609 118.267 9.85372 118.394 9.98077 118.648L11.5689 120.554L22.8765 122.968C23.9564 123.222 24.6552 124.238 24.4011 125.318L23.5753 136.562C23.5753 137.452 22.6224 138.15 21.6695 137.96Z" fill="#F0A202"/>
<path d="M2.80302 133.958L21.8607 137.96C22.6866 138.151 23.4489 137.642 23.7665 136.88C23.7665 136.88 26.4346 129.448 27.7051 125.89C28.0862 124.874 27.451 123.794 26.4346 123.603L19.0656 122.015L7.75802 119.665C6.67809 119.41 5.59815 120.109 5.40757 121.189L1.59603 131.798C1.2784 132.751 1.85014 133.767 2.80302 133.958Z" fill="#F0A202"/>
<path d="M21.603 138.278L2.54527 134.276C1.59239 134.086 0.893607 133.133 0.957133 132.18L2.16412 118.712C2.41822 117.442 3.68874 116.616 4.95925 116.87L9.40605 117.823C9.7872 117.887 10.1048 118.077 10.3589 118.395L11.8835 120.173L23.0641 122.524C24.3346 122.778 25.1604 124.049 24.9063 125.319L23.9534 136.5C23.8899 137.071 23.6358 137.58 23.1911 137.961C22.7464 138.278 22.1112 138.405 21.603 138.278ZM2.8629 118.776L1.65592 132.18C1.59239 132.815 2.03707 133.387 2.67233 133.514L21.73 137.516C22.1112 137.58 22.4923 137.516 22.7464 137.262C23.0641 137.071 23.2546 136.69 23.2546 136.309L24.0805 125.065C24.2711 124.176 23.6993 123.286 22.81 123.096L11.4389 120.809L9.7872 118.839C9.66015 118.649 9.46957 118.585 9.279 118.522L4.8322 117.569C3.94284 117.378 3.05348 117.95 2.8629 118.776Z" fill="#293241"/>
<path d="M6.73621 131.606L4.51282 131.162C4.32224 131.098 4.19519 130.907 4.25871 130.717C4.32224 130.526 4.51282 130.399 4.70339 130.463L6.92679 130.907C7.11737 130.971 7.24442 131.162 7.18089 131.352C7.11737 131.479 6.92679 131.606 6.73621 131.606Z" fill="#293241"/>
</g>
<g clip-path="url(#clip1)">
<path d="M271.946 49.2203C276.75 51.1308 280.152 55.8255 280.153 61.3051C280.095 67.65 275.445 72.9737 269.395 74.0457C275.426 72.95 280.031 67.6452 280.032 61.3093C280.083 55.8248 276.71 51.1373 271.946 49.2203Z" stroke="black" stroke-width="0.871255"/>
<path d="M265.036 67.2655L259.41 61.6392L261.925 59.1239L265.036 62.3011L272.582 54.5566L275.098 57.0058L265.036 67.2655Z" fill="#FF7E7E"/>
</g>
<g clip-path="url(#clip2)">
<path d="M134.246 7.35643H130.602L135.918 2.04004V5.68461C135.918 6.58739 135.182 7.35643 134.246 7.35643Z" fill="#EE6C4D"/>
<mask id="path-187-inside-1" fill="white">
<path d="M151.91 31.8989H132.584C131.347 31.8989 130.344 30.8958 130.344 29.6587V7.22283L135.827 1.73926H151.944C153.181 1.73926 154.184 2.74235 154.184 3.9795V29.6587C154.15 30.8958 153.147 31.8989 151.91 31.8989ZM130.912 7.45688V29.6587C130.912 30.5949 131.648 31.3305 132.584 31.3305H151.944C152.88 31.3305 153.615 30.5949 153.615 29.6587V3.9795C153.615 3.04328 152.88 2.30768 151.944 2.30768H136.061L130.912 7.45688Z"/>
</mask>
<path d="M130.344 7.22283L129.728 6.60676L129.472 6.86194V7.22283H130.344ZM135.827 1.73926V0.868003H135.466L135.211 1.12319L135.827 1.73926ZM154.184 29.6587L155.055 29.6822L155.055 29.6704V29.6587H154.184ZM130.912 7.45688L130.296 6.84081L130.041 7.096V7.45688H130.912ZM136.061 2.30768V1.43642H135.7L135.445 1.69161L136.061 2.30768ZM151.91 31.0276H132.584V32.7701H151.91V31.0276ZM132.584 31.0276C131.828 31.0276 131.215 30.4146 131.215 29.6587H129.472C129.472 31.377 130.866 32.7701 132.584 32.7701V31.0276ZM131.215 29.6587V7.22283H129.472V29.6587H131.215ZM130.96 7.8389L136.443 2.35533L135.211 1.12319L129.728 6.60676L130.96 7.8389ZM135.827 2.61051H151.944V0.868003H135.827V2.61051ZM151.944 2.61051C152.7 2.61051 153.313 3.22353 153.313 3.9795H155.055C155.055 2.26117 153.662 0.868003 151.944 0.868003V2.61051ZM153.313 3.9795V29.6587H155.055V3.9795H153.313ZM153.313 29.6351C153.292 30.4141 152.662 31.0276 151.91 31.0276V32.7701C153.633 32.7701 155.009 31.3775 155.055 29.6822L153.313 29.6351ZM130.041 7.45688V29.6587H131.783V7.45688H130.041ZM130.041 29.6587C130.041 31.0761 131.167 32.2017 132.584 32.2017V30.4592C132.129 30.4592 131.783 30.1137 131.783 29.6587H130.041ZM132.584 32.2017H151.944V30.4592H132.584V32.2017ZM151.944 32.2017C153.361 32.2017 154.487 31.0761 154.487 29.6587H152.744C152.744 30.1137 152.399 30.4592 151.944 30.4592V32.2017ZM154.487 29.6587V3.9795H152.744V29.6587H154.487ZM154.487 3.9795C154.487 2.5621 153.361 1.43642 151.944 1.43642V3.17893C152.399 3.17893 152.744 3.52446 152.744 3.9795H154.487ZM151.944 1.43642H136.061V3.17893H151.944V1.43642ZM135.445 1.69161L130.296 6.84081L131.528 8.07295L136.677 2.92375L135.445 1.69161Z" fill="black" mask="url(#path-187-inside-1)"/>
<path d="M118.572 11.87L115.195 13.2075L118.171 6.28613L119.509 9.66321C119.876 10.566 119.442 11.5356 118.572 11.87Z" fill="#EE6C4D"/>
<mask id="path-190-inside-2" fill="white">
<path d="M125.256 35.5088C124.955 35.5088 124.654 35.442 124.353 35.3082C123.818 35.0742 123.383 34.6395 123.149 34.0711L114.891 13.2067L117.967 6.08479L132.946 0.166551C133.515 -0.0675034 134.117 -0.034067 134.652 0.199988C135.187 0.434043 135.621 0.868716 135.855 1.43713C135.922 1.57088 135.855 1.73806 135.688 1.80494C135.554 1.87181 135.387 1.80494 135.32 1.63775C134.986 0.768407 134.016 0.36717 133.147 0.701534L118.401 6.51947L115.492 13.2067L123.684 33.837C123.852 34.2382 124.153 34.5726 124.587 34.7398C124.988 34.907 125.457 34.9404 125.858 34.7732L132.278 32.2655C132.411 32.1986 132.578 32.2655 132.645 32.4327C132.712 32.5664 132.645 32.7336 132.478 32.8005L126.058 35.3416C125.791 35.442 125.523 35.5088 125.256 35.5088Z"/>
</mask>
<path d="M124.353 35.3082L124.707 34.512L124.702 34.51L124.353 35.3082ZM123.149 34.0711L122.339 34.3918L122.344 34.4028L123.149 34.0711ZM114.891 13.2067L114.091 12.8613L113.948 13.1922L114.081 13.5274L114.891 13.2067ZM117.967 6.08479L117.647 5.27449L117.31 5.40736L117.167 5.73933L117.967 6.08479ZM132.946 0.166551L133.266 0.976939L133.278 0.972182L132.946 0.166551ZM135.855 1.43713L135.05 1.76886L135.062 1.7983L135.076 1.82677L135.855 1.43713ZM135.688 1.80494L135.364 0.995995L135.331 1.00945L135.298 1.02566L135.688 1.80494ZM135.32 1.63775L134.507 1.95054L134.511 1.96133L135.32 1.63775ZM133.147 0.701534L132.834 -0.111678L132.827 -0.108918L133.147 0.701534ZM118.401 6.51947L118.082 5.70902L117.746 5.84133L117.603 6.17193L118.401 6.51947ZM115.492 13.2067L114.694 12.8592L114.549 13.1915L114.683 13.5283L115.492 13.2067ZM123.684 33.837L122.875 34.1585L122.877 34.1653L122.88 34.1721L123.684 33.837ZM124.587 34.7398L124.922 33.9356L124.911 33.9309L124.9 33.9266L124.587 34.7398ZM125.858 34.7732L125.541 33.9617L125.532 33.9652L125.523 33.969L125.858 34.7732ZM132.278 32.2655L132.595 33.077L132.632 33.0626L132.667 33.0448L132.278 32.2655ZM132.645 32.4327L131.836 32.7563L131.85 32.7899L131.866 32.8223L132.645 32.4327ZM132.478 32.8005L132.799 33.6106L132.802 33.6094L132.478 32.8005ZM126.058 35.3416L126.364 36.1574L126.372 36.1546L126.379 36.1517L126.058 35.3416ZM125.256 34.6376C125.088 34.6376 124.907 34.601 124.707 34.512L123.999 36.1044C124.401 36.2829 124.822 36.3801 125.256 36.3801V34.6376ZM124.702 34.51C124.373 34.366 124.103 34.0981 123.955 33.7393L122.344 34.4028C122.664 35.1809 123.263 35.7823 124.004 36.1064L124.702 34.51ZM123.96 33.7504L115.701 12.8861L114.081 13.5274L122.339 34.3917L123.96 33.7504ZM115.69 13.5522L118.767 6.43026L117.167 5.73933L114.091 12.8613L115.69 13.5522ZM118.287 6.8951L133.266 0.976856L132.626 -0.643753L117.647 5.27449L118.287 6.8951ZM133.278 0.972182C133.607 0.836635 133.963 0.849553 134.302 0.998194L135.001 -0.598219C134.271 -0.917687 133.422 -0.971641 132.615 -0.639079L133.278 0.972182ZM134.302 0.998194C134.631 1.14216 134.902 1.41013 135.05 1.76886L136.661 1.1054C136.34 0.327306 135.742 -0.274079 135.001 -0.598219L134.302 0.998194ZM135.076 1.82677C134.878 1.43101 135.138 1.08646 135.364 0.995995L136.012 2.61387C136.572 2.38967 136.966 1.71075 136.635 1.0475L135.076 1.82677ZM135.298 1.02566C135.694 0.827783 136.039 1.08803 136.129 1.31418L134.511 1.96133C134.736 2.52185 135.414 2.91583 136.078 2.58421L135.298 1.02566ZM136.133 1.32499C135.617 -0.0176535 134.128 -0.609293 132.834 -0.111648L133.46 1.51472C133.904 1.34363 134.355 1.55447 134.507 1.95052L136.133 1.32499ZM132.827 -0.108918L118.082 5.70902L118.721 7.32992L133.467 1.51199L132.827 -0.108918ZM117.603 6.17193L114.694 12.8592L116.291 13.5543L119.2 6.86701L117.603 6.17193ZM114.683 13.5283L122.875 34.1585L124.494 33.5155L116.302 12.8852L114.683 13.5283ZM122.88 34.1721C123.125 34.7601 123.586 35.2882 124.274 35.553L124.9 33.9266C124.719 33.857 124.578 33.7164 124.489 33.5019L122.88 34.1721ZM124.252 35.544C124.821 35.7811 125.535 35.8517 126.193 35.5775L125.523 33.969C125.378 34.0291 125.156 34.0328 124.922 33.9356L124.252 35.544ZM126.175 35.5848L132.595 33.077L131.961 31.454L125.541 33.9617L126.175 35.5848ZM132.667 33.0448C132.271 33.2426 131.927 32.9824 131.836 32.7563L133.454 32.1091C133.23 31.5486 132.551 31.1546 131.888 31.4862L132.667 33.0448ZM131.866 32.8223C131.668 32.4266 131.928 32.082 132.155 31.9915L132.802 33.6094C133.362 33.3852 133.756 32.7063 133.425 32.043L131.866 32.8223ZM132.158 31.9904L125.738 34.5315L126.379 36.1517L132.799 33.6106L132.158 31.9904ZM125.752 34.5259C125.539 34.6059 125.381 34.6376 125.256 34.6376V36.3801C125.666 36.3801 126.043 36.278 126.364 36.1574L125.752 34.5259Z" fill="black" mask="url(#path-190-inside-2)"/>
<mask id="path-192-inside-3" fill="white">
<path d="M150.903 7.05647H143.514C143.346 7.05647 143.246 6.92272 143.246 6.78898C143.246 6.65523 143.38 6.52148 143.514 6.52148H150.903C151.07 6.52148 151.171 6.65523 151.171 6.78898C151.171 6.92272 151.07 7.05647 150.903 7.05647Z"/>
</mask>
<path d="M150.903 6.18521H143.514V7.92772H150.903V6.18521ZM143.514 6.18521C143.679 6.18521 143.844 6.25785 143.959 6.38415C144.065 6.49917 144.117 6.64404 144.117 6.78898H142.375C142.375 7.33098 142.795 7.92772 143.514 7.92772V6.18521ZM144.117 6.78898C144.117 7.00546 144.018 7.14902 143.946 7.22114C143.874 7.29327 143.73 7.39274 143.514 7.39274V5.65023C143.163 5.65023 142.886 5.81657 142.714 5.98901C142.541 6.16144 142.375 6.43875 142.375 6.78898H144.117ZM143.514 7.39274H150.903V5.65023H143.514V7.39274ZM150.903 7.39274C150.738 7.39274 150.573 7.32011 150.457 7.19381C150.352 7.07879 150.299 6.93392 150.299 6.78898H152.042C152.042 6.24695 151.621 5.65023 150.903 5.65023V7.39274ZM150.299 6.78898C150.299 6.64403 150.352 6.49917 150.457 6.38415C150.573 6.25785 150.738 6.18521 150.903 6.18521V7.92772C151.621 7.92772 152.042 7.33099 152.042 6.78898H150.299Z" fill="black" mask="url(#path-192-inside-3)"/>
<mask id="path-194-inside-4" fill="white">
<path d="M150.903 10.5662H133.416C133.249 10.5662 133.148 10.4325 133.148 10.2987C133.148 10.1316 133.282 10.0312 133.416 10.0312H150.903C151.07 10.0312 151.171 10.165 151.171 10.2987C151.171 10.4325 151.07 10.5662 150.903 10.5662Z"/>
</mask>
<path d="M151.171 10.2987H150.299H151.171ZM150.903 9.69498H133.416V11.4375H150.903V9.69498ZM133.416 9.69498C133.581 9.69498 133.746 9.76761 133.862 9.89391C133.967 10.0089 134.02 10.1538 134.02 10.2987H132.277C132.277 10.8408 132.698 11.4375 133.416 11.4375V9.69498ZM134.02 10.2987C134.02 10.4642 133.947 10.6288 133.821 10.7446C133.706 10.85 133.561 10.9025 133.416 10.9025V9.16C132.874 9.16 132.277 9.58056 132.277 10.2987H134.02ZM133.416 10.9025H150.903V9.16H133.416V10.9025ZM150.903 10.9025C150.738 10.9025 150.573 10.8299 150.457 10.7036C150.352 10.5886 150.299 10.4437 150.299 10.2987H152.042C152.042 9.75672 151.621 9.16 150.903 9.16V10.9025ZM150.299 10.2987C150.299 10.1538 150.352 10.0089 150.457 9.89391C150.573 9.76761 150.738 9.69498 150.903 9.69498V11.4375C151.621 11.4375 152.042 10.8408 152.042 10.2987H150.299Z" fill="black" mask="url(#path-194-inside-4)"/>
<mask id="path-196-inside-5" fill="white">
<path d="M150.971 14.0438H133.517C133.35 14.0438 133.25 13.91 133.25 13.7763C133.25 13.6091 133.384 13.5088 133.517 13.5088H151.005C151.172 13.5088 151.272 13.6425 151.272 13.7763C151.272 13.9435 151.138 14.0438 150.971 14.0438Z"/>
</mask>
<path d="M150.971 13.1725H133.517V14.915H150.971V13.1725ZM133.517 13.1725C133.683 13.1725 133.848 13.2451 133.963 13.3715C134.069 13.4865 134.121 13.6313 134.121 13.7763H132.379C132.379 14.3183 132.799 14.915 133.517 14.915V13.1725ZM134.121 13.7763C134.121 13.9417 134.049 14.1063 133.922 14.2221C133.807 14.3275 133.662 14.38 133.517 14.38V12.6375C132.975 12.6375 132.379 13.0581 132.379 13.7763H134.121ZM133.517 14.38H151.005V12.6375H133.517V14.38ZM151.005 14.38C150.839 14.38 150.675 14.3074 150.559 14.1811C150.453 14.0661 150.401 13.9212 150.401 13.7763H152.143C152.143 13.2343 151.723 12.6375 151.005 12.6375V14.38ZM150.401 13.7763C150.401 13.6073 150.478 13.4295 150.622 13.3076C150.751 13.1979 150.887 13.1725 150.971 13.1725V14.915C151.223 14.915 151.509 14.8394 151.747 14.6378C152 14.4239 152.143 14.1125 152.143 13.7763H150.401Z" fill="black" mask="url(#path-196-inside-5)"/>
<mask id="path-198-inside-6" fill="white">
<path d="M151.067 17.5526H133.58C133.413 17.5526 133.312 17.4188 133.312 17.2851C133.312 17.1179 133.446 17.0176 133.58 17.0176H151.067C151.234 17.0176 151.335 17.1513 151.335 17.2851C151.368 17.4188 151.234 17.5526 151.067 17.5526Z"/>
</mask>
<path d="M151.335 17.2851H150.463V17.3923L150.489 17.4964L151.335 17.2851ZM151.067 16.6813H133.58V18.4238H151.067V16.6813ZM133.58 16.6813C133.745 16.6813 133.91 16.7539 134.026 16.8802C134.131 16.9953 134.184 17.1401 134.184 17.2851H132.441C132.441 17.8271 132.862 18.4238 133.58 18.4238V16.6813ZM134.184 17.2851C134.184 17.4505 134.111 17.6151 133.985 17.7309C133.87 17.8363 133.725 17.8888 133.58 17.8888V16.1463C133.038 16.1463 132.441 16.5669 132.441 17.2851H134.184ZM133.58 17.8888H151.067V16.1463H133.58V17.8888ZM151.067 17.8888C150.902 17.8888 150.737 17.8162 150.621 17.6899C150.516 17.5749 150.463 17.43 150.463 17.2851H152.206C152.206 16.743 151.785 16.1463 151.067 16.1463V17.8888ZM150.489 17.4964C150.416 17.2027 150.545 16.9683 150.66 16.8529C150.775 16.7378 150.922 16.6813 151.067 16.6813V18.4238C151.379 18.4238 151.677 18.3004 151.892 18.085C152.108 17.8693 152.287 17.5012 152.18 17.0738L150.489 17.4964Z" fill="black" mask="url(#path-198-inside-6)"/>
<mask id="path-200-inside-7" fill="white">
<path d="M151.165 21.0311H133.678C133.51 21.0311 133.41 20.8973 133.41 20.7636C133.41 20.6298 133.544 20.4961 133.678 20.4961H151.165C151.332 20.4961 151.432 20.6298 151.432 20.7636C151.432 20.8973 151.299 21.0311 151.165 21.0311Z"/>
</mask>
<path d="M151.165 20.1598H133.678V21.9023H151.165V20.1598ZM133.678 20.1598C133.843 20.1598 134.008 20.2325 134.123 20.3588C134.229 20.4738 134.281 20.6186 134.281 20.7636H132.539C132.539 21.3056 132.959 21.9023 133.678 21.9023V20.1598ZM134.281 20.7636C134.281 20.9801 134.182 21.1236 134.11 21.1958C134.038 21.2679 133.894 21.3673 133.678 21.3673V19.6248C133.327 19.6248 133.05 19.7912 132.878 19.9636C132.705 20.136 132.539 20.4134 132.539 20.7636H134.281ZM133.678 21.3673H151.165V19.6248H133.678V21.3673ZM151.165 21.3673C150.999 21.3673 150.835 21.2947 150.719 21.1684C150.614 21.0534 150.561 20.9085 150.561 20.7636H152.304C152.304 20.2216 151.883 19.6248 151.165 19.6248V21.3673ZM150.561 20.7636C150.561 20.5471 150.661 20.4035 150.733 20.3314C150.805 20.2593 150.948 20.1598 151.165 20.1598V21.9023C151.515 21.9023 151.792 21.736 151.965 21.5636C152.137 21.3911 152.304 21.1138 152.304 20.7636H150.561Z" fill="black" mask="url(#path-200-inside-7)"/>
<mask id="path-202-inside-8" fill="white">
<path d="M151.243 24.5428H133.756C133.589 24.5428 133.488 24.409 133.488 24.2753C133.488 24.1416 133.622 24.0078 133.756 24.0078H151.243C151.41 24.0078 151.511 24.1416 151.511 24.2753C151.511 24.409 151.41 24.5428 151.243 24.5428Z"/>
</mask>
<path d="M151.243 23.6715H133.756V25.414H151.243V23.6715ZM133.756 23.6715C133.921 23.6715 134.086 23.7442 134.202 23.8705C134.307 23.9855 134.36 24.1304 134.36 24.2753H132.617C132.617 24.8173 133.038 25.414 133.756 25.414V23.6715ZM134.36 24.2753C134.36 24.4918 134.26 24.6354 134.188 24.7075C134.116 24.7796 133.972 24.8791 133.756 24.8791V23.1366C133.406 23.1366 133.128 23.3029 132.956 23.4753C132.783 23.6478 132.617 23.9251 132.617 24.2753H134.36ZM133.756 24.8791H151.243V23.1366H133.756V24.8791ZM151.243 24.8791C151.078 24.8791 150.913 24.8064 150.797 24.6801C150.692 24.5651 150.639 24.4202 150.639 24.2753H152.382C152.382 23.7333 151.961 23.1366 151.243 23.1366V24.8791ZM150.639 24.2753C150.639 24.1304 150.692 23.9855 150.797 23.8705C150.913 23.7442 151.078 23.6715 151.243 23.6715V25.414C151.961 25.414 152.382 24.8173 152.382 24.2753H150.639Z" fill="black" mask="url(#path-202-inside-8)"/>
<mask id="path-204-inside-9" fill="white">
<path d="M143.517 28.0213H133.853C133.686 28.0213 133.586 27.8876 133.586 27.7538C133.586 27.5866 133.72 27.4863 133.853 27.4863H143.517C143.684 27.4863 143.784 27.6201 143.784 27.7538C143.784 27.921 143.684 28.0213 143.517 28.0213Z"/>
</mask>
<path d="M143.784 27.7538H142.913H143.784ZM143.517 27.1501H133.853V28.8926H143.517V27.1501ZM133.853 27.1501C134.019 27.1501 134.183 27.2227 134.299 27.349C134.405 27.464 134.457 27.6089 134.457 27.7538H132.715C132.715 28.2958 133.135 28.8926 133.853 28.8926V27.1501ZM134.457 27.7538C134.457 27.9192 134.385 28.0839 134.258 28.1996C134.143 28.3051 133.998 28.3576 133.853 28.3576V26.6151C133.311 26.6151 132.715 27.0357 132.715 27.7538H134.457ZM133.853 28.3576H143.517V26.6151H133.853V28.3576ZM143.517 28.3576C143.351 28.3576 143.187 28.2849 143.071 28.1586C142.965 28.0436 142.913 27.8988 142.913 27.7538H144.655C144.655 27.2118 144.235 26.6151 143.517 26.6151V28.3576ZM142.913 27.7538C142.913 27.6627 142.944 27.4876 143.097 27.3342C143.25 27.1808 143.425 27.1501 143.517 27.1501V28.8926C143.775 28.8926 144.084 28.8117 144.329 28.5663C144.574 28.321 144.655 28.0121 144.655 27.7538H142.913Z" fill="black" mask="url(#path-204-inside-9)"/>
</g>
<g clip-path="url(#clip3)">
<path d="M257.701 125.201L272.434 112.89C271.672 112.271 270.678 111.917 269.641 111.969L245.049 113.127C243.921 113.187 242.905 113.71 242.167 114.494L256.598 125.25C256.918 125.459 257.363 125.45 257.701 125.201Z" fill="#F0A202"/>
<path d="M271.569 133.745L271.565 133.745L245.216 134.991C245.216 134.991 245.216 134.991 245.216 134.992C243.565 135.064 242.179 133.785 242.117 132.167L242.117 132.162L241.366 116.574C241.366 116.573 241.366 116.573 241.366 116.573C241.294 114.922 242.573 113.536 244.191 113.475L244.195 113.475L270.531 112.202C270.532 112.202 270.532 112.202 270.532 112.202C272.183 112.129 273.569 113.408 273.63 115.027L273.631 115.031L274.382 130.619C274.382 130.62 274.382 130.62 274.382 130.62C274.454 132.277 273.181 133.684 271.569 133.745ZM244.198 113.484L244.198 113.484L244.194 113.484C242.586 113.574 241.312 114.932 241.402 116.559C241.402 116.56 241.402 116.56 241.402 116.561L242.126 132.159L242.126 132.159L242.126 132.163C242.216 133.779 243.568 135.015 245.195 134.956L245.195 134.956L245.2 134.956L271.55 133.71L271.55 133.71L271.554 133.709C273.169 133.619 274.405 132.268 274.346 130.641L274.346 130.641L274.346 130.635L273.595 115.045L273.595 115.042C273.505 113.427 272.153 112.19 270.526 112.249L270.521 112.249L244.198 113.484Z" stroke="black" stroke-width="0.871255"/>
<path d="M257.204 125.494L257.204 125.494L257.19 125.495C256.963 125.512 256.73 125.444 256.515 125.282L256.514 125.281L242.184 114.522C242.178 114.517 242.175 114.513 242.173 114.51C242.171 114.506 242.17 114.502 242.169 114.499C242.169 114.497 242.169 114.496 242.169 114.494C242.171 114.493 242.172 114.493 242.173 114.492C242.177 114.49 242.18 114.489 242.183 114.488C242.189 114.488 242.193 114.489 242.195 114.49L256.536 125.274C256.9 125.564 257.451 125.552 257.791 125.228L272.389 112.89C272.394 112.886 272.4 112.884 272.405 112.882C272.407 112.881 272.409 112.881 272.41 112.881L272.414 112.885C272.418 112.891 272.422 112.897 272.424 112.904C272.424 112.906 272.425 112.907 272.425 112.909L272.419 112.913L272.41 112.921L257.823 125.261C257.822 125.262 257.822 125.262 257.821 125.263C257.643 125.409 257.431 125.484 257.204 125.494Z" stroke="black" stroke-width="0.871255"/>
<path d="M276.612 113.184C276.718 115.481 274.965 117.429 272.669 117.536C270.373 117.642 268.424 115.889 268.318 113.593C268.211 111.296 269.964 109.348 272.261 109.241C274.557 109.135 276.505 110.888 276.612 113.184Z" fill="#EE6C4D"/>
</g>
<defs>
<clipPath id="clip0">
<rect width="26.8078" height="21.5352" fill="white" transform="translate(0.957031 116.806)"/>
</clipPath>
<clipPath id="clip1">
<rect width="26.8078" height="26.8078" fill="white" transform="translate(253.719 47.8711)"/>
</clipPath>
<clipPath id="clip2">
<rect width="39.2543" height="35.5095" fill="white" transform="translate(114.891)"/>
</clipPath>
<clipPath id="clip3">
<rect width="40.2118" height="31.0514" fill="white" transform="translate(234.57 117.09) rotate(-24.3204)"/>
</clipPath>
</defs>
</svg>
