<svg width="207" height="46" viewBox="0 0 207 46" fill="none" xmlns="http://www.w3.org/2000/svg">
<path d="M25.7069 22.8594L16.1558 19.5538L0 13.9565V36.1629L12.0427 40.3405C13.1366 40.7196 14.3072 40.8037 15.442 40.5847C16.5767 40.3657 17.6375 39.8509 18.5222 39.0899L27.2955 31.5662C27.9708 30.9879 28.4837 30.2355 28.7813 29.3864C29.0789 28.5374 29.1505 27.6223 28.9887 26.7354C28.8268 25.8486 28.4375 25.0219 27.8607 24.3407C27.2839 23.6594 26.5404 23.1481 25.7069 22.8594Z" fill="#2898A4"/>
<path d="M15.6401 16.6594L21.5744 18.6068L27.2911 14.0078C27.9669 13.4661 28.4805 12.761 28.7791 11.965C29.0777 11.169 29.1505 10.3108 28.99 9.47875C28.8295 8.6467 28.4415 7.87079 27.866 7.23083C27.2904 6.59087 26.548 6.10996 25.7152 5.83756L14.8225 2.32333L8.71679 0.337851C7.72431 0.0131063 6.66565 -0.0792972 5.62862 0.0683062C4.5916 0.21591 3.6061 0.599265 2.75388 1.18657C1.90166 1.77388 1.20728 2.54821 0.728349 3.44533C0.249414 4.34245 -0.000272698 5.33651 2.23497e-07 6.34503V11.5783L15.6401 16.6594Z" fill="#FF7372"/>
<path d="M61.6362 28.7501C61.6362 33.9157 58.7044 37.2167 52.035 37.2167H40.7036V6.98071H51.1567C57.5422 6.98071 60.0118 9.95226 60.0118 14.9334C60.0118 17.8193 59.7345 19.9541 57.4497 21.1664C60.5203 22.2799 61.6362 24.7968 61.6362 28.7501ZM56.8818 28.144C56.8818 25.5084 54.8348 23.8151 51.6586 23.8151H45.4118V32.4267H51.2426C54.8348 32.4267 56.8818 30.8915 56.8818 28.144ZM45.4646 11.7247V19.6312H50.5426C53.4811 19.6312 55.2508 18.1883 55.2508 15.6779C55.2508 13.1676 53.5273 11.7247 50.5426 11.7247H45.4646Z" fill="#0B0B0B"/>
<path d="M67.5646 7.20653C67.3547 6.36982 67.4326 5.48948 67.7866 4.69972C68.1405 3.90997 68.7511 3.25414 69.5252 2.83221C70.2992 2.41028 71.1943 2.24542 72.074 2.36274C72.9537 2.48007 73.7697 2.87315 74.3975 3.48206C75.0254 4.09098 75.4307 4.8823 75.5517 5.7354C75.6727 6.5885 75.5027 7.45657 75.0676 8.20725C74.6326 8.95793 73.9563 9.55005 73.1419 9.89332C72.3276 10.2366 71.4198 10.3122 70.5571 10.1086C69.8318 9.93742 69.1691 9.57618 68.6414 9.06436C68.1136 8.55254 67.7411 7.90984 67.5646 7.20653ZM68.3546 35.4737V15.8087C68.3537 15.5797 68.3995 15.3528 68.4892 15.1409C68.579 14.9291 68.711 14.7365 68.8777 14.5742C69.0444 14.412 69.2425 14.2832 69.4606 14.1954C69.6787 14.1076 69.9125 14.0623 70.1487 14.0623H72.8934C73.1234 14.0623 73.3512 14.1064 73.5636 14.1919C73.776 14.2775 73.969 14.4029 74.1313 14.5609C74.2936 14.719 74.4222 14.9065 74.5096 15.1129C74.597 15.3192 74.6416 15.5402 74.6407 15.7633V35.4218C74.6389 35.8965 74.4437 36.3513 74.0976 36.6869C73.7514 37.0226 73.2825 37.2119 72.793 37.2136H70.1152C69.6452 37.2051 69.1974 37.0181 68.8682 36.6927C68.5389 36.3673 68.3545 35.9296 68.3546 35.4737Z" fill="#0B0B0B"/>
<path d="M77.917 35.4054V33.7951C77.917 32.8759 78.4562 32.2761 79.5026 31.1287L89.9217 18.5136H80.0676C79.8329 18.5418 79.595 18.5164 79.3713 18.4393C79.1476 18.3621 78.9436 18.2352 78.7744 18.0677C78.6052 17.9002 78.475 17.6965 78.3933 17.4713C78.3116 17.2462 78.2804 17.0053 78.3022 16.7664V15.6646C78.3013 15.4406 78.344 15.2187 78.4279 15.0115C78.5117 14.8043 78.635 14.6159 78.7906 14.4572C78.9463 14.2985 79.1313 14.1726 79.335 14.0867C79.5387 14.0008 79.7571 13.9565 79.9777 13.9565H95.2564C95.7252 13.9583 96.1742 14.1486 96.5051 14.4859C96.836 14.8231 97.0218 15.2798 97.0218 15.7559V17.3336C97.0218 18.2528 96.4312 18.9439 95.4361 20.0913L85.2996 32.6477H95.9561C96.4124 32.6477 96.85 32.8318 97.1727 33.1594C97.4953 33.4871 97.6766 33.9315 97.6766 34.3949V35.4575C97.7032 35.6935 97.6771 35.9326 97.6 36.1569C97.523 36.3812 97.3971 36.585 97.2317 36.7529C97.0663 36.9209 96.8657 37.0488 96.6448 37.127C96.4239 37.2052 96.1885 37.2318 95.9561 37.2047H79.6824C79.2136 37.203 78.7646 37.0127 78.4337 36.6754C78.1028 36.3382 77.917 35.8815 77.917 35.4054Z" fill="#0B0B0B"/>
<path d="M112.753 32.7421C114.836 32.7417 116.857 32.0411 118.481 30.7562C119.289 30.1298 119.919 30.0045 120.639 30.7562L121.714 31.815C122.567 32.6544 122.211 33.3185 121.714 33.8509C119.423 36.15 115.419 37.215 112.231 37.215C105.497 37.215 100.016 32.6669 100.01 25.6005C100.028 23.3306 100.714 21.1145 101.985 19.2207C103.257 17.327 105.059 15.8369 107.174 14.9311C109.289 14.0254 111.625 13.7428 113.9 14.1176C116.175 14.4925 118.29 15.5087 119.99 17.0431C121.049 18.1056 121.884 19.3639 122.446 20.7455C123.009 22.1272 123.288 23.6047 123.267 25.0931C123.267 26.346 122.771 26.9098 121.428 26.9098H105.878C106.235 30.6999 109.29 32.7421 112.753 32.7421ZM105.923 23.2826H117.424C117.262 22.0209 116.696 20.8427 115.808 19.9185C115.272 19.3719 114.625 18.9434 113.908 18.6615C113.192 18.3797 112.422 18.2508 111.651 18.2835C108.571 18.2835 106.369 20.2255 105.923 23.2826Z" fill="#0B0B0B"/>
<path d="M179.091 15.9695V34.4109C179.091 41.9203 173.662 45.3555 167.023 45.3555C162.362 45.3555 159.065 43.7486 156.671 41.1611C156.489 41.0184 156.343 40.8361 156.244 40.6285C156.145 40.4209 156.095 40.1935 156.1 39.964C156.104 39.7345 156.162 39.509 156.269 39.3052C156.375 39.1014 156.528 38.9246 156.716 38.7887L157.573 37.8334C158.214 37.2008 159.02 37.03 159.923 37.8777C160.831 38.852 161.936 39.6261 163.167 40.1494C164.398 40.6727 165.727 40.9333 167.068 40.9144C170.544 40.9144 173.527 39.1746 173.527 35.3788V32.6711C171.581 34.1992 169.162 35.019 166.677 34.9929C160.486 34.9929 155.832 30.4822 155.832 24.4975C155.832 18.5127 160.486 13.9577 166.715 13.9577C169.44 13.9174 172.076 14.9089 174.084 16.7287V16.0138C174.083 15.7906 174.127 15.5695 174.213 15.363C174.299 15.1566 174.425 14.9689 174.584 14.8108C174.744 14.6527 174.933 14.5273 175.142 14.4417C175.35 14.3561 175.574 14.312 175.8 14.312H177.381C177.604 14.3078 177.826 14.3476 178.033 14.429C178.24 14.5104 178.429 14.6318 178.588 14.7861C178.747 14.9405 178.874 15.1246 178.96 15.3278C179.046 15.531 179.091 15.7492 179.091 15.9695ZM173.892 24.4975C173.926 23.708 173.795 22.9201 173.506 22.183C173.218 21.446 172.779 20.7756 172.216 20.2139C171.654 19.6522 170.98 19.2112 170.238 18.9185C169.495 18.6258 168.699 18.4876 167.9 18.5127C166.321 18.5152 164.805 19.1235 163.672 20.2094C162.538 21.2952 161.876 22.7737 161.824 24.333C161.789 25.1305 161.917 25.9268 162.199 26.6748C162.481 27.4227 162.912 28.1072 163.467 28.6875C164.021 29.2678 164.688 29.7322 165.428 30.0533C166.167 30.3743 166.965 30.5454 167.772 30.5564C168.58 30.5674 169.382 30.4181 170.13 30.1174C170.878 29.8166 171.558 29.3705 172.129 28.8056C172.699 28.2406 173.149 27.5682 173.452 26.8282C173.755 26.0882 173.905 25.2956 173.892 24.4975Z" fill="#0B0B0B"/>
<path d="M196.481 32.741C198.566 32.7426 200.588 32.0416 202.211 30.7547C203.026 30.1281 203.65 30.0027 204.369 30.7547L205.452 31.8136C206.305 32.6533 205.942 33.3175 205.452 33.8501C203.16 36.1498 199.155 37.215 195.965 37.215C189.23 37.215 183.748 32.6658 183.741 25.5977C183.76 23.3284 184.447 21.1132 185.719 19.2202C186.99 17.3272 188.792 15.8377 190.906 14.9319C193.02 14.0262 195.356 13.7431 197.63 14.1169C199.904 14.4907 202.02 15.5054 203.72 17.0381C204.779 18.1009 205.615 19.3595 206.177 20.7415C206.74 22.1235 207.019 23.6014 206.999 25.0901C206.999 26.3433 206.502 26.9073 205.153 26.9073H189.605C189.962 30.6983 193.018 32.741 196.481 32.741ZM189.65 23.2792H201.154C200.992 22.0171 200.425 20.8387 199.537 19.9143C199.004 19.3699 198.359 18.9428 197.646 18.6609C196.933 18.379 196.167 18.2488 195.399 18.2788C192.298 18.2788 190.095 20.2213 189.65 23.2792Z" fill="#0B0B0B"/>
<path d="M148.648 4.65332C147.475 4.65332 146.35 5.13257 145.52 5.98565C144.691 6.83873 144.224 7.99575 144.224 9.20218V15.851C142.346 14.4234 140.07 13.654 137.734 13.6559C131.343 13.6559 126.778 18.7884 126.759 25.3992C126.741 32.0099 131.633 37.3582 137.981 37.2123C139.308 37.1961 140.618 36.8974 141.827 36.3351C143.037 35.7728 144.12 34.959 145.008 33.945V34.9791C145.008 35.4182 145.178 35.8394 145.48 36.15C145.782 36.4605 146.191 36.6349 146.618 36.6349H148.364C148.582 36.6349 148.797 36.5908 148.998 36.5049C149.199 36.4191 149.382 36.2933 149.535 36.1347C149.689 35.9761 149.811 35.788 149.893 35.5809C149.976 35.3739 150.018 35.1521 150.018 34.9283V4.65332H148.648ZM138.536 32.0226C134.878 32.0226 132.484 29.1106 132.484 25.4373C132.484 21.7639 134.878 18.8075 138.536 18.8075C141.849 18.8075 144.551 21.1802 144.551 25.4373C144.551 29.6943 141.874 32.0226 138.536 32.0226Z" fill="#0B0B0B"/>
</svg>
